<svg width="25" height="22" viewBox="0 0 25 22" fill="white" xmlns="http://www.w3.org/2000/svg">
<path fill-rule="evenodd" clip-rule="evenodd" d="M13.5687 0.119971C13.3866 0.199174 13.2211 0.315255 13.0818 0.461565C12.9422 0.607505 12.8314 0.780876 12.7558 0.971748C12.6803 1.16262 12.6414 1.36724 12.6414 1.57389C12.6414 1.78055 12.6803 1.98517 12.7558 2.17604C12.8314 2.36691 12.9422 2.54028 13.0818 2.68622L19.1095 9H1.95889C1.53454 9 1.12757 9.21071 0.827516 9.58579C0.527458 9.96086 0.358887 10.4696 0.358887 11C0.358887 11.5304 0.527458 12.0391 0.827516 12.4142C1.12757 12.7893 1.53454 13 1.95889 13H19.1103L13.0818 19.3146C12.8003 19.6096 12.6421 20.0097 12.6421 20.4269C12.6421 20.8441 12.8003 21.2443 13.0818 21.5393C13.3634 21.8343 13.7452 22 14.1434 22C14.5415 22 14.9234 21.8343 15.2049 21.5393L24.2009 12.1127C24.3405 11.9668 24.4513 11.7934 24.5269 11.6026C24.6024 11.4117 24.6414 11.2071 24.6414 11.0004C24.6414 10.7938 24.6024 10.5891 24.5269 10.3983C24.4513 10.2074 24.3405 10.034 24.2009 9.88808L15.2049 0.461565C15.0656 0.315255 14.9002 0.199174 14.718 0.119971C14.5359 0.0407677 14.3406 0 14.1434 0C13.9461 0 13.7509 0.0407677 13.5687 0.119971Z" />
</svg>
