<svg width="141" height="182" viewBox="0 0 141 182" fill="none" xmlns="http://www.w3.org/2000/svg">
<g filter="url(#filter0_d)">
<path d="M70.6123 26.562C48.3304 26.562 30.3022 43.8072 30.3022 65.0582C30.3022 86.3092 70.6123 147.211 70.6123 147.211C70.6123 147.211 110.922 86.3092 110.922 65.0582C110.922 43.8072 92.8943 26.562 70.6123 26.562Z" fill="#F58021"/>
<path d="M61.0228 86.5528C64.2844 85.7814 66.3465 83.6161 68.4355 81.3154C68.1525 81.2343 67.9368 81.1666 67.7212 81.1125C64.8505 80.3817 62.2088 79.1366 59.7828 77.445C58.2868 76.4029 57.0603 75.0902 56.1304 73.4933C56.0091 73.2903 55.9147 73.0738 55.8204 72.8573C55.7934 72.8031 55.7934 72.7355 55.7665 72.546C56.683 72.8302 57.5455 73.1009 58.3946 73.3715C58.4216 73.3445 58.4351 73.3309 58.462 73.3039C58.3677 73.2227 58.2868 73.1415 58.1925 73.0738C57.0873 72.3565 56.0091 71.6122 54.8904 70.9356C53.61 70.1507 52.2623 69.474 51.0223 68.662C49.3645 67.5658 48.192 66.0231 47.3429 64.2367C47.3025 64.1555 47.289 64.0743 47.2755 63.9931C47.262 63.9525 47.2755 63.8984 47.2755 63.7766C48.6502 64.372 49.9306 65.2111 51.521 65.0622C48.3942 63.2623 46.4534 60.7452 46.5881 56.9559C47.9224 58.431 49.2298 59.8926 50.5371 61.3541C50.5641 61.3271 50.6045 61.2865 50.6315 61.2594C50.0923 60.2038 49.4589 59.1753 49.0546 58.0656C48.6502 56.9559 48.3807 55.7514 48.2459 54.5741C48.1111 53.3967 48.2189 52.1922 48.2189 51.0013C48.2863 50.9878 48.3537 50.9878 48.4076 50.9743C49.0411 52.4088 49.6745 53.8433 50.308 55.2913C50.3754 55.2913 50.4428 55.2778 50.5102 55.2778C50.4832 52.6659 50.7662 50.1081 51.9657 47.7669C52.0197 47.7669 52.0736 47.7669 52.1275 47.7805C52.1275 48.3624 52.1544 48.9308 52.1275 49.5127C51.9792 52.3682 53.0709 54.8041 54.7017 57.0236C55.7934 58.4987 57.1412 59.7302 58.5968 60.8399C60.5106 62.3015 62.6536 63.3706 64.7965 64.4262C66.7912 65.4005 68.5433 66.7268 70.1876 68.2154C71.185 69.1221 72.2228 69.9747 73.2471 70.8544C73.5301 71.098 73.8131 71.3686 74.1366 71.6664C74.6622 70.4484 75.1474 69.3116 75.6326 68.1613C76.8052 65.4276 78.5708 63.127 80.7542 61.1376C82.4928 59.5542 84.2584 58.025 85.997 56.4552C88.3556 54.3169 89.8247 51.6644 90.2964 48.4977C90.4716 47.3745 90.3907 46.1971 90.4312 45.0603C90.4312 44.8708 90.4312 44.6678 90.4986 44.4648C91.3476 46.4136 91.5903 48.4706 91.7924 50.6089C92.628 48.9037 93.4502 47.1985 94.2858 45.4798C94.3532 45.4934 94.4206 45.5069 94.4745 45.5204C94.3801 47.2662 94.3667 49.012 94.1645 50.7442C93.9623 52.4629 93.5715 54.1545 93.2615 55.792C93.6793 55.1425 94.1645 54.3981 94.7306 53.5455C94.771 55.2101 94.7171 56.7123 94.0162 58.1333C93.3289 59.5407 92.2237 60.5963 91.0242 61.6383C91.6846 61.7737 92.2102 61.5436 92.7224 61.2865C93.2211 61.0429 93.6793 60.7452 94.2588 60.4068C94.2049 60.664 94.178 60.8399 94.1241 61.0023C93.3963 62.9781 92.2641 64.6833 90.5659 65.9419C89.5282 66.7268 88.423 67.417 87.3987 68.2019C86.7518 68.7026 86.2935 69.0139 86.2666 69.7041C86.6978 69.5552 87.1157 69.4199 87.6143 69.2575C86.7787 72.1265 84.5684 73.8858 82.641 75.9428C82.8297 76.024 82.978 76.0781 83.1262 76.1458C84.0832 76.5383 84.8918 77.1337 85.4444 78.0269C85.8622 78.69 85.9566 79.3938 85.7814 80.1651C85.7274 80.3952 85.8622 80.7065 86.0105 80.9095C86.4687 81.6132 86.5361 82.3304 86.1318 83.0612C85.7409 83.7785 85.094 84.1303 84.2449 84.1845C84.9188 82.9665 84.8918 82.6958 83.9753 82.0462C83.881 82.547 83.7867 83.0206 83.6923 83.5213C83.0858 83.0206 82.5602 82.4252 81.8998 82.0733C81.2259 81.7214 80.4307 81.6267 79.622 81.3966C79.6625 81.5726 79.6625 81.6808 79.7029 81.7756C80.2959 83.2777 80.8485 84.807 81.5224 86.2821C81.765 86.8234 82.2502 87.2835 82.695 87.6895C83.1128 88.0685 83.4093 87.9331 83.571 87.3783C83.6788 86.9858 83.7193 86.5798 83.7866 86.1874C83.854 85.8355 84.0427 85.6866 84.2853 85.7949C84.3392 86.1197 84.4066 86.3768 84.4201 86.634C84.4336 86.9046 84.4336 87.1888 84.3797 87.4459C84.3258 87.676 84.1775 87.8925 84.0697 88.1091C84.0966 88.1497 84.1371 88.1767 84.164 88.2173C84.5279 87.9737 84.9053 87.7301 85.2557 87.473C85.4309 87.3377 85.5657 87.1617 85.7274 87.0129C86.3609 86.431 86.6709 86.4716 87.1156 87.2429C86.873 87.2159 86.6574 87.1753 86.4283 87.1482C86.3878 88.1497 85.3366 88.1361 84.9053 88.8128C85.4175 88.7857 85.8757 88.7451 86.3339 88.7451C87.0348 88.7451 87.3178 89.0699 87.183 89.7872C86.9809 89.3 86.6439 89.3676 86.3205 89.503C85.6331 89.7872 84.9323 89.6924 84.2314 89.5977C83.4632 89.4894 82.7758 89.5977 82.1154 90.0578C81.6841 90.3691 81.2394 90.6668 80.6194 90.5315C80.4846 90.5044 80.242 90.951 80.0668 91.1675C79.7838 90.7886 79.7972 90.4232 80.269 90.1255C80.5655 89.936 80.9159 89.8413 81.2394 89.706C81.4415 89.6248 81.6572 89.5571 81.8324 89.4218C82.2232 89.124 82.2232 88.9346 81.8459 88.6369C80.9159 87.879 79.9859 87.1347 79.056 86.3768C78.9751 86.3092 78.8808 86.255 78.7999 86.2415C77.5734 86.1332 76.8995 85.3212 76.3874 84.3333C76.2796 84.1168 76.1987 83.8191 75.9022 84.0085C75.7404 84.1168 75.5652 84.4416 75.6192 84.604C75.9022 85.6731 76.5222 86.5122 77.4791 87.0535C77.8969 86.9858 77.9778 85.9573 78.5708 86.5798C78.5169 86.8099 78.4764 86.9452 78.4495 87.0805C78.6112 87.1076 78.7864 87.1753 78.9481 87.1617C79.2177 87.1617 79.4873 87.1076 79.7568 87.0805C79.7703 87.1347 79.7838 87.2023 79.7972 87.2565C79.6086 87.3512 79.4199 87.4459 79.1638 87.5813C80.4577 87.6489 80.4577 87.6489 80.5116 88.3391C80.0938 87.9331 79.6894 88.2579 79.2851 88.3121C78.3686 88.4203 77.7352 88.8534 77.3982 89.7601C77.2904 90.0443 76.9939 90.2473 76.7243 90.5586C76.7378 90.5992 76.7782 90.7345 76.8052 90.8833C76.2256 90.6803 76.0909 90.3962 76.3739 89.8819C76.5895 89.4894 76.8726 89.124 77.1287 88.7451C77.3578 88.4068 77.3578 88.1226 76.9265 87.9331C76.2256 87.6219 75.6326 87.1212 74.8105 87.04C74.5005 87.0129 74.2309 86.5934 73.921 86.3227C73.7727 86.5663 73.5705 86.8505 73.4088 87.1753C72.9371 88.1361 72.1419 88.718 71.1445 88.9887C68.0042 89.8548 65.0391 89.3676 62.2762 87.6489C61.818 87.3783 61.481 86.9587 61.0228 86.5528Z" fill="#20113D"/>
</g>
<defs>
<filter id="filter0_d" x="-9" y="-8" width="160" height="204" filterUnits="userSpaceOnUse" color-interpolation-filters="sRGB">
<feFlood flood-opacity="0" result="BackgroundImageFix"/>
<feColorMatrix in="SourceAlpha" type="matrix" values="0 0 0 0 0 0 0 0 0 0 0 0 0 0 0 0 0 0 127 0"/>
<feOffset dy="4"/>
<feGaussianBlur stdDeviation="15"/>
<feColorMatrix type="matrix" values="0 0 0 0 0.960784 0 0 0 0 0.501961 0 0 0 0 0.129412 0 0 0 0.7 0"/>
<feBlend mode="normal" in2="BackgroundImageFix" result="effect1_dropShadow"/>
<feBlend mode="normal" in="SourceGraphic" in2="effect1_dropShadow" result="shape"/>
</filter>
</defs>
</svg>
