<svg width="160" height="202" viewBox="0 0 160 202" fill="none" xmlns="http://www.w3.org/2000/svg">
<g filter="url(#filter0_d)">
<path d="M79.6123 34.4434C57.3304 34.4434 39.3022 51.4491 39.3022 72.4049C39.3022 93.3608 79.6123 153.416 79.6123 153.416C79.6123 153.416 119.922 93.3608 119.922 72.4049C119.922 51.4491 101.894 34.4434 79.6123 34.4434Z" fill="white"/>
<path d="M70.0228 93.6005C73.2844 92.8398 75.3465 90.7046 77.4355 88.436C77.1525 88.3559 76.9369 88.2892 76.7212 88.2358C73.8505 87.5151 71.2088 86.2874 68.7828 84.6193C67.2868 83.5917 66.0603 82.2972 65.1304 80.7225C65.0091 80.5223 64.9147 80.3088 64.8204 80.0953C64.7934 80.0419 64.7934 79.9751 64.7665 79.7883C65.6829 80.0686 66.5455 80.3355 67.3946 80.6024C67.4216 80.5757 67.4351 80.5623 67.462 80.5356C67.3677 80.4556 67.2868 80.3755 67.1925 80.3088C66.0873 79.6015 65.0091 78.8675 63.8904 78.2002C62.61 77.4262 61.2623 76.759 60.0223 75.9583C58.3645 74.8773 57.192 73.356 56.3429 71.5944C56.3025 71.5143 56.289 71.4343 56.2755 71.3542C56.262 71.3142 56.2755 71.2608 56.2755 71.1407C57.6502 71.7279 58.9306 72.5553 60.521 72.4085C57.3942 70.6336 55.4534 68.1514 55.5881 64.4147C56.9224 65.8693 58.2298 67.3106 59.5371 68.7519C59.5641 68.7252 59.6045 68.6852 59.6315 68.6585C59.0923 67.6176 58.4589 66.6033 58.0546 65.509C57.6502 64.4147 57.3807 63.227 57.2459 62.066C57.1111 60.905 57.2189 59.7172 57.2189 58.5429C57.2863 58.5295 57.3537 58.5295 57.4076 58.5162C58.0411 59.9308 58.6745 61.3453 59.308 62.7733C59.3754 62.7733 59.4428 62.7599 59.5102 62.7599C59.4832 60.1843 59.7662 57.6621 60.9657 55.3534C61.0197 55.3534 61.0736 55.3534 61.1275 55.3667C61.1275 55.9406 61.1544 56.5011 61.1275 57.0749C60.9792 59.8907 62.0709 62.2928 63.7017 64.4814C64.7934 65.9361 66.1412 67.1505 67.5968 68.2448C69.5106 69.6861 71.6536 70.7403 73.7965 71.7812C75.7912 72.7421 77.5433 74.0499 79.1876 75.5179C80.185 76.412 81.2228 77.2527 82.2471 78.1202C82.5301 78.3604 82.8131 78.6273 83.1366 78.9209C83.6622 77.7198 84.1474 76.5988 84.6326 75.4645C85.8052 72.7688 87.5708 70.5001 89.7542 68.5384C91.4928 66.977 93.2584 65.469 94.997 63.921C97.3556 61.8124 98.8247 59.1968 99.2964 56.074C99.4716 54.9664 99.3907 53.8053 99.4312 52.6844C99.4312 52.4975 99.4312 52.2973 99.4986 52.0972C100.348 54.0189 100.59 56.0473 100.792 58.1559C101.628 56.4744 102.45 54.7929 103.286 53.0981C103.353 53.1114 103.421 53.1247 103.474 53.1381C103.38 54.8596 103.367 56.5811 103.164 58.2893C102.962 59.9841 102.571 61.6523 102.261 63.267C102.679 62.6265 103.164 61.8925 103.731 61.0518C103.771 62.6932 103.717 64.1745 103.016 65.5758C102.329 66.9636 101.224 68.0046 100.024 69.0321C100.685 69.1656 101.21 68.9387 101.722 68.6852C102.221 68.445 102.679 68.1514 103.259 67.8177C103.205 68.0713 103.178 68.2448 103.124 68.4049C102.396 70.3533 101.264 72.0348 99.5659 73.2759C98.5282 74.0499 97.423 74.7305 96.3987 75.5045C95.7517 75.9983 95.2935 76.3052 95.2666 76.9858C95.6978 76.839 96.1156 76.7056 96.6143 76.5454C95.7787 79.3746 93.5684 81.1095 91.641 83.1379C91.8297 83.218 91.978 83.2714 92.1262 83.3381C93.0832 83.7251 93.8918 84.3123 94.4444 85.1931C94.8622 85.847 94.9566 86.541 94.7814 87.3016C94.7274 87.5285 94.8622 87.8354 95.0105 88.0356C95.4687 88.7296 95.5361 89.4368 95.1318 90.1575C94.7409 90.8648 94.094 91.2117 93.2449 91.2651C93.9188 90.0641 93.8918 89.7972 92.9753 89.1566C92.881 89.6504 92.7867 90.1174 92.6923 90.6112C92.0858 90.1174 91.5602 89.5303 90.8998 89.1833C90.2259 88.8363 89.4307 88.7429 88.622 88.516C88.6625 88.6895 88.6625 88.7963 88.7029 88.8897C89.2959 90.371 89.8485 91.879 90.5224 93.3336C90.765 93.8674 91.2502 94.3212 91.695 94.7215C92.1128 95.0952 92.4093 94.9617 92.571 94.4146C92.6788 94.0276 92.7193 93.6272 92.7866 93.2402C92.854 92.8932 93.0427 92.7464 93.2853 92.8532C93.3392 93.1735 93.4066 93.427 93.4201 93.6806C93.4336 93.9475 93.4336 94.2277 93.3797 94.4813C93.3258 94.7082 93.1775 94.9217 93.0697 95.1352C93.0966 95.1752 93.1371 95.2019 93.164 95.242C93.5279 95.0018 93.9053 94.7616 94.2557 94.508C94.4309 94.3745 94.5657 94.2011 94.7274 94.0543C95.3609 93.4804 95.6709 93.5205 96.1156 94.2811C95.873 94.2544 95.6574 94.2144 95.4283 94.1877C95.3878 95.1753 94.3366 95.1619 93.9053 95.8292C94.4175 95.8025 94.8757 95.7624 95.3339 95.7624C96.0348 95.7624 96.3178 96.0827 96.183 96.79C95.9809 96.3096 95.6439 96.3763 95.3205 96.5098C94.6331 96.79 93.9323 96.6966 93.2314 96.6032C92.4632 96.4964 91.7758 96.6032 91.1154 97.0569C90.6841 97.3639 90.2394 97.6574 89.6194 97.524C89.4846 97.4973 89.242 97.9377 89.0668 98.1512C88.7838 97.7776 88.7972 97.4172 89.269 97.1236C89.5655 96.9368 89.9159 96.8434 90.2394 96.7099C90.4415 96.6299 90.6572 96.5631 90.8324 96.4297C91.2232 96.1361 91.2232 95.9493 90.8459 95.6557C89.9159 94.9083 88.9859 94.1744 88.056 93.427C87.9751 93.3603 87.8808 93.3069 87.7999 93.2936C86.5734 93.1868 85.8995 92.3861 85.3874 91.4119C85.2796 91.1984 85.1987 90.9048 84.9022 91.0916C84.7404 91.1984 84.5652 91.5187 84.6192 91.6788C84.9022 92.7331 85.5222 93.5605 86.4791 94.0943C86.8969 94.0276 86.9778 93.0133 87.5708 93.6272C87.5169 93.8541 87.4764 93.9875 87.4495 94.121C87.6112 94.1477 87.7864 94.2144 87.9481 94.2011C88.2177 94.2011 88.4873 94.1477 88.7568 94.121C88.7703 94.1744 88.7838 94.2411 88.7972 94.2945C88.6086 94.3879 88.4199 94.4813 88.1638 94.6148C89.4577 94.6815 89.4577 94.6815 89.5116 95.3621C89.0938 94.9617 88.6894 95.282 88.2851 95.3354C87.3686 95.4422 86.7352 95.8692 86.3982 96.7633C86.2904 97.0436 85.9939 97.2437 85.7243 97.5507C85.7378 97.5907 85.7782 97.7242 85.8052 97.871C85.2256 97.6708 85.0909 97.3905 85.3739 96.8834C85.5895 96.4964 85.8726 96.1361 86.1287 95.7624C86.3578 95.4288 86.3578 95.1486 85.9265 94.9617C85.2256 94.6548 84.6326 94.161 83.8105 94.081C83.5005 94.0543 83.2309 93.6406 82.921 93.3737C82.7727 93.6139 82.5705 93.8941 82.4088 94.2144C81.9371 95.1619 81.1419 95.7357 80.1445 96.0026C77.0042 96.8567 74.0391 96.3763 71.2762 94.6815C70.818 94.4146 70.481 94.0009 70.0228 93.6005Z" fill="#20113D"/>
<g filter="url(#filter1_d)">
<path d="M80.0001 28.3027C53.6474 28.3027 32.3257 47.9416 32.3257 72.1422C32.3257 96.3428 80.0001 165.697 80.0001 165.697C80.0001 165.697 127.675 96.3428 127.675 72.1422C127.675 47.9416 106.353 28.3027 80.0001 28.3027Z" stroke="white" stroke-width="3" stroke-miterlimit="10" stroke-linejoin="round"/>
</g>
</g>
<defs>
<filter id="filter0_d" x="0" y="0" width="160" height="202" filterUnits="userSpaceOnUse" color-interpolation-filters="sRGB">
<feFlood flood-opacity="0" result="BackgroundImageFix"/>
<!-- <feColorMatrix in="SourceAlpha" type="matrix" values="0 0 0 0 0 0 0 0 0 0 0 0 0 0 0 0 0 0 127 0"/> -->
<feOffset dy="4"/>
<feGaussianBlur stdDeviation="15"/>
<feColorMatrix type="matrix" values="0 0 0 0 1 0 0 0 0 1 0 0 0 0 1 0 0 0 0.5 0"/>
<feBlend mode="normal" in2="BackgroundImageFix" result="effect1_dropShadow"/>
<feBlend mode="normal" in="SourceGraphic" in2="effect1_dropShadow" result="shape"/>
</filter>
<filter id="filter1_d" x="0.825684" y="0.802734" width="158.349" height="200.395" filterUnits="userSpaceOnUse" color-interpolation-filters="sRGB">
<feFlood flood-opacity="0" result="BackgroundImageFix"/>
<feColorMatrix in="SourceAlpha" type="matrix" values="0 0 0 0 0 0 0 0 0 0 0 0 0 0 0 0 0 0 127 0"/>
<feOffset dy="4"/>
<feGaussianBlur stdDeviation="15"/>
<feColorMatrix type="matrix" values="0 0 0 0 0 0 0 0 0 0 0 0 0 0 0 0 0 0 0.5 0"/>
<feBlend mode="normal" in2="BackgroundImageFix" result="effect1_dropShadow"/>
<feBlend mode="normal" in="SourceGraphic" in2="effect1_dropShadow" result="shape"/>
</filter>
</defs>
</svg>
