<svg width="81" height="577" viewBox="0 0 81 577" fill="none" xmlns="http://www.w3.org/2000/svg">
<path fill-rule="evenodd" clip-rule="evenodd" d="M54.1979 26.9514C54.8219 28.2855 55.4459 29.6197 56.0926 31.0129C55.9292 31.1468 55.7637 31.2851 55.5958 31.4254L55.595 31.4261L55.5949 31.4261C55.2149 31.7436 54.8224 32.0716 54.4135 32.3825C53.9592 32.7261 53.5087 33.0745 53.0584 33.4227L53.0577 33.4233L53.0577 33.4233C51.9451 34.2838 50.834 35.1431 49.6712 35.9246C45.4848 38.7465 40.8674 39.8918 35.8982 39.4431C34.6842 39.3368 33.4022 38.9 32.8917 38.534C33.1865 36.41 33.47 34.3449 33.7534 32.2799L33.7539 32.2763C33.7199 32.2645 33.683 32.2556 33.6462 32.2468C33.6093 32.2379 33.5724 32.2291 33.5384 32.2173C33.4279 32.4505 33.3184 32.6838 33.209 32.9169L33.2086 32.9176C32.9361 33.4981 32.6644 34.0768 32.3812 34.6495C31.6455 36.1624 31.1521 37.769 30.6577 39.3792C30.5193 39.8298 30.3808 40.2808 30.2369 40.73C29.3293 43.5283 27.707 45.6772 24.9501 46.728C24.814 46.787 24.7005 47.0231 24.6438 47.2002C24.5326 47.5673 24.4339 47.9387 24.3351 48.3098L24.3351 48.3101C24.202 48.8102 24.0692 49.3098 23.9063 49.7978C23.2824 51.6869 22.1138 53.1509 20.5368 54.2726C19.8334 54.7685 19.13 55.2762 18.4607 55.8193C17.8821 56.2798 17.9048 56.4805 18.472 56.941C18.583 57.0311 18.6946 57.1199 18.8059 57.2084L18.8059 57.2085L18.806 57.2085C19.1613 57.4912 19.5138 57.7716 19.8334 58.0862C20.3553 58.6057 20.5936 59.2669 20.4007 60.0226C20.3553 60.1997 20.0944 60.4358 19.9355 60.4358C16.2143 60.4594 12.4818 60.4594 8.76056 60.4476C8.62442 60.4476 8.43155 60.4004 8.35213 60.3059C8.2382 60.1616 8.12156 60.0178 8.00458 59.8736L8.00437 59.8733L8.00434 59.8733C7.58557 59.3571 7.16243 58.8354 6.84323 58.2633C6.63902 57.8973 6.61633 57.2834 6.75247 56.8701C8.06851 52.7023 9.75893 48.747 12.9469 45.7126C13.0831 45.5827 13.1625 45.2993 13.1738 45.0986C13.2532 42.0997 13.5936 39.1243 14.331 36.2316C14.9664 33.7285 15.6471 31.2255 16.8497 28.9231C19.062 24.7199 21.9209 21.2132 26.3115 19.3241C30.0895 17.7065 33.7766 17.9545 37.3731 19.8672C37.8668 20.1321 38.3133 20.4954 38.7483 20.8492C38.953 21.0157 39.1551 21.1801 39.3585 21.3313C38.95 20.4103 38.2353 19.6547 37.4638 18.9581C38.1903 18.6705 38.9195 18.3921 39.6473 18.1143L39.6475 18.1142C42.864 16.8863 46.0554 15.6681 48.877 13.704C49.0013 14.1539 49.1233 14.6083 49.2461 15.0653L49.2461 15.0654C49.4036 15.6518 49.5622 16.2423 49.7279 16.8328C49.7733 16.9745 49.8641 17.1044 49.9775 17.2225C49.7506 15.7584 49.7506 14.2943 50.2838 12.9483C50.783 11.6732 51.3843 10.3862 52.1558 9.27639C54.0504 6.58441 56.3308 4.24664 58.8721 2.20404L58.8722 2.20402L58.8722 2.204C58.9743 2.12136 59.0764 2.03873 59.1898 1.95609C59.372 1.83506 59.5525 1.7061 59.7335 1.57687C60.6115 0.949698 61.4986 0.316114 62.6274 0.551068C64.488 0.92889 66.0423 1.94429 67.1087 3.60906C67.415 4.08134 67.7667 4.41194 68.2546 4.58904C69.5252 5.04951 70.4782 5.84057 71.0909 7.12753C71.313 7.59775 71.6332 8.01417 71.9541 8.43126C72.1085 8.63207 72.2631 8.83304 72.4069 9.04025C72.7019 9.4653 72.7586 9.81951 72.4296 10.3154C72.1573 10.7286 72.0212 11.2836 71.9418 11.7913C71.8396 12.3934 72.0666 12.783 72.6792 13.1136C74.2789 13.9637 75.2092 15.8647 74.3242 17.7892C74.1768 18.108 74.0406 18.4268 73.9158 18.7574C73.3259 20.3395 72.2027 20.8944 70.6597 20.3395C70.6342 20.3306 70.608 20.3218 70.5817 20.3129L70.5816 20.3129C70.503 20.2863 70.4243 20.2598 70.3648 20.2332C70.0811 20.6465 69.7975 21.0479 69.4912 21.4729C69.4477 21.4176 69.4103 21.3772 69.3818 21.3464C69.3434 21.305 69.321 21.2807 69.321 21.2604C69.4118 20.245 68.8218 19.6429 68.1638 19.0289C65.0893 16.148 61.3227 16.6675 58.7473 18.3323C59.0369 18.2712 59.3237 18.2045 59.6097 18.138L59.6098 18.138C60.153 18.0117 60.6933 17.8861 61.2433 17.801C64.5107 17.3287 67.347 18.8518 68.8559 21.898C69.8996 23.9996 70.6371 26.1957 70.4555 28.6279L70.4535 28.6564V28.6565C70.4201 29.1328 70.3837 29.6517 70.1946 30.0684C69.5366 31.5325 69.7408 33.0083 70.1038 34.4606L70.1707 34.7312C70.5114 36.111 70.8611 37.5276 71.5106 38.7465C74.0179 43.4338 74.2221 48.499 74.0406 53.635C73.9612 55.8429 73.2805 57.8029 71.5333 59.2315C70.5576 60.0344 69.5139 60.5893 68.2092 60.483C67.6079 60.4358 66.9953 60.424 66.394 60.483C65.2595 60.6129 64.4766 60.0226 63.8073 59.1961C63.0812 58.3106 62.7522 57.2834 62.9564 56.1263C63.0131 55.8193 63.2287 55.4415 63.4783 55.2998C63.7918 55.1265 64.0207 55.367 64.2527 55.6107C64.2893 55.6492 64.326 55.6878 64.3632 55.7248C64.7129 56.077 65.1747 56.3358 65.6148 56.5825L65.6149 56.5825L65.6225 56.5868C66.0082 56.7993 66.2124 56.6222 66.2578 56.1735C66.3032 55.6422 66.1444 55.1935 65.7586 54.8511C63.5917 52.9266 62.2303 50.4117 61.005 47.8024C60.0634 45.7834 59.4621 43.67 59.2465 41.4267C59.0877 39.7383 59.3713 38.0971 59.6776 36.4559C59.8251 35.7121 59.9726 34.9565 60.018 34.189C60.1201 32.6659 59.6096 31.379 58.3502 30.5643C56.796 29.5607 55.4119 28.3564 54.3 26.8451C54.3114 26.8805 54.2547 26.9159 54.1979 26.9514ZM57.5214 32.3137C58.1794 32.8686 58.4177 33.5062 58.2815 34.2973C58.1976 34.8087 58.1053 35.3187 58.0129 35.8287L58.0128 35.8294L58.0128 35.8295C57.8429 36.7675 57.673 37.7058 57.5554 38.654C57.1697 41.8537 57.8844 44.8763 59.0757 47.7926C59.2912 48.3239 59.3139 48.749 59.087 49.2803C58.0546 51.7125 56.9315 54.0857 55.4793 56.2936C53.596 59.1509 50.9639 60.4732 47.6738 60.4732C47.4794 60.4732 47.286 60.4764 47.093 60.4796H47.0929C46.644 60.4871 46.1974 60.4945 45.7451 60.4614C45.5182 60.4496 45.2346 60.2961 45.1098 60.1072C44.0547 58.6196 44.2362 55.538 45.4502 54.1802C45.5863 54.0267 45.8926 53.885 46.0628 53.944C46.1921 53.9921 46.2839 54.1968 46.3686 54.3859C46.3879 54.429 46.4069 54.4713 46.4258 54.5107C46.4726 54.6082 46.5067 54.7155 46.5405 54.8223C46.5969 55.0002 46.6527 55.1764 46.7662 55.3018C46.9704 55.5498 47.3221 55.904 47.549 55.8567C47.7873 55.8095 48.0255 55.3727 48.1276 55.0657C48.2297 54.7705 48.1957 54.4045 48.139 54.0975C48.0567 53.6652 47.9536 53.2361 47.8507 52.8078L47.8507 52.8077C47.6697 52.0545 47.4893 51.3038 47.4242 50.5436C47.1179 47.1314 47.4129 43.7783 48.831 40.6258C49.16 39.9056 49.5344 39.1735 50.0223 38.5596C50.5328 37.8984 51.1681 37.3199 51.8148 36.8004C52.4784 36.2577 53.1622 35.7446 53.8469 35.2307L53.8469 35.2307L53.8473 35.2304C54.3096 34.8834 54.7724 34.5361 55.2297 34.1792C55.7398 33.7751 56.2447 33.3604 56.7583 32.9387C57.0101 32.7319 57.2639 32.5235 57.5214 32.3137ZM33.1377 40.7059C32.8464 40.6162 32.5536 40.5261 32.2555 40.4348C32.1544 40.6627 32.0565 40.8939 31.9582 41.1258C31.7916 41.5188 31.6241 41.9142 31.4386 42.3003C30.3154 44.6617 28.8406 46.7161 26.5602 48.0385C26.3787 48.1447 26.2539 48.4163 26.1858 48.6406C25.6412 50.5415 24.9605 52.3598 23.7012 53.8947C23.6105 54.0128 23.531 54.2253 23.5651 54.3552C23.9622 55.6658 24.3706 56.9763 24.813 58.2633C24.8925 58.4876 25.1307 58.7001 25.3463 58.83C26.1518 59.3023 26.9573 59.7628 27.7855 60.1996C28.0578 60.3413 28.3754 60.4712 28.6704 60.4712C31.0694 60.4889 33.4621 60.4867 35.8579 60.4845C36.6571 60.4837 37.4567 60.483 38.2571 60.483H38.9605C38.8842 60.3202 38.822 60.1614 38.7631 60.0111C38.6469 59.7145 38.5437 59.451 38.3705 59.2551C37.9394 58.771 37.4516 58.3105 36.9297 57.9445C36.4396 57.6014 35.9075 57.3165 35.3774 57.0327C35.2326 56.9552 35.0879 56.8778 34.9443 56.7992C34.377 56.4804 34.1274 56.0082 34.1728 55.347C34.1804 55.1895 34.198 55.0321 34.2157 54.8747C34.2245 54.796 34.2333 54.7173 34.2409 54.6385C34.2756 54.2811 34.3188 53.9225 34.362 53.5635C34.4601 52.7486 34.5585 51.9315 34.5585 51.1201C34.5585 49.4317 33.8324 47.9794 32.8 46.7043C34.5926 45.3111 34.9443 43.3393 35.1145 41.3085C34.4326 41.1046 33.7886 40.9063 33.1377 40.7059Z" fill="#20113D"/>
<path fill-rule="evenodd" clip-rule="evenodd" d="M40.0594 172.51C41.0005 172.457 41.898 172.65 42.8217 172.975C42.7912 173.062 42.7629 173.148 42.7351 173.232L42.7351 173.232C42.6676 173.436 42.6031 173.631 42.5167 173.818C42.2509 174.393 41.9808 174.968 41.7107 175.543C41.4405 176.118 41.1704 176.693 40.9046 177.268L40.9039 177.27C40.7608 177.58 40.6911 177.731 40.5739 177.795C40.4627 177.855 40.3088 177.837 40.0086 177.802L39.9548 177.795C39.6498 177.76 39.4668 177.628 39.4233 177.33C39.4048 177.204 39.3814 177.078 39.358 176.951L39.358 176.951L39.358 176.951L39.358 176.951L39.3579 176.951L39.3579 176.951L39.3579 176.951L39.3579 176.951L39.3579 176.951L39.3579 176.951L39.3579 176.951C39.293 176.601 39.228 176.249 39.2664 175.908C39.3626 175.063 39.5184 174.224 39.674 173.386L39.674 173.386L39.674 173.385L39.674 173.385L39.674 173.385L39.6741 173.385L39.6741 173.385L39.6741 173.385L39.6741 173.385L39.6741 173.385L39.6741 173.385L39.6741 173.385C39.7158 173.16 39.7575 172.936 39.798 172.712C39.8154 172.633 39.9635 172.518 40.0594 172.51ZM34.1872 175.355L34.1874 175.355L34.1874 175.356L34.1875 175.356C34.7652 176.221 35.3305 177.069 35.9205 177.901C36.1383 178.217 36.4346 178.498 36.9139 178.305C37.6459 178.024 37.8289 177.831 37.611 177.058C37.3503 176.119 37.5121 175.216 37.6745 174.309L37.6745 174.309C37.6912 174.216 37.708 174.122 37.7243 174.029C37.7853 173.695 37.7766 173.326 37.6981 172.993C37.6633 172.835 37.3496 172.598 37.2276 172.624C35.8944 172.957 34.7267 173.616 33.6113 174.494C33.8055 174.783 33.997 175.07 34.1872 175.355ZM30.7644 182.05C31.3749 182.5 31.9871 182.95 32.6103 183.406C32.4011 184.416 31.8609 184.986 30.8065 185.101C29.3513 185.25 28.1226 184.653 27.0159 183.757C26.9549 183.704 26.9288 183.511 26.9724 183.424C27.0363 183.28 27.1 183.136 27.1637 182.993L27.1643 182.991L27.1651 182.989L27.1654 182.989L27.1661 182.987L27.1661 182.987L27.1661 182.987L27.1661 182.987L27.1661 182.987L27.1662 182.987L27.1662 182.987L27.1662 182.987L27.1662 182.987L27.1662 182.987L27.1662 182.987L27.1663 182.987L27.1663 182.987L27.1663 182.987L27.1663 182.987C27.4489 182.349 27.7321 181.71 28.0442 181.088C28.128 180.913 28.2652 180.767 28.3966 180.627L28.3967 180.627C28.4565 180.564 28.5152 180.501 28.567 180.438C29.3064 180.978 30.033 181.512 30.762 182.049L30.7635 182.05L30.7638 182.05L30.7644 182.05ZM31.154 187.417C29.5071 187.004 27.9124 186.6 26.1958 186.161C26.159 186.365 26.1179 186.575 26.076 186.79L26.0759 186.79C25.9985 187.187 25.9181 187.598 25.856 188.014C25.7963 188.407 25.7569 188.804 25.7167 189.209V189.209C25.6924 189.454 25.6677 189.702 25.6381 189.954C27.0149 190.648 28.4266 190.841 29.8208 190.033C30.8142 189.472 31.2063 188.541 31.154 187.417ZM25.6991 192.072C25.4376 193.459 25.6468 194.767 26.1348 196.04C26.1783 196.146 26.2916 196.26 26.3962 196.295C28.4527 196.989 30.7706 195.601 31.093 193.731C31.1365 193.476 31.154 193.204 31.1365 192.95C31.032 191.835 30.8228 191.676 29.7423 191.835L29.431 191.88C28.6894 191.989 27.947 192.098 27.1979 192.159C26.8688 192.184 26.5315 192.15 26.1832 192.115C26.0242 192.099 25.8629 192.083 25.6991 192.072ZM31.5549 200.306C32.252 198.813 32.0341 197.742 30.8578 196.812C29.6378 197.742 28.2262 198.085 26.7099 198.137C26.6054 198.137 26.4311 198.287 26.4049 198.401C26.1697 199.516 26.5008 200.508 27.1195 201.421C27.169 201.493 27.2638 201.53 27.3707 201.572C27.4331 201.597 27.4997 201.623 27.5639 201.658C27.5337 201.678 27.5043 201.699 27.4751 201.719L27.4751 201.719C27.4033 201.768 27.3333 201.816 27.2589 201.86C25.673 202.817 24.392 204.073 23.6339 205.785C22.6405 208.041 22.2833 210.368 23.1808 212.765C23.3423 213.196 23.4909 213.635 23.6393 214.073L23.6393 214.073L23.6394 214.073L23.6394 214.073L23.6395 214.073L23.6395 214.073L23.6396 214.074L23.6396 214.074L23.6396 214.074L23.6397 214.074L23.6397 214.074L23.6398 214.074L23.6398 214.074L23.6399 214.075L23.6399 214.075L23.64 214.075L23.64 214.075L23.6401 214.075C23.7635 214.44 23.8868 214.804 24.0173 215.162C24.453 216.374 24.4879 217.621 24.1393 218.832C23.1111 222.371 24.0783 225.619 25.4464 228.824C25.5665 229.092 25.7625 229.334 25.9514 229.568L25.9605 229.579C26.222 229.904 26.5618 230.01 26.9714 229.869C27.3809 229.72 27.6772 229.448 27.6597 229.017C27.6423 228.464 27.5726 227.911 27.4419 227.375C27.3417 226.95 27.2197 226.528 27.0977 226.107C26.9757 225.685 26.8537 225.264 26.7535 224.838C26.4747 223.635 26.8319 222.643 27.8079 221.897C27.8495 221.866 27.8902 221.834 27.9307 221.803L27.9308 221.803L27.9309 221.803L27.931 221.803L27.9311 221.802L27.9311 221.802L27.9312 221.802L27.9312 221.802L27.9313 221.802L27.9315 221.802C28.0177 221.735 28.1025 221.669 28.1913 221.616C29.664 220.764 30.5702 219.429 31.3196 217.946C31.5289 217.524 31.7997 217.131 32.0701 216.739L32.0701 216.739C32.1938 216.559 32.3174 216.38 32.435 216.198L32.5395 216.251C32.5918 216.497 32.6452 216.743 32.6986 216.988L32.6986 216.989C32.8587 217.726 33.0188 218.464 33.1495 219.201C33.7333 222.406 35.6155 224.82 37.794 227.068C38.0089 227.293 38.2916 227.459 38.5585 227.615L38.5696 227.621C38.9356 227.841 39.3102 227.841 39.6588 227.551C40.0161 227.253 40.1468 226.875 39.9899 226.454C39.8331 226.05 39.6327 225.655 39.3887 225.295C39.1356 224.926 38.8624 224.573 38.5894 224.22C38.3547 223.917 38.1201 223.614 37.8986 223.301C36.8616 221.844 36.8181 220.817 37.8376 219.359C38.648 218.191 39.2057 216.918 39.7024 215.54C39.841 215.605 39.9773 215.665 40.1107 215.724L40.1109 215.724L40.111 215.724L40.1111 215.724L40.1112 215.724L40.1114 215.724C40.3383 215.824 40.5571 215.921 40.7655 216.031C42.9091 217.208 44.2249 219.061 45.0091 221.335C45.3277 222.242 45.6022 223.165 45.8764 224.088L45.8764 224.088L45.8766 224.089C45.9474 224.327 46.0182 224.565 46.0897 224.803C46.3424 225.646 46.7519 226.392 47.3096 227.059C47.5224 227.312 47.7349 227.565 47.9473 227.818L47.9474 227.818L47.9474 227.818L47.9474 227.818C48.9442 229.005 49.9392 230.189 50.952 231.362C51.2396 231.695 51.5882 232.011 51.9629 232.248C52.6425 232.679 53.3048 232.547 53.9322 231.941C54.3853 231.502 54.4637 230.958 54.0542 230.264C53.8192 229.865 53.5163 229.503 53.2182 229.146L53.2182 229.146L53.2181 229.146L53.218 229.146L53.2176 229.146C53.1621 229.079 53.1068 229.013 53.0521 228.947C52.8778 228.736 52.6774 228.534 52.4683 228.359C50.6993 226.84 50.2636 224.829 50.3421 222.625C50.3547 222.255 50.3996 221.885 50.4432 221.525L50.4433 221.525C50.4597 221.39 50.4759 221.256 50.4902 221.124C50.7628 221.071 51.0322 221.019 51.2957 220.968L51.2973 220.967C51.7828 220.873 52.2484 220.782 52.6774 220.703C52.8399 221.063 52.9919 221.432 53.1442 221.801C53.4739 222.6 53.8049 223.403 54.2459 224.136C54.8946 225.216 55.6632 226.221 56.4316 227.226L56.432 227.226L56.4321 227.226L56.4321 227.227C56.6131 227.463 56.794 227.7 56.9734 227.937C57.2783 228.341 57.6879 228.666 58.2456 228.534C58.5419 228.464 58.7684 227.656 58.6203 227.086C58.4809 226.55 58.3153 226.006 58.0452 225.532C56.8426 223.398 56.3808 221.054 56.0584 218.674C55.8928 217.463 55.1783 216.918 53.9758 217.155C51.7276 217.603 49.4707 217.823 47.1789 217.621C47.0221 217.603 46.8653 217.568 46.7085 217.533L46.7084 217.533C45.0876 217.147 44.4427 215.636 45.2793 214.17C45.3054 214.117 45.3316 214.065 45.3751 214.021C46.1542 213.229 46.5764 212.246 47.0004 211.259C47.1503 210.91 47.3004 210.561 47.4665 210.219C47.7976 209.552 48.425 208.99 49.0263 208.498C49.7669 207.901 50.6732 207.602 51.6056 207.4C51.7363 207.374 51.928 207.251 51.9541 207.146C51.9803 207.023 51.8757 206.795 51.7711 206.742C51.7046 206.71 51.6377 206.678 51.5704 206.645C51.1708 206.451 50.7585 206.25 50.3333 206.198C49.6362 206.11 48.913 206.127 48.2072 206.198C47.4229 206.277 46.7258 206.031 46.0722 205.715C45.3751 205.381 44.7129 204.924 44.0855 204.468C42.3688 203.212 40.6348 201.992 38.6654 201.158C36.5567 200.253 34.3695 199.955 32.1038 200.288C31.9383 200.271 31.7553 200.28 31.5549 200.306ZM41.1133 198.616C40.4161 199.055 39.658 199.248 38.8389 199.248C38.0547 199.222 37.3053 199.064 36.6692 198.572C35.9633 198.037 35.6932 197.246 36.1028 196.482C36.3642 196.002 36.7285 195.58 37.0929 195.159L37.093 195.159L37.0931 195.159L37.0932 195.158L37.0934 195.158L37.0935 195.158L37.0936 195.158L37.0937 195.158L37.0938 195.158L37.094 195.158L37.0941 195.157L37.0942 195.157L37.0943 195.157L37.0943 195.157L37.0943 195.157L37.0944 195.157L37.0944 195.157C37.2153 195.017 37.3363 194.877 37.4534 194.735C37.5144 194.665 37.6625 194.639 37.7671 194.647C39.658 194.832 41.122 196.14 41.4618 197.791C41.549 198.195 41.4357 198.414 41.1133 198.616ZM31.6503 176.032C32.6437 176.787 34.0379 178.508 34.9877 180.132L34.8897 180.257L34.8897 180.257L34.8897 180.257L34.8895 180.258L34.8894 180.258L34.8893 180.258C34.6647 180.544 34.4525 180.814 34.247 181.098C34.064 181.353 33.8462 181.414 33.5325 181.318C31.9204 180.8 30.8137 179.641 29.6461 178.394C30.3251 177.596 30.9868 176.815 31.6484 176.034L31.6488 176.034L31.6503 176.032ZM45.2441 181.424C45.9622 180.801 46.8368 180.692 47.7166 180.582L47.7166 180.582L47.7167 180.582L47.7167 180.582L47.7168 180.582L47.7168 180.582L47.7168 180.582L47.7169 180.582L47.7169 180.582L47.717 180.582L47.717 180.582L47.7171 180.582C47.9155 180.557 48.1142 180.533 48.3114 180.502C48.7646 180.432 49.2177 180.3 49.6534 180.159C49.7492 180.124 49.8886 179.949 49.8712 179.861C49.7405 178.992 49.4704 178.175 48.7471 177.613C48.6251 177.517 48.4247 177.455 48.2853 177.473C47.2222 177.64 46.2375 178.008 45.3574 178.632C45.2528 178.711 45.1483 178.79 45.0524 178.878C44.1462 179.72 44.2072 180.677 45.2441 181.424ZM45.5844 195.83C44.7043 194.249 40.8702 192.739 39.8768 193.591C39.8768 193.617 39.8768 193.661 39.8942 193.67C41.0793 194.706 41.9333 196.014 42.7611 197.34C42.9615 197.665 43.1619 197.682 43.4756 197.577C44.2076 197.331 45.0441 196.646 45.5844 195.83ZM51.4392 212.871C51.3085 213.547 51.0384 213.749 50.3413 213.766C50.2188 213.744 50.0963 213.725 49.9744 213.707C49.7235 213.67 49.4751 213.633 49.2346 213.556C48.4503 213.319 48.1105 212.766 48.2586 211.949C48.3109 211.65 48.4242 211.361 48.5549 211.089C49.0255 210.131 49.801 209.455 50.6898 208.911C50.9948 208.727 51.3608 208.612 51.7093 208.551C51.8704 208.52 52.0492 208.564 52.2267 208.608C52.2989 208.626 52.3708 208.644 52.4413 208.656C52.4266 208.721 52.4153 208.789 52.4039 208.857C52.3751 209.031 52.3459 209.206 52.2583 209.332C51.7529 210.061 51.6048 210.878 51.5612 211.738C51.5438 212.116 51.5089 212.502 51.4392 212.871ZM49.8271 211.589C49.4437 211.589 49.1039 211.931 49.1126 212.318C49.1148 212.417 49.1375 212.512 49.1764 212.597C49.1381 212.512 49.1157 212.419 49.1135 212.32C49.1135 211.933 49.4447 211.591 49.8281 211.591C50.1112 211.591 50.358 211.76 50.4701 212.007C50.3585 211.759 50.1111 211.589 49.8271 211.589ZM45.5057 183.861C45.8452 183.889 46.1825 183.917 46.5182 183.945L46.5183 183.945L46.5185 183.945L46.5185 183.945L46.5186 183.945L46.5187 183.945C47.8457 184.055 49.1461 184.163 50.4465 184.282C50.8299 184.318 50.9519 184.168 50.9868 183.808C51.0565 183.036 50.7951 182.43 50.1502 182.008C49.061 181.306 47.1178 181.429 46.1244 182.272C45.619 182.693 45.4011 183.229 45.5057 183.861ZM44.7217 173.755C45.7674 174.326 46.7608 174.905 47.4579 175.897C45.8546 176.846 44.3035 177.767 42.7524 178.698C42.4648 178.242 42.43 177.934 42.6391 177.293C43.0367 176.059 43.7894 175.03 44.5524 173.987L44.5528 173.986L44.5534 173.985C44.6095 173.909 44.6657 173.832 44.7217 173.755ZM42.3516 191.994C43.4385 192.367 44.3119 193.04 45.2022 193.726L45.2022 193.726C45.7394 194.139 46.2827 194.558 46.8829 194.918C46.9645 194.789 47.0457 194.66 47.1265 194.533L47.1275 194.531L47.1282 194.53L47.1283 194.53C47.4523 194.018 47.7685 193.518 48.068 193.013C48.1115 192.943 48.0854 192.741 48.0157 192.688C46.8829 191.793 45.6629 191.073 44.1728 191.002C43.4322 190.985 42.7699 191.178 42.3516 191.994ZM50.6388 186.165C50.6214 186.884 50.6035 187.621 50.1421 188.226C49.961 188.166 49.7819 188.105 49.6039 188.045C49.1313 187.885 48.6674 187.728 48.1989 187.594C47.3711 187.374 46.5433 187.172 45.7067 186.988C45.393 186.918 45.3233 186.76 45.3669 186.461C45.4802 185.636 46.0466 185.127 47.0051 185.091C48.2338 185.039 49.3666 185.451 50.4733 185.943C50.5517 185.978 50.6388 186.092 50.6388 186.163L50.6388 186.165ZM47.561 212.888C47.3749 213.117 47.2085 213.319 47.0533 213.507L47.0528 213.507C46.8811 213.715 46.7231 213.906 46.5676 214.1C46.5142 214.167 46.4585 214.232 46.403 214.297L46.4029 214.297C46.2684 214.454 46.1347 214.611 46.036 214.785C45.7136 215.347 45.8705 215.961 46.463 216.216C46.9336 216.418 47.4564 216.55 47.9618 216.602C49.3125 216.751 50.6457 216.62 51.9528 216.225C51.8657 215.61 51.5868 215.329 50.9768 215.268C50.6723 215.24 50.3645 215.23 50.0574 215.22L50.0573 215.22L50.0571 215.22L50.0569 215.22C49.8721 215.213 49.6875 215.207 49.5042 215.197C48.3191 215.127 48.1274 214.943 47.8921 213.784C47.8512 213.589 47.7711 213.399 47.686 213.197C47.6442 213.097 47.6012 212.995 47.561 212.888ZM48.66 191.422C47.2658 190.693 45.8454 190.061 44.2682 189.744C44.4947 188.621 45.2354 188.12 46.4031 188.269C47.5795 188.41 48.6251 188.902 49.5837 189.578C49.6795 189.648 49.8015 189.806 49.7754 189.876C49.5837 190.368 49.3832 190.868 49.1305 191.334C49.0783 191.422 48.7733 191.483 48.66 191.422ZM52.4859 211.028C52.4859 211.941 52.6341 212.09 53.3312 211.959C53.6187 211.906 53.9237 211.783 54.159 211.608C55.0652 210.932 55.3179 209.298 54.6905 208.394C54.5424 208.183 54.4117 208.095 54.1677 208.271C53.1569 209.017 52.5295 209.957 52.4859 211.028Z" fill="#20113D"/>
<path fill-rule="evenodd" clip-rule="evenodd" d="M29.3148 381.753C26.0306 382.746 22.721 382.594 19.3859 380.377C19.1298 380.699 18.8673 381.024 18.6022 381.351C17.945 382.163 17.2713 382.996 16.6364 383.867C16.1654 384.542 15.7262 385.243 15.2871 385.944L15.2871 385.944C14.8479 386.644 14.4087 387.345 13.9378 388.02C12.894 389.523 12.5121 391.153 12.6139 392.962C12.7412 395.28 11.8247 396.452 9.55886 396.86C4.89993 397.7 0.724711 394.236 0.699252 389.523C0.699252 389.063 0.691045 388.602 0.682867 388.144C0.670673 387.46 0.658546 386.78 0.673784 386.109C0.71659 384.31 1.49714 382.745 2.27419 381.187C2.42143 380.892 2.56854 380.597 2.71048 380.301C3.07779 379.539 3.44854 378.778 3.81932 378.017C5.19609 375.191 6.57334 372.364 7.77676 369.474C9.54572 365.238 12.2031 361.595 14.8699 357.939C15.427 357.175 15.9846 356.411 16.5345 355.64C16.5609 355.607 16.589 355.574 16.6174 355.541L16.6176 355.541L16.6176 355.541L16.6177 355.541L16.6177 355.541L16.6177 355.541C16.699 355.445 16.7835 355.346 16.84 355.233C19.8187 349.806 25.1141 348.533 30.5623 347.463C31.9058 347.203 33.2385 346.878 34.5703 346.554C36.1154 346.177 37.6595 345.8 39.2182 345.527C42.0696 345.017 44.9973 344.609 47.8996 344.508C51.3365 344.38 54.2388 345.985 56.8101 348.202C52.915 346.214 48.7398 345.527 44.4118 345.628C43.3171 345.654 42.2223 345.756 41.1276 345.883C39.5492 346.062 38.8872 347.233 38.4545 348.584C37.3343 352.023 37.5634 355.411 38.76 358.825C39.0483 359.645 39.2281 360.51 39.4072 361.373L39.4072 361.373L39.4073 361.373L39.4073 361.373L39.4073 361.373C39.5286 361.957 39.6496 362.539 39.8038 363.105C40.0004 363.81 40.1923 364.517 40.3843 365.225L40.3845 365.225C41.0875 367.816 41.7917 370.412 42.7315 372.913C43.1134 373.957 44.3863 374.976 45.481 375.384C49.7836 376.938 54.1879 377.779 58.745 376.225C64.4732 374.263 67.4264 368.149 65.2624 362.468C64.569 360.668 63.7465 358.924 62.9205 357.172L62.9205 357.172L62.9205 357.172C62.776 356.866 62.6314 356.559 62.4874 356.252C62.3556 355.969 62.0843 355.742 61.8181 355.519L61.818 355.519C61.7245 355.441 61.6315 355.363 61.5455 355.284C61.2162 354.971 60.8729 354.667 60.5287 354.362C59.8348 353.747 59.1369 353.129 58.5413 352.43C57.7012 351.437 57.7267 350.189 58.465 349.119C59.1778 348.074 60.3234 347.819 61.52 348.023C63.3785 348.329 64.575 349.475 65.1861 351.182C65.7716 352.838 65.2115 354.265 63.7604 355.513C65.6698 357.092 66.3062 359.36 66.8663 361.602C67.0784 362.45 67.1923 363.327 67.3065 364.205V364.205C67.4391 365.224 67.572 366.246 67.8592 367.232C68.3388 368.863 68.9143 370.473 69.4904 372.084C69.9846 373.467 70.4793 374.85 70.9142 376.25C71.4791 378.042 71.9992 379.849 72.519 381.655L72.5192 381.656C72.9598 383.187 73.4002 384.717 73.8674 386.237C74.1278 387.083 74.461 387.909 74.7939 388.734L74.794 388.734L74.794 388.735L74.7941 388.735L74.7943 388.735C74.982 389.201 75.1697 389.666 75.3441 390.134C75.902 391.616 77.1654 392.283 78.4176 392.944C78.651 393.068 78.884 393.191 79.1119 393.319C80.283 393.981 80.894 394.847 80.5885 396.223C80.3085 397.522 79.4684 398.337 77.9154 398.286C74.733 398.159 71.5762 397.853 68.4193 397.522C67.8847 397.471 67.3246 396.911 66.9427 396.452C64.8042 393.879 62.6911 391.281 60.6035 388.682C59.1523 386.873 58.0831 384.886 57.523 382.619C57.285 381.686 56.7996 380.799 56.3199 379.923C56.1839 379.675 56.0484 379.427 55.9191 379.18C55.7918 378.925 55.4354 378.696 55.1553 378.645L54.9543 378.605C53.3414 378.284 51.7369 377.965 50.3437 379.384C49.989 379.764 49.4074 379.968 48.9 380.145L48.8925 380.148C48.0015 380.454 47.5941 381.014 47.9251 381.88C49.0995 385.031 49.0108 388.25 48.9219 391.477V391.477C48.8779 393.077 48.8337 394.678 48.9434 396.274C48.9887 396.885 49.0742 397.497 49.1597 398.108C49.2665 398.872 49.3734 399.637 49.4017 400.401C49.4271 400.987 49.1726 401.828 48.7652 402.133C45.3792 404.681 41.5859 405.114 37.6907 403.713C35.7558 402.999 34.4574 401.598 34.1519 399.204C33.5664 394.236 32.7772 389.294 31.7588 384.402C31.3921 382.567 30.5095 380.815 29.6498 379.108L29.6497 379.108L29.6497 379.108L29.6496 379.108C29.5545 378.919 29.4596 378.731 29.3657 378.543C26.9217 373.677 26.2343 368.633 27.0999 363.232C27.8127 358.748 28.7802 354.469 31.7588 350.927C32.3732 350.204 33.103 349.584 33.8298 348.965L33.83 348.965L33.83 348.965L33.8301 348.965C34.1272 348.713 34.4239 348.46 34.712 348.202C34.7556 348.164 34.8022 348.128 34.8492 348.092C34.9946 347.98 35.1443 347.865 35.2212 347.692C31.3006 347.743 27.7618 348.838 24.274 350.469C21.0066 351.968 19.1343 354.642 17.2384 357.35L17.2384 357.35C16.815 357.954 16.3905 358.561 15.949 359.156C15.7708 359.411 15.7708 359.844 15.7962 360.201C16.1701 363.767 17.5442 367.016 18.9156 370.258L19.004 370.467C19.2768 371.086 19.4197 371.77 19.5626 372.453C19.6197 372.727 19.6769 373 19.7423 373.269C19.8951 373.957 20.0478 374.671 20.0988 375.384C20.1091 375.529 20.1204 375.675 20.1317 375.821C20.204 376.756 20.2783 377.716 20.1242 378.619C19.8187 380.224 19.946 380.708 21.6008 380.963C22.126 381.016 22.6554 381.068 23.1872 381.121L23.2 381.122L23.2079 381.123L23.2138 381.124C25.2516 381.326 27.3229 381.531 29.3148 381.753ZM41.5863 357.834C40.1097 357.223 39.4987 355.771 39.2951 354.064C39.0659 352.204 40.7462 349.886 42.7065 349.198C44.2595 348.663 46.449 349.529 47.3145 351.058C47.8237 351.975 48.0274 352.714 46.9072 353.503C45.6398 354.391 44.4625 355.395 43.1921 356.478C42.6763 356.918 42.1451 357.371 41.5863 357.834ZM46.4227 365.652C45.9645 367.665 47.2629 369.27 48.8413 369.143C48.9842 368.687 49.1209 368.24 49.2556 367.8C49.505 366.985 49.748 366.192 50.0124 365.398C50.0824 365.199 50.1792 365.006 50.2757 364.813L50.2757 364.813L50.2757 364.813C50.3898 364.586 50.5035 364.359 50.5725 364.124C50.7762 363.385 51.0053 362.417 50.0633 362.188C49.3759 362.035 48.2812 362.264 47.8484 362.748C47.161 363.513 46.6519 364.608 46.4227 365.652ZM55.5104 362.8C55.6241 362.648 55.7287 362.483 55.8318 362.32C56.0748 361.937 56.3088 361.567 56.6306 361.424C56.9616 361.271 57.6744 361.577 58.0308 361.883C58.1094 361.95 58.1883 362.018 58.2673 362.086L58.2673 362.086C59.1109 362.809 59.9715 363.547 60.5767 364.456C60.9076 364.991 60.7803 365.984 60.5512 366.647C60.373 367.131 59.7111 367.64 59.2019 367.742C58.8709 367.793 58.3363 367.182 58.0054 366.774C57.4453 366.086 56.9615 365.373 56.4778 364.609C56.2314 364.274 56.0458 363.89 55.8284 363.441L55.8284 363.441C55.7314 363.241 55.6282 363.028 55.5104 362.8ZM56.8456 371.953L56.8603 371.944C56.853 371.901 56.8437 371.855 56.8341 371.808C56.81 371.69 56.7839 371.562 56.7839 371.435C56.6481 371.401 56.5124 371.356 56.3766 371.31C56.105 371.22 55.8335 371.129 55.5619 371.129C54.5181 371.129 53.4743 371.155 52.4559 371.282C52.0486 371.333 51.5649 371.613 51.3867 371.919C51.2848 372.097 51.6158 372.658 51.8959 372.912C52.0446 373.061 52.2628 373.114 52.4845 373.169C52.6424 373.207 52.802 373.246 52.9397 373.32C53.2197 373.473 53.7289 373.779 53.7034 373.906C53.6016 374.263 53.347 374.619 53.0415 374.874C52.8936 375.006 52.682 375.052 52.4205 375.11C52.2769 375.142 52.1182 375.177 51.9468 375.231C52.935 375.166 53.851 375.101 54.767 375.036C55.2906 374.999 55.8141 374.962 56.3511 374.925C56.0505 374.791 55.7061 374.751 55.3745 374.712C54.695 374.632 54.069 374.558 53.9835 373.702C55.0217 373.069 55.934 372.511 56.8456 371.953Z" fill="#20113D"/>
<path d="M27.8581 570.572C32.1925 569.581 34.9329 566.799 37.7091 563.844C37.333 563.739 37.0464 563.653 36.7598 563.583C32.9448 562.644 29.4342 561.045 26.2103 558.871C24.2221 557.533 22.5922 555.846 21.3564 553.795C21.1952 553.534 21.0698 553.256 20.9444 552.977C20.9086 552.908 20.9086 552.821 20.8728 552.577C22.0907 552.943 23.237 553.29 24.3654 553.638C24.4013 553.603 24.4192 553.586 24.455 553.551C24.3296 553.447 24.2221 553.342 24.0968 553.256C22.6281 552.334 21.1952 551.378 19.7086 550.509C18.007 549.5 16.2159 548.631 14.5681 547.588C12.3651 546.179 10.8068 544.197 9.67843 541.902C9.6247 541.798 9.60679 541.694 9.58888 541.589C9.57097 541.537 9.58888 541.468 9.58888 541.311C11.4158 542.076 13.1173 543.154 15.2308 542.963C11.0755 540.65 8.49631 537.417 8.67542 532.548C10.4486 534.444 12.186 536.321 13.9233 538.199C13.9592 538.164 14.0129 538.112 14.0487 538.077C13.3323 536.721 12.4905 535.4 11.9531 533.974C11.4158 532.549 11.0576 531.001 10.8785 529.489C10.6994 527.976 10.8426 526.429 10.8426 524.899C10.9322 524.881 11.0218 524.881 11.0934 524.864C11.9352 526.707 12.777 528.55 13.6188 530.41C13.7084 530.41 13.798 530.393 13.8875 530.393C13.8517 527.037 14.2278 523.751 15.8219 520.743C15.8935 520.743 15.9652 520.743 16.0368 520.761C16.0368 521.508 16.0727 522.238 16.0368 522.986C15.8398 526.655 17.2906 529.784 19.4578 532.635C20.9086 534.531 22.6997 536.113 24.6341 537.538C27.1775 539.416 30.0253 540.79 32.8731 542.146C35.524 543.398 37.8524 545.101 40.0375 547.014C41.3629 548.179 42.7421 549.274 44.1033 550.404C44.4795 550.717 44.8556 551.065 45.2855 551.447C45.984 549.883 46.6288 548.422 47.2736 546.944C48.8318 543.432 51.1782 540.477 54.0797 537.921C56.3903 535.887 58.7366 533.922 61.0471 531.905C64.1815 529.158 66.1338 525.75 66.7607 521.682C66.9935 520.239 66.8861 518.726 66.9398 517.266C66.9398 517.023 66.9398 516.762 67.0294 516.501C68.1578 519.005 68.4802 521.647 68.7488 524.394C69.8593 522.204 70.9519 520.013 72.0624 517.805C72.1519 517.822 72.2415 517.84 72.3131 517.857C72.1877 520.1 72.1698 522.343 71.9012 524.568C71.6325 526.776 71.1131 528.95 70.7011 531.053C71.2564 530.219 71.9012 529.262 72.6534 528.167C72.7072 530.306 72.6355 532.236 71.7041 534.061C70.7907 535.869 69.322 537.225 67.7279 538.564C68.6055 538.738 69.3041 538.442 69.9847 538.112C70.6474 537.799 71.2564 537.417 72.0265 536.982C71.9549 537.312 71.9191 537.538 71.8474 537.747C70.8802 540.285 69.3757 542.476 67.1189 544.093C65.7398 545.101 64.2711 545.988 62.9099 546.996C62.0501 547.64 61.4412 548.04 61.4053 548.926C61.9785 548.735 62.5337 548.561 63.1964 548.353C62.0859 552.038 59.1485 554.299 56.5873 556.941C56.838 557.046 57.035 557.115 57.2321 557.202C58.5037 557.706 59.5784 558.471 60.3128 559.619C60.868 560.471 60.9934 561.375 60.7605 562.366C60.6889 562.662 60.868 563.061 61.065 563.322C61.674 564.226 61.7635 565.148 61.2262 566.087C60.7068 567.008 59.8471 567.46 58.7187 567.53C59.6142 565.965 59.5784 565.617 58.3605 564.783C58.2351 565.426 58.1097 566.034 57.9843 566.678C57.1783 566.034 56.4798 565.269 55.6022 564.817C54.7066 564.365 53.6499 564.244 52.5752 563.948C52.6289 564.174 52.629 564.313 52.6827 564.435C53.4708 566.365 54.2051 568.329 55.1007 570.225C55.4231 570.92 56.0679 571.511 56.6589 572.033C57.2142 572.52 57.6082 572.346 57.8231 571.633C57.9664 571.129 58.0201 570.607 58.1097 570.103C58.1993 569.651 58.45 569.46 58.7724 569.599C58.8441 570.016 58.9336 570.346 58.9515 570.677C58.9694 571.024 58.9694 571.389 58.8978 571.72C58.8261 572.015 58.6291 572.293 58.4858 572.572C58.5217 572.624 58.5754 572.659 58.6112 572.711C59.0948 572.398 59.5963 572.085 60.062 571.755C60.2948 571.581 60.474 571.355 60.6889 571.163C61.5307 570.416 61.9427 570.468 62.5337 571.459C62.2113 571.424 61.9247 571.372 61.6203 571.337C61.5665 572.624 60.1695 572.606 59.5963 573.476C60.2769 573.441 60.8859 573.389 61.4949 573.389C62.4263 573.389 62.8024 573.806 62.6233 574.728C62.3546 574.102 61.9068 574.189 61.477 574.362C60.5635 574.728 59.6321 574.606 58.7008 574.484C57.6798 574.345 56.7664 574.484 55.8887 575.075C55.3156 575.475 54.7245 575.858 53.9006 575.684C53.7215 575.649 53.3991 576.223 53.1663 576.501C52.7901 576.014 52.8081 575.545 53.4349 575.162C53.829 574.919 54.2947 574.797 54.7245 574.623C54.9932 574.519 55.2798 574.432 55.5126 574.258C56.032 573.876 56.032 573.632 55.5305 573.25C54.2947 572.276 53.0588 571.32 51.823 570.346C51.7155 570.259 51.5901 570.19 51.4826 570.172C49.8527 570.033 48.9572 568.99 48.2766 567.721C48.1333 567.443 48.0258 567.06 47.6318 567.304C47.4169 567.443 47.184 567.86 47.2557 568.069C47.6318 569.442 48.4557 570.52 49.7274 571.216C50.2826 571.129 50.3901 569.807 51.1782 570.607C51.1065 570.903 51.0528 571.076 51.017 571.25C51.2319 571.285 51.4647 571.372 51.6797 571.355C52.0379 571.355 52.3961 571.285 52.7543 571.25C52.7722 571.32 52.7901 571.407 52.8081 571.476C52.5573 571.598 52.3066 571.72 51.9662 571.894C53.6857 571.981 53.6857 571.981 53.7573 572.867C53.2021 572.346 52.6648 572.763 52.1274 572.832C50.9095 572.972 50.0677 573.528 49.6199 574.693C49.4766 575.058 49.0826 575.319 48.7244 575.719C48.7423 575.771 48.796 575.945 48.8318 576.136C48.0617 575.875 47.8825 575.51 48.2587 574.849C48.5452 574.345 48.9214 573.876 49.2617 573.389C49.5662 572.954 49.5662 572.589 48.993 572.346C48.0616 571.946 47.2736 571.302 46.181 571.198C45.7691 571.163 45.4108 570.624 44.9989 570.277C44.8019 570.59 44.5332 570.955 44.3183 571.372C43.6914 572.606 42.6346 573.354 41.3092 573.702C37.136 574.815 33.1955 574.189 29.5238 571.981C28.9148 571.633 28.467 571.094 27.8581 570.572Z" fill="#20113D"/>
</svg>
