<svg width="81" height="577" viewBox="0 0 81 577" fill="none" xmlns="http://www.w3.org/2000/svg">
<path fill-rule="evenodd" clip-rule="evenodd" d="M40.0593 0.509589C41.0004 0.456908 41.898 0.650073 42.8217 0.974941C42.7911 1.06204 42.7629 1.14765 42.7351 1.23176L42.7351 1.23176C42.6676 1.43593 42.6031 1.63129 42.5167 1.81784C42.2509 2.39295 41.9808 2.96805 41.7106 3.54315C41.4405 4.11826 41.1704 4.69336 40.9046 5.26847L40.9038 5.2701C40.7607 5.58031 40.6911 5.73136 40.5739 5.79504C40.4627 5.85548 40.3087 5.83723 40.0086 5.80165L39.9548 5.79528C39.6498 5.76016 39.4668 5.62846 39.4232 5.32993C39.4047 5.20421 39.3814 5.07786 39.3579 4.9514L39.3579 4.95136L39.3579 4.95133L39.3579 4.9513L39.3579 4.95127L39.3579 4.95123L39.3579 4.9512L39.3579 4.95117L39.3579 4.95113L39.3579 4.9511L39.3579 4.95107C39.293 4.60071 39.228 4.24938 39.2664 3.90753C39.3626 3.06287 39.5184 2.22366 39.674 1.38561L39.674 1.38556L39.674 1.38548L39.674 1.38539L39.674 1.38531L39.674 1.38522L39.674 1.38513L39.6741 1.38506L39.6741 1.385L39.6741 1.38497L39.6741 1.38494L39.6741 1.3849C39.7158 1.16039 39.7574 0.935963 39.7979 0.711534C39.8154 0.632512 39.9635 0.518369 40.0593 0.509589ZM34.1872 3.35521L34.1874 3.35546L34.1874 3.35551L34.1875 3.35561C34.7652 4.22139 35.3305 5.06853 35.9205 5.90076C36.1383 6.21685 36.4346 6.49781 36.9139 6.30465C37.6458 6.02368 37.8288 5.83052 37.611 5.05786C37.3503 4.11869 37.5121 3.2156 37.6744 2.30935L37.6744 2.30933C37.6912 2.21583 37.708 2.12229 37.7243 2.02868C37.7852 1.69503 37.7765 1.32626 37.6981 0.992616C37.6633 0.834572 37.3496 0.597506 37.2276 0.623847C35.8943 0.957495 34.7267 1.61601 33.6113 2.49403C33.8055 2.7832 33.997 3.07022 34.1872 3.35521ZM30.7643 10.0505C31.3748 10.4996 31.9871 10.95 32.6102 11.4059C32.4011 12.4157 31.8608 12.9864 30.8065 13.1005C29.3512 13.2498 28.1226 12.6527 27.0159 11.7572C26.9549 11.7045 26.9288 11.5113 26.9723 11.4235C27.0363 11.2801 27.1 11.1364 27.1637 10.9926L27.1643 10.9912L27.1651 10.9894L27.1653 10.9889L27.166 10.9873L27.1661 10.9872L27.1661 10.9872L27.1661 10.9872L27.1661 10.9871L27.1661 10.9871L27.1661 10.9871L27.1662 10.987L27.1662 10.987L27.1662 10.987L27.1662 10.9869L27.1662 10.9869L27.1662 10.9869L27.1663 10.9868L27.1663 10.9868C27.4488 10.349 27.732 9.70977 28.0441 9.08797C28.1279 8.91305 28.2652 8.76714 28.3966 8.62747L28.3966 8.62743C28.4565 8.56379 28.5152 8.50144 28.567 8.43823C29.3064 8.97791 30.0329 9.5124 30.762 10.0488L30.7635 10.0499L30.7638 10.0501L30.7643 10.0505ZM31.154 15.4169C29.5071 15.0043 27.9124 14.6004 26.1958 14.1614C26.159 14.3652 26.1179 14.5755 26.0759 14.7904L26.0759 14.7905C25.9985 15.1867 25.9181 15.5985 25.8559 16.014C25.7963 16.4075 25.7569 16.8044 25.7167 17.2089V17.2089C25.6923 17.4543 25.6677 17.7025 25.6381 17.9544C27.0149 18.6481 28.4265 18.8412 29.8208 18.0335C30.8141 17.4715 31.2063 16.5408 31.154 15.4169ZM25.699 20.0716C25.4376 21.4589 25.6467 22.7671 26.1347 24.0403C26.1783 24.1456 26.2916 24.2598 26.3961 24.2949C28.4526 24.9885 30.7705 23.6013 31.0929 21.7311C31.1365 21.4764 31.1539 21.2043 31.1365 20.9496C31.0319 19.8345 30.8228 19.6765 29.7423 19.8345L29.431 19.8801C28.6894 19.9889 27.947 20.0978 27.1978 20.1594C26.8687 20.1835 26.5315 20.1497 26.1831 20.1147C26.0242 20.0988 25.8629 20.0826 25.699 20.0716ZM31.5548 28.3061C32.252 26.8134 32.0341 25.7422 30.8577 24.8115C29.6378 25.7422 28.2261 26.0847 26.7099 26.1373C26.6053 26.1373 26.4311 26.2866 26.4049 26.4007C26.1696 27.5158 26.5008 28.508 27.1195 29.4211C27.169 29.4932 27.2637 29.5303 27.3707 29.5722C27.4331 29.5966 27.4997 29.6226 27.5639 29.6582C27.5337 29.6785 27.5043 29.6987 27.4751 29.7188L27.4751 29.7188C27.4032 29.7683 27.3333 29.8164 27.2589 29.8601C25.6729 30.8172 24.392 32.0728 23.6339 33.7849C22.6405 36.0414 22.2832 38.3682 23.1808 40.7652C23.3423 41.1961 23.4909 41.6348 23.6393 42.0727L23.6393 42.0729L23.6393 42.073L23.6394 42.0732L23.6394 42.0733L23.6395 42.0734L23.6395 42.0736L23.6396 42.0737L23.6396 42.0738L23.6397 42.074L23.6397 42.0741L23.6398 42.0742L23.6398 42.0744L23.6398 42.0745L23.6399 42.0747L23.6399 42.0748L23.64 42.0749L23.64 42.0751C23.7635 42.4396 23.8868 42.8036 24.0173 43.1622C24.453 44.3739 24.4879 45.6206 24.1393 46.8323C23.1111 50.3707 24.0783 53.6194 25.4464 56.8242C25.5664 57.0921 25.7624 57.3344 25.9513 57.568L25.9605 57.5793C26.2219 57.9042 26.5618 58.0095 26.9713 57.8691C27.3809 57.7198 27.6771 57.4476 27.6597 57.0174C27.6423 56.4642 27.5726 55.9111 27.4419 55.3755C27.3417 54.9496 27.2197 54.5282 27.0977 54.1067C26.9757 53.6853 26.8537 53.2638 26.7535 52.838C26.4746 51.6351 26.8319 50.6429 27.8079 49.8966C27.8495 49.8659 27.8902 49.8342 27.9306 49.8028L27.9307 49.8027L27.9308 49.8027L27.9309 49.8026L27.931 49.8025L27.9311 49.8025L27.9311 49.8024L27.9312 49.8024L27.9313 49.8023L27.9315 49.8022C28.0177 49.7352 28.1025 49.6693 28.1913 49.6156C29.6639 48.764 30.5702 47.4294 31.3196 45.9455C31.5288 45.5238 31.7996 45.131 32.07 44.7388L32.0701 44.7387C32.1938 44.5594 32.3174 44.3801 32.4349 44.1982L32.5395 44.2509C32.5918 44.4968 32.6452 44.7426 32.6985 44.9884L32.6986 44.9886C32.8587 45.7261 33.0188 46.4636 33.1495 47.2011C33.7333 50.4059 35.6155 52.8204 37.794 55.0682C38.0089 55.2933 38.2916 55.4587 38.5585 55.6148L38.5695 55.6213C38.9355 55.8408 39.3102 55.8408 39.6588 55.5511C40.016 55.2525 40.1468 54.875 39.9899 54.4535C39.8331 54.0497 39.6326 53.6545 39.3886 53.2946C39.1356 52.9263 38.8624 52.5732 38.5894 52.2204C38.3547 51.9171 38.1201 51.614 37.8986 51.3014C36.8616 49.8439 36.818 48.8166 37.8376 47.3591C38.648 46.1914 39.2057 44.9182 39.7023 43.5397C39.841 43.6047 39.9772 43.6649 40.1107 43.7238L40.1108 43.7239L40.1109 43.7239L40.1111 43.724L40.1112 43.724L40.1113 43.7241C40.3383 43.8243 40.557 43.9209 40.7654 44.0314C42.9091 45.208 44.2249 47.0606 45.0091 49.3347C45.3276 50.2417 45.6021 51.1653 45.8763 52.0879L45.8764 52.0881L45.8765 52.0887C45.9473 52.3269 46.0181 52.5651 46.0896 52.8029C46.3423 53.6458 46.7519 54.3921 47.3096 55.0594C47.5224 55.3123 47.7349 55.5653 47.9473 55.8182L47.9473 55.8182L47.9473 55.8182L47.9474 55.8182C48.9442 57.0048 49.9392 58.1892 50.952 59.3617C51.2396 59.6953 51.5881 60.0114 51.9628 60.2485C52.6425 60.6787 53.3048 60.547 53.9322 59.9412C54.3853 59.5022 54.4637 58.9578 54.0542 58.2642C53.8192 57.8647 53.5162 57.5026 53.2182 57.1464L53.2181 57.1463L53.2181 57.1463L53.218 57.1462L53.2176 57.1457C53.1621 57.0794 53.1067 57.0133 53.0521 56.9471C52.8778 56.7364 52.6774 56.5345 52.4682 56.3589C50.6993 54.8399 50.2636 52.8292 50.342 50.6254C50.3547 50.2553 50.3996 49.8853 50.4432 49.5254L50.4432 49.5253C50.4596 49.3899 50.4759 49.2559 50.4902 49.124C50.7628 49.0715 51.0321 49.019 51.2956 48.9677L51.2972 48.9674C51.7828 48.8728 52.2484 48.7821 52.6774 48.7025C52.8398 49.0632 52.9919 49.4319 53.1442 49.8012C53.4738 50.6004 53.8048 51.4029 54.2459 52.1356C54.8946 53.2156 55.6632 54.2208 56.4315 55.2258L56.4319 55.2263L56.4321 55.2265L56.4321 55.2265C56.613 55.4632 56.794 55.6998 56.9733 55.9374C57.2783 56.3413 57.6879 56.6662 58.2455 56.5345C58.5418 56.4642 58.7684 55.6564 58.6202 55.0857C58.4808 54.5501 58.3153 54.0058 58.0451 53.5316C56.8426 51.398 56.3808 49.0537 56.0584 46.6743C55.8928 45.4626 55.1783 44.9182 53.9757 45.1553C51.7275 45.6031 49.4706 45.8226 47.1789 45.6206C47.0221 45.6031 46.8652 45.568 46.7084 45.5329L46.7083 45.5328C45.0875 45.1465 44.4427 43.6363 45.2792 42.17C45.3054 42.1173 45.3315 42.0647 45.3751 42.0208C46.1541 41.2293 46.5764 40.2461 47.0004 39.2589C47.1503 38.91 47.3003 38.5606 47.4664 38.2189C47.7976 37.5516 48.425 36.9897 49.0262 36.498C49.7669 35.9009 50.6732 35.6024 51.6056 35.4005C51.7363 35.3741 51.928 35.2512 51.9541 35.1458C51.9802 35.0229 51.8757 34.7946 51.7711 34.742C51.7046 34.7103 51.6377 34.6778 51.5704 34.6451C51.1708 34.4507 50.7585 34.2502 50.3333 34.1976C49.6362 34.1098 48.913 34.1273 48.2071 34.1976C47.4229 34.2766 46.7258 34.0308 46.0722 33.7147C45.3751 33.381 44.7128 32.9244 44.0854 32.4679C42.3688 31.2123 40.6347 29.9919 38.6654 29.1577C36.5566 28.2534 34.3694 27.9548 32.1038 28.2885C31.9382 28.2709 31.7553 28.2797 31.5548 28.3061ZM41.1132 26.616C40.4161 27.055 39.658 27.2482 38.8389 27.2482C38.0546 27.2219 37.3053 27.0638 36.6691 26.5721C35.9633 26.0365 35.6932 25.2463 36.1027 24.4824C36.3641 24.0017 36.7285 23.5803 37.0928 23.1588L37.093 23.1587L37.0931 23.1586L37.0932 23.1584L37.0933 23.1583L37.0934 23.1581L37.0936 23.158L37.0937 23.1578L37.0938 23.1577L37.0939 23.1576L37.094 23.1574L37.0942 23.1573L37.0943 23.1571L37.0943 23.1571L37.0943 23.1571L37.0943 23.1571L37.0944 23.1571C37.2153 23.0172 37.3363 22.8773 37.4534 22.7352C37.5144 22.6649 37.6625 22.6386 37.7671 22.6474C39.658 22.8318 41.1219 24.14 41.4618 25.7907C41.5489 26.1946 41.4356 26.4141 41.1132 26.616ZM31.6502 4.03198C32.6436 4.78708 34.0379 6.508 34.9877 8.13234L34.8897 8.2573L34.8896 8.25732L34.8896 8.25734L34.8895 8.25754L34.8894 8.25762L34.8893 8.25782C34.6647 8.54404 34.4525 8.81441 34.247 9.09817C34.064 9.35279 33.8461 9.41426 33.5324 9.31767C31.9204 8.79964 30.8137 7.64065 29.646 6.39386C30.3251 5.59561 30.9867 4.81488 31.6484 4.03418L31.6488 4.03374L31.6502 4.03198ZM45.2441 9.42381C45.9621 8.80061 46.8367 8.69169 47.7165 8.58212L47.7166 8.58211L47.7166 8.5821L47.7167 8.5821L47.7167 8.58209L47.7168 8.58209L47.7168 8.58208L47.7169 8.58208L47.7169 8.58207L47.717 8.58206L47.717 8.58206L47.717 8.58205C47.9155 8.55734 48.1142 8.53259 48.3114 8.50189C48.7645 8.43165 49.2176 8.29995 49.6533 8.15946C49.7492 8.12434 49.8886 7.94874 49.8712 7.86094C49.7405 6.99169 49.4704 6.17513 48.7471 5.6132C48.6251 5.51662 48.4247 5.45516 48.2853 5.47272C47.2222 5.63954 46.2375 6.00831 45.3574 6.63171C45.2528 6.71073 45.1482 6.78975 45.0524 6.87755C44.1461 7.72045 44.2071 8.6775 45.2441 9.42381ZM45.5844 23.8298C44.7042 22.2494 40.8701 20.7392 39.8767 21.5909C39.8767 21.6172 39.8767 21.6611 39.8942 21.6699C41.0793 22.706 41.9332 24.0142 42.761 25.34C42.9615 25.6649 43.1619 25.6825 43.4756 25.5771C44.2076 25.3313 45.0441 24.6464 45.5844 23.8298ZM51.4392 40.8709C51.3085 41.547 51.0383 41.7489 50.3412 41.7665C50.2187 41.7435 50.0963 41.7252 49.9744 41.7071C49.7234 41.6696 49.475 41.6326 49.2346 41.5557C48.4503 41.3187 48.1105 40.7655 48.2586 39.949C48.3109 39.6504 48.4242 39.3607 48.5549 39.0885C49.0254 38.1315 49.801 37.4554 50.6898 36.911C50.9948 36.7266 51.3608 36.6125 51.7093 36.551C51.8704 36.5198 52.0491 36.5641 52.2267 36.608C52.2988 36.6259 52.3708 36.6437 52.4413 36.6564C52.4265 36.7208 52.4152 36.7888 52.4039 36.857C52.3751 37.0306 52.3458 37.2064 52.2583 37.3325C51.7529 38.0612 51.6047 38.8778 51.5612 39.7382C51.5438 40.1158 51.5089 40.5021 51.4392 40.8709ZM49.8271 39.589C49.4437 39.589 49.1039 39.9314 49.1126 40.3177C49.1148 40.4173 49.1374 40.5119 49.1764 40.5975C49.138 40.5124 49.1157 40.4186 49.1135 40.3198C49.1135 39.9335 49.4446 39.5911 49.8281 39.5911C50.1112 39.5911 50.358 39.7604 50.47 40.0066C50.3584 39.7593 50.1111 39.589 49.8271 39.589ZM45.5057 11.861C45.8452 11.8893 46.1825 11.9173 46.5181 11.9452L46.5183 11.9452L46.5185 11.9452L46.5185 11.9452L46.5186 11.9452L46.5187 11.9452C47.8457 12.0554 49.1461 12.1633 50.4465 12.2824C50.8299 12.3175 50.9519 12.1683 50.9867 11.8083C51.0564 11.0356 50.795 10.4298 50.1502 10.0083C49.061 9.30592 47.1178 9.42884 46.1244 10.2717C45.619 10.6932 45.4011 11.2288 45.5057 11.861ZM44.7217 1.75488C45.7674 2.3256 46.7608 2.90509 47.4579 3.89726C45.8545 4.84552 44.3034 5.76744 42.7524 6.69815C42.4648 6.24157 42.43 5.93427 42.6391 5.29331C43.0367 4.0588 43.7893 3.02983 44.5524 1.98667L44.5528 1.98615L44.5533 1.98535C44.6095 1.90863 44.6656 1.83184 44.7217 1.75488ZM42.3516 19.9945C43.4385 20.3668 44.3119 21.0397 45.2021 21.7256L45.2021 21.7256C45.7393 22.1395 46.2827 22.5581 46.8828 22.9183C46.9644 22.7888 47.0457 22.6604 47.1265 22.5328L47.1275 22.5311L47.1281 22.5301L47.1283 22.5299C47.4523 22.0179 47.7685 21.5182 48.0679 21.013C48.1115 20.9427 48.0854 20.7408 48.0156 20.6881C46.8828 19.7925 45.6629 19.0725 44.1728 19.0023C43.4321 18.9847 42.7699 19.1779 42.3516 19.9945ZM50.6387 14.1647C50.6213 14.884 50.6035 15.6207 50.1421 16.226C49.961 16.166 49.7818 16.1053 49.6039 16.045C49.1313 15.8849 48.6674 15.7278 48.1989 15.5938C47.3711 15.3743 46.5433 15.1724 45.7067 14.988C45.393 14.9177 45.3233 14.7597 45.3669 14.4612C45.4802 13.6358 46.0466 13.1266 47.0051 13.0915C48.2338 13.0388 49.3666 13.4514 50.4732 13.9431C50.5517 13.9783 50.6388 14.0924 50.6388 14.1626L50.6387 14.1647ZM47.5609 40.8882C47.3749 41.1173 47.2084 41.3188 47.0532 41.5066L47.0528 41.5072C46.8811 41.715 46.7231 41.9062 46.5676 42.0999C46.5141 42.1665 46.4585 42.2316 46.403 42.2966L46.4029 42.2967C46.2683 42.4542 46.1347 42.6107 46.036 42.7847C45.7136 43.3466 45.8704 43.9613 46.463 44.2159C46.9335 44.4178 47.4564 44.5495 47.9618 44.6022C49.3124 44.7515 50.6457 44.6198 51.9528 44.2247C51.8656 43.6101 51.5868 43.3291 50.9768 43.2676C50.6723 43.2402 50.3644 43.2299 50.0574 43.2197L50.0572 43.2196L50.0571 43.2196L50.0569 43.2196C49.872 43.2134 49.6875 43.2073 49.5041 43.1974C48.3191 43.1271 48.1273 42.9428 47.8921 41.7838C47.8512 41.5895 47.7711 41.3991 47.686 41.1968C47.6441 41.0974 47.6011 40.9952 47.5609 40.8882ZM48.66 19.4215C47.2657 18.6927 45.8454 18.0606 44.2681 17.7445C44.4947 16.6206 45.2354 16.1201 46.4031 16.2694C47.5794 16.4099 48.6251 16.9016 49.5836 17.5777C49.6795 17.6479 49.8015 17.8059 49.7753 17.8762C49.5836 18.3679 49.3832 18.8684 49.1305 19.3337C49.0782 19.4215 48.7732 19.483 48.66 19.4215ZM52.4859 39.0281C52.4859 39.9412 52.634 40.0905 53.3311 39.9588C53.6187 39.9061 53.9237 39.7832 54.159 39.6076C55.0652 38.9315 55.3179 37.2984 54.6905 36.394C54.5424 36.1833 54.4117 36.0955 54.1677 36.2711C53.1569 37.0174 52.5295 37.9569 52.4859 39.0281Z" fill="#20113D"/>
<path fill-rule="evenodd" clip-rule="evenodd" d="M29.3148 209.753C26.0306 210.746 22.721 210.594 19.3859 208.377C19.1297 208.699 18.8673 209.024 18.6021 209.351C17.9449 210.163 17.2712 210.996 16.6363 211.867C16.1654 212.542 15.7262 213.243 15.287 213.944L15.287 213.944C14.8479 214.644 14.4087 215.345 13.9377 216.02C12.8939 217.523 12.512 219.153 12.6139 220.962C12.7412 223.28 11.8247 224.452 9.55883 224.86C4.8999 225.7 0.72468 222.236 0.699221 217.523C0.699221 217.063 0.691014 216.602 0.682836 216.144C0.670643 215.46 0.658515 214.78 0.673753 214.109C0.71656 212.31 1.49711 210.745 2.27416 209.187C2.4214 208.892 2.56851 208.597 2.71045 208.301C3.07776 207.539 3.44851 206.778 3.81929 206.017C5.19606 203.191 6.57331 200.364 7.77673 197.474C9.54569 193.238 12.2031 189.595 14.8699 185.939C15.427 185.175 15.9846 184.411 16.5345 183.64C16.5609 183.607 16.589 183.574 16.6174 183.541L16.6176 183.541L16.6176 183.541L16.6176 183.541L16.6176 183.541L16.6177 183.541C16.699 183.445 16.7835 183.346 16.84 183.233C19.8187 177.806 25.1141 176.533 30.5622 175.463C31.9058 175.203 33.2384 174.878 34.5703 174.554C36.1154 174.177 37.6595 173.8 39.2182 173.527C42.0696 173.017 44.9973 172.609 47.8996 172.508C51.3365 172.38 54.2388 173.985 56.8101 176.202C52.9149 174.214 48.7397 173.527 44.4118 173.628C43.317 173.654 42.2223 173.756 41.1276 173.883C39.5491 174.062 38.8872 175.233 38.4544 176.584C37.3342 180.023 37.5634 183.411 38.7599 186.825C39.0483 187.645 39.2281 188.51 39.4072 189.373L39.4072 189.373L39.4072 189.373L39.4072 189.373L39.4073 189.373C39.5286 189.957 39.6495 190.539 39.8037 191.105C40.0003 191.81 40.1923 192.517 40.3843 193.225L40.3844 193.225C41.0874 195.816 41.7917 198.412 42.7315 200.913C43.1134 201.957 44.3863 202.976 45.481 203.384C49.7835 204.938 54.1879 205.779 58.745 204.225C64.4732 202.263 67.4264 196.149 65.2624 190.468C64.569 188.668 63.7465 186.924 62.9205 185.172L62.9205 185.172L62.9204 185.172C62.776 184.866 62.6314 184.559 62.4874 184.252C62.3555 183.969 62.0843 183.742 61.818 183.519L61.818 183.519C61.7244 183.441 61.6315 183.363 61.5454 183.284C61.2162 182.971 60.8729 182.667 60.5286 182.362C59.8348 181.747 59.1369 181.129 58.5413 180.43C57.7012 179.437 57.7266 178.189 58.4649 177.119C59.1778 176.074 60.3234 175.819 61.52 176.023C63.3785 176.329 64.575 177.475 65.186 179.182C65.7716 180.838 65.2115 182.265 63.7603 183.513C65.6697 185.092 66.3062 187.36 66.8663 189.602C67.0783 190.45 67.1923 191.327 67.3065 192.205V192.205C67.439 193.224 67.572 194.246 67.8592 195.232C68.3388 196.863 68.9143 198.473 69.4904 200.084C69.9846 201.467 70.4793 202.85 70.9142 204.25C71.4791 206.042 71.9992 207.849 72.5189 209.655L72.5191 209.656C72.9598 211.187 73.4002 212.717 73.8674 214.237C74.1278 215.083 74.461 215.909 74.7939 216.734L74.7939 216.734L74.794 216.735L74.7941 216.735L74.7942 216.735C74.982 217.201 75.1696 217.666 75.344 218.134C75.902 219.616 77.1654 220.283 78.4176 220.944C78.651 221.068 78.884 221.191 79.1119 221.319C80.283 221.981 80.894 222.847 80.5885 224.223C80.3085 225.522 79.4683 226.337 77.9154 226.286C74.733 226.159 71.5761 225.853 68.4193 225.522C67.8846 225.471 67.3246 224.911 66.9427 224.452C64.8041 221.879 62.6911 219.281 60.6035 216.682C59.1523 214.873 58.0831 212.886 57.523 210.619C57.2849 209.686 56.7996 208.799 56.3198 207.923C56.1839 207.675 56.0484 207.427 55.9191 207.18C55.7918 206.925 55.4353 206.696 55.1553 206.645L54.9543 206.605C53.3414 206.284 51.7369 205.965 50.3436 207.384C49.9889 207.764 49.4074 207.968 48.9 208.145L48.8925 208.148C48.0014 208.454 47.5941 209.014 47.925 209.88C49.0995 213.031 49.0108 216.25 48.9219 219.477V219.477C48.8778 221.077 48.8337 222.678 48.9434 224.274C48.9887 224.885 49.0741 225.497 49.1596 226.108C49.2665 226.872 49.3734 227.637 49.4016 228.401C49.4271 228.987 49.1725 229.828 48.7652 230.133C45.3792 232.681 41.5858 233.114 37.6907 231.713C35.7558 230.999 34.4574 229.598 34.1519 227.204C33.5664 222.236 32.7771 217.294 31.7588 212.402C31.3921 210.567 30.5095 208.815 29.6498 207.108L29.6497 207.108L29.6496 207.108L29.6496 207.108C29.5544 206.919 29.4595 206.731 29.3657 206.543C26.9216 201.677 26.2343 196.633 27.0999 191.232C27.8127 186.748 28.7801 182.469 31.7588 178.927C32.3732 178.204 33.1029 177.584 33.8298 176.965L33.8299 176.965L33.83 176.965L33.83 176.965C34.1272 176.713 34.4239 176.46 34.712 176.202C34.7556 176.164 34.8022 176.128 34.8492 176.092C34.9946 175.98 35.1442 175.865 35.2212 175.692C31.3005 175.743 27.7618 176.838 24.2739 178.469C21.0066 179.968 19.1342 182.642 17.2384 185.35L17.2384 185.35C16.815 185.954 16.3905 186.561 15.949 187.156C15.7707 187.411 15.7707 187.844 15.7962 188.201C16.17 191.767 17.5442 195.016 18.9156 198.258L19.004 198.467C19.2768 199.086 19.4197 199.77 19.5625 200.453C19.6197 200.727 19.6768 201 19.7423 201.269C19.8951 201.957 20.0478 202.671 20.0987 203.384C20.1091 203.529 20.1204 203.675 20.1317 203.821C20.204 204.756 20.2782 205.716 20.1242 206.619C19.8187 208.224 19.946 208.708 21.6008 208.963C22.1259 209.016 22.6554 209.068 23.1872 209.121L23.2 209.122L23.2079 209.123L23.2138 209.124C25.2516 209.326 27.3229 209.531 29.3148 209.753ZM41.5863 185.834C40.1097 185.223 39.4987 183.771 39.295 182.064C39.0659 180.204 40.7462 177.886 42.7065 177.198C44.2595 176.663 46.4489 177.529 47.3145 179.058C47.8237 179.975 48.0274 180.714 46.9072 181.503C45.6397 182.391 44.4624 183.395 43.1921 184.478C42.6763 184.918 42.1451 185.371 41.5863 185.834ZM46.4227 193.652C45.9645 195.665 47.2628 197.27 48.8413 197.143C48.9842 196.687 49.1208 196.24 49.2556 195.8C49.505 194.985 49.748 194.192 50.0124 193.398C50.0824 193.199 50.1791 193.006 50.2757 192.813L50.2757 192.813L50.2757 192.813C50.3898 192.586 50.5035 192.359 50.5725 192.124C50.7761 191.385 51.0053 190.417 50.0633 190.188C49.3759 190.035 48.2812 190.264 47.8484 190.748C47.161 191.513 46.6518 192.608 46.4227 193.652ZM55.5104 190.8C55.6241 190.648 55.7287 190.483 55.8317 190.32C56.0748 189.937 56.3087 189.567 56.6306 189.424C56.9615 189.271 57.6744 189.577 58.0308 189.883C58.1093 189.95 58.1882 190.018 58.2673 190.086L58.2673 190.086C59.1109 190.809 59.9715 191.547 60.5767 192.456C60.9076 192.991 60.7803 193.984 60.5512 194.647C60.373 195.131 59.7111 195.64 59.2019 195.742C58.8709 195.793 58.3363 195.182 58.0053 194.774C57.4452 194.086 56.9615 193.373 56.4778 192.609C56.2313 192.274 56.0457 191.89 55.8284 191.441L55.8284 191.441C55.7314 191.241 55.6282 191.028 55.5104 190.8ZM56.8456 199.953L56.8603 199.944C56.853 199.901 56.8437 199.855 56.8341 199.808C56.8099 199.69 56.7839 199.562 56.7839 199.435C56.6481 199.401 56.5123 199.356 56.3765 199.31C56.105 199.22 55.8334 199.129 55.5619 199.129C54.5181 199.129 53.4743 199.155 52.4559 199.282C52.0486 199.333 51.5649 199.613 51.3866 199.919C51.2848 200.097 51.6158 200.658 51.8958 200.912C52.0445 201.061 52.2628 201.114 52.4845 201.169C52.6424 201.207 52.802 201.246 52.9396 201.32C53.2197 201.473 53.7289 201.779 53.7034 201.906C53.6016 202.263 53.347 202.619 53.0415 202.874C52.8936 203.006 52.682 203.052 52.4205 203.11C52.2769 203.142 52.1182 203.177 51.9467 203.231C52.9349 203.166 53.8509 203.101 54.767 203.036C55.2905 202.999 55.8141 202.962 56.3511 202.925C56.0505 202.791 55.7061 202.751 55.3745 202.712C54.6949 202.632 54.069 202.558 53.9834 201.702C55.0217 201.069 55.934 200.511 56.8456 199.953Z" fill="#20113D"/>
<path d="M27.858 398.572C32.1925 397.581 34.9329 394.799 37.7091 391.843C37.3329 391.739 37.0464 391.652 36.7598 391.582C32.9448 390.644 29.4342 389.044 26.2102 386.871C24.2221 385.532 22.5922 383.846 21.3564 381.794C21.1952 381.533 21.0698 381.255 20.9444 380.977C20.9086 380.907 20.9086 380.82 20.8728 380.577C22.0907 380.942 23.237 381.29 24.3654 381.638C24.4012 381.603 24.4191 381.585 24.455 381.551C24.3296 381.446 24.2221 381.342 24.0967 381.255C22.628 380.334 21.1952 379.377 19.7085 378.508C18.007 377.5 16.2159 376.63 14.5681 375.587C12.365 374.179 10.8068 372.197 9.6784 369.902C9.62467 369.798 9.60676 369.693 9.58885 369.589C9.57094 369.537 9.58885 369.467 9.58885 369.311C11.4158 370.076 13.1173 371.154 15.2308 370.962C11.0755 368.65 8.49628 365.416 8.67539 360.548C10.4486 362.443 12.1859 364.321 13.9233 366.199C13.9591 366.164 14.0129 366.112 14.0487 366.077C13.3322 364.721 12.4904 363.399 11.9531 361.974C11.4158 360.548 11.0575 359.001 10.8784 357.488C10.6993 355.975 10.8426 354.428 10.8426 352.898C10.9322 352.881 11.0217 352.881 11.0934 352.863C11.9352 354.706 12.777 356.549 13.6188 358.41C13.7084 358.41 13.7979 358.392 13.8875 358.392C13.8517 355.037 14.2278 351.751 15.8219 348.743C15.8935 348.743 15.9652 348.743 16.0368 348.76C16.0368 349.508 16.0726 350.238 16.0368 350.986C15.8398 354.654 17.2906 357.784 19.4578 360.635C20.9086 362.53 22.6997 364.112 24.6341 365.538C27.1774 367.416 30.0253 368.789 32.8731 370.145C35.5239 371.397 37.8524 373.101 40.0375 375.013C41.3629 376.178 42.7421 377.274 44.1033 378.404C44.4794 378.717 44.8556 379.064 45.2854 379.447C45.984 377.882 46.6287 376.422 47.2735 374.944C48.8318 371.432 51.1781 368.476 54.0797 365.92C56.3902 363.886 58.7366 361.922 61.0471 359.905C64.1815 357.158 66.1338 353.75 66.7607 349.682C66.9935 348.239 66.8861 346.726 66.9398 345.265C66.9398 345.022 66.9398 344.761 67.0293 344.5C68.1577 347.004 68.4801 349.647 68.7488 352.394C69.8593 350.203 70.9518 348.013 72.0623 345.804C72.1519 345.822 72.2414 345.839 72.3131 345.857C72.1877 348.099 72.1698 350.342 71.9011 352.568C71.6325 354.776 71.113 356.949 70.7011 359.053C71.2563 358.218 71.9011 357.262 72.6534 356.167C72.7071 358.305 72.6355 360.235 71.7041 362.061C70.7906 363.869 69.3219 365.225 67.7279 366.564C68.6055 366.738 69.304 366.442 69.9846 366.112C70.6474 365.799 71.2563 365.416 72.0265 364.982C71.9549 365.312 71.919 365.538 71.8474 365.747C70.8802 368.285 69.3757 370.476 67.1189 372.092C65.7397 373.101 64.2711 373.988 62.9098 374.996C62.0501 375.639 61.4411 376.039 61.4053 376.926C61.9785 376.735 62.5337 376.561 63.1964 376.352C62.0859 380.038 59.1485 382.298 56.5872 384.941C56.838 385.045 57.035 385.115 57.232 385.202C58.5037 385.706 59.5784 386.471 60.3127 387.618C60.868 388.47 60.9933 389.374 60.7605 390.365C60.6889 390.661 60.868 391.061 61.065 391.322C61.674 392.226 61.7635 393.147 61.2262 394.086C60.7068 395.008 59.847 395.46 58.7187 395.529C59.6142 393.964 59.5784 393.617 58.3604 392.782C58.2351 393.425 58.1097 394.034 57.9843 394.677C57.1783 394.034 56.4798 393.269 55.6021 392.817C54.7066 392.365 53.6498 392.243 52.5752 391.948C52.6289 392.174 52.6289 392.313 52.6827 392.434C53.4707 394.364 54.2051 396.329 55.1006 398.224C55.423 398.919 56.0678 399.511 56.6589 400.032C57.2141 400.519 57.6082 400.345 57.8231 399.632C57.9664 399.128 58.0201 398.607 58.1097 398.102C58.1992 397.65 58.45 397.459 58.7724 397.598C58.844 398.015 58.9336 398.346 58.9515 398.676C58.9694 399.024 58.9694 399.389 58.8978 399.719C58.8261 400.015 58.6291 400.293 58.4858 400.571C58.5216 400.623 58.5754 400.658 58.6112 400.71C59.0948 400.397 59.5963 400.084 60.062 399.754C60.2948 399.58 60.4739 399.354 60.6889 399.163C61.5307 398.415 61.9426 398.467 62.5337 399.458C62.2113 399.424 61.9247 399.372 61.6202 399.337C61.5665 400.623 60.1694 400.606 59.5963 401.475C60.2769 401.441 60.8859 401.388 61.4949 401.388C62.4262 401.388 62.8024 401.806 62.6232 402.727C62.3546 402.101 61.9068 402.188 61.4769 402.362C60.5635 402.727 59.6321 402.605 58.7007 402.484C57.6798 402.345 56.7664 402.484 55.8887 403.075C55.3156 403.475 54.7245 403.857 53.9006 403.683C53.7215 403.649 53.3991 404.222 53.1663 404.5C52.7901 404.014 52.808 403.544 53.4349 403.162C53.829 402.918 54.2946 402.797 54.7245 402.623C54.9932 402.518 55.2797 402.432 55.5126 402.258C56.032 401.875 56.032 401.632 55.5305 401.249C54.2946 400.276 53.0588 399.319 51.8229 398.346C51.7155 398.259 51.5901 398.189 51.4826 398.172C49.8527 398.033 48.9572 396.99 48.2766 395.72C48.1333 395.442 48.0258 395.06 47.6318 395.303C47.4168 395.442 47.184 395.86 47.2556 396.068C47.6318 397.442 48.4557 398.52 49.7273 399.215C50.2826 399.128 50.39 397.807 51.1781 398.607C51.1065 398.902 51.0528 399.076 51.0169 399.25C51.2319 399.285 51.4647 399.372 51.6796 399.354C52.0379 399.354 52.3961 399.285 52.7543 399.25C52.7722 399.319 52.7901 399.406 52.808 399.476C52.5573 399.598 52.3065 399.719 51.9662 399.893C53.6857 399.98 53.6857 399.98 53.7573 400.867C53.2021 400.345 52.6647 400.762 52.1274 400.832C50.9095 400.971 50.0676 401.527 49.6199 402.692C49.4766 403.057 49.0825 403.318 48.7243 403.718C48.7422 403.77 48.796 403.944 48.8318 404.135C48.0616 403.875 47.8825 403.509 48.2586 402.849C48.5452 402.345 48.9213 401.875 49.2617 401.388C49.5661 400.954 49.5661 400.589 48.993 400.345C48.0616 399.945 47.2735 399.302 46.181 399.198C45.769 399.163 45.4108 398.624 44.9988 398.276C44.8018 398.589 44.5332 398.954 44.3182 399.372C43.6913 400.606 42.6346 401.354 41.3092 401.701C37.1359 402.814 33.1955 402.188 29.5238 399.98C28.9148 399.632 28.467 399.093 27.858 398.572Z" fill="#20113D"/>
<path fill-rule="evenodd" clip-rule="evenodd" d="M54.1979 542.951C54.8219 544.286 55.4459 545.62 56.0925 547.013C55.9292 547.147 55.7637 547.285 55.5957 547.425L55.5949 547.426L55.5949 547.426C55.2149 547.744 54.8223 548.072 54.4135 548.383C53.9592 548.726 53.5086 549.075 53.0584 549.423L53.0577 549.423L53.0576 549.423C51.9451 550.284 50.834 551.143 49.6712 551.925C45.4848 554.746 40.8673 555.892 35.8982 555.443C34.6842 555.337 33.4022 554.9 32.8917 554.534C33.1865 552.41 33.47 550.345 33.7534 548.28L33.7539 548.276C33.7199 548.264 33.683 548.256 33.6461 548.247C33.6093 548.238 33.5724 548.229 33.5384 548.217C33.4279 548.451 33.3184 548.684 33.209 548.917L33.2086 548.918C32.9361 549.498 32.6644 550.077 32.3812 550.649C31.6454 552.162 31.1521 553.769 30.6577 555.379C30.5193 555.83 30.3808 556.281 30.2369 556.73C29.3293 559.528 27.7069 561.677 24.9501 562.728C24.8139 562.787 24.7005 563.023 24.6438 563.2C24.5326 563.567 24.4338 563.939 24.3351 564.31L24.3351 564.31C24.202 564.81 24.0691 565.31 23.9063 565.798C23.2823 567.687 22.1138 569.151 20.5368 570.273C19.8334 570.768 19.13 571.276 18.4606 571.819C17.882 572.28 17.9047 572.48 18.472 572.941C18.5829 573.031 18.6945 573.12 18.8059 573.208L18.8059 573.208L18.8059 573.208C19.1613 573.491 19.5138 573.772 19.8334 574.086C20.3553 574.606 20.5935 575.267 20.4007 576.023C20.3553 576.2 20.0943 576.436 19.9355 576.436C16.2143 576.459 12.4817 576.459 8.76053 576.448C8.62439 576.448 8.43152 576.4 8.3521 576.306C8.23817 576.162 8.12153 576.018 8.00455 575.874L8.00434 575.873L8.00431 575.873C7.58554 575.357 7.1624 574.835 6.8432 574.263C6.63899 573.897 6.61629 573.283 6.75244 572.87C8.06848 568.702 9.7589 564.747 12.9469 561.713C13.083 561.583 13.1625 561.299 13.1738 561.099C13.2532 558.1 13.5936 555.124 14.331 552.232C14.9663 549.729 15.647 547.225 16.8496 544.923C19.0619 540.72 21.9209 537.213 26.3115 535.324C30.0894 533.707 33.7766 533.954 37.373 535.867C37.8668 536.132 38.3133 536.495 38.7482 536.849C38.953 537.016 39.1551 537.18 39.3584 537.331C38.95 536.41 38.2353 535.655 37.4638 534.958C38.1903 534.67 38.9194 534.392 39.6473 534.114L39.6475 534.114C42.864 532.886 46.0553 531.668 48.877 529.704C49.0012 530.154 49.1233 530.608 49.246 531.065L49.246 531.065C49.4035 531.652 49.5621 532.242 49.7279 532.833C49.7733 532.975 49.864 533.104 49.9775 533.222C49.7506 531.758 49.7506 530.294 50.2838 528.948C50.783 527.673 51.3843 526.386 52.1558 525.276C54.0504 522.584 56.3308 520.247 58.8721 518.204L58.8721 518.204L58.8721 518.204C58.9742 518.121 59.0763 518.039 59.1898 517.956C59.372 517.835 59.5525 517.706 59.7334 517.577C60.6115 516.95 61.4985 516.316 62.6273 516.551C64.4879 516.929 66.0422 517.944 67.1087 519.609C67.415 520.081 67.7667 520.412 68.2545 520.589C69.5252 521.05 70.4782 521.841 71.0908 523.128C71.3129 523.598 71.6332 524.014 71.954 524.431C72.1085 524.632 72.2631 524.833 72.4069 525.04C72.7018 525.465 72.7586 525.82 72.4296 526.315C72.1573 526.729 72.0211 527.284 71.9417 527.791C71.8396 528.393 72.0665 528.783 72.6792 529.114C74.2788 529.964 75.2091 531.865 74.3242 533.789C74.1767 534.108 74.0406 534.427 73.9158 534.757C73.3258 536.339 72.2027 536.894 70.6597 536.339C70.6342 536.331 70.6079 536.322 70.5817 536.313L70.5816 536.313C70.5029 536.286 70.4243 536.26 70.3647 536.233C70.0811 536.646 69.7975 537.048 69.4912 537.473C69.4476 537.418 69.4103 537.377 69.3818 537.346C69.3434 537.305 69.321 537.281 69.321 537.26C69.4118 536.245 68.8218 535.643 68.1638 535.029C65.0892 532.148 61.3227 532.668 58.7473 534.332C59.0368 534.271 59.3237 534.205 59.6097 534.138L59.6098 534.138C60.153 534.012 60.6933 533.886 61.2432 533.801C64.5106 533.329 67.3469 534.852 68.8558 537.898C69.8996 540 70.637 542.196 70.4555 544.628L70.4535 544.656V544.656C70.4201 545.133 70.3837 545.652 70.1946 546.068C69.5365 547.532 69.7408 549.008 70.1038 550.461L70.1707 550.731C70.5114 552.111 70.8611 553.528 71.5106 554.746C74.0179 559.434 74.2221 564.499 74.0406 569.635C73.9612 571.843 73.2804 573.803 71.5333 575.232C70.5576 576.034 69.5139 576.589 68.2092 576.483C67.6079 576.436 66.9952 576.424 66.3939 576.483C65.2594 576.613 64.4766 576.023 63.8072 575.196C63.0812 574.311 62.7521 573.283 62.9564 572.126C63.0131 571.819 63.2286 571.441 63.4782 571.3C63.7918 571.126 64.0207 571.367 64.2526 571.611C64.2893 571.649 64.326 571.688 64.3632 571.725C64.7128 572.077 65.1746 572.336 65.6148 572.582L65.6149 572.582L65.6225 572.587C66.0082 572.799 66.2124 572.622 66.2578 572.174C66.3032 571.642 66.1443 571.194 65.7586 570.851C63.5917 568.927 62.2303 566.412 61.005 563.802C60.0633 561.783 59.462 559.67 59.2465 557.427C59.0877 555.738 59.3713 554.097 59.6776 552.456C59.8251 551.712 59.9726 550.956 60.018 550.189C60.1201 548.666 59.6095 547.379 58.3502 546.564C56.7959 545.561 55.4118 544.356 54.3 542.845C54.3113 542.881 54.2546 542.916 54.1979 542.951ZM57.5214 548.314C58.1794 548.869 58.4176 549.506 58.2815 550.297C58.1976 550.809 58.1052 551.319 58.0129 551.829L58.0128 551.829L58.0127 551.83C57.8429 552.768 57.673 553.706 57.5554 554.654C57.1697 557.854 57.8844 560.876 59.0757 563.793C59.2912 564.324 59.3139 564.749 59.087 565.28C58.0546 567.713 56.9314 570.086 55.4792 572.294C53.5959 575.151 50.9639 576.473 47.6738 576.473C47.4794 576.473 47.286 576.476 47.093 576.48H47.0929C46.644 576.487 46.1973 576.494 45.7451 576.461C45.5182 576.45 45.2346 576.296 45.1098 576.107C44.0547 574.62 44.2362 571.538 45.4501 570.18C45.5863 570.027 45.8926 569.885 46.0628 569.944C46.1921 569.992 46.2839 570.197 46.3686 570.386C46.3879 570.429 46.4069 570.471 46.4258 570.511C46.4726 570.608 46.5066 570.716 46.5405 570.822C46.5969 571 46.6527 571.176 46.7662 571.302C46.9704 571.55 47.3221 571.904 47.549 571.857C47.7872 571.81 48.0255 571.373 48.1276 571.066C48.2297 570.771 48.1956 570.404 48.1389 570.098C48.0567 569.665 47.9536 569.236 47.8506 568.808L47.8506 568.808C47.6696 568.054 47.4893 567.304 47.4242 566.544C47.1179 563.131 47.4128 559.778 48.831 556.626C49.16 555.906 49.5344 555.174 50.0222 554.56C50.5328 553.898 51.1681 553.32 51.8148 552.8C52.4783 552.258 53.1621 551.745 53.8468 551.231L53.8469 551.231L53.8472 551.23C54.3096 550.883 54.7724 550.536 55.2296 550.179C55.7397 549.775 56.2447 549.36 56.7583 548.939C57.01 548.732 57.2639 548.523 57.5214 548.314ZM33.1377 556.706C32.8463 556.616 32.5536 556.526 32.2554 556.435C32.1544 556.663 32.0564 556.894 31.9581 557.126C31.7916 557.519 31.6241 557.914 31.4386 558.3C30.3154 560.662 28.8405 562.716 26.5602 564.038C26.3786 564.145 26.2539 564.416 26.1858 564.641C25.6412 566.542 24.9605 568.36 23.7012 569.895C23.6104 570.013 23.531 570.225 23.5651 570.355C23.9621 571.666 24.3706 572.976 24.813 574.263C24.8924 574.488 25.1307 574.7 25.3462 574.83C26.1517 575.302 26.9573 575.763 27.7854 576.2C28.0577 576.341 28.3754 576.471 28.6704 576.471C31.0694 576.489 33.462 576.487 35.8579 576.484C36.6571 576.484 37.4567 576.483 38.257 576.483H38.9604C38.8841 576.32 38.8219 576.161 38.7631 576.011C38.6469 575.715 38.5437 575.451 38.3705 575.255C37.9394 574.771 37.4515 574.311 36.9296 573.944C36.4396 573.601 35.9075 573.317 35.3774 573.033C35.2325 572.955 35.0879 572.878 34.9442 572.799C34.377 572.48 34.1274 572.008 34.1728 571.347C34.1803 571.19 34.198 571.032 34.2156 570.875C34.2245 570.796 34.2333 570.717 34.2408 570.639C34.2755 570.281 34.3187 569.923 34.362 569.564C34.4601 568.749 34.5585 567.932 34.5585 567.12C34.5585 565.432 33.8324 563.979 32.8 562.704C34.5925 561.311 34.9442 559.339 35.1144 557.309C34.4326 557.105 33.7886 556.906 33.1377 556.706Z" fill="#20113D"/>
</svg>
