<svg
width="60"
height="60"
viewbox="0 0 60 60"
fill="#20113D"
xmlns="http://www.w3.org/2000/svg"
>
<path
fill-rule="evenodd"
clip-rule="evenodd"
d="M31.0682 19.12C30.8861 19.1992 30.7206 19.3153 30.5813 19.4616C30.4417 19.6075 30.3309 19.7809 30.2554 19.9717C30.1798 20.1626 30.1409 20.3672 30.1409 20.5739C30.1409 20.7805 30.1798 20.9852 30.2554 21.176C30.3309 21.3669 30.4417 21.5403 30.5813 21.6862L36.609 28H19.4584C19.0341 28 18.6271 28.2107 18.327 28.5858C18.027 28.9609 17.8584 29.4696 17.8584 30C17.8584 30.5304 18.027 31.0391 18.327 31.4142C18.6271 31.7893 19.0341 32 19.4584 32H36.6098L30.5813 38.3146C30.2998 38.6096 30.1416 39.0097 30.1416 39.4269C30.1416 39.8441 30.2998 40.2443 30.5813 40.5393C30.8629 40.8343 31.2447 41 31.6429 41C32.041 41 32.4229 40.8343 32.7044 40.5393L41.7004 31.1127C41.84 30.9668 41.9508 30.7934 42.0264 30.6026C42.102 30.4117 42.1409 30.2071 42.1409 30.0004C42.1409 29.7938 42.102 29.5891 42.0264 29.3983C41.9508 29.2074 41.84 29.034 41.7004 28.8881L32.7044 19.4616C32.5651 19.3153 32.3997 19.1992 32.2175 19.12C32.0354 19.0408 31.8401 19 31.6429 19C31.4457 19 31.2504 19.0408 31.0682 19.12Z M5 1H55V-1H5V1ZM59 5V55H61V5H59ZM55 59H5V61H55V59ZM1 55V5H-1V55H1ZM5 59C2.79086 59 1 57.2091 1 55H-1C-1 58.3137 1.68629 61 5 61V59ZM59 55C59 57.2091 57.2091 59 55 59V61C58.3137 61 61 58.3137 61 55H59ZM55 1C57.2091 1 59 2.79086 59 5H61C61 1.68629 58.3137 -1 55 -1V1ZM5 -1C1.68629 -1 -1 1.68629 -1 5H1C1 2.79086 2.79086 1 5 1V-1Z"
/>
</svg>
