<svg width="26" height="22" viewBox="0 0 26 22" fill="none" xmlns="http://www.w3.org/2000/svg">
<path fill-rule="evenodd" clip-rule="evenodd" d="M14.0682 0.119971C13.8861 0.199174 13.7206 0.315255 13.5813 0.461565C13.4417 0.607505 13.3309 0.780876 13.2554 0.971748C13.1798 1.16262 13.1409 1.36724 13.1409 1.57389C13.1409 1.78055 13.1798 1.98517 13.2554 2.17604C13.3309 2.36691 13.4417 2.54028 13.5813 2.68622L19.609 9H2.4584C2.03405 9 1.62709 9.21071 1.32703 9.58579C1.02697 9.96086 0.858398 10.4696 0.858398 11C0.858398 11.5304 1.02697 12.0391 1.32703 12.4142C1.62709 12.7893 2.03405 13 2.4584 13H19.6098L13.5813 19.3146C13.2998 19.6096 13.1416 20.0097 13.1416 20.4269C13.1416 20.8441 13.2998 21.2443 13.5813 21.5393C13.8629 21.8343 14.2447 22 14.6429 22C15.041 22 15.4229 21.8343 15.7044 21.5393L24.7004 12.1127C24.84 11.9668 24.9508 11.7934 25.0264 11.6026C25.102 11.4117 25.1409 11.2071 25.1409 11.0004C25.1409 10.7938 25.102 10.5891 25.0264 10.3983C24.9508 10.2074 24.84 10.034 24.7004 9.88808L15.7044 0.461565C15.5651 0.315255 15.3997 0.199174 15.2175 0.119971C15.0354 0.0407677 14.8401 0 14.6429 0C14.4457 0 14.2504 0.0407677 14.0682 0.119971Z" fill="#20113D"/>
</svg>
