<svg width="68" height="66" viewBox="0 0 68 66" fill="none" xmlns="http://www.w3.org/2000/svg">
<path d="M20.3909 59.4784C24.9962 58.3883 27.9079 55.3283 30.8576 52.0771C30.458 51.9623 30.1535 51.8667 29.849 51.7902C25.7955 50.7575 22.0656 48.998 18.6401 46.6074C16.5277 45.1347 14.7959 43.2796 13.4828 41.0229C13.3116 40.736 13.1784 40.43 13.0451 40.124C13.0071 40.0475 13.0071 39.9519 12.969 39.6841C14.2631 40.0858 15.481 40.4683 16.6799 40.8508C16.718 40.8125 16.737 40.7934 16.7751 40.7551C16.6419 40.6404 16.5277 40.5256 16.3945 40.43C14.834 39.4164 13.3116 38.3645 11.732 37.4083C9.92415 36.299 8.02111 35.3428 6.27032 34.1953C3.92957 32.6462 2.27393 30.466 1.07501 27.9415C1.01792 27.8267 0.998891 27.712 0.979861 27.5972C0.96083 27.5398 0.979861 27.4633 0.979861 27.2912C2.92096 28.1327 4.72885 29.3185 6.97444 29.1081C2.55938 26.5645 -0.180993 23.0072 0.0093115 17.6523C1.89332 19.7369 3.73927 21.8024 5.58522 23.8679C5.62328 23.8296 5.68037 23.7722 5.71843 23.734C4.95722 22.2422 4.06279 20.7888 3.49188 19.2205C2.92096 17.6523 2.54036 15.9502 2.35005 14.2863C2.15975 12.6224 2.31199 10.9203 2.31199 9.23732C2.40714 9.21819 2.5023 9.2182 2.57842 9.19907C3.47285 11.2263 4.36727 13.2535 5.2617 15.2999C5.35685 15.2999 5.45201 15.2808 5.54716 15.2808C5.5091 11.5897 5.90874 7.97508 7.60244 4.66647C7.67857 4.66647 7.75469 4.66647 7.83081 4.6856C7.83081 5.50797 7.86887 6.31121 7.83081 7.13358C7.62147 11.1689 9.16294 14.6114 11.4656 17.7479C13.0071 19.8325 14.9101 21.5729 16.9654 23.1411C19.6677 25.2066 22.6936 26.7175 25.7194 28.2092C28.5359 29.5862 31.0098 31.4604 33.3316 33.5642C34.7398 34.8456 36.2052 36.0504 37.6515 37.2935C38.0511 37.6378 38.4507 38.0203 38.9075 38.441C39.6497 36.7198 40.3347 35.1133 41.0198 33.4877C42.6755 29.6245 45.1685 26.3732 48.2514 23.5619C50.7063 21.3242 53.1993 19.1631 55.6542 16.9447C58.9846 13.9229 61.0589 10.1744 61.7249 5.69921C61.9723 4.11185 61.8581 2.44798 61.9152 0.841494C61.9152 0.573746 61.9152 0.286873 62.0104 0C63.2093 2.75398 63.5518 5.66097 63.8373 8.6827C65.0172 6.27296 66.178 3.86323 67.3579 1.43437C67.4531 1.45349 67.5482 1.47261 67.6244 1.49174C67.4911 3.95885 67.4721 6.42596 67.1867 8.87395C66.9012 11.3028 66.3493 13.6934 65.9116 16.0075C66.5016 15.0895 67.1867 14.0377 67.9859 12.8328C68.043 15.1852 67.9669 17.308 66.9773 19.3161C66.0068 21.3051 64.4463 22.7969 62.7526 24.2695C63.6851 24.4607 64.4272 24.1356 65.1504 23.7722C65.8545 23.428 66.5016 23.0072 67.3199 22.5291C67.2437 22.8925 67.2057 23.1411 67.1296 23.3706C66.1019 26.1628 64.5034 28.5726 62.1055 30.3512C60.6402 31.4604 59.0797 32.4358 57.6334 33.5451C56.7199 34.2527 56.0729 34.6926 56.0348 35.6679C56.6438 35.4575 57.2338 35.2663 57.9379 35.0368C56.758 39.0913 53.637 41.5775 50.9157 44.4845C51.1821 44.5992 51.3914 44.6757 51.6007 44.7714C52.9519 45.326 54.0937 46.1675 54.874 47.4297C55.4639 48.3668 55.5971 49.3613 55.3497 50.4515C55.2736 50.7766 55.4639 51.2165 55.6733 51.5033C56.3203 52.4978 56.4154 53.5114 55.8445 54.5442C55.2927 55.5578 54.3792 56.0551 53.1803 56.1316C54.1318 54.4103 54.0937 54.0278 52.7997 53.1098C52.6665 53.8174 52.5332 54.4868 52.4 55.1944C51.5437 54.4868 50.8015 53.6453 49.869 53.1481C48.9175 52.6508 47.7947 52.5169 46.6528 52.1918C46.7099 52.4404 46.7099 52.5934 46.767 52.7273C47.6044 54.8502 48.3846 57.0113 49.3361 59.0959C49.6787 59.8609 50.3638 60.5112 50.9918 61.0849C51.5817 61.6204 52.0004 61.4291 52.2288 60.645C52.381 60.0904 52.4381 59.5167 52.5332 58.962C52.6284 58.4648 52.8948 58.2544 53.2374 58.4074C53.3135 58.8664 53.4086 59.2298 53.4277 59.5932C53.4467 59.9757 53.4467 60.3773 53.3706 60.7407C53.2945 61.0658 53.0851 61.3718 52.9329 61.6778C52.9709 61.7351 53.028 61.7734 53.0661 61.8308C53.5799 61.4865 54.1128 61.1423 54.6076 60.7789C54.8549 60.5877 55.0453 60.339 55.2736 60.1287C56.168 59.3063 56.6057 59.3637 57.2337 60.4538C56.8912 60.4155 56.5867 60.3582 56.2632 60.3199C56.2061 61.7351 54.7217 61.716 54.1128 62.6723C54.8359 62.634 55.483 62.5766 56.13 62.5766C57.1196 62.5766 57.5192 63.0356 57.3289 64.0493C57.0434 63.3608 56.5677 63.4564 56.111 63.6476C55.1404 64.0493 54.1508 63.9154 53.1612 63.7815C52.0765 63.6285 51.106 63.7815 50.1735 64.4318C49.5645 64.8716 48.9365 65.2924 48.0611 65.1011C47.8708 65.0629 47.5282 65.694 47.2808 66C46.8812 65.4645 46.9002 64.9481 47.5663 64.5274C47.985 64.2596 48.4798 64.1258 48.9365 63.9345C49.2219 63.8198 49.5264 63.7241 49.7738 63.5329C50.3257 63.1121 50.3257 62.8444 49.7929 62.4236C48.4798 61.3526 47.1667 60.3008 45.8536 59.2298C45.7394 59.1342 45.6062 59.0577 45.492 59.0385C43.7602 58.8855 42.8087 57.738 42.0855 56.3419C41.9333 56.0359 41.8191 55.6152 41.4004 55.8829C41.1721 56.0359 40.9247 56.4949 41.0008 56.7244C41.4005 58.2353 42.2758 59.421 43.627 60.186C44.2169 60.0904 44.3311 58.6369 45.1685 59.5167C45.0924 59.8418 45.0353 60.033 44.9972 60.2243C45.2256 60.2625 45.473 60.3582 45.7013 60.339C46.0819 60.339 46.4625 60.2625 46.8431 60.2243C46.8622 60.3008 46.8812 60.3964 46.9002 60.4729C46.6338 60.6068 46.3674 60.7407 46.0058 60.9319C47.8327 61.0275 47.8327 61.0275 47.9089 62.0029C47.3189 61.4291 46.748 61.8881 46.1771 61.9646C44.883 62.1176 43.9886 62.7296 43.5128 64.011C43.3606 64.4126 42.9419 64.6995 42.5613 65.1394C42.5803 65.1968 42.6374 65.388 42.6755 65.5984C41.8572 65.3115 41.6669 64.9099 42.0665 64.1831C42.371 63.6285 42.7706 63.1121 43.1322 62.5766C43.4557 62.0985 43.4557 61.6969 42.8468 61.4291C41.8572 60.9893 41.0198 60.2817 39.859 60.1669C39.4213 60.1287 39.0407 59.5358 38.603 59.1533C38.3936 59.4975 38.1082 59.8992 37.8798 60.3582C37.2138 61.716 36.091 62.5384 34.6827 62.9209C30.2486 64.1449 26.0619 63.4564 22.1607 61.0275C21.5137 60.645 21.0379 60.0522 20.3909 59.4784Z" fill="#20113D"/>
</svg>
