<svg width="43" height="40" viewBox="0 0 43 40" fill="none" xmlns="http://www.w3.org/2000/svg">
<path d="M13.1275 36.0475C16.0172 35.3868 17.8441 33.5323 19.6949 31.5619C19.4441 31.4923 19.2531 31.4344 19.062 31.388C16.5187 30.7621 14.1783 29.6957 12.029 28.2469C10.7036 27.3544 9.61698 26.2301 8.79307 24.8624C8.68561 24.6885 8.60202 24.503 8.51844 24.3176C8.49456 24.2712 8.49456 24.2133 8.47068 24.051C9.28264 24.2944 10.0468 24.5262 10.7991 24.758C10.823 24.7349 10.8349 24.7233 10.8588 24.7001C10.7752 24.6305 10.7036 24.561 10.62 24.503C9.64086 23.8887 8.68561 23.2512 7.69453 22.6717C6.56017 21.9994 5.36611 21.4199 4.26757 20.7244C2.79887 19.7856 1.76003 18.4642 1.00777 16.9342C0.971948 16.8647 0.960007 16.7951 0.948066 16.7256C0.936126 16.6908 0.948066 16.6444 0.948066 16.5401C2.16601 17.0501 3.30037 17.7688 4.70937 17.6413C1.93914 16.0997 0.219688 13.9438 0.339094 10.6983C1.52122 11.9617 2.67946 13.2136 3.8377 14.4654C3.86159 14.4422 3.89741 14.4074 3.92129 14.3842C3.44366 13.4802 2.88245 12.5992 2.52423 11.6488C2.16601 10.6983 1.9272 9.66676 1.80779 8.65836C1.68839 7.64995 1.78391 6.61837 1.78391 5.59838C1.84362 5.58678 1.90332 5.58679 1.95108 5.57519C2.51229 6.80382 3.0735 8.03245 3.63471 9.27267C3.69442 9.27267 3.75412 9.26108 3.81382 9.26108C3.78994 7.02405 4.0407 4.83338 5.10341 2.82817C5.15118 2.82817 5.19894 2.82817 5.2467 2.83976C5.2467 3.33816 5.27058 3.82498 5.2467 4.32338C5.11535 6.76905 6.08255 8.8554 7.52737 10.7563C8.49456 12.0197 9.68862 13.0745 10.9782 14.0249C12.6738 15.2767 14.5723 16.1924 16.4709 17.0965C18.2381 17.931 19.7904 19.0669 21.2472 20.3419C22.1308 21.1185 23.0502 21.8487 23.9577 22.6021C24.2085 22.8108 24.4592 23.0426 24.7458 23.2976C25.2115 22.2544 25.6413 21.2808 26.0712 20.2956C27.11 17.9542 28.6743 15.9838 30.6086 14.2799C32.149 12.9238 33.7132 11.614 35.2536 10.2695C37.3432 8.43813 38.6447 6.16633 39.0626 3.45407C39.2178 2.49203 39.1462 1.48363 39.182 0.509996C39.182 0.347725 39.182 0.173863 39.2417 0C39.994 1.66908 40.2089 3.43089 40.388 5.26224C41.1284 3.8018 41.8567 2.34135 42.5971 0.869313C42.6568 0.880904 42.7165 0.892493 42.7642 0.904084C42.6806 2.3993 42.6687 3.89452 42.4896 5.37815C42.3105 6.85019 41.9642 8.29904 41.6896 9.70153C42.0597 9.14517 42.4896 8.50768 42.9911 7.77746C43.0269 9.20313 42.9792 10.4897 42.3582 11.7068C41.7493 12.9122 40.7701 13.8163 39.7074 14.7088C40.2925 14.8247 40.7582 14.6276 41.2119 14.4074C41.6537 14.1988 42.0597 13.9438 42.5732 13.654C42.5254 13.8742 42.5015 14.0249 42.4538 14.164C41.809 15.8563 40.806 17.3167 39.3014 18.3947C38.382 19.0669 37.4029 19.6581 36.4954 20.3303C35.9222 20.7592 35.5162 21.0258 35.4924 21.6169C35.8745 21.4894 36.2446 21.3735 36.6864 21.2344C35.9461 23.6917 33.9878 25.1985 32.2803 26.9603C32.4475 27.0298 32.5788 27.0762 32.7102 27.1342C33.558 27.4703 34.2744 27.9803 34.764 28.7453C35.1341 29.3132 35.2177 29.916 35.0625 30.5766C35.0147 30.7737 35.1341 31.0403 35.2655 31.2141C35.6715 31.8169 35.7312 32.4312 35.373 33.0571C35.0267 33.6714 34.4535 33.9728 33.7013 34.0191C34.2983 32.9759 34.2744 32.7441 33.4625 32.1878C33.3789 32.6166 33.2953 33.0223 33.2117 33.4512C32.6744 33.0223 32.2087 32.5123 31.6236 32.211C31.0266 31.9096 30.3221 31.8285 29.6056 31.6314C29.6414 31.7821 29.6414 31.8748 29.6773 31.956C30.2027 33.2425 30.6922 34.5523 31.2893 35.8157C31.5042 36.2793 31.9341 36.6734 32.3281 37.0212C32.6983 37.3457 32.9609 37.2298 33.1042 36.7546C33.1998 36.4184 33.2356 36.0707 33.2953 35.7346C33.355 35.4332 33.5222 35.3057 33.7371 35.3984C33.7849 35.6766 33.8446 35.8968 33.8565 36.1171C33.8684 36.3489 33.8684 36.5923 33.8207 36.8125C33.7729 37.0096 33.6416 37.195 33.546 37.3805C33.5699 37.4152 33.6057 37.4384 33.6296 37.4732C33.952 37.2646 34.2864 37.0559 34.5968 36.8357C34.752 36.7198 34.8715 36.5691 35.0147 36.4416C35.576 35.9432 35.8506 35.978 36.2446 36.6387C36.0297 36.6155 35.8386 36.5807 35.6357 36.5575C35.5998 37.4152 34.6685 37.4036 34.2864 37.9832C34.7401 37.96 35.1461 37.9252 35.5521 37.9252C36.173 37.9252 36.4237 38.2034 36.3043 38.8177C36.1252 38.4005 35.8267 38.4584 35.5401 38.5743C34.9312 38.8177 34.3102 38.7366 33.6893 38.6555C33.0087 38.5627 32.3997 38.6555 31.8146 39.0495C31.4325 39.3161 31.0385 39.5711 30.4892 39.4552C30.3698 39.432 30.1549 39.8145 29.9997 40C29.7489 39.6755 29.7609 39.3625 30.1788 39.1075C30.4415 38.9452 30.7519 38.8641 31.0385 38.7482C31.2176 38.6786 31.4087 38.6207 31.5639 38.5048C31.9102 38.2498 31.9102 38.0875 31.5758 37.8325C30.7519 37.1834 29.928 36.5459 29.1041 35.8968C29.0325 35.8389 28.9489 35.7925 28.8772 35.7809C27.7906 35.6882 27.1936 34.9928 26.7399 34.1466C26.6443 33.9612 26.5727 33.7062 26.31 33.8684C26.1667 33.9612 26.0115 34.2394 26.0593 34.3784C26.31 35.2941 26.8593 36.0127 27.7071 36.4764C28.0772 36.4184 28.1489 35.5375 28.6743 36.0707C28.6265 36.2677 28.5907 36.3837 28.5668 36.4996C28.7101 36.5227 28.8653 36.5807 29.0086 36.5691C29.2474 36.5691 29.4862 36.5227 29.725 36.4996C29.737 36.5459 29.7489 36.6039 29.7609 36.6502C29.5937 36.7314 29.4265 36.8125 29.1996 36.9284C30.3459 36.9864 30.3459 36.9864 30.3937 37.5775C30.0235 37.2298 29.6653 37.508 29.3071 37.5543C28.4951 37.6471 27.9339 38.018 27.6354 38.7945C27.5399 39.038 27.2772 39.2118 27.0384 39.4784C27.0503 39.5132 27.0861 39.6291 27.11 39.7566C26.5966 39.5827 26.4772 39.3393 26.7279 38.8989C26.919 38.5627 27.1697 38.2498 27.3966 37.9252C27.5996 37.6355 27.5996 37.3921 27.2175 37.2298C26.5966 36.9632 26.0712 36.5343 25.3428 36.4648C25.0682 36.4416 24.8294 36.0823 24.5547 35.8505C24.4234 36.0591 24.2443 36.3025 24.101 36.5807C23.6831 37.4036 22.9786 37.9021 22.095 38.1339C19.3128 38.8757 16.6858 38.4584 14.238 36.9864C13.832 36.7546 13.5335 36.3952 13.1275 36.0475Z" fill="#F58021"/>
</svg>
