<svg width="25" height="40" viewBox="0 0 25 40" fill="none" xmlns="http://www.w3.org/2000/svg">
<path fill-rule="evenodd" clip-rule="evenodd" d="M12.2622 0.00574169C12.8896 -0.0293792 13.4879 0.0993975 14.1037 0.315976C14.0834 0.374046 14.0645 0.43112 14.046 0.487196C14.001 0.623306 13.958 0.753544 13.9004 0.87791C13.7232 1.26124 13.5432 1.64457 13.3631 2.0279L13.3631 2.02792L13.3631 2.02795L13.3631 2.02797L13.3631 2.02799L13.3631 2.02801L13.3631 2.02803L13.3631 2.02806L13.363 2.02808L13.363 2.0281L13.363 2.02812C13.1829 2.41152 13.0028 2.79493 12.8257 3.17833L12.8252 3.17941L12.8252 3.17942L12.8252 3.17943C12.7298 3.38622 12.6833 3.48692 12.6052 3.52938C12.5311 3.56967 12.4284 3.5575 12.2283 3.53378L12.1925 3.52954C11.9891 3.50612 11.8671 3.41832 11.8381 3.2193C11.8258 3.13549 11.8102 3.05126 11.7945 2.96695L11.7945 2.96693L11.7945 2.9669L11.7945 2.96688L11.7945 2.96686L11.7945 2.96684L11.7945 2.96682L11.7945 2.96679L11.7945 2.96677L11.7945 2.96675L11.7945 2.96673L11.7945 2.96672C11.7513 2.73315 11.7079 2.49893 11.7335 2.27104C11.7977 1.70792 11.9015 1.14844 12.0052 0.589734L12.0052 0.589726C12.0331 0.439904 12.0609 0.290138 12.0879 0.140372C12.0995 0.0876906 12.1983 0.0115952 12.2622 0.00574169ZM7.96325 1.32887C8.09275 1.5217 8.22047 1.71309 8.34729 1.90314L8.34731 1.90318C8.7325 2.48039 9.10938 3.04517 9.50271 3.60002C9.64794 3.81074 9.84546 3.99805 10.165 3.86928C10.6529 3.68197 10.7749 3.55319 10.6297 3.03808C10.4559 2.41197 10.5638 1.80991 10.672 1.20574C10.6832 1.1434 10.6944 1.08104 10.7052 1.01863C10.7459 0.796202 10.7401 0.550355 10.6878 0.327923C10.6646 0.222561 10.4554 0.0645168 10.3741 0.0820773C9.48528 0.304509 8.70684 0.743521 7.96325 1.32887ZM6.06502 6.36653C6.47203 6.66596 6.88024 6.96626 7.29567 7.27021C7.15625 7.94336 6.79608 8.32384 6.09315 8.39993C5.123 8.49944 4.3039 8.10141 3.56612 7.50435C3.52546 7.46923 3.50803 7.34045 3.53707 7.28192C3.58024 7.18514 3.6232 7.08817 3.66619 6.99114C3.85462 6.56584 4.04349 6.13955 4.25161 5.72489C4.30748 5.60828 4.39899 5.51101 4.48659 5.41789L4.48662 5.41786L4.48665 5.41783L4.48668 5.41779L4.4867 5.41776C4.52658 5.37537 4.56565 5.33384 4.60017 5.29174C5.09276 5.65126 5.57677 6.00733 6.06247 6.36465L6.06366 6.36553L6.06459 6.36621L6.06502 6.36653ZM6.32516 9.94394C5.2272 9.66882 4.1641 9.39956 3.01968 9.10689C2.99517 9.24269 2.9678 9.38283 2.93982 9.52603L2.93978 9.52624C2.88818 9.79038 2.83454 10.0649 2.79311 10.342C2.75334 10.6043 2.72708 10.8688 2.7003 11.1385V11.1385L2.70029 11.1386L2.70027 11.1387L2.70026 11.1389L2.70024 11.1391C2.68402 11.3025 2.6676 11.4678 2.64788 11.6356C3.56575 12.098 4.50685 12.2268 5.43633 11.6883C6.09859 11.3137 6.36001 10.6932 6.32516 9.94394ZM2.68835 13.0469C2.51407 13.9718 2.6535 14.8439 2.97882 15.6927C3.00786 15.7629 3.08338 15.839 3.1531 15.8625C4.52408 16.3249 6.06935 15.4 6.2843 14.1532C6.31334 13.9835 6.32496 13.802 6.31334 13.6323C6.24363 12.8889 6.10421 12.7835 5.38386 12.8889L5.17633 12.9192C4.68193 12.9918 4.18697 13.0644 3.68755 13.1055C3.46816 13.1215 3.2433 13.099 3.01109 13.0757C2.9051 13.0651 2.79758 13.0543 2.68835 13.0469ZM6.5923 18.5369C7.05705 17.5418 6.91182 16.8277 6.12756 16.2072C5.31426 16.8277 4.37316 17.056 3.36235 17.0911C3.29264 17.0911 3.17645 17.1906 3.15903 17.2667C3.00217 18.0101 3.22292 18.6716 3.63538 19.2803C3.66841 19.3284 3.73156 19.3531 3.80288 19.381C3.84448 19.3973 3.88886 19.4146 3.93166 19.4384L3.8947 19.4635L3.87247 19.4788L3.87239 19.4788L3.87221 19.479C3.8244 19.5119 3.77783 19.5439 3.72833 19.573C2.67105 20.211 1.81708 21.0481 1.31167 22.1895C0.649416 23.6938 0.411238 25.245 1.00959 26.843C1.11729 27.1303 1.21635 27.4227 1.31525 27.7147C1.39774 27.9583 1.48011 28.2015 1.56728 28.441C1.85775 29.2488 1.88099 30.08 1.64861 30.8878C0.96312 33.2467 1.60795 35.4125 2.52 37.549C2.60003 37.7276 2.73068 37.8891 2.85661 38.0448L2.85663 38.0449L2.86275 38.0524C3.03703 38.269 3.26359 38.3393 3.53663 38.2456C3.80966 38.1461 4.00718 37.9646 3.99556 37.6778C3.98394 37.309 3.93747 36.9403 3.85033 36.5832C3.78352 36.2993 3.70219 36.0183 3.62086 35.7374C3.53953 35.4564 3.4582 35.1754 3.3914 34.8916C3.2055 34.0896 3.44368 33.4282 4.09432 32.9306C4.1221 32.9101 4.1493 32.889 4.17628 32.868L4.17632 32.868L4.17646 32.8679C4.23403 32.8231 4.29063 32.7792 4.34993 32.7433C5.33169 32.1755 5.93586 31.2858 6.43545 30.2966C6.57497 30.0154 6.75551 29.7536 6.93579 29.4921L6.93581 29.4921L6.93587 29.492L6.93592 29.4919L6.93598 29.4918L6.93604 29.4917L6.93609 29.4916L6.93615 29.4915L6.93621 29.4915L6.93627 29.4914L6.93632 29.4913L6.93638 29.4912L6.93644 29.4911L6.93649 29.491L6.93655 29.4909L6.93661 29.4909L6.93667 29.4908L6.93672 29.4907L6.93678 29.4906C7.01891 29.3715 7.10098 29.2525 7.17904 29.1317L7.24875 29.1668C7.28361 29.3308 7.3192 29.4947 7.35478 29.6586L7.35479 29.6586L7.35479 29.6586L7.3548 29.6587L7.3548 29.6587L7.35481 29.6587L7.35482 29.6588L7.35482 29.6588L7.35483 29.6588L7.35483 29.6588L7.35484 29.6589L7.35485 29.6589L7.35485 29.6589L7.35486 29.659L7.35486 29.659L7.35487 29.659L7.35487 29.659L7.35488 29.6591C7.46159 30.1506 7.5683 30.6421 7.6554 31.1336C8.04462 33.2701 9.29942 34.8798 10.7517 36.3783C10.895 36.5284 11.0834 36.6387 11.2614 36.7428L11.2688 36.7471C11.5128 36.8934 11.7626 36.8934 11.9949 36.7003C12.2331 36.5013 12.3202 36.2496 12.2157 35.9686C12.1111 35.6993 11.9775 35.4359 11.8148 35.1959C11.6462 34.9504 11.464 34.715 11.282 34.4798L11.282 34.4798C11.1255 34.2776 10.9691 34.0755 10.8215 33.8672C10.1302 32.8955 10.1011 32.2107 10.7808 31.239C11.3211 30.4605 11.6928 29.6117 12.024 28.6927C12.1164 28.7361 12.2073 28.7762 12.2963 28.8155C12.4477 28.8823 12.5937 28.9468 12.7327 29.0205C14.1618 29.8049 15.039 31.04 15.5618 32.556C15.7742 33.1607 15.9572 33.7765 16.14 34.3916L16.1402 34.3924C16.1874 34.5511 16.2345 34.7097 16.2822 34.8681C16.4506 35.4301 16.7237 35.9276 17.0955 36.3725L17.5207 36.8785L17.521 36.8788L17.5211 36.8789C18.1855 37.6697 18.8487 38.4592 19.5238 39.2407C19.7155 39.4631 19.9478 39.6738 20.1976 39.8319C20.6507 40.1187 21.0923 40.0309 21.5105 39.627C21.8126 39.3343 21.8649 38.9714 21.5919 38.509C21.4352 38.2427 21.2332 38.0013 21.0345 37.7638L21.0345 37.7638C20.9974 37.7194 20.9604 37.6752 20.9238 37.631C20.8076 37.4905 20.674 37.3559 20.5346 37.2388C19.3553 36.2261 19.0648 34.8857 19.1171 33.4165C19.1255 33.1698 19.1555 32.9231 19.1846 32.6831C19.1955 32.5929 19.2063 32.5035 19.2159 32.4155C19.3954 32.381 19.5729 32.3464 19.7466 32.3126L19.7498 32.3119L19.7504 32.3118L19.7531 32.3113L19.7537 32.3112C20.0775 32.2481 20.3879 32.1877 20.674 32.1346C20.7823 32.3751 20.8837 32.6208 20.9852 32.867C21.205 33.3999 21.4256 33.9348 21.7197 34.4233C22.1522 35.1433 22.6645 35.8134 23.1768 36.4834L23.1769 36.4835C23.2976 36.6414 23.4183 36.7993 23.538 36.9578C23.7413 37.2271 24.0143 37.4437 24.3861 37.3559C24.5836 37.309 24.7347 36.7705 24.6359 36.39C24.543 36.033 24.4326 35.6701 24.2525 35.354C23.4508 33.9316 23.1429 32.3687 22.928 30.7824C22.8176 29.9746 22.3412 29.6117 21.5396 29.7698C20.0408 30.0683 18.5362 30.2146 17.0083 30.08C16.9038 30.0683 16.7992 30.0449 16.6946 30.0215C15.6141 29.7639 15.1842 28.7571 15.7419 27.7796C15.7593 27.7445 15.7768 27.7093 15.8058 27.6801C16.3252 27.1524 16.6067 26.497 16.8893 25.8388C16.9892 25.6062 17.0893 25.3733 17.2 25.1455C17.4208 24.7006 17.8391 24.326 18.2399 23.9982C18.7337 23.6002 19.3379 23.4012 19.9594 23.2665C20.0466 23.249 20.1744 23.167 20.1918 23.0968C20.2092 23.0148 20.1395 22.8626 20.0698 22.8275C20.0255 22.8065 19.981 22.7848 19.9363 22.7631L19.936 22.7629C19.6696 22.6334 19.3947 22.4997 19.1113 22.4646C18.6465 22.4061 18.1644 22.4178 17.6938 22.4646C17.171 22.5173 16.7063 22.3534 16.2706 22.1427C15.8058 21.9202 15.3643 21.6159 14.946 21.3115C13.8016 20.4744 12.6456 19.6608 11.3327 19.1047C9.92683 18.5018 8.4687 18.3028 6.95829 18.5252C6.84791 18.5135 6.72592 18.5194 6.5923 18.5369ZM12.9644 17.4101C12.4997 17.7027 11.9943 17.8315 11.4482 17.8315C10.9254 17.814 10.4258 17.7086 10.0017 17.3808C9.53113 17.0237 9.35105 16.4969 9.62408 15.9877C9.79833 15.6672 10.0412 15.3863 10.2841 15.1054L10.2841 15.1054L10.2841 15.1054L10.2841 15.1054L10.2841 15.1054L10.2841 15.1054L10.2841 15.1054L10.2841 15.1053L10.2841 15.1053L10.2841 15.1053L10.2841 15.1053L10.2841 15.1053L10.2841 15.1053L10.2841 15.1053L10.2841 15.1053L10.2842 15.1053L10.2842 15.1053C10.3651 15.0116 10.4461 14.918 10.5245 14.8228C10.5652 14.776 10.6639 14.7584 10.7337 14.7643C11.9943 14.8872 12.9702 15.7594 13.1968 16.8598C13.2549 17.1291 13.1794 17.2754 12.9644 17.4101ZM6.65602 2.3542C7.31828 2.8576 8.24777 4.00488 8.88098 5.08777L8.81562 5.1711L8.81561 5.17112C8.66578 5.36205 8.52427 5.54238 8.38719 5.73166C8.2652 5.90141 8.11996 5.94238 7.91083 5.87799C6.83611 5.53264 6.09833 4.75998 5.31989 3.92878C5.77301 3.39612 6.21452 2.87516 6.65602 2.3542ZM15.7186 5.9486C16.1972 5.53313 16.7803 5.46052 17.3669 5.38747C17.4993 5.37098 17.6318 5.35447 17.7634 5.33399C18.0655 5.28716 18.3676 5.19936 18.6581 5.1057C18.722 5.08229 18.8149 4.96522 18.8033 4.90668C18.7162 4.32719 18.5361 3.78282 18.0539 3.40819C17.9726 3.3438 17.839 3.30283 17.746 3.31454C17.0373 3.42575 16.3808 3.6716 15.7941 4.0872C15.7244 4.13988 15.6547 4.19256 15.5908 4.25109C14.9866 4.81303 15.0273 5.45106 15.7186 5.9486ZM15.9455 15.5526C15.3588 14.499 12.8027 13.4922 12.1404 14.06C12.1404 14.0775 12.1405 14.1068 12.1521 14.1126C12.9421 14.8034 13.5114 15.6755 14.0633 16.5594C14.1969 16.776 14.3305 16.7877 14.5397 16.7174C15.0277 16.5535 15.5853 16.097 15.9455 15.5526ZM19.8485 26.9133C19.7613 27.364 19.5813 27.4986 19.1165 27.5103C19.0349 27.495 18.9532 27.4828 18.872 27.4707C18.7046 27.4458 18.5391 27.4211 18.3787 27.3698C17.8559 27.2118 17.6293 26.843 17.7281 26.2986C17.763 26.0996 17.8385 25.9065 17.9256 25.725C18.2393 25.087 18.7563 24.6363 19.3489 24.2733C19.5522 24.1504 19.7962 24.0743 20.0286 24.0333C20.136 24.0125 20.2551 24.042 20.3735 24.0713C20.4216 24.0833 20.4696 24.0951 20.5165 24.1036C20.5067 24.1465 20.4992 24.1918 20.4916 24.2374C20.4724 24.3531 20.4529 24.4703 20.3946 24.5543C20.0576 25.0401 19.9589 25.5845 19.9298 26.1582C19.9182 26.4099 19.895 26.6674 19.8485 26.9133ZM18.7738 26.0586C18.5182 26.0586 18.2916 26.2869 18.2974 26.5445C18.2987 26.6014 18.3099 26.6558 18.3295 26.7061C18.3103 26.6563 18.2993 26.6024 18.298 26.5461C18.298 26.2885 18.5188 26.0602 18.7744 26.0602C18.9721 26.0602 19.1433 26.1842 19.2124 26.3611C19.1437 26.1833 18.9721 26.0586 18.7738 26.0586ZM15.893 7.57356L16.5678 7.6297L16.568 7.62971L16.568 7.62972L16.5682 7.62972L16.5682 7.62973L16.5682 7.62973L16.5682 7.62973L16.5682 7.62973C17.4529 7.70316 18.3199 7.77512 19.1868 7.85453C19.4424 7.87794 19.5238 7.77844 19.547 7.53844C19.5935 7.02334 19.4192 6.61945 18.9893 6.33848C18.2631 5.8702 16.9677 5.95215 16.3054 6.51408C15.9685 6.79505 15.8233 7.15211 15.893 7.57356ZM15.3701 0.835948C16.0672 1.21642 16.7295 1.60275 17.1942 2.2642C16.1253 2.89637 15.0913 3.51099 14.0572 4.13146C13.8655 3.82708 13.8423 3.6222 13.9817 3.1949C14.2468 2.3719 14.7485 1.68592 15.2572 0.990476L15.2572 0.99047L15.3701 0.835948ZM15.6907 14.1497L15.6907 14.1497C16.0489 14.4257 16.4111 14.7047 16.8112 14.9449C16.866 14.858 16.9205 14.7718 16.9747 14.6861L16.9748 14.686C17.1908 14.3447 17.4016 14.0115 17.6013 13.6747C17.6303 13.6278 17.6129 13.4932 17.5664 13.4581C16.8112 12.861 15.9979 12.381 15.0045 12.3342C14.5107 12.3225 14.0692 12.4513 13.7904 12.9956C14.515 13.2439 15.0972 13.6925 15.6907 14.1497ZM19.3147 9.10925C19.3031 9.58881 19.2912 10.0799 18.9836 10.4835C18.8628 10.4434 18.7434 10.403 18.6248 10.3628C18.3097 10.2561 18.0004 10.1513 17.6881 10.062C17.1362 9.91567 16.5843 9.78104 16.0267 9.65812C15.8175 9.61129 15.7711 9.50593 15.8001 9.30691C15.8756 8.75668 16.2532 8.41718 16.8922 8.39377C17.7113 8.35864 18.4666 8.63376 19.2043 8.96155C19.2566 8.98497 19.3147 9.06106 19.3147 9.10789L19.3147 9.10925ZM17.2631 26.9248C17.1391 27.0776 17.0282 27.2119 16.9247 27.3371L16.9246 27.3373L16.9245 27.3374L16.9244 27.3374C16.8099 27.476 16.7046 27.6035 16.6009 27.7326C16.5653 27.7771 16.5281 27.8205 16.4911 27.8638C16.4014 27.9689 16.3123 28.0732 16.2465 28.1892C16.0316 28.5638 16.1361 28.9735 16.5312 29.1433C16.8449 29.2779 17.1934 29.3657 17.5304 29.4009C18.4308 29.5004 19.3196 29.4126 20.191 29.1492C20.1329 28.7394 19.947 28.5521 19.5404 28.5111C19.3374 28.4929 19.1321 28.486 18.9275 28.4791L18.9273 28.4791L18.9272 28.4791L18.9271 28.4791C18.8039 28.475 18.6808 28.4709 18.5586 28.4643C17.7686 28.4175 17.6407 28.2945 17.4839 27.5219C17.4566 27.3923 17.4032 27.2654 17.3465 27.1306C17.3186 27.0643 17.2899 26.9962 17.2631 26.9248ZM17.9958 12.6135C17.0663 12.1277 16.1194 11.7062 15.0679 11.4955C15.219 10.7462 15.7128 10.4126 16.4912 10.5121C17.2755 10.6058 17.9726 10.9336 18.6116 11.3843C18.6755 11.4311 18.7568 11.5365 18.7394 11.5833C18.6116 11.9111 18.478 12.2447 18.3095 12.555C18.2746 12.6135 18.0713 12.6545 17.9958 12.6135ZM20.5463 25.6847C20.5463 26.2935 20.6451 26.393 21.1098 26.3052C21.3015 26.2701 21.5048 26.1881 21.6617 26.0711C22.2659 25.6203 22.4343 24.5316 22.0161 23.9287C21.9173 23.7882 21.8302 23.7297 21.6675 23.8467C20.9936 24.3443 20.5754 24.9706 20.5463 25.6847Z" fill="#F58021"/>
</svg>
