<svg width="43" height="40" viewBox="0 0 43 40" fill="none" xmlns="http://www.w3.org/2000/svg">
<path d="M13.1278 36.0475C16.0174 35.3868 17.8443 33.5323 19.6951 31.5619C19.4444 31.4923 19.2533 31.4344 19.0623 31.388C16.5189 30.7621 14.1786 29.6957 12.0292 28.2469C10.7038 27.3544 9.61722 26.2301 8.79332 24.8624C8.68585 24.6885 8.60227 24.503 8.51868 24.3176C8.4948 24.2712 8.4948 24.2133 8.47092 24.051C9.28288 24.2944 10.0471 24.5262 10.7993 24.758C10.8232 24.7349 10.8352 24.7233 10.859 24.7001C10.7755 24.6305 10.7038 24.561 10.6202 24.503C9.6411 23.8887 8.68585 23.2512 7.69478 22.6717C6.56042 21.9994 5.36635 21.4199 4.26781 20.7244C2.79911 19.7856 1.76027 18.4642 1.00801 16.9342C0.972192 16.8647 0.960251 16.7951 0.948311 16.7256C0.93637 16.6908 0.948311 16.6444 0.948311 16.5401C2.16626 17.0501 3.30062 17.7688 4.70962 17.6413C1.93938 16.0997 0.219932 13.9438 0.339339 10.6983C1.52146 11.9617 2.67971 13.2136 3.83795 14.4654C3.86183 14.4422 3.89765 14.4074 3.92153 14.3842C3.44391 13.4802 2.8827 12.5992 2.52448 11.6488C2.16626 10.6983 1.92745 9.66676 1.80804 8.65836C1.68863 7.64995 1.78416 6.61837 1.78416 5.59838C1.84386 5.58678 1.90356 5.58679 1.95133 5.57519C2.51254 6.80382 3.07375 8.03245 3.63496 9.27267C3.69466 9.27267 3.75436 9.26108 3.81407 9.26108C3.79018 7.02405 4.04094 4.83338 5.10366 2.82817C5.15142 2.82817 5.19918 2.82817 5.24694 2.83976C5.24694 3.33816 5.27083 3.82498 5.24694 4.32338C5.1156 6.76905 6.08279 8.8554 7.52761 10.7563C8.4948 12.0197 9.68887 13.0745 10.9785 14.0249C12.674 15.2767 14.5726 16.1924 16.4712 17.0965C18.2384 17.931 19.7907 19.0669 21.2474 20.3419C22.131 21.1185 23.0505 21.8487 23.9579 22.6021C24.2087 22.8108 24.4595 23.0426 24.746 23.2976C25.2117 22.2544 25.6416 21.2808 26.0714 20.2956C27.1103 17.9542 28.6745 15.9838 30.6089 14.2799C32.1492 12.9238 33.7135 11.614 35.2538 10.2695C37.3434 8.43813 38.6449 6.16633 39.0629 3.45407C39.2181 2.49203 39.1464 1.48363 39.1823 0.509996C39.1823 0.347725 39.1823 0.173863 39.242 0C39.9942 1.66908 40.2092 3.43089 40.3883 5.26224C41.1286 3.8018 41.857 2.34135 42.5973 0.869313C42.657 0.880904 42.7167 0.892493 42.7645 0.904084C42.6809 2.3993 42.6689 3.89452 42.4898 5.37815C42.3107 6.85019 41.9644 8.29904 41.6898 9.70153C42.06 9.14517 42.4898 8.50768 42.9913 7.77746C43.0272 9.20313 42.9794 10.4897 42.3585 11.7068C41.7495 12.9122 40.7704 13.8163 39.7077 14.7088C40.2928 14.8247 40.7584 14.6276 41.2122 14.4074C41.654 14.1988 42.06 13.9438 42.5734 13.654C42.5257 13.8742 42.5018 14.0249 42.454 14.164C41.8092 15.8563 40.8062 17.3167 39.3017 18.3947C38.3822 19.0669 37.4031 19.6581 36.4956 20.3303C35.9225 20.7592 35.5165 21.0258 35.4926 21.6169C35.8747 21.4894 36.2449 21.3735 36.6867 21.2344C35.9464 23.6917 33.9881 25.1985 32.2806 26.9603C32.4477 27.0298 32.5791 27.0762 32.7104 27.1342C33.5582 27.4703 34.2747 27.9803 34.7642 28.7453C35.1344 29.3132 35.218 29.916 35.0627 30.5766C35.015 30.7737 35.1344 31.0403 35.2657 31.2141C35.6717 31.8169 35.7314 32.4312 35.3732 33.0571C35.0269 33.6714 34.4538 33.9728 33.7015 34.0191C34.2985 32.9759 34.2747 32.7441 33.4627 32.1878C33.3791 32.6166 33.2955 33.0223 33.2119 33.4512C32.6746 33.0223 32.2089 32.5123 31.6238 32.211C31.0268 31.9096 30.3223 31.8285 29.6059 31.6314C29.6417 31.7821 29.6417 31.8748 29.6775 31.956C30.2029 33.2425 30.6925 34.5523 31.2895 35.8157C31.5044 36.2793 31.9343 36.6734 32.3283 37.0212C32.6985 37.3457 32.9612 37.2298 33.1045 36.7546C33.2 36.4184 33.2358 36.0707 33.2955 35.7346C33.3552 35.4332 33.5224 35.3057 33.7373 35.3984C33.7851 35.6766 33.8448 35.8968 33.8567 36.1171C33.8687 36.3489 33.8687 36.5923 33.8209 36.8125C33.7732 37.0096 33.6418 37.195 33.5463 37.3805C33.5702 37.4152 33.606 37.4384 33.6299 37.4732C33.9523 37.2646 34.2866 37.0559 34.5971 36.8357C34.7523 36.7198 34.8717 36.5691 35.015 36.4416C35.5762 35.9432 35.8508 35.978 36.2449 36.6387C36.0299 36.6155 35.8389 36.5807 35.6359 36.5575C35.6001 37.4152 34.6687 37.4036 34.2866 37.9832C34.7403 37.96 35.1463 37.9252 35.5523 37.9252C36.1732 37.9252 36.424 38.2034 36.3046 38.8177C36.1255 38.4005 35.827 38.4584 35.5404 38.5743C34.9314 38.8177 34.3105 38.7366 33.6896 38.6555C33.009 38.5627 32.4 38.6555 31.8149 39.0495C31.4328 39.3161 31.0387 39.5711 30.4895 39.4552C30.3701 39.432 30.1551 39.8145 29.9999 40C29.7492 39.6755 29.7611 39.3625 30.179 39.1075C30.4417 38.9452 30.7522 38.8641 31.0387 38.7482C31.2179 38.6786 31.4089 38.6207 31.5641 38.5048C31.9104 38.2498 31.9104 38.0875 31.5761 37.8325C30.7522 37.1834 29.9283 36.5459 29.1044 35.8968C29.0327 35.8389 28.9491 35.7925 28.8775 35.7809C27.7909 35.6882 27.1939 34.9928 26.7401 34.1466C26.6446 33.9612 26.5729 33.7062 26.3102 33.8684C26.167 33.9612 26.0117 34.2393 26.0595 34.3784C26.3103 35.2941 26.8595 36.0127 27.7073 36.4764C28.0775 36.4184 28.1491 35.5375 28.6745 36.0707C28.6267 36.2677 28.5909 36.3837 28.567 36.4996C28.7103 36.5227 28.8655 36.5807 29.0088 36.5691C29.2477 36.5691 29.4865 36.5227 29.7253 36.4996C29.7372 36.5459 29.7492 36.6039 29.7611 36.6502C29.5939 36.7314 29.4268 36.8125 29.1999 36.9284C30.3462 36.9864 30.3462 36.9864 30.394 37.5775C30.0238 37.2298 29.6656 37.508 29.3074 37.5543C28.4954 37.6471 27.9342 38.018 27.6357 38.7945C27.5401 39.038 27.2774 39.2118 27.0386 39.4784C27.0506 39.5132 27.0864 39.6291 27.1103 39.7566C26.5968 39.5827 26.4774 39.3393 26.7282 38.8989C26.9192 38.5627 27.17 38.2498 27.3968 37.9252C27.5998 37.6355 27.5998 37.3921 27.2177 37.2298C26.5968 36.9632 26.0714 36.5343 25.3431 36.4648C25.0684 36.4416 24.8296 36.0823 24.555 35.8505C24.4236 36.0591 24.2445 36.3025 24.1012 36.5807C23.6833 37.4037 22.9788 37.9021 22.0952 38.1339C19.313 38.8757 16.6861 38.4584 14.2383 36.9864C13.8323 36.7546 13.5338 36.3952 13.1278 36.0475Z" fill="white"/>
</svg>
