<svg width="25" height="40" viewBox="0 0 25 40" fill="none" xmlns="http://www.w3.org/2000/svg">
<path fill-rule="evenodd" clip-rule="evenodd" d="M12.2619 0.00574169C12.8893 -0.0293792 13.4877 0.0993975 14.1035 0.315976C14.0831 0.374046 14.0643 0.43112 14.0457 0.487196C14.0008 0.623306 13.9577 0.753544 13.9001 0.87791C13.723 1.26124 13.5429 1.64457 13.3629 2.0279L13.3629 2.02792L13.3629 2.02795L13.3629 2.02797L13.3628 2.02799L13.3628 2.02801L13.3628 2.02803L13.3628 2.02806L13.3628 2.02808L13.3628 2.0281L13.3628 2.02812C13.1827 2.41152 13.0026 2.79493 12.8254 3.17833L12.8249 3.17941L12.8249 3.17942L12.8249 3.17943C12.7295 3.38622 12.6831 3.48692 12.605 3.52938C12.5308 3.56967 12.4282 3.5575 12.2281 3.53378L12.1922 3.52954C11.9889 3.50612 11.8669 3.41832 11.8378 3.2193C11.8255 3.13549 11.8099 3.05126 11.7943 2.96695L11.7943 2.96693L11.7943 2.9669L11.7943 2.96688L11.7943 2.96686L11.7943 2.96684L11.7943 2.96682L11.7943 2.96679L11.7943 2.96677L11.7943 2.96675L11.7943 2.96673L11.7943 2.96672C11.751 2.73315 11.7077 2.49893 11.7333 2.27104C11.7974 1.70792 11.9013 1.14844 12.005 0.589734L12.005 0.589726C12.0328 0.439904 12.0606 0.290138 12.0876 0.140372C12.0993 0.0876906 12.198 0.0115952 12.2619 0.00574169ZM7.96301 1.32887C8.09251 1.5217 8.22023 1.71309 8.34705 1.90314L8.34707 1.90318C8.73225 2.48039 9.10914 3.04517 9.50246 3.60002C9.64769 3.81074 9.84521 3.99805 10.1647 3.86928C10.6527 3.68197 10.7747 3.55319 10.6295 3.03808C10.4557 2.41197 10.5635 1.80991 10.6718 1.20574C10.6829 1.1434 10.6941 1.08104 10.705 1.01863C10.7456 0.796202 10.7398 0.550355 10.6876 0.327923C10.6643 0.222561 10.4552 0.0645168 10.3739 0.0820773C9.48503 0.304509 8.70659 0.743521 7.96301 1.32887ZM6.06478 6.36653C6.47179 6.66596 6.87999 6.96626 7.29543 7.27021C7.156 7.94336 6.79583 8.32384 6.09291 8.39993C5.12276 8.49944 4.30365 8.10141 3.56588 7.50435C3.52521 7.46923 3.50778 7.34045 3.53683 7.28192C3.57999 7.18514 3.62296 7.08817 3.66595 6.99114C3.85437 6.56584 4.04324 6.13955 4.25137 5.72489C4.30724 5.60828 4.39875 5.51101 4.48635 5.41789L4.48637 5.41786L4.4864 5.41783L4.48643 5.41779L4.48646 5.41776C4.52634 5.37537 4.56541 5.33384 4.59993 5.29174C5.09252 5.65126 5.57653 6.00733 6.06222 6.36465L6.06342 6.36553L6.06435 6.36621L6.06478 6.36653ZM6.32491 9.94394C5.22696 9.66882 4.16386 9.39956 3.01943 9.10689C2.99493 9.24269 2.96755 9.38283 2.93958 9.52603L2.93954 9.52624C2.88794 9.79038 2.8343 10.0649 2.79287 10.342C2.7531 10.6043 2.72683 10.8688 2.70006 11.1385V11.1385L2.70005 11.1386L2.70003 11.1387L2.70001 11.1389L2.7 11.1391C2.68377 11.3025 2.66736 11.4678 2.64764 11.6356C3.5655 12.098 4.50661 12.2268 5.43609 11.6883C6.09835 11.3137 6.35977 10.6932 6.32491 9.94394ZM2.68811 13.0469C2.51383 13.9718 2.65325 14.8439 2.97857 15.6927C3.00762 15.7629 3.08314 15.839 3.15285 15.8625C4.52384 16.3249 6.06911 15.4 6.28405 14.1532C6.3131 13.9835 6.32472 13.802 6.3131 13.6323C6.24339 12.8889 6.10396 12.7835 5.38361 12.8889L5.17609 12.9192C4.68168 12.9918 4.18673 13.0644 3.68731 13.1055C3.46792 13.1215 3.24306 13.099 3.01084 13.0757C2.90486 13.0651 2.79734 13.0543 2.68811 13.0469ZM6.59206 18.5369C7.0568 17.5418 6.91157 16.8277 6.12732 16.2072C5.31402 16.8277 4.37292 17.056 3.3621 17.0911C3.29239 17.0911 3.17621 17.1906 3.15878 17.2667C3.00193 18.0101 3.22268 18.6716 3.63514 19.2803C3.66816 19.3284 3.73131 19.3531 3.80264 19.381C3.84424 19.3973 3.88861 19.4146 3.93141 19.4384L3.89446 19.4635L3.87223 19.4788L3.87215 19.4788L3.87197 19.479C3.82416 19.5119 3.77759 19.5439 3.72809 19.573C2.6708 20.211 1.81684 21.0481 1.31143 22.1895C0.649172 23.6938 0.410994 25.245 1.00935 26.843C1.11705 27.1303 1.21611 27.4227 1.31501 27.7147C1.39749 27.9583 1.47986 28.2015 1.56704 28.441C1.8575 29.2488 1.88074 30.08 1.64837 30.8878C0.962875 33.2467 1.6077 35.4125 2.51976 37.549C2.59979 37.7276 2.73044 37.8891 2.85637 38.0448L2.85638 38.0449L2.8625 38.0524C3.03678 38.269 3.26335 38.3393 3.53638 38.2456C3.80942 38.1461 4.00693 37.9646 3.99531 37.6778C3.9837 37.309 3.93722 36.9403 3.85008 36.5832C3.78328 36.2993 3.70195 36.0183 3.62062 35.7374C3.53929 35.4564 3.45796 35.1754 3.39115 34.8916C3.20526 34.0896 3.44343 33.4282 4.09407 32.9306C4.12186 32.9101 4.14906 32.889 4.17604 32.868L4.17607 32.868L4.17621 32.8679C4.23379 32.8231 4.29039 32.7792 4.34968 32.7433C5.33145 32.1755 5.93561 31.2858 6.43521 30.2966C6.57472 30.0154 6.75527 29.7536 6.93555 29.4921L6.93556 29.4921L6.93562 29.492L6.93568 29.4919L6.93574 29.4918L6.93579 29.4917L6.93585 29.4916L6.93591 29.4915L6.93596 29.4915L6.93602 29.4914L6.93608 29.4913L6.93614 29.4912L6.93619 29.4911L6.93625 29.491L6.93631 29.4909L6.93637 29.4909L6.93642 29.4908L6.93648 29.4907L6.93654 29.4906C7.01866 29.3715 7.10073 29.2525 7.1788 29.1317L7.24851 29.1668C7.28337 29.3308 7.31895 29.4947 7.35454 29.6586L7.35454 29.6586L7.35455 29.6586L7.35456 29.6587L7.35456 29.6587L7.35457 29.6587L7.35457 29.6588L7.35458 29.6588L7.35458 29.6588L7.35459 29.6588L7.3546 29.6589L7.3546 29.6589L7.35461 29.6589L7.35461 29.659L7.35462 29.659L7.35462 29.659L7.35463 29.659L7.35464 29.6591C7.46134 30.1506 7.56805 30.6421 7.65516 31.1336C8.04438 33.2701 9.29918 34.8798 10.7515 36.3783C10.8947 36.5284 11.0832 36.6387 11.2611 36.7428L11.2685 36.7471C11.5125 36.8934 11.7623 36.8934 11.9947 36.7003C12.2329 36.5013 12.32 36.2496 12.2154 35.9686C12.1109 35.6993 11.9773 35.4359 11.8146 35.1959C11.6459 34.9504 11.4638 34.715 11.2818 34.4798L11.2817 34.4798C11.1253 34.2776 10.9689 34.0755 10.8212 33.8672C10.1299 32.8955 10.1009 32.2107 10.7805 31.239C11.3208 30.4605 11.6926 29.6117 12.0237 28.6927C12.1162 28.7361 12.2071 28.7762 12.2961 28.8155C12.4475 28.8823 12.5934 28.9468 12.7325 29.0205C14.1615 29.8049 15.0387 31.04 15.5616 32.556C15.7739 33.1607 15.9569 33.7765 16.1397 34.3916L16.14 34.3924C16.1871 34.5511 16.2343 34.7097 16.2819 34.8681C16.4504 35.4301 16.7234 35.9276 17.0952 36.3725L17.5205 36.8785L17.5207 36.8788L17.5208 36.8789C18.1852 37.6697 18.8484 38.4592 19.5235 39.2407C19.7152 39.4631 19.9476 39.6738 20.1974 39.8319C20.6505 40.1187 21.092 40.0309 21.5103 39.627C21.8124 39.3343 21.8646 38.9714 21.5916 38.509C21.435 38.2427 21.233 38.0013 21.0343 37.7638L21.0342 37.7638C20.9971 37.7194 20.9601 37.6752 20.9235 37.631C20.8074 37.4905 20.6737 37.3559 20.5343 37.2388C19.355 36.2261 19.0646 34.8857 19.1169 33.4165C19.1253 33.1698 19.1552 32.9231 19.1843 32.6831C19.1953 32.5929 19.2061 32.5035 19.2156 32.4155C19.3952 32.381 19.5727 32.3464 19.7463 32.3126L19.7496 32.3119L19.7501 32.3118L19.7529 32.3113L19.7534 32.3112C20.0772 32.2481 20.3877 32.1877 20.6737 32.1346C20.7821 32.3751 20.8834 32.6208 20.985 32.867C21.2047 33.3999 21.4254 33.9348 21.7194 34.4233C22.1519 35.1433 22.6643 35.8134 23.1765 36.4834L23.1766 36.4835C23.2974 36.6414 23.4181 36.7993 23.5377 36.9578C23.741 37.2271 24.0141 37.4437 24.3859 37.3559C24.5834 37.309 24.7344 36.7705 24.6357 36.39C24.5427 36.033 24.4323 35.6701 24.2523 35.354C23.4506 33.9316 23.1427 32.3687 22.9277 30.7824C22.8174 29.9746 22.341 29.6117 21.5393 29.7698C20.0405 30.0683 18.5359 30.2146 17.0081 30.08C16.9035 30.0683 16.799 30.0449 16.6944 30.0215C15.6139 29.7639 15.184 28.7571 15.7417 27.7796C15.7591 27.7445 15.7765 27.7093 15.8056 27.6801C16.3249 27.1524 16.6064 26.497 16.8891 25.8388C16.989 25.6062 17.0891 25.3733 17.1998 25.1455C17.4205 24.7006 17.8388 24.326 18.2397 23.9982C18.7334 23.6002 19.3376 23.4012 19.9592 23.2665C20.0463 23.249 20.1741 23.167 20.1916 23.0968C20.209 23.0148 20.1393 22.8626 20.0696 22.8275C20.0253 22.8065 19.9808 22.7848 19.936 22.7631L19.9358 22.7629C19.6694 22.6334 19.3945 22.4997 19.111 22.4646C18.6463 22.4061 18.1641 22.4178 17.6936 22.4646C17.1707 22.5173 16.706 22.3534 16.2703 22.1427C15.8056 21.9202 15.3641 21.6159 14.9458 21.3115C13.8014 20.4744 12.6453 19.6608 11.3324 19.1047C9.92658 18.5018 8.46846 18.3028 6.95804 18.5252C6.84767 18.5135 6.72567 18.5194 6.59206 18.5369ZM12.9642 17.4101C12.4994 17.7027 11.994 17.8315 11.4479 17.8315C10.9251 17.814 10.4255 17.7086 10.0014 17.3808C9.53089 17.0237 9.3508 16.4969 9.62384 15.9877C9.79809 15.6672 10.041 15.3863 10.2838 15.1054L10.2838 15.1054L10.2838 15.1054L10.2838 15.1054L10.2838 15.1054L10.2839 15.1054L10.2839 15.1054L10.2839 15.1053L10.2839 15.1053L10.2839 15.1053L10.2839 15.1053L10.2839 15.1053L10.2839 15.1053L10.2839 15.1053L10.2839 15.1053L10.2839 15.1053L10.2839 15.1053C10.3649 15.0116 10.4459 14.918 10.5243 14.8228C10.5649 14.776 10.6637 14.7584 10.7334 14.7643C11.994 14.8872 12.97 15.7594 13.1965 16.8598C13.2546 17.1291 13.1791 17.2754 12.9642 17.4101ZM6.65578 2.3542C7.31804 2.8576 8.24752 4.00488 8.88074 5.08777L8.81538 5.1711L8.81537 5.17112C8.66553 5.36205 8.52402 5.54238 8.38695 5.73166C8.26495 5.90141 8.11972 5.94238 7.91059 5.87799C6.83587 5.53264 6.09809 4.75998 5.31965 3.92878C5.77277 3.39612 6.21428 2.87516 6.65578 2.3542ZM15.7183 5.9486C16.197 5.53313 16.7801 5.46052 17.3666 5.38747C17.499 5.37098 17.6316 5.35447 17.7632 5.33399C18.0653 5.28716 18.3674 5.19936 18.6578 5.1057C18.7217 5.08229 18.8147 4.96522 18.803 4.90668C18.7159 4.32719 18.5358 3.78282 18.0537 3.40819C17.9723 3.3438 17.8387 3.30283 17.7458 3.31454C17.037 3.42575 16.3806 3.6716 15.7938 4.0872C15.7241 4.13988 15.6544 4.19256 15.5905 4.25109C14.9864 4.81303 15.027 5.45106 15.7183 5.9486ZM15.9453 15.5526C15.3585 14.499 12.8025 13.4922 12.1402 14.06C12.1402 14.0775 12.1402 14.1068 12.1518 14.1126C12.9419 14.8034 13.5112 15.6755 14.0631 16.5594C14.1967 16.776 14.3303 16.7877 14.5394 16.7174C15.0274 16.5535 15.5851 16.097 15.9453 15.5526ZM19.8482 26.9133C19.7611 27.364 19.581 27.4986 19.1163 27.5103C19.0346 27.495 18.953 27.4828 18.8717 27.4707C18.7044 27.4458 18.5388 27.4211 18.3785 27.3698C17.8557 27.2118 17.6291 26.843 17.7279 26.2986C17.7627 26.0996 17.8382 25.9065 17.9254 25.725C18.2391 25.087 18.7561 24.6363 19.3486 24.2733C19.552 24.1504 19.796 24.0743 20.0283 24.0333C20.1357 24.0125 20.2549 24.042 20.3732 24.0713C20.4213 24.0833 20.4693 24.0951 20.5163 24.1036C20.5065 24.1465 20.4989 24.1918 20.4914 24.2374C20.4722 24.3531 20.4527 24.4703 20.3943 24.5543C20.0574 25.0401 19.9586 25.5845 19.9296 26.1582C19.9179 26.4099 19.8947 26.6674 19.8482 26.9133ZM18.7735 26.0586C18.5179 26.0586 18.2914 26.2869 18.2972 26.5445C18.2984 26.6014 18.3097 26.6558 18.3292 26.7061C18.3101 26.6563 18.299 26.6024 18.2978 26.5461C18.2978 26.2885 18.5185 26.0602 18.7741 26.0602C18.9719 26.0602 19.1431 26.1842 19.2122 26.3611C19.1435 26.1833 18.9719 26.0586 18.7735 26.0586ZM15.8927 7.57356L16.5676 7.6297L16.5677 7.62971L16.5678 7.62972L16.5679 7.62972L16.5679 7.62973L16.5679 7.62973L16.568 7.62973L16.568 7.62973C17.4527 7.70316 18.3196 7.77512 19.1866 7.85453C19.4422 7.87794 19.5235 7.77844 19.5468 7.53844C19.5932 7.02334 19.4189 6.61945 18.9891 6.33848C18.2629 5.8702 16.9674 5.95215 16.3052 6.51408C15.9682 6.79505 15.823 7.15211 15.8927 7.57356ZM15.3699 0.835948C16.067 1.21642 16.7293 1.60275 17.194 2.2642C16.1251 2.89637 15.091 3.51099 14.057 4.13146C13.8653 3.82708 13.842 3.6222 13.9815 3.1949C14.2465 2.3719 14.7483 1.68592 15.257 0.990476L15.257 0.99047L15.3699 0.835948ZM15.6905 14.1497L15.6905 14.1497C16.0486 14.4257 16.4109 14.7047 16.811 14.9449C16.8657 14.858 16.9203 14.7718 16.9745 14.6861L16.9745 14.686C17.1905 14.3447 17.4014 14.0115 17.601 13.6747C17.6301 13.6278 17.6126 13.4932 17.5662 13.4581C16.811 12.861 15.9977 12.381 15.0043 12.3342C14.5105 12.3225 14.069 12.4513 13.7901 12.9956C14.5147 13.2439 15.097 13.6925 15.6905 14.1497ZM19.3144 9.10925C19.3028 9.58881 19.2909 10.0799 18.9833 10.4835C18.8626 10.4434 18.7432 10.403 18.6245 10.3628C18.3094 10.2561 18.0002 10.1513 17.6879 10.062C17.136 9.91567 16.5841 9.78104 16.0264 9.65812C15.8173 9.61129 15.7708 9.50593 15.7999 9.30691C15.8754 8.75668 16.253 8.41718 16.892 8.39377C17.7111 8.35864 18.4663 8.63376 19.2041 8.96155C19.2564 8.98497 19.3145 9.06106 19.3145 9.10789L19.3144 9.10925ZM17.2629 26.9248C17.1389 27.0776 17.0279 27.2119 16.9244 27.3371L16.9243 27.3373L16.9242 27.3374L16.9242 27.3374C16.8097 27.476 16.7044 27.6035 16.6006 27.7326C16.565 27.7771 16.5279 27.8205 16.4909 27.8638C16.4012 27.9689 16.3121 28.0732 16.2463 28.1892C16.0313 28.5638 16.1359 28.9735 16.5309 29.1433C16.8446 29.2779 17.1932 29.3657 17.5301 29.4009C18.4306 29.5004 19.3194 29.4126 20.1908 29.1492C20.1327 28.7394 19.9468 28.5521 19.5401 28.5111C19.3372 28.4929 19.1319 28.486 18.9272 28.4791L18.9271 28.4791L18.927 28.4791L18.9269 28.4791C18.8036 28.475 18.6806 28.4709 18.5584 28.4643C17.7683 28.4175 17.6405 28.2945 17.4837 27.5219C17.4564 27.3923 17.403 27.2654 17.3462 27.1306C17.3184 27.0643 17.2897 26.9962 17.2629 26.9248ZM17.9956 12.6135C17.0661 12.1277 16.1192 11.7062 15.0677 11.4955C15.2187 10.7462 15.7125 10.4126 16.491 10.5121C17.2752 10.6058 17.9723 10.9336 18.6113 11.3843C18.6752 11.4311 18.7566 11.5365 18.7391 11.5833C18.6113 11.9111 18.4777 12.2447 18.3093 12.555C18.2744 12.6135 18.0711 12.6545 17.9956 12.6135ZM20.5461 25.6847C20.5461 26.2935 20.6448 26.393 21.1096 26.3052C21.3013 26.2701 21.5046 26.1881 21.6614 26.0711C22.2656 25.6203 22.4341 24.5316 22.0158 23.9287C21.917 23.7882 21.8299 23.7297 21.6673 23.8467C20.9934 24.3443 20.5751 24.9706 20.5461 25.6847Z" fill="white"/>
</svg>
