<svg 
class="logo-svg" 
width="32" 
height="30" 
viewbox="0 0 33 31" 
fill="none" 
xmlns="http://www.w3.org/2000/svg">
<path fill-rule="evenodd" clip-rule="evenodd" d="M12.3079 12.6763C13.7887 12.6763 14.7778 14.1169 14.2745 15.5457C14.0264 16.2613 13.5398 16.8058 13.0527 17.3508C13.0112 17.3973 12.9697 17.4437 12.9283 17.4903C12.583 17.8756 12.2494 18.2729 11.9626 18.6997C11.5529 19.3104 11.348 20.0159 11.2134 20.7392C11.1724 20.9644 11.1197 21.1838 11.0495 21.3972C10.6866 22.5711 9.72674 23.1224 8.562 22.7608C7.12802 22.3162 6.32616 21.249 5.93987 19.8321C5.66478 18.8124 5.82281 17.846 6.43737 16.9923C6.62467 16.7255 6.94073 16.5299 7.23337 16.3757C7.46378 16.2542 7.72568 16.1924 7.98356 16.1316C8.04012 16.1183 8.09649 16.105 8.15229 16.0911C8.83123 15.9251 9.29947 15.5161 9.64479 14.9113C9.92574 14.4193 10.2242 13.9272 10.5871 13.4944C11.0261 12.9727 11.6114 12.6763 12.3079 12.6763ZM27.3669 18.8835C27.2909 20.425 26.6587 21.6522 25.336 22.4703C24.8151 22.7905 24.2473 22.9446 23.6269 22.832C22.9831 22.7134 22.509 22.3636 22.269 21.747C22.1227 21.3617 22.0173 20.9585 21.9354 20.5554C21.6954 19.3934 21.1687 18.4033 20.3375 17.5555C19.9161 17.1227 19.5357 16.6425 19.1962 16.1445C18.886 15.6939 18.7221 15.1663 18.7865 14.6031C18.9796 12.9372 20.7648 12.1368 22.1402 13.0972C22.7607 13.53 23.1821 14.1347 23.4923 14.8165C23.8318 15.5457 24.3878 15.9489 25.1428 16.1327C25.4764 16.2157 25.8101 16.3402 26.1203 16.4943C27.0158 16.939 27.2792 17.763 27.3611 18.6938C27.3699 18.7338 27.3688 18.7838 27.3677 18.8338V18.8339C27.3674 18.8456 27.3672 18.8573 27.367 18.8689C27.367 18.8738 27.3669 18.8787 27.3669 18.8835ZM17.1443 22.9778C16.968 22.9495 16.7917 22.9212 16.6158 22.8912C16.6158 22.897 16.6152 22.9033 16.6145 22.9099C16.6132 22.9237 16.6118 22.9385 16.6158 22.9505C16.4987 22.9594 16.3816 22.9653 16.2646 22.9713C16.1475 22.9772 16.0305 22.9831 15.9134 22.992C15.2462 23.0454 14.5906 23.158 14.0054 23.5019C12.8991 24.154 12.8231 25.5057 13.859 26.2646C14.0483 26.404 14.2597 26.5146 14.47 26.6247C14.5458 26.6644 14.6215 26.704 14.696 26.7448C14.8079 26.8071 14.9223 26.8668 15.0368 26.9266C15.2274 27.0262 15.4181 27.1257 15.5974 27.2369C15.89 27.4207 16.1007 27.6875 16.1183 28.0491C16.1592 28.891 15.7612 29.5905 14.7955 29.5965C14.6024 29.5965 14.3916 29.5965 14.2161 29.5313C13.9674 29.4411 13.7252 29.3362 13.4827 29.2312C13.2628 29.1361 13.0426 29.0408 12.8172 28.9562C12.6826 28.9028 12.4777 28.9028 12.3665 28.9799C12.2729 29.0451 12.2202 29.2585 12.2378 29.389C12.2553 29.4957 12.3899 29.6083 12.4953 29.6854C14.0522 30.7703 15.7671 31.1853 17.6342 30.9245C18.7814 30.7644 19.829 30.3316 20.7772 29.6498C21.0113 29.4838 21.0699 29.2645 20.9469 29.0688C20.8182 28.8673 20.6075 28.8317 20.3558 28.974C20.3119 28.9977 20.2695 29.0214 20.2271 29.0451C20.1846 29.0688 20.1422 29.0925 20.0983 29.1163C19.513 29.4364 18.9043 29.6558 18.2253 29.5905C17.6693 29.5313 17.283 29.1933 17.1425 28.6538C16.9786 28.0195 17.1074 27.5808 17.5991 27.2488C17.7722 27.1318 17.9591 27.0369 18.1461 26.9419C18.2815 26.8731 18.4169 26.8042 18.5472 26.727C18.6228 26.6829 18.6994 26.64 18.7761 26.597C19.0502 26.4434 19.3253 26.2893 19.5539 26.0808C20.2973 25.405 20.2329 24.2548 19.4252 23.662C19.1794 23.4782 18.8867 23.3181 18.5941 23.247C18.1172 23.1338 17.6309 23.0558 17.1443 22.9778Z" fill="black"/>
<path fill-rule="evenodd" clip-rule="evenodd" d="M33.0002 7.08427C33.0002 9.40408 31.8188 11.4484 30.0239 12.6501C28.4503 8.35077 24.9923 4.95735 20.6482 3.4665C21.8413 1.61444 23.9238 0.387695 26.2932 0.387695C29.9974 0.387695 33.0002 3.38585 33.0002 7.08427ZM0.28418 7.08452C0.28418 9.40438 1.46565 11.4487 3.2606 12.6504C4.8342 8.35111 8.29214 4.95767 12.6362 3.46679C11.4431 1.6147 9.36063 0.387939 6.9912 0.387939C3.28701 0.387939 0.28418 3.3861 0.28418 7.08452Z" fill="black"/>
</svg>