<svg
width="28"
height="25"
viewbox="0 0 28 25"
fill="#F58021"
xmlns="http://www.w3.org/2000/svg"
>
<path
    fill-rule="evenodd"
    clip-rule="evenodd"
    d="M15.2039 0.24596C14.9987 0.335165 14.8124 0.465905 14.6555 0.630691C14.4982 0.795061 14.3735 0.990325 14.2883 1.2053C14.2032 1.42027 14.1594 1.65074 14.1594 1.88349C14.1594 2.11623 14.2032 2.3467 14.2883 2.56167C14.3735 2.77665 14.4982 2.97191 14.6555 3.13628L21.4444 10.2474H2.12822C1.65029 10.2474 1.19193 10.4847 0.85398 10.9071C0.51603 11.3296 0.326172 11.9025 0.326172 12.4999C0.326172 13.0973 0.51603 13.6703 0.85398 14.0927C1.19193 14.5152 1.65029 14.7525 2.12822 14.7525H21.4453L14.6555 21.8645C14.3384 22.1967 14.1603 22.6474 14.1603 23.1173C14.1603 23.5872 14.3384 24.0378 14.6555 24.3701C14.9726 24.7023 15.4027 24.889 15.8511 24.889C16.2995 24.889 16.7296 24.7023 17.0467 24.3701L27.1786 13.7532C27.3359 13.5888 27.4607 13.3935 27.5458 13.1786C27.6309 12.9636 27.6748 12.7331 27.6748 12.5004C27.6748 12.2676 27.6309 12.0372 27.5458 11.8222C27.4607 11.6072 27.3359 11.412 27.1786 11.2476L17.0467 0.630691C16.8898 0.465905 16.7034 0.335165 16.4983 0.24596C16.2931 0.156756 16.0732 0.11084 15.8511 0.11084C15.629 0.11084 15.409 0.156756 15.2039 0.24596Z"
/>
</svg>
