<svg width="81" height="577" viewBox="0 0 81 577" fill="none" xmlns="http://www.w3.org/2000/svg">
<path d="M27.8582 54.5723C32.1926 53.5812 34.933 50.7994 37.7092 47.8438C37.3331 47.7395 37.0465 47.6525 36.7599 47.583C32.9449 46.6441 29.4343 45.0446 26.2104 42.8713C24.2222 41.5326 22.5923 39.8461 21.3565 37.7945C21.1953 37.5337 21.0699 37.2555 20.9445 36.9774C20.9087 36.9078 20.9087 36.8209 20.8729 36.5775C22.0908 36.9426 23.2371 37.2903 24.3655 37.638C24.4013 37.6033 24.4193 37.5859 24.4551 37.5511C24.3297 37.4468 24.2222 37.3425 24.0969 37.2555C22.6282 36.3341 21.1953 35.3778 19.7087 34.5085C18.0071 33.5001 16.216 32.6308 14.5682 31.5876C12.3652 30.1793 10.8069 28.1973 9.67852 25.9023C9.62479 25.798 9.60688 25.6937 9.58897 25.5894C9.57106 25.5372 9.58897 25.4676 9.58897 25.3112C11.4159 26.0762 13.1174 27.1541 15.2309 26.9629C11.0756 24.6505 8.4964 21.4167 8.67551 16.5485C10.4487 18.4436 12.1861 20.3213 13.9234 22.199C13.9592 22.1643 14.013 22.1121 14.0488 22.0773C13.3324 20.7212 12.4905 19.3998 11.9532 17.9742C11.4159 16.5485 11.0577 15.0011 10.8786 13.4885C10.6995 11.9759 10.8427 10.4285 10.8427 8.89854C10.9323 8.88115 11.0218 8.88116 11.0935 8.86377C11.9353 10.7067 12.7771 12.5497 13.6189 14.41C13.7085 14.41 13.798 14.3926 13.8876 14.3926C13.8518 11.0371 14.2279 7.75105 15.822 4.74322C15.8936 4.74322 15.9653 4.74323 16.0369 4.76061C16.0369 5.50822 16.0727 6.23844 16.0369 6.98605C15.8399 10.6546 17.2907 13.7841 19.4579 16.6354C20.9087 18.5305 22.6998 20.1127 24.6342 21.5384C27.1775 23.4161 30.0254 24.7896 32.8732 26.1457C35.5241 27.3975 37.8525 29.1014 40.0376 31.0139C41.363 32.1788 42.7422 33.2741 44.1034 34.4042C44.4795 34.7171 44.8557 35.0649 45.2855 35.4474C45.9841 33.8826 46.6289 32.4222 47.2737 30.9443C48.8319 27.4323 51.1782 24.4766 54.0798 21.9209C56.3903 19.8867 58.7367 17.922 61.0472 15.9052C64.1816 13.1582 66.1339 9.75047 66.7608 5.68208C66.9936 4.23902 66.8862 2.72642 66.9399 1.26597C66.9399 1.02256 66.9399 0.761771 67.0295 0.500977C68.1579 3.0046 68.4803 5.64731 68.7489 8.39434C69.8594 6.20367 70.952 4.013 72.0625 1.80495C72.152 1.82233 72.2416 1.83972 72.3132 1.8571C72.1878 4.09993 72.1699 6.34276 71.9012 8.5682C71.6326 10.7763 71.1132 12.9495 70.7012 15.0533C71.2565 14.2187 71.9012 13.2625 72.6535 12.1672C72.7072 14.3057 72.6356 16.2355 71.7042 18.0611C70.7908 19.8693 69.3221 21.2254 67.728 22.5641C68.6056 22.738 69.3042 22.4424 69.9848 22.1121C70.6475 21.7991 71.2565 21.4167 72.0266 20.982C71.955 21.3123 71.9192 21.5384 71.8475 21.747C70.8803 24.2854 69.3758 26.4761 67.119 28.093C65.7399 29.1014 64.2712 29.9881 62.9099 30.9965C62.0502 31.6398 61.4412 32.0397 61.4054 32.9264C61.9786 32.7351 62.5338 32.5612 63.1965 32.3526C62.086 36.0385 59.1486 38.2987 56.5874 40.9414C56.8381 41.0457 57.0351 41.1153 57.2322 41.2022C58.5038 41.7064 59.5785 42.4714 60.3129 43.6189C60.8681 44.4708 60.9935 45.3749 60.7606 46.3659C60.689 46.6615 60.8681 47.0614 61.0651 47.3222C61.6741 48.2263 61.7636 49.1477 61.2263 50.0866C60.7069 51.0081 59.8472 51.4601 58.7188 51.5297C59.6143 49.9649 59.5785 49.6172 58.3606 48.7826C58.2352 49.4259 58.1098 50.0344 57.9844 50.6777C57.1784 50.0344 56.4799 49.2694 55.6023 48.8174C54.7067 48.3654 53.65 48.2437 52.5753 47.9481C52.629 48.1741 52.629 48.3132 52.6828 48.4349C53.4709 50.3648 54.2052 52.3294 55.1008 54.2245C55.4232 54.92 56.068 55.5111 56.659 56.0327C57.2143 56.5195 57.6083 56.3457 57.8232 55.6328C57.9665 55.1286 58.0202 54.607 58.1098 54.1028C58.1994 53.6508 58.4501 53.4595 58.7725 53.5986C58.8442 54.0159 58.9337 54.3462 58.9516 54.6766C58.9695 55.0243 58.9695 55.3894 58.8979 55.7198C58.8262 56.0153 58.6292 56.2935 58.4859 56.5717C58.5218 56.6238 58.5755 56.6586 58.6113 56.7108C59.0949 56.3978 59.5964 56.0849 60.0621 55.7545C60.2949 55.5807 60.474 55.3546 60.689 55.1634C61.5308 54.4158 61.9427 54.4679 62.5338 55.459C62.2114 55.4242 61.9248 55.372 61.6203 55.3373C61.5666 56.6238 60.1696 56.6064 59.5964 57.4758C60.277 57.441 60.886 57.3888 61.495 57.3888C62.4263 57.3888 62.8025 57.8061 62.6234 58.7276C62.3547 58.1017 61.9069 58.1886 61.4771 58.3625C60.5636 58.7276 59.6322 58.6059 58.7009 58.4842C57.6799 58.3451 56.7665 58.4842 55.8888 59.0753C55.3157 59.4752 54.7246 59.8577 53.9007 59.6838C53.7216 59.649 53.3992 60.2228 53.1664 60.501C52.7902 60.0142 52.8082 59.5447 53.435 59.1622C53.8291 58.9188 54.2948 58.7971 54.7246 58.6233C54.9933 58.5189 55.2799 58.432 55.5127 58.2581C56.0321 57.8756 56.0321 57.6322 55.5306 57.2497C54.2948 56.2761 53.0589 55.3199 51.8231 54.3462C51.7156 54.2593 51.5902 54.1898 51.4827 54.1724C49.8528 54.0333 48.9573 52.9901 48.2767 51.7209C48.1334 51.4427 48.0259 51.0602 47.6319 51.3036C47.4169 51.4427 47.1841 51.86 47.2558 52.0686C47.6319 53.4422 48.4558 54.5201 49.7275 55.2155C50.2827 55.1286 50.3902 53.8073 51.1783 54.607C51.1066 54.9026 51.0529 55.0765 51.0171 55.2503C51.232 55.2851 51.4648 55.372 51.6798 55.3546C52.038 55.3546 52.3962 55.2851 52.7544 55.2503C52.7723 55.3199 52.7902 55.4068 52.8082 55.4763C52.5574 55.598 52.3066 55.7198 51.9663 55.8936C53.6858 55.9805 53.6858 55.9805 53.7574 56.8672C53.2022 56.3457 52.6649 56.7629 52.1275 56.8325C50.9096 56.9716 50.0678 57.5279 49.62 58.6928C49.4767 59.0579 49.0827 59.3187 48.7244 59.7186C48.7424 59.7708 48.7961 59.9446 48.8319 60.1359C48.0617 59.8751 47.8826 59.51 48.2588 58.8493C48.5453 58.3451 48.9215 57.8756 49.2618 57.3888C49.5663 56.9542 49.5663 56.5891 48.9931 56.3457C48.0617 55.9458 47.2737 55.3025 46.1811 55.1982C45.7691 55.1634 45.4109 54.6244 44.999 54.2767C44.8019 54.5896 44.5333 54.9548 44.3183 55.372C43.6915 56.6065 42.6347 57.3541 41.3093 57.7018C37.136 58.8145 33.1956 58.1886 29.5239 55.9805C28.9149 55.6328 28.4671 55.0938 27.8582 54.5723Z" fill="#20113D"/>
<path fill-rule="evenodd" clip-rule="evenodd" d="M54.198 198.951C54.822 200.286 55.446 201.62 56.0927 203.013C55.9293 203.147 55.7638 203.285 55.5958 203.425L55.5951 203.426L55.595 203.426C55.215 203.744 54.8225 204.072 54.4136 204.383C53.9593 204.726 53.5088 205.075 53.0585 205.423L53.0578 205.423L53.0578 205.423C51.9452 206.284 50.8341 207.143 49.6713 207.925C45.4849 210.746 40.8675 211.892 35.8983 211.443C34.6843 211.337 33.4023 210.9 32.8918 210.534C33.1866 208.41 33.4701 206.345 33.7535 204.28L33.754 204.276C33.72 204.264 33.6831 204.256 33.6463 204.247C33.6094 204.238 33.5725 204.229 33.5385 204.217C33.428 204.451 33.3185 204.684 33.2091 204.917L33.2087 204.918C32.9362 205.498 32.6645 206.077 32.3813 206.649C31.6455 208.162 31.1522 209.769 30.6578 211.379C30.5194 211.83 30.3809 212.281 30.237 212.73C29.3294 215.528 27.7071 217.677 24.9502 218.728C24.8141 218.787 24.7006 219.023 24.6439 219.2C24.5327 219.567 24.4339 219.939 24.3352 220.31L24.3352 220.31C24.2021 220.81 24.0692 221.31 23.9064 221.798C23.2825 223.687 22.1139 225.151 20.5369 226.273C19.8335 226.768 19.1301 227.276 18.4608 227.819C17.8822 228.28 17.9049 228.48 18.4721 228.941C18.5831 229.031 18.6947 229.12 18.806 229.208L18.806 229.208L18.8061 229.208C19.1614 229.491 19.5139 229.772 19.8335 230.086C20.3554 230.606 20.5937 231.267 20.4008 232.023C20.3554 232.2 20.0945 232.436 19.9356 232.436C16.2144 232.459 12.4819 232.459 8.76065 232.448C8.62451 232.448 8.43164 232.4 8.35223 232.306C8.23829 232.162 8.12166 232.018 8.00468 231.874L8.00446 231.873L8.00443 231.873C7.58566 231.357 7.16252 230.835 6.84332 230.263C6.63911 229.897 6.61642 229.283 6.75256 228.87C8.0686 224.702 9.75903 220.747 12.947 217.713C13.0832 217.583 13.1626 217.299 13.1739 217.099C13.2533 214.1 13.5937 211.124 14.3311 208.232C14.9665 205.729 15.6472 203.225 16.8497 200.923C19.0621 196.72 21.921 193.213 26.3116 191.324C30.0896 189.707 33.7767 189.954 37.3731 191.867C37.8669 192.132 38.3134 192.495 38.7484 192.849C38.9531 193.016 39.1552 193.18 39.3585 193.331C38.9501 192.41 38.2354 191.655 37.4639 190.958C38.1904 190.67 38.9195 190.392 39.6474 190.114L39.6476 190.114C42.8641 188.886 46.0554 187.668 48.8771 185.704C49.0014 186.154 49.1234 186.608 49.2461 187.065L49.2462 187.065C49.4036 187.652 49.5622 188.242 49.728 188.833C49.7734 188.975 49.8642 189.104 49.9776 189.222C49.7507 187.758 49.7507 186.294 50.2839 184.948C50.7831 183.673 51.3844 182.386 52.1559 181.276C54.0505 178.584 56.3309 176.247 58.8722 174.204L58.8722 174.204L58.8723 174.204C58.9744 174.121 59.0764 174.039 59.1899 173.956C59.3721 173.835 59.5526 173.706 59.7336 173.577C60.6116 172.95 61.4986 172.316 62.6275 172.551C64.4881 172.929 66.0424 173.944 67.1088 175.609C67.4151 176.081 67.7668 176.412 68.2547 176.589C69.5253 177.05 70.4783 177.841 71.091 179.128C71.313 179.598 71.6333 180.014 71.9542 180.431C72.1086 180.632 72.2632 180.833 72.407 181.04C72.702 181.465 72.7587 181.82 72.4297 182.315C72.1574 182.729 72.0213 183.284 71.9418 183.791C71.8397 184.393 72.0666 184.783 72.6793 185.114C74.2789 185.964 75.2093 187.865 74.3243 189.789C74.1768 190.108 74.0407 190.427 73.9159 190.757C73.326 192.339 72.2028 192.894 70.6598 192.339C70.6343 192.331 70.6081 192.322 70.5818 192.313L70.5817 192.313C70.5031 192.286 70.4244 192.26 70.3649 192.233C70.0812 192.646 69.7976 193.048 69.4913 193.473C69.4478 193.418 69.4104 193.377 69.3819 193.346C69.3435 193.305 69.3211 193.281 69.3211 193.26C69.4119 192.245 68.8219 191.643 68.1639 191.029C65.0894 188.148 61.3228 188.668 58.7474 190.332C59.037 190.271 59.3238 190.205 59.6098 190.138L59.6099 190.138C60.1531 190.012 60.6934 189.886 61.2434 189.801C64.5108 189.329 67.3471 190.852 68.856 193.898C69.8997 196 70.6371 198.196 70.4556 200.628L70.4536 200.656V200.656C70.4202 201.133 70.3838 201.652 70.1947 202.068C69.5367 203.532 69.7409 205.008 70.1039 206.461L70.1708 206.731C70.5115 208.111 70.8612 209.528 71.5107 210.746C74.018 215.434 74.2222 220.499 74.0407 225.635C73.9613 227.843 73.2806 229.803 71.5334 231.232C70.5577 232.034 69.514 232.589 68.2093 232.483C67.608 232.436 66.9954 232.424 66.3941 232.483C65.2595 232.613 64.4767 232.023 63.8074 231.196C63.0813 230.311 62.7523 229.283 62.9565 228.126C63.0132 227.819 63.2288 227.441 63.4784 227.3C63.7919 227.126 64.0208 227.367 64.2528 227.611C64.2894 227.649 64.3261 227.688 64.3633 227.725C64.7129 228.077 65.1748 228.336 65.6149 228.582L65.615 228.582L65.6226 228.587C66.0083 228.799 66.2125 228.622 66.2579 228.174C66.3033 227.642 66.1445 227.194 65.7587 226.851C63.5918 224.927 62.2304 222.412 61.0051 219.802C60.0635 217.783 59.4622 215.67 59.2466 213.427C59.0878 211.738 59.3714 210.097 59.6777 208.456C59.8252 207.712 59.9727 206.956 60.0181 206.189C60.1202 204.666 59.6097 203.379 58.3503 202.564C56.7961 201.561 55.4119 200.356 54.3001 198.845C54.3115 198.881 54.2547 198.916 54.198 198.951ZM57.5215 204.314C58.1795 204.869 58.4178 205.506 58.2816 206.297C58.1977 206.809 58.1054 207.319 58.013 207.829L58.0129 207.829L58.0129 207.83C57.843 208.768 57.6731 209.706 57.5555 210.654C57.1698 213.854 57.8845 216.876 59.0758 219.793C59.2913 220.324 59.314 220.749 59.0871 221.28C58.0547 223.713 56.9315 226.086 55.4794 228.294C53.5961 231.151 50.964 232.473 47.6739 232.473C47.4795 232.473 47.2861 232.476 47.0931 232.48H47.093C46.6441 232.487 46.1975 232.494 45.7452 232.461C45.5183 232.45 45.2347 232.296 45.1099 232.107C44.0548 230.62 44.2363 227.538 45.4502 226.18C45.5864 226.027 45.8927 225.885 46.0629 225.944C46.1922 225.992 46.284 226.197 46.3687 226.386C46.388 226.429 46.407 226.471 46.4259 226.511C46.4727 226.608 46.5068 226.716 46.5406 226.822C46.597 227 46.6528 227.176 46.7663 227.302C46.9705 227.55 47.3222 227.904 47.5491 227.857C47.7873 227.81 48.0256 227.373 48.1277 227.066C48.2298 226.771 48.1958 226.404 48.139 226.098C48.0568 225.665 47.9537 225.236 47.8508 224.808L47.8508 224.808C47.6698 224.054 47.4894 223.304 47.4243 222.544C47.118 219.131 47.413 215.778 48.8311 212.626C49.1601 211.906 49.5345 211.174 50.0223 210.56C50.5329 209.898 51.1682 209.32 51.8149 208.8C52.4785 208.258 53.1623 207.745 53.847 207.231L53.847 207.231L53.8473 207.23C54.3097 206.883 54.7725 206.536 55.2298 206.179C55.7398 205.775 56.2448 205.36 56.7584 204.939C57.0102 204.732 57.264 204.523 57.5215 204.314ZM33.1378 212.706C32.8464 212.616 32.5537 212.526 32.2556 212.435C32.1545 212.663 32.0566 212.894 31.9583 213.126C31.7917 213.519 31.6242 213.914 31.4387 214.3C30.3155 216.662 28.8407 218.716 26.5603 220.038C26.3788 220.145 26.254 220.416 26.1859 220.641C25.6413 222.542 24.9606 224.36 23.7013 225.895C23.6106 226.013 23.5311 226.225 23.5652 226.355C23.9623 227.666 24.3707 228.976 24.8131 230.263C24.8926 230.488 25.1308 230.7 25.3464 230.83C26.1519 231.302 26.9574 231.763 27.7856 232.2C28.0579 232.341 28.3755 232.471 28.6705 232.471C31.0695 232.489 33.4621 232.487 35.858 232.484C36.6572 232.484 37.4568 232.483 38.2572 232.483H38.9606C38.8843 232.32 38.8221 232.161 38.7632 232.011C38.647 231.715 38.5438 231.451 38.3706 231.255C37.9395 230.771 37.4516 230.311 36.9298 229.944C36.4397 229.601 35.9076 229.317 35.3775 229.033C35.2327 228.955 35.088 228.878 34.9444 228.799C34.3771 228.48 34.1275 228.008 34.1729 227.347C34.1805 227.19 34.1981 227.032 34.2158 226.875C34.2246 226.796 34.2334 226.717 34.241 226.639C34.2757 226.281 34.3188 225.923 34.3621 225.564C34.4602 224.749 34.5586 223.932 34.5586 223.12C34.5586 221.432 33.8325 219.979 32.8001 218.704C34.5927 217.311 34.9444 215.339 35.1145 213.309C34.4327 213.105 33.7887 212.906 33.1378 212.706Z" fill="#20113D"/>
<path fill-rule="evenodd" clip-rule="evenodd" d="M40.0595 344.51C41.0006 344.457 41.8981 344.65 42.8218 344.975C42.7913 345.062 42.763 345.148 42.7352 345.232L42.7352 345.232C42.6677 345.436 42.6032 345.631 42.5168 345.818C42.251 346.393 41.9809 346.968 41.7108 347.543C41.4406 348.118 41.1705 348.693 40.9047 349.268L40.904 349.27C40.7609 349.58 40.6912 349.731 40.574 349.795C40.4628 349.855 40.3089 349.837 40.0087 349.802L39.9549 349.795C39.6499 349.76 39.4669 349.628 39.4234 349.33C39.4049 349.204 39.3815 349.078 39.3581 348.951L39.3581 348.951L39.3581 348.951L39.358 348.951L39.358 348.951L39.358 348.951L39.358 348.951L39.358 348.951L39.358 348.951L39.358 348.951L39.358 348.951C39.2931 348.601 39.2281 348.249 39.2665 347.908C39.3627 347.063 39.5185 346.224 39.6741 345.386L39.6741 345.386L39.6741 345.385L39.6741 345.385L39.6741 345.385L39.6742 345.385L39.6742 345.385L39.6742 345.385L39.6742 345.385L39.6742 345.385L39.6742 345.385L39.6742 345.385C39.7159 345.16 39.7576 344.936 39.798 344.712C39.8155 344.633 39.9636 344.518 40.0595 344.51ZM34.1873 347.355L34.1875 347.355L34.1875 347.356L34.1876 347.356C34.7653 348.221 35.3306 349.069 35.9206 349.901C36.1384 350.217 36.4347 350.498 36.914 350.305C37.646 350.024 37.8289 349.831 37.6111 349.058C37.3504 348.119 37.5122 347.216 37.6746 346.309L37.6746 346.309C37.6913 346.216 37.7081 346.122 37.7244 346.029C37.7854 345.695 37.7767 345.326 37.6982 344.993C37.6634 344.835 37.3497 344.598 37.2277 344.624C35.8945 344.957 34.7268 345.616 33.6114 346.494C33.8056 346.783 33.9971 347.07 34.1873 347.355ZM30.7645 354.05C31.3749 354.5 31.9872 354.95 32.6104 355.406C32.4012 356.416 31.861 356.986 30.8066 357.101C29.3514 357.25 28.1227 356.653 27.016 355.757C26.955 355.704 26.9289 355.511 26.9725 355.424C27.0364 355.28 27.1001 355.136 27.1638 354.993L27.1644 354.991L27.1652 354.989L27.1655 354.989L27.1662 354.987L27.1662 354.987L27.1662 354.987L27.1662 354.987L27.1662 354.987L27.1662 354.987L27.1663 354.987L27.1663 354.987L27.1663 354.987L27.1663 354.987L27.1663 354.987L27.1664 354.987L27.1664 354.987L27.1664 354.987L27.1664 354.987C27.449 354.349 27.7322 353.71 28.0443 353.088C28.1281 352.913 28.2653 352.767 28.3967 352.627L28.3968 352.627C28.4566 352.564 28.5153 352.501 28.5671 352.438C29.3065 352.978 30.033 353.512 30.7621 354.049L30.7636 354.05L30.7639 354.05L30.7645 354.05ZM31.1541 359.417C29.5072 359.004 27.9125 358.6 26.1959 358.161C26.1591 358.365 26.118 358.575 26.076 358.79L26.076 358.79C25.9986 359.187 25.9182 359.598 25.856 360.014C25.7964 360.407 25.757 360.804 25.7168 361.209V361.209C25.6925 361.454 25.6678 361.702 25.6382 361.954C27.015 362.648 28.4267 362.841 29.8209 362.033C30.8143 361.472 31.2064 360.541 31.1541 359.417ZM25.6992 364.072C25.4377 365.459 25.6469 366.767 26.1348 368.04C26.1784 368.146 26.2917 368.26 26.3963 368.295C28.4527 368.989 30.7706 367.601 31.0931 365.731C31.1366 365.476 31.1541 365.204 31.1366 364.95C31.0321 363.835 30.8229 363.676 29.7424 363.835L29.4311 363.88C28.6895 363.989 27.9471 364.098 27.1979 364.159C26.8689 364.184 26.5316 364.15 26.1833 364.115C26.0243 364.099 25.863 364.083 25.6992 364.072ZM31.555 372.306C32.2521 370.813 32.0342 369.742 30.8578 368.812C29.6379 369.742 28.2262 370.085 26.71 370.137C26.6055 370.137 26.4312 370.287 26.405 370.401C26.1698 371.516 26.5009 372.508 27.1196 373.421C27.1691 373.493 27.2638 373.53 27.3708 373.572C27.4332 373.597 27.4998 373.623 27.564 373.658C27.5338 373.678 27.5044 373.699 27.4752 373.719L27.4752 373.719C27.4033 373.768 27.3334 373.816 27.259 373.86C25.6731 374.817 24.3921 376.073 23.634 377.785C22.6406 380.041 22.2834 382.368 23.1809 384.765C23.3424 385.196 23.491 385.635 23.6394 386.073L23.6394 386.073L23.6395 386.073L23.6395 386.073L23.6396 386.073L23.6396 386.073L23.6396 386.074L23.6397 386.074L23.6397 386.074L23.6398 386.074L23.6398 386.074L23.6399 386.074L23.6399 386.074L23.64 386.075L23.64 386.075L23.6401 386.075L23.6401 386.075L23.6402 386.075C23.7636 386.44 23.8869 386.804 24.0174 387.162C24.4531 388.374 24.488 389.621 24.1394 390.832C23.1112 394.371 24.0784 397.619 25.4465 400.824C25.5666 401.092 25.7626 401.334 25.9515 401.568L25.9606 401.579C26.222 401.904 26.5619 402.01 26.9714 401.869C27.381 401.72 27.6773 401.448 27.6598 401.017C27.6424 400.464 27.5727 399.911 27.442 399.375C27.3418 398.95 27.2198 398.528 27.0978 398.107C26.9758 397.685 26.8538 397.264 26.7536 396.838C26.4748 395.635 26.832 394.643 27.808 393.897C27.8496 393.866 27.8903 393.834 27.9308 393.803L27.9309 393.803L27.931 393.803L27.9311 393.803L27.9312 393.802L27.9312 393.802L27.9313 393.802L27.9313 393.802L27.9314 393.802L27.9316 393.802C28.0178 393.735 28.1026 393.669 28.1914 393.616C29.664 392.764 30.5703 391.429 31.3197 389.946C31.5289 389.524 31.7998 389.131 32.0702 388.739L32.0702 388.739C32.1939 388.559 32.3175 388.38 32.4351 388.198L32.5396 388.251C32.5919 388.497 32.6453 388.743 32.6986 388.988L32.6987 388.989C32.8588 389.726 33.0189 390.464 33.1496 391.201C33.7334 394.406 35.6156 396.82 37.7941 399.068C38.009 399.293 38.2917 399.459 38.5586 399.615L38.5697 399.621C38.9356 399.841 39.3103 399.841 39.6589 399.551C40.0162 399.253 40.1469 398.875 39.99 398.454C39.8332 398.05 39.6328 397.655 39.3888 397.295C39.1357 396.926 38.8625 396.573 38.5895 396.22C38.3548 395.917 38.1202 395.614 37.8987 395.301C36.8617 393.844 36.8182 392.817 37.8377 391.359C38.6481 390.191 39.2058 388.918 39.7025 387.54C39.8411 387.605 39.9774 387.665 40.1108 387.724L40.111 387.724L40.1111 387.724L40.1112 387.724L40.1113 387.724L40.1115 387.724C40.3384 387.824 40.5572 387.921 40.7656 388.031C42.9092 389.208 44.225 391.061 45.0092 393.335C45.3278 394.242 45.6022 395.165 45.8764 396.088L45.8765 396.088L45.8767 396.089C45.9475 396.327 46.0183 396.565 46.0898 396.803C46.3425 397.646 46.752 398.392 47.3097 399.059C47.5225 399.312 47.735 399.565 47.9474 399.818L47.9474 399.818L47.9475 399.818L47.9475 399.818C48.9443 401.005 49.9393 402.189 50.9521 403.362C51.2397 403.695 51.5882 404.011 51.9629 404.248C52.6426 404.679 53.3049 404.547 53.9323 403.941C54.3854 403.502 54.4638 402.958 54.0543 402.264C53.8193 401.865 53.5163 401.503 53.2183 401.146L53.2182 401.146L53.2182 401.146L53.2181 401.146L53.2177 401.146C53.1622 401.079 53.1069 401.013 53.0522 400.947C52.8779 400.736 52.6775 400.534 52.4683 400.359C50.6994 398.84 50.2637 396.829 50.3422 394.625C50.3548 394.255 50.3997 393.885 50.4433 393.525L50.4433 393.525C50.4598 393.39 50.476 393.256 50.4903 393.124C50.7629 393.071 51.0323 393.019 51.2958 392.968L51.2974 392.967C51.7829 392.873 52.2485 392.782 52.6775 392.703C52.84 393.063 52.992 393.432 53.1443 393.801C53.474 394.6 53.8049 395.403 54.246 396.136C54.8947 397.216 55.6633 398.221 56.4317 399.226L56.4321 399.226L56.4322 399.226L56.4322 399.227C56.6132 399.463 56.7941 399.7 56.9734 399.937C57.2784 400.341 57.688 400.666 58.2457 400.534C58.5419 400.464 58.7685 399.656 58.6204 399.086C58.4809 398.55 58.3154 398.006 58.0453 397.532C56.8427 395.398 56.3809 393.054 56.0585 390.674C55.8929 389.463 55.1784 388.918 53.9759 389.155C51.7277 389.603 49.4708 389.823 47.179 389.621C47.0222 389.603 46.8654 389.568 46.7086 389.533L46.7085 389.533C45.0877 389.147 44.4428 387.636 45.2794 386.17C45.3055 386.117 45.3317 386.065 45.3752 386.021C46.1543 385.229 46.5765 384.246 47.0005 383.259C47.1504 382.91 47.3004 382.561 47.4666 382.219C47.7977 381.552 48.4251 380.99 49.0264 380.498C49.767 379.901 50.6733 379.602 51.6057 379.4C51.7364 379.374 51.9281 379.251 51.9542 379.146C51.9804 379.023 51.8758 378.795 51.7712 378.742C51.7047 378.71 51.6378 378.678 51.5705 378.645C51.1709 378.451 50.7586 378.25 50.3334 378.198C49.6363 378.11 48.9131 378.127 48.2072 378.198C47.423 378.277 46.7259 378.031 46.0723 377.715C45.3752 377.381 44.713 376.924 44.0856 376.468C42.3689 375.212 40.6349 373.992 38.6655 373.158C36.5567 372.253 34.3696 371.955 32.1039 372.288C31.9384 372.271 31.7554 372.28 31.555 372.306ZM41.1134 370.616C40.4162 371.055 39.6581 371.248 38.839 371.248C38.0548 371.222 37.3054 371.064 36.6693 370.572C35.9634 370.037 35.6933 369.246 36.1029 368.482C36.3643 368.002 36.7286 367.58 37.093 367.159L37.0931 367.159L37.0932 367.159L37.0933 367.158L37.0934 367.158L37.0936 367.158L37.0937 367.158L37.0938 367.158L37.0939 367.158L37.094 367.158L37.0942 367.157L37.0943 367.157L37.0944 367.157L37.0944 367.157L37.0944 367.157L37.0945 367.157L37.0945 367.157C37.2154 367.017 37.3364 366.877 37.4535 366.735C37.5145 366.665 37.6626 366.639 37.7672 366.647C39.6581 366.832 41.1221 368.14 41.4619 369.791C41.549 370.195 41.4358 370.414 41.1134 370.616ZM31.6504 348.032C32.6437 348.787 34.038 350.508 34.9878 352.132L34.8898 352.257L34.8898 352.257L34.8898 352.257L34.8896 352.258L34.8895 352.258L34.8894 352.258C34.6648 352.544 34.4526 352.814 34.2471 353.098C34.0641 353.353 33.8463 353.414 33.5326 353.318C31.9205 352.8 30.8138 351.641 29.6462 350.394C30.3252 349.596 30.9869 348.815 31.6485 348.034L31.6489 348.034L31.6504 348.032ZM45.2442 353.424C45.9622 352.801 46.8369 352.692 47.7167 352.582L47.7167 352.582L47.7168 352.582L47.7168 352.582L47.7168 352.582L47.7169 352.582L47.7169 352.582L47.717 352.582L47.717 352.582L47.7171 352.582L47.7171 352.582L47.7172 352.582C47.9156 352.557 48.1143 352.533 48.3115 352.502C48.7646 352.432 49.2178 352.3 49.6535 352.159C49.7493 352.124 49.8887 351.949 49.8713 351.861C49.7406 350.992 49.4705 350.175 48.7472 349.613C48.6252 349.517 48.4248 349.455 48.2854 349.473C47.2223 349.64 46.2376 350.008 45.3575 350.632C45.2529 350.711 45.1484 350.79 45.0525 350.878C44.1463 351.72 44.2073 352.677 45.2442 353.424ZM45.5845 367.83C44.7044 366.249 40.8702 364.739 39.8769 365.591C39.8769 365.617 39.8769 365.661 39.8943 365.67C41.0794 366.706 41.9333 368.014 42.7612 369.34C42.9616 369.665 43.162 369.682 43.4757 369.577C44.2077 369.331 45.0442 368.646 45.5845 367.83ZM51.4393 384.871C51.3086 385.547 51.0385 385.749 50.3414 385.766C50.2189 385.744 50.0964 385.725 49.9745 385.707C49.7235 385.67 49.4752 385.633 49.2347 385.556C48.4504 385.319 48.1106 384.766 48.2587 383.949C48.311 383.65 48.4243 383.361 48.555 383.089C49.0256 382.131 49.8011 381.455 50.6899 380.911C50.9949 380.727 51.3609 380.612 51.7094 380.551C51.8705 380.52 52.0493 380.564 52.2268 380.608C52.299 380.626 52.3709 380.644 52.4414 380.656C52.4266 380.721 52.4154 380.789 52.404 380.857C52.3752 381.031 52.346 381.206 52.2584 381.332C51.753 382.061 51.6049 382.878 51.5613 383.738C51.5439 384.116 51.509 384.502 51.4393 384.871ZM49.8272 383.589C49.4438 383.589 49.104 383.931 49.1127 384.318C49.1149 384.417 49.1376 384.512 49.1765 384.597C49.1381 384.512 49.1158 384.419 49.1136 384.32C49.1136 383.933 49.4448 383.591 49.8282 383.591C50.1113 383.591 50.3581 383.76 50.4701 384.007C50.3586 383.759 50.1112 383.589 49.8272 383.589ZM45.5058 355.861C45.8453 355.889 46.1826 355.917 46.5183 355.945L46.5184 355.945L46.5186 355.945L46.5186 355.945L46.5187 355.945L46.5188 355.945C47.8458 356.055 49.1462 356.163 50.4466 356.282C50.83 356.318 50.952 356.168 50.9869 355.808C51.0566 355.036 50.7951 354.43 50.1503 354.008C49.0611 353.306 47.1179 353.429 46.1245 354.272C45.6191 354.693 45.4012 355.229 45.5058 355.861ZM44.7218 345.755C45.7675 346.326 46.7609 346.905 47.458 347.897C45.8546 348.846 44.3036 349.767 42.7525 350.698C42.4649 350.242 42.4301 349.934 42.6392 349.293C43.0368 348.059 43.7895 347.03 44.5525 345.987L44.5529 345.986L44.5535 345.985C44.6096 345.909 44.6658 345.832 44.7218 345.755ZM42.3517 363.994C43.4386 364.367 44.312 365.04 45.2022 365.726L45.2023 365.726C45.7395 366.139 46.2828 366.558 46.883 366.918C46.9646 366.789 47.0458 366.66 47.1266 366.533L47.1276 366.531L47.1283 366.53L47.1284 366.53C47.4524 366.018 47.7686 365.518 48.0681 365.013C48.1116 364.943 48.0855 364.741 48.0158 364.688C46.883 363.793 45.663 363.073 44.1729 363.002C43.4323 362.985 42.77 363.178 42.3517 363.994ZM50.6389 358.165C50.6215 358.884 50.6036 359.621 50.1422 360.226C49.9611 360.166 49.782 360.105 49.604 360.045C49.1314 359.885 48.6675 359.728 48.199 359.594C47.3712 359.374 46.5434 359.172 45.7068 358.988C45.3931 358.918 45.3234 358.76 45.367 358.461C45.4803 357.636 46.0467 357.127 47.0052 357.091C48.2339 357.039 49.3667 357.451 50.4734 357.943C50.5518 357.978 50.6389 358.092 50.6389 358.163L50.6389 358.165ZM47.5611 384.888C47.375 385.117 47.2086 385.319 47.0534 385.507L47.0529 385.507C46.8812 385.715 46.7232 385.906 46.5677 386.1C46.5143 386.167 46.4586 386.232 46.4031 386.297L46.403 386.297C46.2685 386.454 46.1348 386.611 46.0361 386.785C45.7137 387.347 45.8706 387.961 46.4631 388.216C46.9337 388.418 47.4565 388.55 47.9619 388.602C49.3126 388.751 50.6458 388.62 51.9529 388.225C51.8657 387.61 51.5869 387.329 50.9769 387.268C50.6724 387.24 50.3646 387.23 50.0575 387.22L50.0574 387.22L50.0572 387.22L50.057 387.22C49.8722 387.213 49.6876 387.207 49.5043 387.197C48.3192 387.127 48.1275 386.943 47.8922 385.784C47.8513 385.589 47.7712 385.399 47.6861 385.197C47.6443 385.097 47.6013 384.995 47.5611 384.888ZM48.6601 363.422C47.2659 362.693 45.8455 362.061 44.2683 361.744C44.4948 360.621 45.2355 360.12 46.4032 360.269C47.5796 360.41 48.6252 360.902 49.5838 361.578C49.6796 361.648 49.8016 361.806 49.7755 361.876C49.5838 362.368 49.3833 362.868 49.1306 363.334C49.0784 363.422 48.7734 363.483 48.6601 363.422ZM52.486 383.028C52.486 383.941 52.6341 384.09 53.3313 383.959C53.6188 383.906 53.9238 383.783 54.1591 383.608C55.0653 382.932 55.318 381.298 54.6906 380.394C54.5425 380.183 54.4118 380.095 54.1678 380.271C53.157 381.017 52.5296 381.957 52.486 383.028Z" fill="#20113D"/>
<path fill-rule="evenodd" clip-rule="evenodd" d="M29.3149 553.753C26.0307 554.747 22.7211 554.594 19.386 552.378C19.1298 552.7 18.8674 553.024 18.6022 553.352C17.945 554.164 17.2714 554.996 16.6365 555.868C16.1655 556.543 15.7263 557.243 15.2872 557.944L15.2871 557.944C14.848 558.645 14.4088 559.345 13.9378 560.02C12.894 561.523 12.5122 563.154 12.614 564.963C12.7413 567.281 11.8248 568.453 9.55896 568.86C4.90002 569.701 0.724802 566.236 0.699343 561.523C0.699343 561.063 0.691136 560.603 0.682958 560.144C0.670765 559.461 0.658637 558.781 0.673876 558.11C0.716682 556.311 1.49723 554.746 2.27428 553.188C2.42152 552.892 2.56863 552.597 2.71057 552.301C3.07788 551.539 3.44863 550.778 3.81941 550.017C5.19618 547.191 6.57343 544.364 7.77685 541.474C9.54581 537.238 12.2032 533.595 14.87 529.939C15.4271 529.176 15.9847 528.411 16.5346 527.641C16.561 527.608 16.5891 527.575 16.6175 527.541L16.6177 527.541L16.6177 527.541L16.6178 527.541L16.6178 527.541L16.6178 527.541C16.6991 527.446 16.7836 527.346 16.8401 527.233C19.8188 521.807 25.1142 520.533 30.5624 519.463C31.9059 519.204 33.2386 518.879 34.5704 518.554C36.1155 518.177 37.6596 517.801 39.2183 517.527C42.0697 517.018 44.9974 516.61 47.8997 516.508C51.3366 516.381 54.2389 517.986 56.8102 520.202C52.9151 518.215 48.7399 517.527 44.4119 517.629C43.3172 517.654 42.2224 517.756 41.1277 517.884C39.5493 518.062 38.8873 519.234 38.4545 520.584C37.3344 524.023 37.5635 527.412 38.7601 530.825C39.0484 531.645 39.2282 532.511 39.4073 533.373L39.4073 533.373L39.4074 533.373L39.4074 533.373L39.4074 533.373C39.5287 533.957 39.6497 534.539 39.8039 535.105C40.0005 535.81 40.1924 536.517 40.3844 537.225L40.3846 537.226C41.0876 539.817 41.7918 542.412 42.7316 544.913C43.1135 545.958 44.3864 546.977 45.4811 547.384C49.7836 548.938 54.188 549.779 58.7451 548.225C64.4733 546.263 67.4265 540.149 65.2625 534.468C64.5691 532.669 63.7466 530.924 62.9206 529.173L62.9206 529.172L62.9205 529.172C62.7761 528.866 62.6315 528.559 62.4875 528.252C62.3557 527.97 62.0844 527.743 61.8182 527.52L61.8181 527.52C61.7246 527.441 61.6316 527.364 61.5456 527.284C61.2163 526.972 60.873 526.667 60.5288 526.362C59.8349 525.748 59.137 525.129 58.5414 524.431C57.7013 523.437 57.7267 522.189 58.465 521.119C59.1779 520.075 60.3235 519.82 61.5201 520.024C63.3786 520.329 64.5751 521.476 65.1861 523.183C65.7717 524.839 65.2116 526.265 63.7605 527.513C65.6699 529.093 66.3063 531.36 66.8664 533.602C67.0785 534.451 67.1924 535.327 67.3066 536.205V536.205C67.4392 537.225 67.5721 538.247 67.8593 539.232C68.3389 540.864 68.9144 542.474 69.4905 544.085C69.9847 545.467 70.4794 546.851 70.9143 548.251C71.4792 550.043 71.9993 551.85 72.5191 553.656L72.5193 553.656C72.9599 555.187 73.4003 556.718 73.8675 558.237C74.1279 559.084 74.4611 559.91 74.794 560.735L74.7941 560.735L74.7941 560.735L74.7942 560.735L74.7944 560.736C74.9821 561.201 75.1697 561.666 75.3442 562.135C75.9021 563.616 77.1655 564.284 78.4177 564.945C78.6511 565.068 78.8841 565.191 79.112 565.319C80.2831 565.982 80.8941 566.848 80.5886 568.223C80.3086 569.523 79.4685 570.338 77.9155 570.287C74.7331 570.16 71.5763 569.854 68.4194 569.523C67.8848 569.472 67.3247 568.911 66.9428 568.453C64.8043 565.88 62.6912 563.281 60.6036 560.683C59.1524 558.874 58.0832 556.887 57.5231 554.619C57.285 553.687 56.7997 552.8 56.3199 551.924C56.184 551.675 56.0485 551.428 55.9192 551.18C55.7919 550.926 55.4355 550.696 55.1554 550.645L54.9544 550.605C53.3415 550.285 51.737 549.965 50.3437 551.384C49.9891 551.764 49.4075 551.968 48.9001 552.146L48.8926 552.148C48.0015 552.454 47.5942 553.014 47.9252 553.881C49.0996 557.032 49.0109 560.251 48.922 563.478V563.478C48.8779 565.077 48.8338 566.679 48.9435 568.274C48.9888 568.886 49.0743 569.497 49.1598 570.109C49.2666 570.873 49.3735 571.637 49.4018 572.401C49.4272 572.987 49.1726 573.828 48.7653 574.134C45.3793 576.681 41.586 577.114 37.6908 575.713C35.7559 575 34.4575 573.599 34.152 571.204C33.5665 566.236 32.7773 561.294 31.7589 556.403C31.3922 554.568 30.5096 552.816 29.6499 551.109L29.6498 551.109L29.6498 551.109L29.6497 551.109C29.5545 550.92 29.4597 550.731 29.3658 550.543C26.9218 545.678 26.2344 540.633 27.1 535.233C27.8128 530.749 28.7803 526.469 31.7589 522.928C32.3733 522.205 33.1031 521.584 33.8299 520.966L33.8301 520.966L33.8301 520.966L33.8302 520.966C34.1273 520.713 34.424 520.461 34.7121 520.202C34.7557 520.165 34.8023 520.129 34.8493 520.093C34.9947 519.981 35.1443 519.866 35.2213 519.692C31.3007 519.743 27.7619 520.839 24.2741 522.469C21.0067 523.969 19.1343 526.643 17.2385 529.35L17.2385 529.35C16.8151 529.955 16.3906 530.561 15.9491 531.156C15.7709 531.411 15.7709 531.844 15.7963 532.201C16.1702 535.767 17.5443 539.016 18.9157 542.258L19.0041 542.468C19.2769 543.086 19.4198 543.77 19.5627 544.454C19.6198 544.727 19.677 545.001 19.7424 545.27C19.8952 545.958 20.0479 546.671 20.0989 547.384C20.1092 547.529 20.1205 547.675 20.1318 547.822C20.2041 548.757 20.2784 549.717 20.1243 550.62C19.8188 552.225 19.9461 552.709 21.6009 552.964C22.126 553.016 22.6555 553.069 23.1873 553.121L23.2001 553.123L23.208 553.123L23.2139 553.124C25.2517 553.326 27.323 553.532 29.3149 553.753ZM41.5864 529.835C40.1098 529.223 39.4988 527.771 39.2952 526.064C39.066 524.205 40.7463 521.886 42.7066 521.199C44.2596 520.664 46.449 521.53 47.3146 523.058C47.8238 523.975 48.0275 524.714 46.9073 525.504C45.6399 526.392 44.4626 527.396 43.1922 528.479C42.6764 528.918 42.1452 529.371 41.5864 529.835ZM46.4228 537.653C45.9646 539.666 47.263 541.27 48.8414 541.143C48.9843 540.687 49.121 540.241 49.2557 539.801C49.5051 538.986 49.7481 538.192 50.0125 537.398C50.0825 537.2 50.1793 537.007 50.2758 536.814L50.2758 536.814L50.2758 536.814C50.3899 536.586 50.5036 536.359 50.5726 536.124C50.7763 535.386 51.0054 534.418 50.0634 534.188C49.376 534.035 48.2813 534.265 47.8485 534.749C47.1611 535.513 46.652 536.608 46.4228 537.653ZM55.5105 534.8C55.6242 534.649 55.7288 534.483 55.8319 534.321C56.0749 533.937 56.3088 533.568 56.6307 533.425C56.9616 533.272 57.6745 533.578 58.0309 533.883C58.1094 533.951 58.1884 534.019 58.2674 534.086L58.2674 534.086C59.111 534.81 59.9716 535.548 60.5768 536.456C60.9077 536.991 60.7804 537.985 60.5513 538.647C60.3731 539.131 59.7112 539.641 59.202 539.743C58.871 539.794 58.3364 539.182 58.0054 538.775C57.4454 538.087 56.9616 537.373 56.4779 536.609C56.2315 536.274 56.0459 535.891 55.8285 535.442L55.8285 535.442C55.7315 535.242 55.6283 535.028 55.5105 534.8ZM56.8457 543.954L56.8604 543.945C56.8531 543.901 56.8438 543.856 56.8342 543.809C56.8101 543.691 56.784 543.563 56.784 543.435C56.6482 543.401 56.5124 543.356 56.3767 543.311C56.1051 543.22 55.8336 543.13 55.562 543.13C54.5182 543.13 53.4744 543.155 52.456 543.283C52.0487 543.333 51.565 543.614 51.3868 543.919C51.2849 544.098 51.6159 544.658 51.8959 544.913C52.0447 545.062 52.2629 545.115 52.4846 545.169C52.6425 545.207 52.8021 545.246 52.9398 545.321C53.2198 545.473 53.729 545.779 53.7035 545.906C53.6017 546.263 53.3471 546.62 53.0416 546.875C52.8937 547.006 52.6821 547.053 52.4206 547.11C52.277 547.142 52.1183 547.177 51.9469 547.231C52.935 547.166 53.8511 547.102 54.7671 547.037C55.2906 547 55.8142 546.963 56.3512 546.925C56.0506 546.792 55.7062 546.751 55.3746 546.712C54.6951 546.632 54.0691 546.559 53.9836 545.703C55.0218 545.069 55.9341 544.511 56.8457 543.954Z" fill="#20113D"/>
</svg>
