<svg width="81" height="577" viewBox="0 0 81 577" fill="none" xmlns="http://www.w3.org/2000/svg">
<path fill-rule="evenodd" clip-rule="evenodd" d="M29.3146 37.7533C26.0305 38.7468 22.7208 38.594 19.3858 36.3776C19.1296 36.6998 18.8671 37.0242 18.602 37.3518C17.9448 38.164 17.2711 38.9965 16.6362 39.8678C16.1652 40.5429 15.7261 41.2434 15.2869 41.944L15.2869 41.944C14.8477 42.6446 14.4086 43.3452 13.9376 44.0203C12.8938 45.5233 12.5119 47.1538 12.6138 48.9625C12.741 51.2808 11.8245 52.4527 9.55871 52.8603C4.89978 53.701 0.724558 50.2363 0.699099 45.5233C0.699099 45.0631 0.690892 44.6029 0.682714 44.1443C0.670521 43.4606 0.658393 42.7805 0.673631 42.1096C0.716438 40.3106 1.49699 38.7456 2.27404 37.1876C2.42127 36.8924 2.56838 36.5974 2.71032 36.3012C3.07764 35.539 3.44838 34.7781 3.81917 34.017C5.19594 31.1911 6.57318 28.3642 7.77661 25.4741C9.54557 21.2384 12.2029 17.5954 14.8697 13.9395C15.4269 13.1757 15.9844 12.4113 16.5344 11.6409C16.5608 11.6079 16.5888 11.5749 16.6173 11.5415L16.6175 11.5413L16.6175 11.5413L16.6175 11.5412L16.6175 11.5412L16.6175 11.5412C16.6989 11.4456 16.7833 11.3464 16.8399 11.2333C19.8185 5.80698 25.114 4.5332 30.5621 3.46323C31.9057 3.20377 33.2383 2.8788 34.5701 2.55403C36.1153 2.17724 37.6593 1.80072 39.2181 1.52708C42.0694 1.01757 44.9972 0.60996 47.8995 0.508058C51.3364 0.38068 54.2387 1.98564 56.81 4.20201C52.9148 2.21492 48.7396 1.52709 44.4116 1.62899C43.3169 1.65446 42.2222 1.75637 41.1275 1.88374C39.549 2.06207 38.8871 3.23394 38.4543 4.58414C37.3341 8.02334 37.5633 11.4116 38.7598 14.8253C39.0482 15.6455 39.228 16.5109 39.4071 17.373L39.4071 17.3731L39.4071 17.3731L39.4071 17.3731L39.4071 17.3732C39.5284 17.9571 39.6494 18.5394 39.8036 19.1052C40.0002 19.8102 40.1921 20.5175 40.3842 21.2252L40.3843 21.2258C41.0873 23.8167 41.7915 26.4121 42.7314 28.9133C43.1132 29.9578 44.3862 30.9768 45.4809 31.3844C49.7834 32.9384 54.1878 33.7791 58.7449 32.2251C64.4731 30.2635 67.4263 24.1494 65.2623 18.4683C64.5689 16.6686 63.7464 14.9243 62.9204 13.1725L62.9203 13.1724L62.9203 13.1724C62.7758 12.866 62.6313 12.5594 62.4873 12.2523C62.3554 11.9695 62.0842 11.7426 61.8179 11.5198L61.8179 11.5198C61.7243 11.4415 61.6314 11.3637 61.5453 11.2842C61.216 10.9716 60.8728 10.6675 60.5285 10.3624C59.8347 9.74753 59.1368 9.12907 58.5412 8.43096C57.7011 7.43741 57.7265 6.18911 58.4648 5.11914C59.1776 4.07464 60.3233 3.81989 61.5198 4.02369C63.3783 4.3294 64.5749 5.47579 65.1859 7.18265C65.7714 8.83856 65.2114 10.2652 63.7602 11.5135C65.6696 13.093 66.3061 15.3603 66.8662 17.6021C67.0782 18.451 67.1922 19.3271 67.3064 20.2052V20.2053C67.4389 21.2247 67.5718 22.2468 67.8591 23.2322C68.3387 24.864 68.9141 26.4736 69.4902 28.0849C69.9845 29.4672 70.4791 30.8507 70.9141 32.2506C71.4789 34.0427 71.9991 35.8498 72.5188 37.6557L72.519 37.6564C72.9597 39.1874 73.4001 40.7176 73.8673 42.237C74.1277 43.0838 74.4609 43.9097 74.7937 44.7348L74.7938 44.735L74.7939 44.7352L74.794 44.7354L74.7941 44.7357C74.9819 45.2012 75.1695 45.6663 75.3439 46.1347C75.9019 47.6164 77.1653 48.2836 78.4175 48.9449C78.6509 49.0681 78.8838 49.1911 79.1118 49.3192C80.2829 49.9816 80.8939 50.8477 80.5884 52.2234C80.3083 53.5226 79.4682 54.3379 77.9152 54.2869C74.7329 54.1595 71.576 53.8538 68.4192 53.5227C67.8845 53.4717 67.3244 52.9112 66.9426 52.4527C64.804 49.8796 62.691 47.2811 60.6033 44.6826C59.1522 42.8739 58.0829 40.8868 57.5228 38.6195C57.2848 37.6865 56.7994 36.8 56.3197 35.9236C56.1837 35.6753 56.0482 35.4278 55.9189 35.1803C55.7916 34.9255 55.4352 34.6962 55.1552 34.6453L54.9541 34.6054C53.3412 34.2846 51.7368 33.9654 50.3435 35.3841C49.9888 35.7643 49.4073 35.968 48.8999 36.1457L48.8924 36.1483C48.0013 36.454 47.594 37.0145 47.9249 37.8807C49.0994 41.0316 49.0107 44.2509 48.9218 47.4775V47.4776C48.8777 49.0772 48.8336 50.6786 48.9433 52.2743C48.9885 52.8858 49.074 53.4972 49.1595 54.1086C49.2664 54.8729 49.3732 55.6371 49.4015 56.4014C49.427 56.9873 49.1724 57.828 48.7651 58.1337C45.3791 60.6813 41.5857 61.1144 37.6905 59.7132C35.7557 58.9999 34.4573 57.5987 34.1518 55.204C33.5662 50.2363 32.777 45.2941 31.7587 40.4028C31.392 38.5679 30.5094 36.8157 29.6496 35.1089L29.6496 35.1088L29.6495 35.1086L29.6495 35.1085C29.5543 34.9196 29.4594 34.7312 29.3656 34.5434C26.9215 29.6776 26.2341 24.6334 27.0997 19.2326C27.8126 14.7489 28.78 10.469 31.7587 6.92789C32.373 6.20464 33.1028 5.58405 33.8297 4.96593L33.8298 4.96583L33.8299 4.96576L33.8299 4.96573C34.1271 4.71303 34.4238 4.46074 34.7119 4.20201C34.7554 4.16465 34.802 4.12881 34.8491 4.09263C34.9945 3.9808 35.1441 3.86574 35.221 3.6925C31.3004 3.74345 27.7617 4.8389 24.2738 6.46934C21.0065 7.96874 19.1341 10.6427 17.2383 13.3503L17.2382 13.3503C16.8149 13.9549 16.3903 14.5612 15.9488 15.1565C15.7706 15.4112 15.7706 15.8443 15.7961 16.201C16.1699 19.7673 17.5441 23.0162 18.9154 26.2585L19.0039 26.4676C19.2766 27.0863 19.4195 27.77 19.5624 28.4537C19.6196 28.7272 19.6767 29.0006 19.7422 29.2699C19.8949 29.9578 20.0477 30.6711 20.0986 31.3844C20.109 31.5294 20.1202 31.6754 20.1316 31.8219C20.2039 32.7568 20.2781 33.7169 20.1241 34.6198C19.8186 36.2248 19.9458 36.7088 21.6007 36.9636C22.1258 37.0161 22.6553 37.0686 23.1871 37.1214L23.1998 37.1227L23.2078 37.1235L23.2137 37.1241C25.2514 37.3263 27.3228 37.5318 29.3146 37.7533ZM41.5862 13.8348C40.1096 13.2234 39.4986 11.7712 39.2949 10.0644C39.0658 8.20468 40.7461 5.88641 42.7064 5.19857C44.2594 4.66358 46.4488 5.52975 47.3144 7.05828C47.8236 7.9754 48.0272 8.7142 46.9071 9.50394C45.6396 10.3917 44.4623 11.3955 43.192 12.4786C42.6761 12.9184 42.145 13.3713 41.5862 13.8348ZM46.4226 21.653C45.9643 23.6655 47.2627 25.2705 48.8412 25.1431C48.9841 24.6873 49.1207 24.2409 49.2555 23.8006C49.5049 22.9858 49.7478 22.192 50.0123 21.3982C50.0823 21.1997 50.179 21.0066 50.2755 20.8139L50.2755 20.8139L50.2756 20.8138C50.3896 20.5861 50.5034 20.359 50.5723 20.1244C50.776 19.3856 51.0051 18.4176 50.0632 18.1883C49.3758 18.0354 48.2811 18.2647 47.8483 18.7488C47.1609 19.513 46.6517 20.6085 46.4226 21.653ZM55.5103 18.8004C55.6239 18.6487 55.7286 18.4835 55.8316 18.3208C56.0747 17.9371 56.3086 17.5678 56.6304 17.4247C56.9614 17.2718 57.6742 17.5775 58.0307 17.8832C58.1092 17.9509 58.1881 18.0186 58.2672 18.0864L58.2672 18.0864C59.1107 18.8098 59.9713 19.5479 60.5765 20.4563C60.9075 20.9913 60.7802 21.9848 60.5511 22.6472C60.3729 23.1312 59.7109 23.6407 59.2018 23.7426C58.8708 23.7936 58.3362 23.1822 58.0052 22.7746C57.4451 22.0867 56.9614 21.3734 56.4777 20.6091C56.2312 20.2744 56.0456 19.891 55.8283 19.4419L55.8282 19.4419C55.7313 19.2416 55.628 19.0282 55.5103 18.8004ZM56.8455 27.9538L56.8601 27.9449C56.8529 27.9014 56.8436 27.8558 56.834 27.8088C56.8098 27.6905 56.7838 27.5629 56.7838 27.4353C56.648 27.4014 56.5122 27.3561 56.3764 27.3108C56.1049 27.2202 55.8333 27.1296 55.5618 27.1296C54.5179 27.1296 53.4741 27.1551 52.4558 27.2825C52.0485 27.3335 51.5647 27.6137 51.3865 27.9194C51.2847 28.0977 51.6157 28.6582 51.8957 28.9129C52.0444 29.0617 52.2626 29.1149 52.4844 29.169C52.6422 29.2075 52.8019 29.2464 52.9395 29.3205C53.2196 29.4734 53.7287 29.7791 53.7033 29.9065C53.6014 30.2631 53.3468 30.6198 53.0413 30.8745C52.8934 31.0061 52.6819 31.0527 52.4203 31.1104C52.2767 31.142 52.1181 31.177 51.9466 31.2312C52.9348 31.1664 53.8508 31.1015 54.7668 31.0367C55.2904 30.9996 55.8139 30.9626 56.351 30.9255C56.0504 30.7918 55.706 30.7513 55.3744 30.7123C54.6948 30.6323 54.0689 30.5587 53.9833 29.7027C55.0215 29.0692 55.9338 28.5113 56.8455 27.9538Z" fill="#20113D"/>
<path d="M27.8579 226.572C32.1924 225.581 34.9328 222.799 37.709 219.844C37.3328 219.739 37.0463 219.653 36.7597 219.583C32.9446 218.644 29.4341 217.045 26.2101 214.871C24.222 213.533 22.5921 211.846 21.3562 209.795C21.195 209.534 21.0697 209.256 20.9443 208.977C20.9085 208.908 20.9085 208.821 20.8726 208.577C22.0906 208.943 23.2369 209.29 24.3653 209.638C24.4011 209.603 24.419 209.586 24.4548 209.551C24.3295 209.447 24.222 209.342 24.0966 209.256C22.6279 208.334 21.195 207.378 19.7084 206.509C18.0069 205.5 16.2158 204.631 14.568 203.588C12.3649 202.179 10.8067 200.197 9.67828 197.902C9.62455 197.798 9.60664 197.694 9.58873 197.589C9.57081 197.537 9.58873 197.468 9.58873 197.311C11.4156 198.076 13.1172 199.154 15.2307 198.963C11.0753 196.65 8.49616 193.417 8.67527 188.548C10.4485 190.444 12.1858 192.321 13.9232 194.199C13.959 194.164 14.0127 194.112 14.0486 194.077C13.3321 192.721 12.4903 191.4 11.953 189.974C11.4156 188.549 11.0574 187.001 10.8783 185.489C10.6992 183.976 10.8425 182.429 10.8425 180.899C10.932 180.881 11.0216 180.881 11.0932 180.864C11.9351 182.707 12.7769 184.55 13.6187 186.41C13.7082 186.41 13.7978 186.393 13.8874 186.393C13.8515 183.037 14.2277 179.751 15.8217 176.743C15.8934 176.743 15.965 176.743 16.0367 176.761C16.0367 177.508 16.0725 178.238 16.0367 178.986C15.8397 182.655 17.2904 185.784 19.4577 188.635C20.9085 190.531 22.6996 192.113 24.6339 193.538C27.1773 195.416 30.0251 196.79 32.873 198.146C35.5238 199.398 37.8522 201.101 40.0374 203.014C41.3628 204.179 42.7419 205.274 44.1032 206.404C44.4793 206.717 44.8554 207.065 45.2853 207.447C45.9838 205.883 46.6286 204.422 47.2734 202.944C48.8317 199.432 51.178 196.477 54.0796 193.921C56.3901 191.887 58.7364 189.922 61.047 187.905C64.1814 185.158 66.1337 181.75 66.7606 177.682C66.9934 176.239 66.8859 174.726 66.9397 173.266C66.9397 173.023 66.9397 172.762 67.0292 172.501C68.1576 175.005 68.48 177.647 68.7487 180.394C69.8592 178.204 70.9517 176.013 72.0622 173.805C72.1518 173.822 72.2413 173.84 72.313 173.857C72.1876 176.1 72.1697 178.343 71.901 180.568C71.6323 182.776 71.1129 184.95 70.701 187.053C71.2562 186.219 71.901 185.262 72.6533 184.167C72.707 186.306 72.6354 188.236 71.704 190.061C70.7905 191.869 69.3218 193.225 67.7277 194.564C68.6054 194.738 69.3039 194.442 69.9845 194.112C70.6472 193.799 71.2562 193.417 72.0264 192.982C71.9547 193.312 71.9189 193.538 71.8473 193.747C70.8801 196.285 69.3756 198.476 67.1188 200.093C65.7396 201.101 64.2709 201.988 62.9097 202.996C62.05 203.64 61.441 204.04 61.4052 204.926C61.9783 204.735 62.5336 204.561 63.1963 204.353C62.0858 208.038 59.1484 210.299 56.5871 212.941C56.8379 213.046 57.0349 213.115 57.2319 213.202C58.5036 213.706 59.5783 214.471 60.3126 215.619C60.8678 216.471 60.9932 217.375 60.7604 218.366C60.6887 218.662 60.8678 219.061 61.0649 219.322C61.6738 220.226 61.7634 221.148 61.2261 222.087C60.7066 223.008 59.8469 223.46 58.7185 223.53C59.6141 221.965 59.5783 221.617 58.3603 220.783C58.2349 221.426 58.1096 222.034 57.9842 222.678C57.1782 222.034 56.4797 221.269 55.602 220.817C54.7065 220.365 53.6497 220.244 52.5751 219.948C52.6288 220.174 52.6288 220.313 52.6825 220.435C53.4706 222.365 54.205 224.329 55.1005 226.225C55.4229 226.92 56.0677 227.511 56.6588 228.033C57.214 228.52 57.6081 228.346 57.823 227.633C57.9663 227.129 58.02 226.607 58.1096 226.103C58.1991 225.651 58.4499 225.46 58.7723 225.599C58.8439 226.016 58.9335 226.346 58.9514 226.677C58.9693 227.024 58.9693 227.389 58.8976 227.72C58.826 228.015 58.629 228.293 58.4857 228.572C58.5215 228.624 58.5752 228.659 58.6111 228.711C59.0947 228.398 59.5962 228.085 60.0619 227.755C60.2947 227.581 60.4738 227.355 60.6887 227.163C61.5306 226.416 61.9425 226.468 62.5336 227.459C62.2112 227.424 61.9246 227.372 61.6201 227.337C61.5664 228.624 60.1693 228.606 59.5962 229.476C60.2768 229.441 60.8858 229.389 61.4947 229.389C62.4261 229.389 62.8022 229.806 62.6231 230.728C62.3545 230.102 61.9067 230.189 61.4768 230.362C60.5634 230.728 59.632 230.606 58.7006 230.484C57.6797 230.345 56.7662 230.484 55.8886 231.075C55.3154 231.475 54.7244 231.858 53.9005 231.684C53.7214 231.649 53.399 232.223 53.1661 232.501C52.79 232.014 52.8079 231.545 53.4348 231.162C53.8288 230.919 54.2945 230.797 54.7244 230.623C54.993 230.519 55.2796 230.432 55.5125 230.258C56.0319 229.876 56.0319 229.632 55.5304 229.25C54.2945 228.276 53.0587 227.32 51.8228 226.346C51.7153 226.259 51.59 226.19 51.4825 226.172C49.8526 226.033 48.957 224.99 48.2764 223.721C48.1331 223.443 48.0257 223.06 47.6316 223.304C47.4167 223.443 47.1839 223.86 47.2555 224.069C47.6316 225.442 48.4555 226.52 49.7272 227.216C50.2825 227.129 50.3899 225.807 51.178 226.607C51.1064 226.903 51.0526 227.076 51.0168 227.25C51.2317 227.285 51.4646 227.372 51.6795 227.355C52.0377 227.355 52.396 227.285 52.7542 227.25C52.7721 227.32 52.79 227.407 52.8079 227.476C52.5572 227.598 52.3064 227.72 51.9661 227.894C53.6855 227.981 53.6855 227.981 53.7572 228.867C53.202 228.346 52.6646 228.763 52.1273 228.832C50.9093 228.972 50.0675 229.528 49.6198 230.693C49.4765 231.058 49.0824 231.319 48.7242 231.719C48.7421 231.771 48.7958 231.945 48.8317 232.136C48.0615 231.875 47.8824 231.51 48.2585 230.849C48.5451 230.345 48.9212 229.876 49.2615 229.389C49.566 228.954 49.566 228.589 48.9929 228.346C48.0615 227.946 47.2734 227.302 46.1809 227.198C45.7689 227.163 45.4107 226.624 44.9987 226.277C44.8017 226.59 44.533 226.955 44.3181 227.372C43.6912 228.606 42.6345 229.354 41.3091 229.702C37.1358 230.815 33.1954 230.189 29.5236 227.981C28.9147 227.633 28.4669 227.094 27.8579 226.572Z" fill="#20113D"/>
<path fill-rule="evenodd" clip-rule="evenodd" d="M54.1978 370.951C54.8218 372.286 55.4457 373.62 56.0924 375.013C55.929 375.147 55.7636 375.285 55.5956 375.425L55.5948 375.426L55.5947 375.426C55.2148 375.744 54.8222 376.072 54.4133 376.383C53.959 376.726 53.5085 377.075 53.0582 377.423L53.0576 377.423L53.0575 377.423C51.945 378.284 50.8339 379.143 49.671 379.925C45.4847 382.746 40.8672 383.892 35.898 383.443C34.6841 383.337 33.4021 382.9 32.8916 382.534C33.1864 380.41 33.4698 378.345 33.7533 376.28L33.7538 376.276C33.7198 376.264 33.6829 376.256 33.646 376.247C33.6091 376.238 33.5723 376.229 33.5382 376.217C33.4278 376.451 33.3182 376.684 33.2088 376.917L33.2085 376.918C32.936 377.498 32.6643 378.077 32.381 378.649C31.6453 380.162 31.152 381.769 30.6575 383.379C30.5192 383.83 30.3807 384.281 30.2368 384.73C29.3292 387.528 27.7068 389.677 24.95 390.728C24.8138 390.787 24.7004 391.023 24.6436 391.2C24.5325 391.567 24.4337 391.939 24.335 392.31L24.3349 392.31C24.2019 392.81 24.069 393.31 23.9062 393.798C23.2822 395.687 22.1137 397.151 20.5367 398.273C19.8333 398.768 19.1299 399.276 18.4605 399.819C17.8819 400.28 17.9046 400.48 18.4719 400.941C18.5828 401.031 18.6944 401.12 18.8057 401.208L18.8058 401.208L18.8058 401.208C19.1612 401.491 19.5137 401.772 19.8333 402.086C20.3552 402.606 20.5934 403.267 20.4005 404.023C20.3552 404.2 20.0942 404.436 19.9354 404.436C16.2142 404.459 12.4816 404.459 8.76041 404.448C8.62427 404.448 8.4314 404.4 8.35198 404.306C8.23805 404.162 8.12141 404.018 8.00443 403.874L8.00422 403.873L8.00419 403.873C7.58542 403.357 7.16228 402.835 6.84308 402.263C6.63886 401.897 6.61617 401.283 6.75231 400.87C8.06835 396.702 9.75878 392.747 12.9468 389.713C13.0829 389.583 13.1623 389.299 13.1737 389.099C13.2531 386.1 13.5934 383.124 14.3309 380.232C14.9662 377.729 15.6469 375.225 16.8495 372.923C19.0618 368.72 21.9208 365.213 26.3114 363.324C30.0893 361.707 33.7765 361.954 37.3729 363.867C37.8666 364.132 38.3131 364.495 38.7481 364.849C38.9528 365.016 39.155 365.18 39.3583 365.331C38.9499 364.41 38.2351 363.655 37.4637 362.958C38.1901 362.67 38.9193 362.392 39.6472 362.114L39.6474 362.114C42.8639 360.886 46.0552 359.668 48.8769 357.704C49.0011 358.154 49.1232 358.608 49.2459 359.065L49.2459 359.065C49.4034 359.652 49.562 360.242 49.7278 360.833C49.7732 360.975 49.8639 361.104 49.9774 361.222C49.7505 359.758 49.7505 358.294 50.2837 356.948C50.7829 355.673 51.3842 354.386 52.1556 353.276C54.0503 350.584 56.3307 348.247 58.872 346.204L58.872 346.204L58.872 346.204C58.9741 346.121 59.0762 346.039 59.1896 345.956C59.3718 345.835 59.5524 345.706 59.7333 345.577C60.6114 344.95 61.4984 344.316 62.6272 344.551C64.4878 344.929 66.0421 345.944 67.1086 347.609C67.4149 348.081 67.7666 348.412 68.2544 348.589C69.5251 349.05 70.4781 349.841 71.0907 351.128C71.3128 351.598 71.6331 352.014 71.9539 352.431C72.1084 352.632 72.263 352.833 72.4068 353.04C72.7017 353.465 72.7585 353.82 72.4294 354.315C72.1572 354.729 72.021 355.284 71.9416 355.791C71.8395 356.393 72.0664 356.783 72.679 357.114C74.2787 357.964 75.209 359.865 74.3241 361.789C74.1766 362.108 74.0405 362.427 73.9157 362.757C73.3257 364.339 72.2025 364.894 70.6596 364.339C70.6341 364.331 70.6078 364.322 70.5816 364.313L70.5815 364.313C70.5028 364.286 70.4242 364.26 70.3646 364.233C70.081 364.646 69.7974 365.048 69.491 365.473C69.4475 365.418 69.4102 365.377 69.3817 365.346C69.3433 365.305 69.3209 365.281 69.3209 365.26C69.4116 364.245 68.8217 363.643 68.1637 363.029C65.0891 360.148 61.3225 360.668 58.7472 362.332C59.0367 362.271 59.3236 362.205 59.6096 362.138L59.6096 362.138C60.1529 362.012 60.6931 361.886 61.2431 361.801C64.5105 361.329 67.3468 362.852 68.8557 365.898C69.8995 368 70.6369 370.196 70.4554 372.628L70.4534 372.656V372.656C70.4199 373.133 70.3835 373.652 70.1944 374.068C69.5364 375.532 69.7406 377.008 70.1037 378.461L70.1706 378.731C70.5112 380.111 70.861 381.528 71.5105 382.746C74.0178 387.434 74.222 392.499 74.0405 397.635C73.961 399.843 73.2803 401.803 71.5332 403.232C70.5575 404.034 69.5137 404.589 68.209 404.483C67.6077 404.436 66.9951 404.424 66.3938 404.483C65.2593 404.613 64.4765 404.023 63.8071 403.196C63.081 402.311 62.752 401.283 62.9562 400.126C63.013 399.819 63.2285 399.441 63.4781 399.3C63.7916 399.126 64.0205 399.367 64.2525 399.611C64.2892 399.649 64.3259 399.688 64.363 399.725C64.7127 400.077 65.1745 400.336 65.6147 400.582L65.6147 400.582L65.6223 400.587C66.0081 400.799 66.2123 400.622 66.2577 400.174C66.3031 399.642 66.1442 399.194 65.7585 398.851C63.5916 396.927 62.2301 394.412 61.0049 391.802C60.0632 389.783 59.4619 387.67 59.2464 385.427C59.0875 383.738 59.3712 382.097 59.6775 380.456C59.825 379.712 59.9725 378.956 60.0178 378.189C60.1199 376.666 59.6094 375.379 58.3501 374.564C56.7958 373.561 55.4117 372.356 54.2999 370.845C54.3112 370.881 54.2545 370.916 54.1978 370.951ZM57.5212 376.314C58.1793 376.869 58.4175 377.506 58.2814 378.297C58.1975 378.809 58.1051 379.319 58.0128 379.829L58.0126 379.829L58.0126 379.83C57.8428 380.768 57.6728 381.706 57.5553 382.654C57.1695 385.854 57.8843 388.876 59.0755 391.793C59.2911 392.324 59.3138 392.749 59.0869 393.28C58.0545 395.713 56.9313 398.086 55.4791 400.294C53.5958 403.151 50.9637 404.473 47.6737 404.473C47.4792 404.473 47.2858 404.476 47.0929 404.48H47.0928C46.6439 404.487 46.1972 404.494 45.745 404.461C45.5181 404.45 45.2344 404.296 45.1096 404.107C44.0546 402.62 44.2361 399.538 45.45 398.18C45.5861 398.027 45.8925 397.885 46.0626 397.944C46.192 397.992 46.2837 398.197 46.3685 398.386C46.3878 398.429 46.4067 398.471 46.4257 398.511C46.4725 398.608 46.5065 398.716 46.5404 398.822C46.5968 399 46.6526 399.176 46.766 399.302C46.9703 399.55 47.322 399.904 47.5489 399.857C47.7871 399.81 48.0254 399.373 48.1275 399.066C48.2296 398.771 48.1955 398.404 48.1388 398.098C48.0566 397.665 47.9534 397.236 47.8505 396.808L47.8505 396.808C47.6695 396.054 47.4892 395.304 47.4241 394.544C47.1177 391.131 47.4127 387.778 48.8309 384.626C49.1599 383.906 49.5343 383.174 50.0221 382.56C50.5326 381.898 51.168 381.32 51.8146 380.8C52.4782 380.258 53.162 379.745 53.8467 379.231L53.8468 379.231L53.8471 379.23C54.3095 378.883 54.7723 378.536 55.2295 378.179C55.7396 377.775 56.2446 377.36 56.7581 376.939C57.0099 376.732 57.2637 376.523 57.5212 376.314ZM33.1375 384.706C32.8462 384.616 32.5535 384.526 32.2553 384.435C32.1543 384.663 32.0563 384.894 31.958 385.126C31.7915 385.519 31.624 385.914 31.4385 386.3C30.3153 388.662 28.8404 390.716 26.56 392.038C26.3785 392.145 26.2537 392.416 26.1857 392.641C25.6411 394.542 24.9604 396.36 23.7011 397.895C23.6103 398.013 23.5309 398.225 23.5649 398.355C23.962 399.666 24.3704 400.976 24.8129 402.263C24.8923 402.488 25.1306 402.7 25.3461 402.83C26.1516 403.302 26.9571 403.763 27.7853 404.2C28.0576 404.341 28.3753 404.471 28.6702 404.471C31.0693 404.489 33.4619 404.487 35.8577 404.484C36.657 404.484 37.4566 404.483 38.2569 404.483H38.9603C38.884 404.32 38.8218 404.161 38.763 404.011C38.6468 403.715 38.5436 403.451 38.3704 403.255C37.9392 402.771 37.4514 402.311 36.9295 401.944C36.4394 401.601 35.9074 401.317 35.3773 401.033C35.2324 400.955 35.0878 400.878 34.9441 400.799C34.3769 400.48 34.1273 400.008 34.1727 399.347C34.1802 399.19 34.1979 399.032 34.2155 398.875C34.2243 398.796 34.2332 398.717 34.2407 398.639C34.2754 398.281 34.3186 397.923 34.3618 397.564C34.46 396.749 34.5584 395.932 34.5584 395.12C34.5584 393.432 33.8323 391.979 32.7999 390.704C34.5924 389.311 34.9441 387.339 35.1143 385.309C34.4324 385.105 33.7885 384.906 33.1375 384.706Z" fill="#20113D"/>
<path fill-rule="evenodd" clip-rule="evenodd" d="M40.059 516.51C41.0001 516.457 41.8976 516.65 42.8213 516.975C42.7908 517.062 42.7625 517.148 42.7347 517.232L42.7347 517.232C42.6672 517.436 42.6027 517.631 42.5163 517.818C42.2505 518.393 41.9804 518.968 41.7103 519.543C41.4401 520.118 41.17 520.693 40.9042 521.268L40.9035 521.27C40.7604 521.58 40.6907 521.731 40.5735 521.795C40.4623 521.855 40.3084 521.837 40.0083 521.802L39.9544 521.795C39.6494 521.76 39.4664 521.628 39.4229 521.33C39.4044 521.204 39.381 521.078 39.3576 520.951L39.3576 520.951L39.3576 520.951L39.3576 520.951L39.3576 520.951L39.3575 520.951L39.3575 520.951L39.3575 520.951L39.3575 520.951L39.3575 520.951L39.3575 520.951C39.2927 520.601 39.2276 520.249 39.266 519.908C39.3622 519.063 39.518 518.224 39.6736 517.386L39.6736 517.386L39.6736 517.385L39.6736 517.385L39.6736 517.385L39.6737 517.385L39.6737 517.385L39.6737 517.385L39.6737 517.385L39.6737 517.385L39.6737 517.385L39.6737 517.385C39.7154 517.16 39.7571 516.936 39.7976 516.712C39.815 516.633 39.9631 516.518 40.059 516.51ZM34.1868 519.355L34.187 519.355L34.187 519.356L34.1871 519.356C34.7648 520.221 35.3301 521.069 35.9201 521.901C36.138 522.217 36.4342 522.498 36.9135 522.305C37.6455 522.024 37.8285 521.831 37.6106 521.058C37.3499 520.119 37.5117 519.216 37.6741 518.309L37.6741 518.309C37.6908 518.216 37.7076 518.122 37.7239 518.029C37.7849 517.695 37.7762 517.326 37.6977 516.993C37.6629 516.835 37.3492 516.598 37.2272 516.624C35.894 516.957 34.7263 517.616 33.6109 518.494C33.8051 518.783 33.9966 519.07 34.1868 519.355ZM30.764 526.05C31.3745 526.5 31.9867 526.95 32.6099 527.406C32.4007 528.416 31.8605 528.986 30.8061 529.101C29.3509 529.25 28.1222 528.653 27.0155 527.757C26.9545 527.704 26.9284 527.511 26.972 527.424C27.0359 527.28 27.0996 527.136 27.1633 526.993L27.1639 526.991L27.1647 526.989L27.165 526.989L27.1657 526.987L27.1657 526.987L27.1657 526.987L27.1657 526.987L27.1657 526.987L27.1658 526.987L27.1658 526.987L27.1658 526.987L27.1658 526.987L27.1658 526.987L27.1658 526.987L27.1659 526.987L27.1659 526.987L27.1659 526.987L27.1659 526.987C27.4485 526.349 27.7317 525.71 28.0438 525.088C28.1276 524.913 28.2648 524.767 28.3962 524.627L28.3963 524.627C28.4561 524.564 28.5148 524.501 28.5666 524.438C29.306 524.978 30.0326 525.512 30.7616 526.049L30.7631 526.05L30.7634 526.05L30.764 526.05ZM31.1536 531.417C29.5067 531.004 27.912 530.6 26.1954 530.161C26.1586 530.365 26.1175 530.575 26.0756 530.79L26.0756 530.79C25.9981 531.187 25.9177 531.598 25.8556 532.014C25.7959 532.407 25.7565 532.804 25.7163 533.209V533.209C25.692 533.454 25.6673 533.702 25.6377 533.954C27.0145 534.648 28.4262 534.841 29.8204 534.033C30.8138 533.472 31.2059 532.541 31.1536 531.417ZM25.6987 536.072C25.4372 537.459 25.6464 538.767 26.1344 540.04C26.1779 540.146 26.2912 540.26 26.3958 540.295C28.4523 540.989 30.7702 539.601 31.0926 537.731C31.1361 537.476 31.1536 537.204 31.1361 536.95C31.0316 535.835 30.8224 535.676 29.7419 535.835L29.4306 535.88C28.689 535.989 27.9466 536.098 27.1975 536.159C26.8684 536.184 26.5311 536.15 26.1828 536.115C26.0238 536.099 25.8625 536.083 25.6987 536.072ZM31.5545 544.306C32.2516 542.813 32.0337 541.742 30.8574 540.812C29.6374 541.742 28.2258 542.085 26.7095 542.137C26.605 542.137 26.4307 542.287 26.4046 542.401C26.1693 543.516 26.5004 544.508 27.1191 545.421C27.1686 545.493 27.2634 545.53 27.3703 545.572C27.4327 545.597 27.4993 545.623 27.5635 545.658C27.5333 545.678 27.5039 545.699 27.4748 545.719L27.4747 545.719C27.4029 545.768 27.3329 545.816 27.2585 545.86C25.6726 546.817 24.3916 548.073 23.6335 549.785C22.6401 552.041 22.2829 554.368 23.1804 556.765C23.3419 557.196 23.4905 557.635 23.6389 558.073L23.6389 558.073L23.639 558.073L23.639 558.073L23.6391 558.073L23.6391 558.073L23.6392 558.074L23.6392 558.074L23.6393 558.074L23.6393 558.074L23.6393 558.074L23.6394 558.074L23.6394 558.074L23.6395 558.075L23.6395 558.075L23.6396 558.075L23.6396 558.075L23.6397 558.075C23.7631 558.44 23.8864 558.804 24.0169 559.162C24.4526 560.374 24.4875 561.621 24.1389 562.832C23.1107 566.371 24.0779 569.619 25.446 572.824C25.5661 573.092 25.7621 573.334 25.951 573.568L25.9601 573.579C26.2216 573.904 26.5614 574.01 26.971 573.869C27.3805 573.72 27.6768 573.448 27.6594 573.017C27.6419 572.464 27.5722 571.911 27.4415 571.375C27.3413 570.95 27.2193 570.528 27.0973 570.107C26.9753 569.685 26.8533 569.264 26.7531 568.838C26.4743 567.635 26.8315 566.643 27.8075 565.897C27.8491 565.866 27.8899 565.834 27.9303 565.803L27.9304 565.803L27.9305 565.803L27.9306 565.803L27.9307 565.802L27.9307 565.802L27.9308 565.802L27.9308 565.802L27.9309 565.802L27.9311 565.802C28.0173 565.735 28.1021 565.669 28.1909 565.616C29.6636 564.764 30.5698 563.429 31.3192 561.946C31.5285 561.524 31.7993 561.131 32.0697 560.739L32.0697 560.739C32.1934 560.559 32.317 560.38 32.4346 560.198L32.5391 560.251C32.5914 560.497 32.6448 560.743 32.6982 560.988L32.6982 560.989C32.8583 561.726 33.0184 562.464 33.1491 563.201C33.7329 566.406 35.6152 568.82 37.7936 571.068C38.0085 571.293 38.2912 571.459 38.5581 571.615L38.5692 571.621C38.9352 571.841 39.3099 571.841 39.6584 571.551C40.0157 571.253 40.1464 570.875 39.9895 570.454C39.8327 570.05 39.6323 569.655 39.3883 569.295C39.1352 568.926 38.862 568.573 38.589 568.22C38.3543 567.917 38.1197 567.614 37.8982 567.301C36.8612 565.844 36.8177 564.817 37.8372 563.359C38.6476 562.191 39.2053 560.918 39.702 559.54C39.8406 559.605 39.9769 559.665 40.1103 559.724L40.1105 559.724L40.1106 559.724L40.1107 559.724L40.1108 559.724L40.111 559.724C40.3379 559.824 40.5567 559.921 40.7651 560.031C42.9087 561.208 44.2245 563.061 45.0088 565.335C45.3273 566.242 45.6018 567.165 45.876 568.088L45.876 568.088L45.8762 568.089C45.947 568.327 46.0178 568.565 46.0893 568.803C46.342 569.646 46.7515 570.392 47.3092 571.059C47.522 571.312 47.7345 571.565 47.9469 571.818L47.947 571.818L47.947 571.818L47.947 571.818C48.9438 573.005 49.9388 574.189 50.9516 575.362C51.2392 575.695 51.5878 576.011 51.9625 576.248C52.6421 576.679 53.3044 576.547 53.9318 575.941C54.3849 575.502 54.4633 574.958 54.0538 574.264C53.8189 573.865 53.5159 573.503 53.2178 573.146L53.2178 573.146L53.2177 573.146L53.2176 573.146L53.2172 573.146C53.1617 573.079 53.1064 573.013 53.0517 572.947C52.8774 572.736 52.677 572.534 52.4679 572.359C50.6989 570.84 50.2632 568.829 50.3417 566.625C50.3543 566.255 50.3992 565.885 50.4428 565.525L50.4429 565.525C50.4593 565.39 50.4755 565.256 50.4898 565.124C50.7624 565.071 51.0318 565.019 51.2953 564.968L51.2969 564.967C51.7824 564.873 52.248 564.782 52.677 564.703C52.8395 565.063 52.9915 565.432 53.1438 565.801C53.4735 566.6 53.8045 567.403 54.2455 568.136C54.8942 569.216 55.6628 570.221 56.4312 571.226L56.4316 571.226L56.4317 571.226L56.4317 571.227C56.6127 571.463 56.7936 571.7 56.973 571.937C57.2779 572.341 57.6875 572.666 58.2452 572.534C58.5415 572.464 58.768 571.656 58.6199 571.086C58.4805 570.55 58.3149 570.006 58.0448 569.532C56.8422 567.398 56.3804 565.054 56.058 562.674C55.8924 561.463 55.1779 560.918 53.9754 561.155C51.7272 561.603 49.4703 561.823 47.1785 561.621C47.0217 561.603 46.8649 561.568 46.7081 561.533L46.708 561.533C45.0872 561.147 44.4423 559.636 45.2789 558.17C45.305 558.117 45.3312 558.065 45.3747 558.021C46.1538 557.229 46.576 556.246 47 555.259C47.1499 554.91 47.3 554.561 47.4661 554.219C47.7972 553.552 48.4246 552.99 49.0259 552.498C49.7665 551.901 50.6728 551.602 51.6052 551.4C51.7359 551.374 51.9276 551.251 51.9537 551.146C51.9799 551.023 51.8753 550.795 51.7707 550.742C51.7042 550.71 51.6373 550.678 51.57 550.645C51.1704 550.451 50.7581 550.25 50.333 550.198C49.6358 550.11 48.9126 550.127 48.2068 550.198C47.4225 550.277 46.7254 550.031 46.0718 549.715C45.3747 549.381 44.7125 548.924 44.0851 548.468C42.3684 547.212 40.6344 545.992 38.665 545.158C36.5563 544.253 34.3691 543.955 32.1034 544.288C31.9379 544.271 31.7549 544.28 31.5545 544.306ZM41.1129 542.616C40.4158 543.055 39.6576 543.248 38.8385 543.248C38.0543 543.222 37.3049 543.064 36.6688 542.572C35.9629 542.037 35.6928 541.246 36.1024 540.482C36.3638 540.002 36.7281 539.58 37.0925 539.159L37.0926 539.159L37.0927 539.159L37.0928 539.158L37.093 539.158L37.0931 539.158L37.0932 539.158L37.0933 539.158L37.0934 539.158L37.0936 539.158L37.0937 539.157L37.0938 539.157L37.0939 539.157L37.0939 539.157L37.094 539.157L37.094 539.157L37.094 539.157C37.2149 539.017 37.3359 538.877 37.453 538.735C37.514 538.665 37.6622 538.639 37.7667 538.647C39.6576 538.832 41.1216 540.14 41.4614 541.791C41.5486 542.195 41.4353 542.414 41.1129 542.616ZM31.6499 520.032C32.6433 520.787 34.0375 522.508 34.9873 524.132L34.8893 524.257L34.8893 524.257L34.8893 524.257L34.8891 524.258L34.889 524.258L34.8889 524.258C34.6643 524.544 34.4521 524.814 34.2466 525.098C34.0636 525.353 33.8458 525.414 33.5321 525.318C31.92 524.8 30.8133 523.641 29.6457 522.394C30.3247 521.596 30.9864 520.815 31.648 520.034L31.6484 520.034L31.6499 520.032ZM45.2437 525.424C45.9618 524.801 46.8364 524.692 47.7162 524.582L47.7162 524.582L47.7163 524.582L47.7163 524.582L47.7164 524.582L47.7164 524.582L47.7165 524.582L47.7165 524.582L47.7165 524.582L47.7166 524.582L47.7166 524.582L47.7167 524.582C47.9151 524.557 48.1138 524.533 48.311 524.502C48.7642 524.432 49.2173 524.3 49.653 524.159C49.7488 524.124 49.8883 523.949 49.8708 523.861C49.7401 522.992 49.47 522.175 48.7467 521.613C48.6247 521.517 48.4243 521.455 48.2849 521.473C47.2218 521.64 46.2371 522.008 45.357 522.632C45.2524 522.711 45.1479 522.79 45.052 522.878C44.1458 523.72 44.2068 524.677 45.2437 525.424ZM45.584 539.83C44.7039 538.249 40.8698 536.739 39.8764 537.591C39.8764 537.617 39.8764 537.661 39.8938 537.67C41.0789 538.706 41.9329 540.014 42.7607 541.34C42.9611 541.665 43.1615 541.682 43.4752 541.577C44.2072 541.331 45.0437 540.646 45.584 539.83ZM51.4388 556.871C51.3081 557.547 51.038 557.749 50.3409 557.766C50.2184 557.744 50.0959 557.725 49.974 557.707C49.7231 557.67 49.4747 557.633 49.2342 557.556C48.4499 557.319 48.1101 556.766 48.2582 555.949C48.3105 555.65 48.4238 555.361 48.5545 555.089C49.0251 554.131 49.8006 553.455 50.6894 552.911C50.9944 552.727 51.3604 552.612 51.7089 552.551C51.87 552.52 52.0488 552.564 52.2263 552.608C52.2985 552.626 52.3704 552.644 52.4409 552.656C52.4262 552.721 52.4149 552.789 52.4035 552.857C52.3747 553.031 52.3455 553.206 52.2579 553.332C51.7525 554.061 51.6044 554.878 51.5608 555.738C51.5434 556.116 51.5085 556.502 51.4388 556.871ZM49.8267 555.589C49.4433 555.589 49.1035 555.931 49.1122 556.318C49.1144 556.417 49.1371 556.512 49.176 556.597C49.1377 556.512 49.1153 556.419 49.1132 556.32C49.1132 555.933 49.4443 555.591 49.8277 555.591C50.1108 555.591 50.3576 555.76 50.4697 556.007C50.3581 555.759 50.1107 555.589 49.8267 555.589ZM45.5053 527.861C45.8448 527.889 46.1821 527.917 46.5178 527.945L46.5179 527.945L46.5181 527.945L46.5181 527.945L46.5182 527.945L46.5183 527.945C47.8453 528.055 49.1457 528.163 50.4461 528.282C50.8295 528.318 50.9515 528.168 50.9864 527.808C51.0561 527.036 50.7947 526.43 50.1498 526.008C49.0606 525.306 47.1174 525.429 46.124 526.272C45.6186 526.693 45.4007 527.229 45.5053 527.861ZM44.7214 517.755C45.767 518.326 46.7604 518.905 47.4575 519.897C45.8542 520.846 44.3031 521.767 42.752 522.698C42.4644 522.242 42.4296 521.934 42.6387 521.293C43.0363 520.059 43.789 519.03 44.552 517.987L44.5524 517.986L44.553 517.985C44.6091 517.909 44.6653 517.832 44.7214 517.755ZM42.3512 535.994C43.4381 536.367 44.3115 537.04 45.2018 537.726L45.2018 537.726C45.739 538.139 46.2823 538.558 46.8825 538.918C46.9641 538.789 47.0453 538.66 47.1261 538.533L47.1271 538.531L47.1278 538.53L47.1279 538.53C47.4519 538.018 47.7681 537.518 48.0676 537.013C48.1111 536.943 48.085 536.741 48.0153 536.688C46.8825 535.793 45.6625 535.073 44.1724 535.002C43.4318 534.985 42.7695 535.178 42.3512 535.994ZM50.6384 530.165C50.621 530.884 50.6031 531.621 50.1417 532.226C49.9606 532.166 49.7815 532.105 49.6035 532.045C49.1309 531.885 48.667 531.728 48.1985 531.594C47.3707 531.374 46.5429 531.172 45.7064 530.988C45.3927 530.918 45.3229 530.76 45.3665 530.461C45.4798 529.636 46.0462 529.127 47.0047 529.091C48.2334 529.039 49.3662 529.451 50.4729 529.943C50.5513 529.978 50.6384 530.092 50.6384 530.163L50.6384 530.165ZM47.5606 556.888C47.3745 557.117 47.2081 557.319 47.0529 557.507L47.0524 557.507C46.8807 557.715 46.7227 557.906 46.5672 558.1C46.5138 558.167 46.4581 558.232 46.4026 558.297L46.4025 558.297C46.268 558.454 46.1343 558.611 46.0356 558.785C45.7132 559.347 45.8701 559.961 46.4626 560.216C46.9332 560.418 47.456 560.55 47.9614 560.602C49.3121 560.751 50.6453 560.62 51.9524 560.225C51.8653 559.61 51.5864 559.329 50.9764 559.268C50.672 559.24 50.3641 559.23 50.057 559.22L50.0569 559.22L50.0567 559.22L50.0565 559.22C49.8717 559.213 49.6871 559.207 49.5038 559.197C48.3187 559.127 48.127 558.943 47.8917 557.784C47.8508 557.589 47.7707 557.399 47.6856 557.197C47.6438 557.097 47.6008 556.995 47.5606 556.888ZM48.6596 535.422C47.2654 534.693 45.845 534.061 44.2678 533.744C44.4943 532.621 45.235 532.12 46.4027 532.269C47.5791 532.41 48.6247 532.902 49.5833 533.578C49.6791 533.648 49.8011 533.806 49.775 533.876C49.5833 534.368 49.3828 534.868 49.1301 535.334C49.0779 535.422 48.7729 535.483 48.6596 535.422ZM52.4855 555.028C52.4855 555.941 52.6337 556.09 53.3308 555.959C53.6183 555.906 53.9233 555.783 54.1586 555.608C55.0648 554.932 55.3175 553.298 54.6901 552.394C54.542 552.183 54.4113 552.095 54.1673 552.271C53.1565 553.017 52.5291 553.957 52.4855 555.028Z" fill="#20113D"/>
</svg>
