<svg width="60" height="60" viewBox="0 0 60 60" fill="none" xmlns="http://www.w3.org/2000/svg">
<path fill-rule="evenodd" clip-rule="evenodd" d="M28.9318 19.12C29.1139 19.1992 29.2794 19.3153 29.4187 19.4616C29.5583 19.6075 29.6691 19.7809 29.7446 19.9717C29.8202 20.1626 29.8591 20.3672 29.8591 20.5739C29.8591 20.7805 29.8202 20.9852 29.7446 21.176C29.6691 21.3669 29.5583 21.5403 29.4187 21.6862L23.391 28H40.5416C40.9659 28 41.3729 28.2107 41.673 28.5858C41.973 28.9609 42.1416 29.4696 42.1416 30C42.1416 30.5304 41.973 31.0391 41.673 31.4142C41.3729 31.7893 40.9659 32 40.5416 32H23.3902L29.4187 38.3146C29.7002 38.6096 29.8584 39.0097 29.8584 39.4269C29.8584 39.8441 29.7002 40.2443 29.4187 40.5393C29.1371 40.8343 28.7553 41 28.3571 41C27.959 41 27.5771 40.8343 27.2956 40.5393L18.2996 31.1127C18.16 30.9668 18.0492 30.7934 17.9736 30.6026C17.898 30.4117 17.8591 30.2071 17.8591 30.0004C17.8591 29.7938 17.898 29.5891 17.9736 29.3983C18.0492 29.2074 18.16 29.034 18.2996 28.8881L27.2956 19.4616C27.4349 19.3153 27.6003 19.1992 27.7825 19.12C27.9646 19.0408 28.1599 19 28.3571 19C28.5543 19 28.7496 19.0408 28.9318 19.12Z" fill="white"/>
<path d="M55 1H5V-1H55V1ZM1 5V55H-1V5H1ZM5 59H55V61H5V59ZM59 55V5H61V55H59ZM55 59C57.2091 59 59 57.2091 59 55H61C61 58.3137 58.3137 61 55 61V59ZM1 55C1 57.2091 2.79086 59 5 59V61C1.68629 61 -1 58.3137 -1 55H1ZM5 1C2.79086 1 1 2.79086 1 5H-1C-1 1.68629 1.68629 -1 5 -1V1ZM55 -1C58.3137 -1 61 1.68629 61 5H59C59 2.79086 57.2091 1 55 1V-1Z" fill="white"/>
</svg>
