<svg width="46" height="40" viewBox="0 0 46 40" fill="none" xmlns="http://www.w3.org/2000/svg">
<path fill-rule="evenodd" clip-rule="evenodd" d="M31.6875 17.6336L31.6897 17.6382C32.1049 18.5261 32.5202 19.4141 32.9506 20.3413C32.8416 20.4307 32.7311 20.523 32.619 20.6166L32.6189 20.6167L32.6188 20.6168C32.3655 20.8284 32.1038 21.0471 31.8312 21.2544C31.5282 21.4835 31.2277 21.7159 30.9274 21.9482L30.9274 21.9482C30.1857 22.5218 29.4449 23.0947 28.6697 23.6158C25.8788 25.497 22.8005 26.2605 19.4877 25.9614C18.6784 25.8906 17.8237 25.5993 17.4834 25.3553C17.6796 23.9415 17.8683 22.5668 18.057 21.1922L18.0573 21.1903L18.0582 21.1835C18.0355 21.1757 18.0109 21.1698 17.9863 21.1639C17.9618 21.158 17.9372 21.1521 17.9145 21.1442C17.8408 21.2999 17.7677 21.4555 17.6947 21.611C17.513 21.998 17.3319 22.3838 17.143 22.7657C16.6525 23.7743 16.3236 24.8453 15.994 25.9188C15.9018 26.2192 15.8095 26.5199 15.7135 26.8194C15.1084 28.6849 14.0269 30.1174 12.189 30.818C12.0982 30.8574 12.0226 31.0148 11.9847 31.1328C11.9106 31.3776 11.8448 31.6253 11.779 31.8727C11.6903 32.2061 11.6017 32.5392 11.4931 32.8645C11.0771 34.1239 10.2981 35.1 9.24678 35.8477C8.77785 36.1783 8.30892 36.5168 7.86268 36.8789C7.47694 37.1859 7.49207 37.3197 7.87024 37.6267C7.94404 37.6866 8.01826 37.7456 8.09231 37.8046L8.09291 37.805L8.09294 37.8051C8.32981 37.9935 8.56479 38.1804 8.77785 38.3902C9.12577 38.7365 9.2846 39.1773 9.15602 39.6811C9.12577 39.7991 8.95181 39.9566 8.84592 39.9566C6.36512 39.9723 3.87674 39.9723 1.39594 39.9644C1.30517 39.9644 1.1766 39.9329 1.12365 39.87C1.0477 39.7737 0.969938 39.6779 0.891952 39.5818L0.891808 39.5816C0.612621 39.2374 0.330519 38.8897 0.117715 38.5082C-0.0184269 38.2642 -0.033554 37.8549 0.0572073 37.5794C0.934566 34.8009 2.06152 32.164 4.18684 30.1411C4.27761 30.0545 4.33055 29.8656 4.33811 29.7318C4.39106 27.7325 4.61796 25.7489 5.10958 23.8204C5.53314 22.1517 5.98694 20.483 6.78867 18.9481C8.26354 16.1459 10.1695 13.8081 13.0966 12.5487C15.6152 11.4704 18.0733 11.6357 20.4709 12.9108C20.8001 13.0874 21.0978 13.3296 21.3878 13.5655C21.5242 13.6765 21.659 13.7861 21.7945 13.8869C21.5222 13.2729 21.0457 12.7691 20.5314 12.3047C21.0158 12.113 21.5019 11.9274 21.9872 11.7421C24.1316 10.9236 26.2591 10.1114 28.1403 8.80201C28.223 9.10179 28.3044 9.40458 28.3861 9.70908L28.3863 9.70971L28.3863 9.70987C28.4913 10.1007 28.597 10.4943 28.7075 10.8879C28.7378 10.9824 28.7983 11.0689 28.8739 11.1477C28.7226 10.1716 28.7226 9.19557 29.0781 8.29825C29.4109 7.44815 29.8118 6.59018 30.3261 5.85027C31.5892 4.05562 33.1094 2.49711 34.8036 1.13537L34.8038 1.13528C34.8718 1.08021 34.9398 1.02514 35.0154 0.970077C35.1369 0.889388 35.2573 0.803415 35.3779 0.71726C35.9632 0.299146 36.5546 -0.123241 37.3071 0.0333943C38.5475 0.285275 39.5837 0.962206 40.2947 2.07206C40.4989 2.38691 40.7334 2.60731 41.0586 2.72538C41.9057 3.03236 42.541 3.55973 42.9495 4.4177C43.0975 4.73118 43.3111 5.00879 43.5249 5.28685C43.6279 5.42073 43.731 5.55471 43.8268 5.69285C44.0235 5.97622 44.0613 6.21236 43.842 6.54295C43.6604 6.81844 43.5697 7.1884 43.5167 7.52686C43.4487 7.9283 43.5999 8.18805 44.0084 8.40844C45.0748 8.97518 45.695 10.2425 45.1051 11.5255C45.0067 11.738 44.916 11.9505 44.8328 12.1709C44.4395 13.2257 43.6907 13.5956 42.6621 13.2257C42.645 13.2198 42.6275 13.2139 42.61 13.208L42.61 13.2079C42.5576 13.1902 42.5051 13.1725 42.4654 13.1548C42.2763 13.4303 42.0872 13.6979 41.883 13.9813C41.854 13.9444 41.8291 13.9175 41.8101 13.897C41.7845 13.8693 41.7696 13.8532 41.7696 13.8396C41.8301 13.1627 41.4368 12.7613 40.9981 12.352C38.9484 10.4314 36.4373 10.7777 34.7204 11.8876C34.9134 11.8468 35.1046 11.8024 35.2952 11.7581L35.2954 11.758C35.6576 11.6738 36.0177 11.5901 36.3844 11.5333C38.5627 11.2185 40.4535 12.2339 41.4595 14.2647C42.1553 15.6658 42.6469 17.1298 42.5259 18.7513L42.5246 18.7703C42.5023 19.0879 42.478 19.4338 42.352 19.7116C41.9133 20.6877 42.0494 21.6716 42.2915 22.6397L42.3361 22.8202C42.5632 23.7401 42.7963 24.6844 43.2293 25.497C44.9008 28.6219 45.037 31.9987 44.916 35.4227C44.863 36.8946 44.4092 38.2013 43.2444 39.1537C42.594 39.6889 41.8982 40.0589 41.0284 39.988C40.6275 39.9566 40.2191 39.9487 39.8182 39.988C39.0619 40.0746 38.54 39.6811 38.0937 39.1301C37.6097 38.5397 37.3903 37.8549 37.5265 37.0835C37.5643 36.8789 37.708 36.627 37.8744 36.5326C38.0834 36.417 38.236 36.5773 38.3907 36.7398C38.4151 36.7655 38.4396 36.7912 38.4643 36.8159C38.6974 37.0507 39.0053 37.2232 39.2987 37.3876L39.2988 37.3877L39.3039 37.3905C39.5611 37.5322 39.6972 37.4141 39.7274 37.115C39.7577 36.7608 39.6518 36.4617 39.3947 36.2334C37.95 34.9504 37.0424 33.2738 36.2256 31.5343C35.5978 30.1883 35.1969 28.7793 35.0532 27.2838C34.9473 26.1582 35.1364 25.0641 35.3406 23.97C35.439 23.4741 35.5373 22.9703 35.5676 22.4587C35.6356 21.4433 35.2953 20.5853 34.4557 20.0422C33.4195 19.3731 32.4968 18.5703 31.7556 17.5627C31.7631 17.5864 31.7253 17.61 31.6875 17.6336ZM33.903 21.2083C34.3417 21.5783 34.5005 22.0033 34.4098 22.5307C34.3538 22.8718 34.2922 23.2119 34.2306 23.5521C34.1174 24.1775 34.0041 24.803 33.9257 25.4352C33.6685 27.5683 34.145 29.5834 34.9392 31.5276C35.0829 31.8818 35.098 32.1652 34.9468 32.5194C34.2585 34.1409 33.5097 35.723 32.5416 37.1949C31.2861 39.0998 29.5313 39.9813 27.3379 39.9813C27.2083 39.9813 27.0794 39.9835 26.9507 39.9856C26.6515 39.9906 26.3537 39.9955 26.0522 39.9735C25.9009 39.9656 25.7118 39.8633 25.6286 39.7373C24.9252 38.7456 25.0462 36.6912 25.8555 35.786C25.9463 35.6836 26.1505 35.5892 26.2639 35.6285C26.3502 35.6606 26.4113 35.7971 26.4678 35.9231L26.4679 35.9233C26.4807 35.9519 26.4933 35.9801 26.506 36.0064C26.5372 36.0713 26.5599 36.1429 26.5824 36.2141C26.62 36.3327 26.6572 36.4501 26.7329 36.5337C26.869 36.699 27.1035 36.9352 27.2547 36.9037C27.4136 36.8722 27.5724 36.581 27.6405 36.3763C27.7085 36.1795 27.6859 35.9355 27.648 35.7309C27.5932 35.4427 27.5245 35.1566 27.4558 34.871L27.4558 34.871L27.4558 34.871C27.3352 34.3688 27.2149 33.8684 27.1715 33.3616C26.9673 31.0868 27.164 28.8514 28.1094 26.7497C28.3287 26.2696 28.5783 25.7816 28.9036 25.3722C29.2439 24.9315 29.6675 24.5458 30.0986 24.1994C30.541 23.8377 30.9969 23.4955 31.4534 23.153C31.7617 22.9216 32.0703 22.69 32.3752 22.452C32.7152 22.1826 33.0518 21.9062 33.3942 21.625C33.5621 21.4872 33.7313 21.3482 33.903 21.2083ZM17.6475 26.8031C17.4533 26.7433 17.2581 26.6832 17.0594 26.6224C16.992 26.7743 16.9267 26.9284 16.8612 27.0831C16.7502 27.3451 16.6385 27.6087 16.5148 27.8661C15.766 29.4403 14.7828 30.8099 13.2625 31.6915C13.1415 31.7623 13.0583 31.9434 13.0129 32.0929C12.6499 33.3602 12.1961 34.5724 11.3565 35.5957C11.296 35.6744 11.2431 35.8161 11.2658 35.9026C11.5305 36.7764 11.8028 37.6501 12.0978 38.508C12.1507 38.6576 12.3095 38.7993 12.4532 38.8859C12.9902 39.2007 13.5272 39.5077 14.0794 39.7989C14.2609 39.8934 14.4727 39.98 14.6693 39.98C16.2687 39.9918 17.8638 39.9903 19.461 39.9888C19.9939 39.9883 20.5269 39.9878 21.0604 39.9878H21.5294C21.4785 39.8793 21.437 39.7735 21.3978 39.6733C21.3203 39.4755 21.2515 39.2998 21.1361 39.1692C20.8487 38.8465 20.5234 38.5395 20.1755 38.2955C19.8488 38.0668 19.4941 37.8769 19.1406 37.6877C19.0441 37.636 18.9477 37.5844 18.8519 37.532C18.4737 37.3195 18.3073 37.0046 18.3376 36.5638C18.3426 36.4589 18.3544 36.3539 18.3662 36.249C18.3721 36.1965 18.3779 36.144 18.383 36.0916C18.4061 35.8532 18.4349 35.6142 18.4637 35.3749C18.5291 34.8316 18.5948 34.2869 18.5948 33.7459C18.5948 32.6203 18.1107 31.6522 17.4224 30.8021C18.6174 29.8732 18.8519 28.5587 18.9654 27.2049C18.5108 27.0689 18.0815 26.9367 17.6475 26.8031Z" fill="white"/>
</svg>
