<svg width="40" height="66" viewBox="0 0 40 66" fill="none" xmlns="http://www.w3.org/2000/svg">
<path fill-rule="evenodd" clip-rule="evenodd" d="M20.6746 0.00947359C19.6289 -0.0484746 18.6317 0.164002 17.6054 0.52135C17.6393 0.617163 17.6707 0.711331 17.7016 0.803855L17.7016 0.803888L17.7016 0.803927C17.7765 1.02848 17.8483 1.24334 17.9442 1.44852C18.2395 2.08094 18.5395 2.71336 18.8396 3.34579L18.8396 3.34583L18.8396 3.34587L18.8396 3.34592L18.8396 3.34596L18.8397 3.34601L18.8397 3.34605L18.8397 3.3461L18.8397 3.34614L18.8398 3.34618L18.8398 3.34623C19.1399 3.97886 19.4401 4.6115 19.7354 5.24413L19.7362 5.24591L19.7363 5.24594C19.8948 5.58616 19.9722 5.75233 20.1017 5.82273C20.2253 5.88996 20.3965 5.86987 20.7309 5.83062L20.7908 5.82361C21.1296 5.78498 21.3329 5.64011 21.3814 5.31173C21.4019 5.17335 21.4279 5.03429 21.4539 4.89508L21.454 4.89499L21.454 4.89497C21.526 4.50959 21.5983 4.12315 21.5556 3.74713C21.4487 2.81801 21.2756 1.89489 21.1028 0.973042C21.0564 0.725837 21.0101 0.478723 20.965 0.231609C20.9457 0.144686 20.7811 0.0191316 20.6746 0.00947359ZM27.1999 3.13836L27.1992 3.13939L27.1991 3.13962C26.5572 4.09193 25.9291 5.02374 25.2736 5.93915C25.0315 6.28684 24.7023 6.59589 24.1698 6.38342C23.3565 6.07436 23.1532 5.86188 23.3953 5.01198C23.6849 3.97891 23.5051 2.98553 23.3247 1.98866C23.3061 1.88581 23.2875 1.78293 23.2694 1.67995C23.2016 1.31295 23.2113 0.907311 23.2984 0.540306C23.3372 0.366461 23.6857 0.105695 23.8213 0.134669C25.3026 0.501674 26.6 1.22603 27.8393 2.19183C27.6238 2.50957 27.4112 2.82495 27.2001 3.13811L27.1999 3.13836ZM31.0035 10.5049L31.0034 10.505L31.0033 10.5051L31.0031 10.5052L31.003 10.5053L31.0029 10.5054L31.0027 10.5055L31.0026 10.5056L31.0024 10.5057L31.0016 10.5064L31.0004 10.5072C30.3231 11.0005 29.6438 11.4952 28.9525 11.996C29.1849 13.1067 29.7851 13.7344 30.9567 13.86C32.5736 14.0242 33.9387 13.3674 35.1683 12.3823C35.2361 12.3244 35.2652 12.1119 35.2167 12.0153C35.1448 11.8556 35.0732 11.6956 35.0015 11.5355C34.6875 10.8338 34.3727 10.1304 34.0259 9.44626C33.9327 9.25386 33.7802 9.09336 33.6342 8.93971C33.5677 8.8697 33.5025 8.8011 33.4449 8.73157C32.6232 9.32531 31.8158 9.91334 31.0056 10.5034L31.0045 10.5043L31.0043 10.5044L31.0041 10.5045L31.0039 10.5047L31.0037 10.5048L31.0035 10.5049ZM30.569 16.4094C32.3989 15.9555 34.1707 15.5112 36.078 15.0283C36.1189 15.2525 36.1645 15.4838 36.2112 15.7202L36.2112 15.7202L36.2112 15.7203L36.2112 15.7205C36.2972 16.1562 36.3866 16.6092 36.4556 17.0662C36.5219 17.499 36.5657 17.9356 36.6103 18.3806L36.6104 18.3807L36.6104 18.3809L36.6104 18.3812L36.6104 18.3814C36.6375 18.651 36.6648 18.9238 36.6977 19.2006C35.1679 19.9636 33.5994 20.1761 32.0503 19.2875C30.9466 18.6694 30.5109 17.6456 30.569 16.4094ZM36.6302 21.5274C36.9207 23.0533 36.6883 24.4924 36.1461 25.8928C36.0977 26.0087 35.9718 26.1343 35.8557 26.1729C33.5707 26.9359 30.9953 25.4099 30.6371 23.3527C30.5886 23.0727 30.5693 22.7733 30.5886 22.4932C30.7048 21.2666 30.9372 21.0928 32.1378 21.2666L32.4837 21.3167C33.3076 21.4364 34.1326 21.5562 34.9649 21.624C35.3305 21.6505 35.7053 21.6133 36.0923 21.5748C36.269 21.5573 36.4482 21.5395 36.6302 21.5274ZM30.1241 30.5866C29.3495 28.9447 29.5916 27.7664 30.8986 26.7427C32.2541 27.7664 33.8226 28.1431 35.5073 28.201C35.6235 28.201 35.8171 28.3652 35.8461 28.4908C36.1076 29.7174 35.7397 30.8087 35.0522 31.8131C34.9972 31.8924 34.8919 31.9332 34.7731 31.9793C34.7037 32.0061 34.6298 32.0348 34.5584 32.0739C34.5919 32.0962 34.6246 32.1184 34.6569 32.1404L34.6571 32.1406C34.7369 32.195 34.8147 32.248 34.8973 32.296C36.6594 33.3488 38.0827 34.7299 38.925 36.6132C40.0288 39.0953 40.4257 41.6547 39.4285 44.2913C39.2491 44.765 39.084 45.2473 38.9193 45.7289L38.9192 45.7289L38.9192 45.729L38.9192 45.729L38.9192 45.7291L38.9192 45.7291L38.9192 45.7292L38.9192 45.7292L38.9192 45.7292L38.9192 45.7293L38.9191 45.7293L38.9191 45.7294L38.9191 45.7294L38.9191 45.7295L38.9191 45.7295L38.9191 45.7296L38.919 45.7299C38.7815 46.1316 38.6443 46.5328 38.499 46.928C38.0149 48.2608 37.9762 49.6322 38.3635 50.965C39.5059 54.8572 38.4312 58.4307 36.9112 61.9559C36.7778 62.2505 36.56 62.5171 36.3501 62.774L36.3399 62.7865C36.0495 63.1438 35.6719 63.2597 35.2168 63.1052C34.7618 62.941 34.4326 62.6416 34.4519 62.1684C34.4713 61.5599 34.5488 60.9514 34.694 60.3623C34.8053 59.8939 34.9409 59.4303 35.0764 58.9667C35.212 58.5031 35.3475 58.0396 35.4589 57.5711C35.7687 56.248 35.3717 55.1566 34.2873 54.3357C34.241 54.3018 34.1956 54.2669 34.1506 54.2322L34.1504 54.2321C34.0545 54.1583 33.9601 54.0858 33.8613 54.0266C32.2251 53.0898 31.2182 51.6218 30.3855 49.9896C30.153 49.5257 29.8521 49.0936 29.5516 48.6621L29.5515 48.662C29.4141 48.4648 29.2768 48.2676 29.1462 48.0676L29.03 48.1256C28.9719 48.396 28.9126 48.6664 28.8533 48.9368C28.6754 49.7481 28.4975 50.5594 28.3523 51.3707C27.7036 54.8959 25.6123 57.5518 23.1918 60.0243C22.9531 60.2719 22.639 60.4538 22.3425 60.6256L22.3301 60.6327C21.9234 60.8742 21.5071 60.8742 21.1198 60.5555C20.7229 60.2271 20.5776 59.8118 20.7519 59.3482C20.9262 58.9039 21.1489 58.4693 21.42 58.0733C21.7011 57.6683 22.0047 57.2799 22.308 56.8918L22.3081 56.8917C22.5688 56.5581 22.8295 56.2247 23.0756 55.881C24.2278 54.2777 24.2762 53.1477 23.1434 51.5445C22.2429 50.26 21.6233 48.8596 21.0714 47.3433C20.9173 47.4148 20.7659 47.481 20.6176 47.5458C20.3652 47.6561 20.1219 47.7625 19.8902 47.8841C17.5084 49.1783 16.0465 51.2161 15.1751 53.7176C14.8212 54.7153 14.5162 55.7313 14.2115 56.7462L14.2112 56.7474C14.1325 57.0093 14.0539 57.2711 13.9745 57.5325C13.6937 58.4597 13.2387 59.2806 12.619 60.0146C12.3827 60.2927 12.1468 60.5708 11.9109 60.8488C10.8032 62.1541 9.69743 63.4571 8.57196 64.747C8.25245 65.1141 7.86517 65.4617 7.44885 65.7225C6.69365 66.1958 5.95782 66.0509 5.26072 65.3845C4.75725 64.9016 4.67011 64.3028 5.12517 63.5398C5.38622 63.1004 5.72288 62.7021 6.05407 62.3102L6.05465 62.3096C6.11633 62.2366 6.17782 62.1638 6.2386 62.0911C6.43224 61.8593 6.65492 61.6372 6.88729 61.444C8.85274 59.7732 9.33684 57.5615 9.2497 55.1373C9.23563 54.7303 9.18577 54.3232 9.13728 53.9273L9.13727 53.9272L9.13726 53.9271L9.13725 53.9271L9.13725 53.927L9.13724 53.9269L9.13723 53.9268L9.13722 53.9267C9.11899 53.778 9.10097 53.6308 9.08511 53.4858C8.78366 53.4283 8.48577 53.3709 8.19434 53.3147L8.19195 53.3143L8.18888 53.3137C7.6492 53.2096 7.13173 53.1098 6.65492 53.0222C6.47439 53.419 6.30546 53.8245 6.13622 54.2307C5.76995 55.1099 5.4022 55.9926 4.91216 56.7985C4.19135 57.9865 3.33738 59.0922 2.48368 60.1976L2.48365 60.1977L2.48355 60.1978L2.48351 60.1978L2.48346 60.1979L2.48342 60.1979L2.48338 60.198L2.48333 60.1981L2.48329 60.1981L2.48324 60.1982L2.4832 60.1982L2.48316 60.1983L2.48311 60.1983L2.48307 60.1984L2.48303 60.1985L2.48298 60.1985L2.48294 60.1986L2.4829 60.1986L2.48285 60.1987C2.28187 60.4589 2.0809 60.7191 1.8817 60.9804C1.54283 61.4247 1.08778 61.782 0.468128 61.6372C0.13894 61.5599 -0.112794 60.6714 0.0518001 60.0436C0.206712 59.4544 0.390671 58.8557 0.690813 58.3341C2.02693 55.9872 2.54007 53.4085 2.89831 50.7912C3.08227 49.4584 3.87619 48.8596 5.21231 49.1203C7.71026 49.6129 10.2179 49.8544 12.7643 49.6322C12.9385 49.6129 13.1128 49.5743 13.287 49.5357L13.2871 49.5356C15.0879 49.1107 15.8044 47.4495 14.8749 45.8366C14.8459 45.7787 14.8168 45.7207 14.7684 45.6724C13.9028 44.8018 13.4337 43.7204 12.9626 42.6344C12.7961 42.2506 12.6293 41.8663 12.4448 41.4905C12.0768 40.7565 11.3797 40.1384 10.7117 39.5975C9.88871 38.9408 8.88178 38.6124 7.84581 38.3903C7.70058 38.3613 7.48758 38.2261 7.45853 38.1102C7.42948 37.975 7.54567 37.7239 7.66185 37.6659C7.73579 37.6311 7.81014 37.5953 7.88488 37.5593C8.32886 37.3456 8.78703 37.125 9.25938 37.0671C10.0339 36.9705 10.8375 36.9899 11.6218 37.0671C12.4932 37.154 13.2677 36.8836 13.9939 36.5359C14.7684 36.1689 15.5043 35.6667 16.2014 35.1645C18.1087 33.7834 20.0354 32.4409 22.2236 31.5234C24.5666 30.5286 26.9968 30.2003 29.5141 30.5673C29.6981 30.5479 29.9014 30.5576 30.1241 30.5866ZM19.5032 28.7224C20.2778 29.2053 21.1201 29.4178 22.0302 29.4178C22.9016 29.3889 23.7343 29.215 24.441 28.6742C25.2253 28.085 25.5254 27.2158 25.0704 26.3755C24.7799 25.8468 24.3751 25.3832 23.9702 24.9196C23.8353 24.7651 23.7004 24.6105 23.5697 24.4536C23.5019 24.3763 23.3373 24.3474 23.2211 24.357C21.1201 24.5598 19.4935 25.9989 19.1159 27.8146C19.0191 28.2589 19.145 28.5003 19.5032 28.7224ZM30.0177 3.88245C28.9139 4.71304 27.3648 6.60601 26.3095 8.39275L26.4183 8.53013C26.6681 8.84521 26.9039 9.14279 27.1324 9.45513C27.3358 9.73522 27.5778 9.80282 27.9264 9.69658C29.7175 9.12676 30.9471 7.8519 32.2445 6.48046C31.4893 5.60158 30.7535 4.74201 30.0177 3.88245ZM14.9137 9.81266C14.1159 9.12716 13.1441 9.00734 12.1666 8.88681C11.9459 8.85961 11.725 8.83236 11.5056 8.79857C11.0022 8.7213 10.4987 8.57643 10.0146 8.42191C9.90811 8.38327 9.7532 8.19011 9.77256 8.09353C9.91779 7.13739 10.2179 6.23919 11.0215 5.62107C11.1571 5.51484 11.3798 5.44723 11.5347 5.46655C12.7159 5.65005 13.81 6.05569 14.7878 6.74141L14.7879 6.74142C14.904 6.82834 15.0202 6.91526 15.1267 7.01183C16.1336 7.939 16.0659 8.99173 14.9137 9.81266ZM14.5362 25.6607C15.5141 23.9222 19.7742 22.261 20.8779 23.1979C20.8779 23.2268 20.8779 23.2751 20.8585 23.2848C19.5418 24.4244 18.593 25.8635 17.6732 27.3218C17.4505 27.6792 17.2278 27.6985 16.8792 27.5826C16.066 27.3122 15.1365 26.5589 14.5362 25.6607ZM8.02972 44.4073C8.17495 45.151 8.47509 45.3731 9.24965 45.3925C9.38558 45.3672 9.52151 45.3472 9.65676 45.3272L9.65682 45.3272L9.65688 45.3272L9.65694 45.3272L9.65701 45.3272L9.65707 45.3271L9.65713 45.3271L9.65719 45.3271L9.65726 45.3271C9.9361 45.2859 10.2121 45.2452 10.4793 45.1607C11.3506 44.8999 11.7282 44.2914 11.5637 43.3932C11.5056 43.0649 11.3797 42.7462 11.2345 42.4468C10.7116 41.394 9.84994 40.6504 8.86237 40.0516C8.5235 39.8487 8.11686 39.7232 7.72958 39.6556C7.55059 39.6212 7.35201 39.6699 7.15473 39.7183C7.07457 39.7379 6.99462 39.7575 6.91629 39.7715C6.93269 39.8424 6.94523 39.9171 6.95783 39.9922C6.98988 40.1831 7.02233 40.3765 7.11961 40.5151C7.68117 41.3168 7.84576 42.215 7.89417 43.1614C7.91354 43.5767 7.95227 44.0017 8.02972 44.4073ZM9.82089 42.9973C10.2469 42.9973 10.6245 43.3739 10.6148 43.7989C10.6082 44.0977 10.4322 44.3554 10.1813 44.4841C10.432 44.3553 10.6078 44.0977 10.6144 43.7991C10.6144 43.3741 10.2465 42.9974 9.8205 42.9974C9.704 42.9974 9.59303 43.023 9.49316 43.0689C9.59313 43.0229 9.70424 42.9973 9.82089 42.9973ZM14.6234 12.4965C14.2462 12.5277 13.8714 12.5585 13.4985 12.5891C12.0239 12.7103 10.5788 12.8291 9.13369 12.9601C8.70768 12.9987 8.57213 12.8345 8.5334 12.4386C8.45595 11.5887 8.74641 10.9223 9.46288 10.4587C10.6731 9.68603 12.8322 9.82124 13.936 10.7484C14.4975 11.212 14.7396 11.8011 14.6234 12.4965ZM15.4947 1.38037C14.3329 2.00814 13.2291 2.64557 12.4546 3.73693C14.2361 4.78 15.9595 5.79409 17.6829 6.81785C18.0024 6.31563 18.0411 5.9776 17.8087 5.27256C17.367 3.91464 16.5307 2.7828 15.6829 1.63534C15.6202 1.55047 15.5574 1.46551 15.4947 1.38037ZM18.128 21.4409C16.9204 21.8505 15.95 22.5907 14.9608 23.3451C14.3639 23.8004 13.7602 24.2609 13.0934 24.657C13.0021 24.5137 12.9112 24.3715 12.8208 24.2301L12.8208 24.2301C12.4608 23.6668 12.1094 23.1171 11.7766 22.5613C11.7282 22.484 11.7572 22.2619 11.8347 22.2039C13.0934 21.2188 14.4488 20.4268 16.1045 20.3496C16.9274 20.3302 17.6633 20.5427 18.128 21.4409ZM8.92018 15.0304C8.93953 15.8216 8.95934 16.632 9.472 17.2978C9.67323 17.2317 9.87229 17.165 10.07 17.0987C10.5951 16.9226 11.1106 16.7497 11.6311 16.6024C12.5509 16.3609 13.4707 16.1388 14.4001 15.936C14.7487 15.8587 14.8261 15.6849 14.7777 15.3565C14.6519 14.4486 14.0225 13.8885 12.9575 13.8498C11.5924 13.7919 10.3337 14.2458 9.10408 14.7867C9.01694 14.8253 8.92012 14.9509 8.92012 15.0281L8.92018 15.0304ZM12.9026 45.1063L12.9027 45.1064L12.9027 45.1064L12.903 45.1068C13.0939 45.3355 13.2695 45.5459 13.4424 45.759C13.5017 45.8323 13.5636 45.904 13.6252 45.9754L13.6253 45.9755C13.7748 46.1488 13.9233 46.3208 14.033 46.5123C14.3912 47.1304 14.2169 47.8065 13.5585 48.0865C13.0357 48.3087 12.4548 48.4535 11.8932 48.5115C10.3925 48.6757 8.91117 48.5308 7.45887 48.0962C7.55569 47.4201 7.86552 47.1111 8.54326 47.0435C8.88155 47.0133 9.22362 47.002 9.56475 46.9907H9.56478H9.56482H9.56485C9.77042 46.9839 9.97565 46.9771 10.1795 46.9662C11.4963 46.8889 11.7093 46.6861 11.9707 45.4113C12.0161 45.1975 12.1051 44.9881 12.1997 44.7656L12.1997 44.7655C12.2462 44.6563 12.294 44.5438 12.3386 44.4261C12.5453 44.6781 12.7302 44.8997 12.9026 45.1063ZM11.1183 20.8128C12.6674 20.0112 14.2455 19.3158 15.998 18.9681C15.7462 17.7319 14.9233 17.1814 13.6259 17.3456C12.3188 17.5001 11.157 18.041 10.092 18.7846C9.98546 18.8619 9.84991 19.0357 9.87896 19.113C10.092 19.6539 10.3146 20.2044 10.5954 20.7162C10.6535 20.8128 10.9924 20.8804 11.1183 20.8128ZM6.86795 42.3789C6.86795 43.3833 6.70336 43.5475 5.9288 43.4027C5.60929 43.3447 5.27042 43.2095 5.00901 43.0163C4.00208 42.2727 3.7213 40.4763 4.4184 39.4815C4.583 39.2497 4.72823 39.1531 4.99932 39.3463C6.12244 40.1672 6.81954 41.2006 6.86795 42.3789Z" fill="#20113D"/>
</svg>
