<svg width="88" height="64" viewBox="0 0 88 64" fill="none" xmlns="http://www.w3.org/2000/svg">
<path fill-rule="evenodd" clip-rule="evenodd" d="M31.5129 39.7358C27.9004 40.7956 24.2598 40.6325 20.5912 38.2684C20.3094 38.6121 20.0208 38.958 19.7292 39.3075L19.7291 39.3075L19.729 39.3076L19.729 39.3077C19.0061 40.1739 18.2651 41.0619 17.5667 41.9912C17.0486 42.7113 16.5655 43.4586 16.0824 44.2059C15.5994 44.9532 15.1163 45.7005 14.5982 46.4206C13.45 48.0238 13.03 49.763 13.142 51.6923C13.282 54.1651 12.2738 55.4151 9.78143 55.8499C4.6566 56.7467 0.0638595 53.051 0.035855 48.0238C0.035855 47.5329 0.0268269 47.042 0.0178312 46.5529C0.00441864 45.8236 -0.00892197 45.0982 0.0078402 44.3825C0.0549274 42.4635 0.913537 40.7942 1.76829 39.1324C1.93025 38.8175 2.09207 38.5029 2.2482 38.1869C2.65215 37.3741 3.05987 36.5626 3.46764 35.751L3.46769 35.7509L3.46794 35.7504L3.46796 35.7504C4.9824 32.7361 6.49736 29.7208 7.82111 26.638C9.76697 22.1199 12.6901 18.2341 15.6236 14.3344C16.2364 13.5197 16.8497 12.7044 17.4547 11.8826C17.4838 11.8473 17.5147 11.812 17.5461 11.7763C17.6356 11.6743 17.7285 11.5685 17.7907 11.4478C21.0672 5.65974 26.8922 4.30104 32.8852 3.15974C34.3631 2.88299 35.8289 2.53636 37.2939 2.18994L37.294 2.18993C38.9937 1.78802 40.6921 1.3864 42.4067 1.09451C45.5432 0.551031 48.7637 0.116249 51.9562 0.00755331C55.7369 -0.128316 58.9294 1.58364 61.7578 3.94777C57.4731 1.8282 52.8804 1.09452 48.1196 1.20321C46.9154 1.23039 45.7112 1.33908 44.507 1.47495C42.7708 1.66517 42.0427 2.91516 41.5666 4.35538C40.3344 8.02385 40.5864 11.638 41.9026 15.2793C42.2199 16.1541 42.4176 17.0773 42.6147 17.9969L42.6147 17.9971L42.6147 17.9972C42.7481 18.6199 42.8812 19.2411 43.0508 19.8445C43.2671 20.5967 43.4783 21.3514 43.6896 22.1064C44.4629 24.8701 45.2375 27.6386 46.2713 30.3065C46.6914 31.4206 48.0916 32.5075 49.2958 32.9423C54.0286 34.5999 58.8734 35.4967 63.8862 33.8391C70.1872 31.7467 73.4357 25.2249 71.0553 19.1652C70.2926 17.2455 69.3879 15.385 68.4793 13.5165L68.4792 13.5162L68.4775 13.5126C68.3191 13.187 68.1607 12.8612 68.0029 12.5347C67.8578 12.2331 67.5594 11.991 67.2666 11.7534C67.1636 11.6699 67.0614 11.5869 66.9667 11.5021C66.6045 11.1687 66.2269 10.8442 65.8482 10.5188C65.085 9.86299 64.3173 9.2033 63.6622 8.45865C62.738 7.39886 62.766 6.06734 63.5781 4.92604C64.3623 3.81191 65.6225 3.54017 66.9387 3.75756C68.983 4.08365 70.2992 5.30647 70.9713 7.12712C71.6154 8.89342 70.9993 10.4152 69.4031 11.7467C71.5034 13.4315 72.2035 15.8499 72.8196 18.2412C73.0529 19.1467 73.1782 20.0812 73.3038 21.0179C73.4497 22.1053 73.5959 23.1956 73.9118 24.2467C74.4394 25.9872 75.0724 27.7041 75.7061 29.4228C76.2498 30.8973 76.7939 32.3731 77.2724 33.8662C77.8937 35.7779 78.4658 37.7055 79.0376 39.6318L79.0377 39.6321L79.0378 39.6325L79.0379 39.6329C79.5226 41.2659 80.007 42.8979 80.5209 44.5184C80.8073 45.4217 81.1739 46.3029 81.5401 47.1831L81.5401 47.1832L81.5402 47.1833L81.5402 47.1834C81.7468 47.68 81.9533 48.1762 82.1451 48.676C82.7589 50.2565 84.1486 50.9681 85.5261 51.6735C85.7828 51.8049 86.0391 51.9362 86.2898 52.0728C87.578 52.7793 88.2501 53.7032 87.9141 55.1706C87.606 56.5564 86.6819 57.426 84.9736 57.3717C81.473 57.2358 78.0005 56.9097 74.5279 56.5565C73.9398 56.5021 73.3237 55.9043 72.9036 55.4151C70.5513 52.6706 68.2269 49.8988 65.9305 47.1271C64.3343 45.1978 63.1581 43.0782 62.542 40.6597C62.2801 39.6646 61.7462 38.7189 61.2185 37.7842L61.2184 37.784L61.2183 37.7838L61.2182 37.7836C61.0688 37.5189 60.9198 37.2551 60.7777 36.9912C60.6377 36.7195 60.2456 36.4749 59.9375 36.4206L59.7164 36.3781C57.9422 36.0358 56.1773 35.6954 54.6447 37.2086C54.2546 37.6142 53.6149 37.8315 53.0567 38.021L53.0484 38.0238C52.0683 38.3499 51.6202 38.9478 51.9843 39.8717C53.2761 43.2327 53.1786 46.6665 53.0808 50.1083C53.0323 51.8146 52.9838 53.5227 53.1044 55.2249C53.1542 55.877 53.2483 56.5291 53.3423 57.1813L53.3423 57.1814C53.4599 57.9967 53.5774 58.8119 53.6085 59.6271C53.6365 60.2521 53.3565 61.1488 52.9084 61.4749C49.1838 64.1923 45.0111 64.6543 40.7264 63.1597C38.5981 62.3988 37.1699 60.9043 36.8338 58.3499C36.1897 53.051 35.3216 47.7793 34.2014 42.5619C33.798 40.6047 32.8271 38.7357 31.8814 36.9151L31.8814 36.915L31.8813 36.9149L31.8813 36.9148C31.7766 36.7133 31.6722 36.5123 31.569 36.3119C28.8805 31.1217 28.1244 25.7412 29.0766 19.9804C29.8607 15.1978 30.9249 10.6326 34.2014 6.85538C34.8772 6.0839 35.68 5.42193 36.4795 4.7626L36.4796 4.76254L36.4796 4.7625C36.8066 4.49292 37.133 4.22378 37.4499 3.94777C37.4978 3.90794 37.549 3.86973 37.6007 3.83116L37.6008 3.8311C37.7608 3.71181 37.9254 3.58908 38.01 3.40429C33.6973 3.45864 29.8047 4.62712 25.968 6.36625C22.374 7.96561 20.3144 10.8179 18.2289 13.7059C17.7632 14.3509 17.2962 14.9976 16.8106 15.6325C16.6145 15.9043 16.6145 16.3663 16.6425 16.7467C17.0538 20.5508 18.5653 24.0163 20.0738 27.4747L20.1711 27.6978C20.4712 28.3577 20.6283 29.087 20.7855 29.8162C20.8484 30.1079 20.9112 30.3996 20.9832 30.6869C21.1513 31.4206 21.3193 32.1815 21.3753 32.9423C21.3867 33.097 21.3991 33.2527 21.4116 33.409C21.4911 34.4062 21.5728 35.4303 21.4033 36.3934C21.0673 38.1054 21.2073 38.6217 23.0276 38.8934C23.6102 38.9499 24.1976 39.0065 24.7876 39.0632L24.7964 39.0641L24.8017 39.0646L24.8019 39.0646L24.802 39.0646H24.8021C27.0435 39.2803 29.322 39.4996 31.5129 39.7358ZM45.0114 14.2202C43.3871 13.568 42.715 12.0191 42.491 10.1984C42.2389 8.21474 44.0872 5.74192 46.2436 5.00823C47.9519 4.43757 50.3603 5.36148 51.3124 6.99192C51.8725 7.97018 52.0965 8.75823 50.8643 9.60062C49.4701 10.5476 48.1751 11.6183 46.7777 12.7736L46.7776 12.7737C46.2103 13.2428 45.626 13.7258 45.0114 14.2202ZM50.332 22.5617C49.8279 24.7085 51.2561 26.4204 52.9924 26.2846C53.1496 25.7984 53.2999 25.3222 53.4481 24.8526L53.4482 24.8524L53.4485 24.8515C53.7227 23.9828 53.9898 23.1364 54.2806 22.29C54.3576 22.0783 54.464 21.8723 54.5702 21.6668L54.5702 21.6667L54.5702 21.6667L54.5702 21.6667C54.6957 21.4238 54.8209 21.1815 54.8967 20.9313C55.1207 20.1433 55.3728 19.1107 54.3366 18.8661C53.5805 18.7031 52.3763 18.9476 51.9002 19.4639C51.1441 20.2791 50.584 21.4476 50.332 22.5617ZM60.3287 19.5181C60.4537 19.3563 60.5688 19.1801 60.6822 19.0066C60.9495 18.5973 61.2068 18.2034 61.5609 18.0507C61.9249 17.8876 62.7091 18.2137 63.1011 18.5398C63.1873 18.6118 63.2738 18.6838 63.3606 18.7559L63.3613 18.7565C64.2892 19.5282 65.2358 20.3154 65.9016 21.2844C66.2656 21.855 66.1256 22.9148 65.8736 23.6213C65.6775 24.1376 64.9494 24.6811 64.3893 24.7898C64.0253 24.8442 63.4372 24.192 63.0731 23.7572C62.457 23.0235 61.9249 22.2626 61.3928 21.4474C61.1217 21.0904 60.9175 20.6813 60.6784 20.2023L60.6784 20.2023C60.5718 19.9887 60.4582 19.7611 60.3287 19.5181ZM61.7944 29.2853L61.8139 29.2737C61.8059 29.2274 61.7957 29.1788 61.7851 29.1286C61.7586 29.0025 61.7299 28.8664 61.7299 28.7303C61.5805 28.694 61.4312 28.6457 61.2818 28.5974C60.9831 28.5008 60.6844 28.4042 60.3857 28.4042C59.2375 28.4042 58.0893 28.4314 56.9691 28.5672C56.5211 28.6216 55.989 28.9205 55.7929 29.2466C55.6809 29.4368 56.045 30.0346 56.353 30.3063C56.5166 30.4651 56.7567 30.5218 57.0006 30.5795C57.1742 30.6205 57.3498 30.662 57.5012 30.7411C57.8093 30.9042 58.3694 31.2303 58.3414 31.3661C58.2293 31.7466 57.9493 32.127 57.6132 32.3987C57.4505 32.5391 57.2178 32.5888 56.9301 32.6503C56.7722 32.6841 56.5977 32.7214 56.409 32.7792C57.4961 32.71 58.5038 32.6408 59.5115 32.5717C60.0873 32.5322 60.6632 32.4926 61.2538 32.4531C60.9232 32.3105 60.5444 32.2673 60.1796 32.2257C59.4321 32.1404 58.7435 32.0618 58.6494 31.1487C59.7902 30.4738 60.7927 29.8793 61.7944 29.2853Z" fill="#20113D"/>
</svg>
