<svg width="54" height="40" viewBox="0 0 54 40" fill="none" xmlns="http://www.w3.org/2000/svg">
<path fill-rule="evenodd" clip-rule="evenodd" d="M19.0988 24.8349C16.9093 25.4972 14.7029 25.3953 12.4795 23.9178C12.3087 24.1326 12.1338 24.3488 11.957 24.5672C11.5189 25.1087 11.0697 25.6637 10.6465 26.2445C10.3325 26.6946 10.0397 27.1616 9.74694 27.6287C9.45417 28.0957 9.16139 28.5628 8.8474 29.0129C8.15153 30.0149 7.89694 31.1019 7.96483 32.3077C8.0497 33.8532 7.43869 34.6345 5.92814 34.9062C2.82218 35.4667 0.0387027 33.1569 0.0217303 30.0149C0.0217303 29.7081 0.0162587 29.4013 0.0108068 29.0956C0.00267797 28.6398 -0.00540726 28.1864 0.00475164 27.7391C0.0332892 26.5397 0.553656 25.4964 1.07169 24.4577C1.16985 24.2609 1.26792 24.0643 1.36255 23.8668C1.60742 23.3587 1.85459 22.8514 2.10179 22.344L2.10181 22.3439C3.01965 20.46 3.9378 18.5755 4.74007 16.6487C5.91937 13.825 7.69095 11.3963 9.46882 8.95899L9.4689 8.95888C9.84031 8.44972 10.212 7.94019 10.5786 7.42659C10.5962 7.40455 10.615 7.38251 10.634 7.36017L10.634 7.36016C10.6883 7.29644 10.7446 7.23031 10.7823 7.15486C12.768 3.53733 16.2983 2.68815 19.9304 1.97483C20.8261 1.80187 21.7145 1.58522 22.6024 1.36871L22.6024 1.3687C23.6325 1.11751 24.6619 0.866497 25.701 0.684068C27.602 0.344395 29.5538 0.0726556 31.4886 0.00472082C33.7799 -0.0801976 35.7148 0.989775 37.429 2.46736C34.8322 1.14263 32.0487 0.684072 29.1634 0.752007C28.4336 0.768991 27.7038 0.836926 26.974 0.921844C25.9217 1.04073 25.4804 1.82198 25.1919 2.72211C24.4451 5.01491 24.5978 7.27374 25.3955 9.54956C25.5878 10.0963 25.7076 10.6733 25.827 11.248L25.827 11.248L25.8271 11.248L25.8271 11.2481C25.9079 11.6373 25.9886 12.0256 26.0914 12.4028C26.2225 12.8729 26.3505 13.3446 26.4785 13.8165L26.4785 13.8165C26.9472 15.5438 27.4167 17.2741 28.0432 18.9415C28.2978 19.6379 29.1464 20.3172 29.8763 20.589C32.7446 21.625 35.6808 22.1854 38.7189 21.1494C42.5377 19.8417 44.5065 15.7656 43.0638 11.9782C42.6016 10.7784 42.0533 9.61556 41.5026 8.4477L41.5025 8.44757L41.5022 8.44698L41.5022 8.44689L41.5022 8.44681C41.406 8.24283 41.3097 8.03871 41.2139 7.83421C41.1259 7.64571 40.9451 7.4944 40.7676 7.34589C40.7052 7.29369 40.6433 7.24183 40.5859 7.18883C40.3664 6.98051 40.1377 6.7778 39.9083 6.57449L39.9082 6.57444L39.9081 6.57437L39.908 6.57425L39.9079 6.57421C39.4454 6.16433 38.9801 5.75204 38.5831 5.28665C38.023 4.62429 38.04 3.79209 38.5322 3.07877C39.0074 2.38244 39.7712 2.21261 40.5689 2.34848C41.8079 2.55228 42.6056 3.31654 43.0129 4.45445C43.4033 5.55839 43.0299 6.50948 42.0625 7.34168C43.3354 8.39466 43.7597 9.90622 44.1331 11.4008C44.2745 11.9667 44.3504 12.5508 44.4266 13.1362C44.5149 13.8158 44.6036 14.4972 44.795 15.1542C45.1148 16.2419 45.4984 17.315 45.8824 18.3891L45.8825 18.3893C46.212 19.3108 46.5418 20.2332 46.8317 21.1664C47.2083 22.3612 47.555 23.5659 47.9015 24.7698L47.9016 24.7701L47.9017 24.7704L47.9018 24.7707C48.1955 25.7913 48.4891 26.8112 48.8005 27.824C48.9742 28.3887 49.1963 28.9394 49.4183 29.4896C49.5435 29.8 49.6686 30.1101 49.7849 30.4225C50.1569 31.4103 50.9992 31.8551 51.834 32.2959L51.834 32.2959C51.9896 32.3781 52.1449 32.4601 52.2969 32.5455C53.0776 32.987 53.4849 33.5645 53.2813 34.4816C53.0946 35.3478 52.5345 35.8913 51.4992 35.8573C49.3776 35.7724 47.273 35.5686 45.1684 35.3478C44.812 35.3138 44.4386 34.9402 44.184 34.6345C42.7583 32.9191 41.3496 31.1868 39.9579 29.4544C38.9905 28.2486 38.2776 26.9239 37.9042 25.4123C37.7455 24.7904 37.422 24.1993 37.1021 23.6151C37.0115 23.4496 36.9212 23.2846 36.835 23.1195C36.7501 22.9497 36.5125 22.7968 36.3258 22.7629L36.1917 22.7363C35.1165 22.5224 34.0468 22.3096 33.118 23.2554C32.8815 23.5089 32.4938 23.6447 32.1556 23.7632L32.1506 23.7649C31.5565 23.9687 31.285 24.3423 31.5056 24.9198C32.2886 27.0204 32.2294 29.1666 32.1702 31.3177V31.3177C32.1408 32.3841 32.1114 33.4517 32.1845 34.5156C32.2147 34.9232 32.2717 35.3308 32.3287 35.7384C32.3999 36.2479 32.4712 36.7574 32.49 37.2669C32.507 37.6576 32.3373 38.218 32.0657 38.4218C29.8084 40.1202 27.2795 40.4089 24.6827 39.4748C23.3928 38.9993 22.5272 38.0652 22.3235 36.4687C21.9332 33.1569 21.407 29.8621 20.7281 26.6012C20.4836 25.378 19.8952 24.2098 19.3221 23.0719C19.2586 22.9459 19.1953 22.8202 19.1327 22.6949C17.5033 19.451 17.0451 16.0883 17.6222 12.4877C18.0974 9.4986 18.7423 6.64534 20.7281 4.28461C21.1377 3.80244 21.6242 3.38871 22.1088 2.97663C22.307 2.80812 22.5048 2.63988 22.6969 2.46736C22.726 2.44245 22.757 2.41856 22.7884 2.39444C22.8853 2.31988 22.9851 2.24317 23.0364 2.12768C20.4226 2.16165 18.0634 2.89195 15.7382 3.97891C13.56 4.97851 12.3117 6.76118 11.0478 8.5662L11.0478 8.56624C10.7656 8.96931 10.4825 9.37351 10.1882 9.77034C10.0694 9.94018 10.0694 10.2289 10.0864 10.4667C10.3356 12.8442 11.2517 15.0102 12.1659 17.1717L12.2249 17.3111C12.4068 17.7236 12.502 18.1794 12.5973 18.6352C12.6354 18.8175 12.6735 18.9998 12.7171 19.1793C12.819 19.6379 12.9208 20.1134 12.9547 20.589C12.9616 20.6856 12.9692 20.7829 12.9767 20.8806C13.0249 21.5039 13.0744 22.1439 12.9717 22.7459C12.768 23.8159 12.8529 24.1385 13.9561 24.3084C14.3119 24.344 14.6706 24.3796 15.0309 24.4153L15.0312 24.4154L15.0314 24.4154L15.0315 24.4154L15.0316 24.4154C16.39 24.5502 17.7709 24.6872 19.0988 24.8349ZM27.2798 8.88937C26.2954 8.48176 25.8881 7.51368 25.7523 6.37577C25.5995 5.13596 26.7197 3.59045 28.0266 3.13189C29.0619 2.77523 30.5215 3.35268 31.0986 4.3717C31.438 4.98311 31.5738 5.47564 30.827 6.00214C29.9821 6.59401 29.1972 7.26319 28.3503 7.98525C28.0064 8.27845 27.6523 8.58037 27.2798 8.88937ZM30.5042 14.1015C30.1987 15.4432 31.0643 16.5132 32.1166 16.4282C32.2119 16.1244 32.303 15.8268 32.3928 15.5333L32.3929 15.533C32.5591 14.99 32.7211 14.4608 32.8973 13.9316C32.944 13.7993 33.0085 13.6706 33.0728 13.5421L33.0729 13.5421C33.1489 13.3903 33.2248 13.2388 33.2707 13.0825C33.4065 12.5899 33.5593 11.9446 32.9313 11.7917C32.473 11.6898 31.7432 11.8427 31.4547 12.1653C30.9964 12.6749 30.657 13.4051 30.5042 14.1015ZM36.5625 12.1994C36.6383 12.0983 36.7081 11.9882 36.7767 11.8798C36.9388 11.624 37.0947 11.3777 37.3093 11.2823C37.5299 11.1804 38.0052 11.3842 38.2428 11.588C38.2951 11.6331 38.3477 11.6783 38.4005 11.7235C38.9628 12.2057 39.5366 12.6978 39.94 13.3034C40.1607 13.66 40.0758 14.3224 39.923 14.764C39.8042 15.0867 39.363 15.4263 39.0235 15.4943C38.8029 15.5282 38.4464 15.1206 38.2258 14.8489C37.8524 14.3903 37.5299 13.9148 37.2075 13.4053C37.0431 13.1821 36.9194 12.9265 36.7745 12.6271C36.7099 12.4936 36.641 12.3513 36.5625 12.1994ZM37.4543 18.3011L37.4624 18.2961C37.4576 18.2671 37.4514 18.2367 37.445 18.2053C37.4289 18.1265 37.4115 18.0415 37.4115 17.9564C37.321 17.9338 37.2305 17.9036 37.1399 17.8734C36.9589 17.813 36.7779 17.7526 36.5968 17.7526C35.901 17.7526 35.2051 17.7696 34.5262 17.8545C34.2546 17.8885 33.9322 18.0753 33.8133 18.2791C33.7455 18.398 33.9661 18.7716 34.1528 18.9415C34.2519 19.0407 34.3974 19.0761 34.5452 19.1122C34.6505 19.1378 34.7569 19.1638 34.8487 19.2132C35.0354 19.3151 35.3748 19.5189 35.3578 19.6038C35.29 19.8416 35.1202 20.0794 34.9166 20.2492C34.818 20.3369 34.6769 20.368 34.5026 20.4064C34.4068 20.4275 34.301 20.4509 34.1867 20.487C34.8456 20.4438 35.4563 20.4005 36.067 20.3573C36.416 20.3326 36.765 20.3079 37.123 20.2832C36.9226 20.1941 36.693 20.167 36.4719 20.141C36.0189 20.0877 35.6016 20.0386 35.5445 19.468C36.2373 19.0453 36.846 18.673 37.4543 18.3011Z" fill="#F58021"/>
</svg>
