<svg width="76" height="64" viewBox="0 0 76 64" fill="none" xmlns="http://www.w3.org/2000/svg">
<path fill-rule="evenodd" clip-rule="evenodd" d="M53.1232 28.2137L53.1246 28.2167C53.8215 29.6388 54.5185 31.061 55.2407 32.5461C55.0579 32.6891 54.8726 32.8368 54.6846 32.9867L54.6846 32.9868C54.2599 33.3254 53.8211 33.6753 53.3641 34.007C52.8562 34.3736 52.3525 34.7454 51.849 35.117L51.8488 35.1171L51.8487 35.1173C50.6053 36.035 49.3635 36.9516 48.0639 37.7852C43.385 40.7952 38.2243 42.0168 32.6705 41.5383C31.3138 41.4249 29.881 40.9589 29.3104 40.5685C29.64 38.3016 29.957 36.0976 30.274 33.8937C30.236 33.8811 30.1948 33.8716 30.1536 33.8622C30.1124 33.8527 30.0711 33.8433 30.0331 33.8307C29.9095 34.0798 29.787 34.329 29.6646 34.5778L29.6644 34.5782C29.3599 35.1972 29.0563 35.8143 28.7398 36.4251C27.9175 38.0388 27.3661 39.7525 26.8135 41.4701C26.6588 41.9508 26.5041 42.4318 26.3433 42.911C25.3289 45.8958 23.5157 48.1879 20.4344 49.3088C20.2823 49.3718 20.1555 49.6236 20.0921 49.8125C19.9678 50.2042 19.8574 50.6004 19.7471 50.9963C19.5984 51.5298 19.4498 52.0628 19.2679 52.5832C18.5705 54.5983 17.2645 56.16 15.502 57.3564C14.7158 57.8853 13.9297 58.4269 13.1815 59.0062C12.5349 59.4974 12.5602 59.7115 13.1942 60.2026C13.318 60.2986 13.4426 60.3932 13.5668 60.4875L13.5674 60.488L13.5675 60.488C13.9646 60.7895 14.3586 61.0886 14.7158 61.4243C15.2991 61.9784 15.5654 62.6837 15.3498 63.4897C15.2991 63.6786 15.0074 63.9305 14.8299 63.9305C10.6709 63.9557 6.49925 63.9557 2.34025 63.9431C2.18809 63.9431 1.97253 63.8927 1.88377 63.792C1.75638 63.6379 1.62597 63.4845 1.49517 63.3306L1.49509 63.3305C1.02704 62.7799 0.554105 62.2234 0.197346 61.6132C-0.0308922 61.2228 -0.0562523 60.5679 0.0959063 60.1271C1.56677 55.6814 3.45607 51.4624 7.01912 48.2257C7.17128 48.0872 7.26004 47.7849 7.27272 47.5708C7.36148 44.3719 7.74188 41.1982 8.56607 38.1127C9.27614 35.4427 10.0369 32.7728 11.381 30.3169C13.8536 25.8335 17.0489 22.093 21.956 20.078C26.1784 18.3526 30.2994 18.6171 34.3189 20.6573C34.8707 20.9399 35.3698 21.3273 35.8559 21.7048C36.0847 21.8824 36.3107 22.0578 36.5379 22.219C36.0814 21.2366 35.2826 20.4306 34.4204 19.6876C35.2323 19.3808 36.0473 19.0839 36.8608 18.7875L36.861 18.7874C40.4559 17.4777 44.0227 16.1783 47.1763 14.0832C47.3151 14.5628 47.4514 15.0473 47.5885 15.5344L47.5888 15.5355L47.589 15.5363C47.7649 16.1614 47.9421 16.791 48.1273 17.4206C48.178 17.5718 48.2795 17.7103 48.4063 17.8362C48.1527 16.2746 48.1527 14.7129 48.7486 13.2772C49.3065 11.917 49.9786 10.5443 50.8408 9.36044C52.9583 6.48899 55.507 3.99537 58.3473 1.8166C58.4614 1.72844 58.5755 1.64028 58.7023 1.55212C58.9059 1.42304 59.1077 1.28549 59.3099 1.14766L59.31 1.14762C60.2913 0.478635 61.2827 -0.197186 62.5443 0.0534309C64.6238 0.456441 66.361 1.53953 67.5529 3.31529C67.8952 3.81905 68.2883 4.17169 68.8336 4.3606C70.2537 4.85177 71.3188 5.69557 72.0035 7.06832C72.2517 7.56988 72.6097 8.01405 72.9683 8.45894L72.9684 8.45905C73.141 8.67322 73.3137 8.88757 73.4744 9.10856C73.8041 9.56194 73.8675 9.93977 73.4998 10.4687C73.1954 10.9095 73.0433 11.5014 72.9545 12.043C72.8404 12.6853 73.094 13.1009 73.7787 13.4535C75.5666 14.3603 76.6063 16.3879 75.6173 18.4408C75.4525 18.7808 75.3003 19.1208 75.1608 19.4735C74.5015 21.1611 73.2462 21.753 71.5217 21.1611C71.5044 21.1554 71.4869 21.1497 71.4692 21.1439C71.4577 21.1402 71.4461 21.1365 71.4346 21.1328C71.3466 21.1044 71.2586 21.0761 71.192 21.0477C70.875 21.4885 70.558 21.9167 70.2157 22.3701C70.167 22.3111 70.1253 22.268 70.0934 22.2352C70.0505 22.1909 70.0255 22.1651 70.0255 22.1434C70.1269 21.0603 69.4675 20.418 68.7321 19.7631C65.2959 16.6902 61.0861 17.2443 58.2078 19.0201C58.5314 18.9549 58.852 18.8838 59.1716 18.8129L59.1717 18.8128C59.7789 18.6781 60.3827 18.5441 60.9974 18.4534C64.6492 17.9496 67.8192 19.5742 69.5056 22.8235C70.6721 25.0652 71.4963 27.4077 71.2934 30.0021L71.2912 30.0325V30.0325C71.2538 30.5407 71.2132 31.0941 71.0018 31.5386C70.2664 33.1002 70.4946 34.6745 70.9004 36.2236L70.9752 36.5123C71.3559 37.9842 71.7468 39.4951 72.4727 40.7952C75.2749 45.795 75.5032 51.1979 75.3003 56.6763C75.2115 59.0314 74.4507 61.122 72.498 62.6459C71.4076 63.5023 70.241 64.0942 68.7828 63.9809C68.1108 63.9305 67.4261 63.9179 66.7541 63.9809C65.4861 64.1194 64.6112 63.4897 63.863 62.6081C63.0515 61.6636 62.6838 60.5679 62.9121 59.3337C62.9755 59.0062 63.2164 58.6032 63.4953 58.4521C63.8457 58.2672 64.1016 58.5237 64.3608 58.7837C64.4018 58.8248 64.4428 58.8659 64.4844 58.9055C64.8752 59.2811 65.3913 59.5571 65.8833 59.8202L65.8918 59.8248C66.3229 60.0515 66.5512 59.8626 66.6019 59.384C66.6526 58.8173 66.4751 58.3387 66.044 57.9735C63.6221 55.9207 62.1005 53.2381 60.7311 50.4548C59.6787 48.3013 59.0066 46.0469 58.7657 43.6541C58.5882 41.8531 58.9052 40.1025 59.2476 38.352C59.4124 37.5585 59.5772 36.7525 59.628 35.9339C59.7421 34.3093 59.1715 32.9365 57.764 32.0675C56.0269 30.997 54.4799 29.7124 53.2373 28.1004C53.25 28.1382 53.1866 28.176 53.1232 28.2137ZM56.8387 33.9314C57.5741 34.5233 57.8404 35.2034 57.6882 36.0472C57.5944 36.5928 57.4912 37.1369 57.3879 37.6811L57.3879 37.6814C57.198 38.682 57.0081 39.6829 56.8767 40.6944C56.4456 44.1074 57.2444 47.3315 58.5758 50.4422C58.8167 51.0089 58.8421 51.4623 58.5885 52.0291C57.4346 54.6234 56.1793 57.1548 54.5563 59.5099C52.4514 62.5577 49.5097 63.9682 45.8325 63.9682C45.6152 63.9682 45.3991 63.9716 45.1834 63.975H45.1834C44.6816 63.983 44.1824 63.9909 43.6769 63.9556C43.4233 63.943 43.1063 63.7793 42.9669 63.5778C41.7876 61.991 41.9905 58.7039 43.3473 57.2556C43.4994 57.0919 43.8418 56.9407 44.032 57.0037C44.1765 57.055 44.2791 57.2733 44.3738 57.4751C44.3954 57.521 44.4165 57.5662 44.4377 57.6082C44.49 57.7121 44.5281 57.8267 44.5659 57.9406C44.6289 58.1303 44.6913 58.3182 44.8181 58.452C45.0464 58.7165 45.4394 59.0943 45.693 59.0439C45.9593 58.9936 46.2256 58.5276 46.3397 58.2001C46.4538 57.8853 46.4158 57.4949 46.3524 57.1674C46.2605 56.7063 46.1452 56.2486 46.0302 55.7917C45.8279 54.9882 45.6263 54.1875 45.5536 53.3766C45.2112 49.7369 45.5409 46.1602 47.1259 42.7976C47.4936 42.0294 47.912 41.2485 48.4573 40.5937C49.0278 39.8884 49.7379 39.2713 50.4607 38.7171C51.2024 38.1383 51.9666 37.5909 52.7319 37.0428L52.7321 37.0427C53.2489 36.6725 53.7662 36.302 54.2773 35.9213C54.8474 35.4902 55.4118 35.0479 55.9858 34.598L55.9858 34.598C56.2672 34.3774 56.5509 34.1551 56.8387 33.9314ZM29.5873 42.8855C29.2615 42.7898 28.9342 42.6936 28.6008 42.5962C28.4879 42.8393 28.3784 43.0858 28.2685 43.3333C28.0824 43.7525 27.8952 44.1743 27.6879 44.5861C26.4326 47.1049 24.7842 49.2962 22.2355 50.7068C22.0326 50.8201 21.8932 51.1098 21.8171 51.3491C21.2084 53.3767 20.4476 55.3162 19.0402 56.9534C18.9387 57.0794 18.85 57.3061 18.888 57.4446C19.3318 58.8425 19.7883 60.2405 20.2828 61.6132C20.3716 61.8525 20.6378 62.0792 20.8788 62.2177C21.779 62.7215 22.6793 63.2127 23.6049 63.6786C23.9093 63.8298 24.2643 63.9683 24.594 63.9683C27.2753 63.9872 29.9495 63.9848 32.6273 63.9825C33.5205 63.9817 34.4141 63.9809 35.3085 63.9809H36.0946C36.0093 63.8073 35.9398 63.6379 35.8741 63.4776C35.7442 63.1612 35.6288 62.8801 35.4353 62.6711C34.9534 62.1548 34.4082 61.6636 33.8249 61.2732C33.2772 60.9072 32.6825 60.6034 32.0901 60.3007C31.9282 60.218 31.7665 60.1353 31.6059 60.0516C30.9719 59.7115 30.693 59.2078 30.7437 58.5025C30.7522 58.3346 30.7719 58.1667 30.7916 57.9987C30.8015 57.9148 30.8113 57.8308 30.8198 57.7468C30.8586 57.3656 30.9068 56.9831 30.9552 56.6002C31.0648 55.7309 31.1748 54.8593 31.1748 53.9938C31.1748 52.1929 30.3633 50.6438 29.2094 49.2836C31.2129 47.7975 31.6059 45.6943 31.7961 43.5282C31.0342 43.3107 30.3147 43.0992 29.5873 42.8855Z" fill="#20113D"/>
</svg>
