<svg 
width="120" 
height="38" 
viewbox="0 0 120 38" 
fill="none" 
xmlns="http://www.w3.org/2000/svg">
<path d="M0 0H120V33C120 35.7614 117.761 38 115 38H0V0Z" fill="#F58021"/>
<path d="M26.0201 12.4H28.3601V23.02H34.9481V25H26.0201V12.4ZM36.7955 12.4H39.1355V25H36.7955V12.4ZM53.9757 12.4L48.4857 25H46.1817L40.6737 12.4H43.2117L47.4057 22.12L51.6357 12.4H53.9757ZM64.7553 23.038V25H55.3053V12.4H64.5033V14.362H57.6453V17.638H63.7293V19.564H57.6453V23.038H64.7553Z" fill="white"/>
<path d="M86.0051 19.9923C86.6159 19.9923 87.2128 19.8162 87.7206 19.4863C88.2284 19.1563 88.6242 18.6874 88.8579 18.1388C89.0916 17.5901 89.1527 16.9864 89.0336 16.404C88.9145 15.8215 88.6204 15.2865 88.1885 14.8666C87.7567 14.4467 87.2065 14.1608 86.6075 14.0449C86.0086 13.929 85.3877 13.9885 84.8235 14.2158C84.2593 14.443 83.777 14.8279 83.4378 15.3216C83.0985 15.8154 82.9174 16.3959 82.9174 16.9897C82.9174 17.7861 83.2427 18.5498 83.8218 19.1129C84.4008 19.676 85.1862 19.9923 86.0051 19.9923ZM86.0051 15.9889C86.2087 15.9889 86.4077 16.0476 86.577 16.1576C86.7462 16.2675 86.8782 16.4239 86.9561 16.6067C87.034 16.7896 87.0543 16.9909 87.0146 17.185C86.9749 17.3791 86.8769 17.5575 86.7329 17.6975C86.589 17.8374 86.4056 17.9327 86.2059 17.9714C86.0063 18.01 85.7993 17.9902 85.6113 17.9144C85.4232 17.8387 85.2624 17.7104 85.1493 17.5458C85.0363 17.3812 84.9759 17.1877 84.9759 16.9897C84.9759 16.7243 85.0843 16.4697 85.2773 16.282C85.4704 16.0943 85.7322 15.9889 86.0051 15.9889V15.9889ZM95.8758 25.1567C95.3732 23.5358 94.456 22.0654 93.21 20.883C93.9035 19.6641 94.2581 18.2902 94.2385 16.8973C94.2189 15.5043 93.8258 14.1404 93.0982 12.9403C92.3706 11.7403 91.3336 10.7456 90.0896 10.0545C88.8457 9.36348 87.4378 9 86.0051 9C84.5725 9 83.1646 9.36348 81.9207 10.0545C80.6767 10.7456 79.6397 11.7403 78.9121 12.9403C78.1845 14.1404 77.7914 15.5043 77.7718 16.8973C77.7522 18.2902 78.1067 19.6641 78.8003 20.883C77.547 22.0615 76.6256 23.533 76.1242 25.1567C75.9903 25.6019 75.9642 26.0713 76.0482 26.528C76.1321 26.9847 76.3237 27.4163 76.608 27.7889C76.8976 28.1677 77.2751 28.4748 77.7096 28.6852C78.1442 28.8956 78.6237 29.0035 79.1091 28.9999H92.9012C93.3849 29.0019 93.8623 28.8933 94.295 28.683C94.7276 28.4726 95.1034 28.1664 95.392 27.7889C95.6763 27.4163 95.8679 26.9847 95.9518 26.528C96.0358 26.0713 96.0097 25.6019 95.8758 25.1567ZM86.0051 10.9847C87.2266 10.9847 88.4205 11.3369 89.4361 11.9967C90.4517 12.6565 91.2432 13.5944 91.7106 14.6917C92.178 15.789 92.3003 16.9964 92.062 18.1613C91.8238 19.3262 91.2356 20.3962 90.3719 21.236C89.5083 22.0758 88.4079 22.6477 87.2099 22.8794C86.012 23.1112 84.7703 22.9922 83.6419 22.5377C82.5134 22.0832 81.5489 21.3135 80.8704 20.326C80.1918 19.3385 79.8296 18.1774 79.8296 16.9897C79.8296 15.3971 80.4802 13.8697 81.6384 12.7435C82.7965 11.6173 84.3673 10.9847 86.0051 10.9847V10.9847ZM93.7452 26.5879C93.6483 26.7168 93.5212 26.8213 93.3744 26.8926C93.2276 26.964 93.0653 27.0002 92.9012 26.9982H79.1091C78.945 27.0002 78.7827 26.964 78.6359 26.8926C78.4891 26.8213 78.3619 26.7168 78.2651 26.5879C78.1726 26.4639 78.1105 26.3209 78.0837 26.17C78.057 26.019 78.0662 25.8641 78.1107 25.7171C78.4802 24.5074 79.1439 23.4019 80.0457 22.4944C80.8147 23.2786 81.7394 23.9029 82.7637 24.3295C83.7881 24.7561 84.8908 24.976 86.0051 24.976C87.1195 24.976 88.2222 24.7561 89.2466 24.3295C90.2709 23.9029 91.1956 23.2786 91.9646 22.4944C92.8664 23.4019 93.5301 24.5074 93.8996 25.7171C93.9441 25.8641 93.9533 26.019 93.9265 26.17C93.8998 26.3209 93.8377 26.4639 93.7452 26.5879Z" fill="white"/>
</svg>
