<svg width="160" height="202" viewBox="0 0 160 202" fill="none" xmlns="http://www.w3.org/2000/svg">
<g filter="url(#filter0_d)">
<path d="M79.6123 34.4434C57.3304 34.4434 39.3022 51.4491 39.3022 72.4049C39.3022 93.3608 79.6123 153.416 79.6123 153.416C79.6123 153.416 119.922 93.3608 119.922 72.4049C119.922 51.4491 101.894 34.4434 79.6123 34.4434Z" fill="white"/>
<path fill-rule="evenodd" clip-rule="evenodd" d="M71.2527 76.1279C68.8342 76.8396 66.3968 76.7301 63.9408 75.1423C63.7522 75.3731 63.5589 75.6055 63.3637 75.8402L63.3636 75.8402L63.3636 75.8403L63.3634 75.8404C62.8795 76.4222 62.3834 77.0185 61.9159 77.6427C61.5691 78.1263 61.2456 78.6282 60.9222 79.1301C60.5988 79.632 60.2754 80.1339 59.9286 80.6175C59.1599 81.6943 58.8786 82.8623 58.9536 84.1581C59.0474 85.8189 58.3724 86.6584 56.7038 86.9504C53.2728 87.5527 50.198 85.0706 50.1793 81.6943C50.1793 81.3646 50.1732 81.0349 50.1672 80.7064C50.1582 80.2166 50.1493 79.7294 50.1605 79.2487C50.192 77.9599 50.7669 76.8387 51.3391 75.7226L51.3391 75.7225C51.4476 75.5111 51.5559 75.2998 51.6604 75.0876C51.9308 74.5418 52.2038 73.9968 52.4767 73.4518L52.4768 73.4516L52.4768 73.4516L52.477 73.4512C53.4909 71.4267 54.5052 69.4015 55.3914 67.3311C56.6941 64.2967 58.6511 61.6868 60.615 59.0677L60.6152 59.0675L60.6153 59.0673L60.6154 59.0672C61.0256 58.5202 61.4361 57.9728 61.8409 57.421C61.8604 57.3973 61.8811 57.3736 61.9021 57.3496L61.9021 57.3496C61.9621 57.2812 62.0243 57.2101 62.0659 57.129C64.2595 53.2416 68.1592 52.3291 72.1714 51.5626C73.1609 51.3767 74.1423 51.1439 75.1231 50.9112C76.261 50.6413 77.398 50.3716 78.546 50.1755C80.6458 49.8105 82.8019 49.5185 84.9392 49.4455C87.4703 49.3542 89.6076 50.504 91.5013 52.0918C88.6327 50.6683 85.5579 50.1755 82.3707 50.2485C81.5645 50.2668 80.7583 50.3398 79.9521 50.431C78.7897 50.5588 78.3022 51.3983 77.9835 52.3656C77.1586 54.8294 77.3273 57.2568 78.2085 59.7023C78.4209 60.2899 78.5533 60.9099 78.6852 61.5275L78.6852 61.5275L78.6852 61.5275L78.6852 61.5276L78.6852 61.5276C78.7745 61.9459 78.8636 62.3631 78.9772 62.7684C79.122 63.2735 79.2633 63.7803 79.4047 64.2873L79.4048 64.2874L79.4048 64.2875L79.4048 64.2876L79.4048 64.2876C79.9225 66.1437 80.4412 68.0031 81.1333 69.7949C81.4145 70.5432 82.3519 71.2732 83.1581 71.5652C86.3266 72.6785 89.5701 73.2808 92.9262 72.1675C97.1446 70.7622 99.3194 66.382 97.7258 62.3122C97.2151 61.0228 96.6094 59.7732 96.0011 58.5182L96.0008 58.5175L96.0007 58.5174L96.0006 58.5172C95.8944 58.2981 95.7881 58.0788 95.6822 57.859C95.5851 57.6565 95.3853 57.4939 95.1893 57.3343L95.1892 57.3342L95.1892 57.3342L95.1892 57.3342C95.1203 57.2781 95.0519 57.2224 94.9885 57.1655C94.746 56.9416 94.4933 56.7237 94.2398 56.5052L94.2397 56.5051L94.2397 56.5051L94.2397 56.5051C93.7287 56.0646 93.2148 55.6216 92.7762 55.1214C92.1575 54.4097 92.1762 53.5154 92.7199 52.7489C93.2449 52.0006 94.0886 51.8181 94.9697 51.9641C96.3384 52.1831 97.2196 53.0044 97.6696 54.2272C98.1008 55.4134 97.6883 56.4355 96.6196 57.3298C98.0258 58.4613 98.4945 60.0856 98.907 61.6916C99.0631 62.2998 99.147 62.9274 99.2311 63.5565L99.2311 63.5566L99.2312 63.5566L99.2312 63.5567C99.3288 64.2869 99.4267 65.0191 99.6382 65.725C99.9914 66.894 100.415 68.0471 100.839 69.2014C101.203 70.1917 101.568 71.1829 101.888 72.1857C102.304 73.4696 102.687 74.7641 103.07 76.0577L103.07 76.0578L103.07 76.0579L103.07 76.058C103.394 77.1549 103.719 78.2513 104.063 79.34C104.255 79.9467 104.5 80.5385 104.745 81.1297L104.745 81.1298L104.745 81.1299C104.884 81.4634 105.022 81.7967 105.15 82.1323C105.561 83.1938 106.492 83.6717 107.414 84.1455L107.414 84.1456C107.586 84.2338 107.757 84.3219 107.925 84.4136C108.787 84.8881 109.237 85.5087 109.012 86.4942C108.806 87.425 108.188 88.009 107.044 87.9725C104.7 87.8812 102.375 87.6622 100.051 87.425C99.6569 87.3885 99.2444 86.9869 98.9632 86.6584C97.3883 84.8151 95.8322 82.9536 94.2948 81.092C93.2261 79.7962 92.4387 78.3727 92.0262 76.7484C91.8509 76.08 91.4935 75.4449 91.1402 74.8171C91.0401 74.6392 90.9403 74.4619 90.845 74.2845C90.7513 74.102 90.4888 73.9378 90.2826 73.9013L90.1345 73.8727C88.9467 73.6429 87.7652 73.4142 86.7391 74.4306C86.4779 74.703 86.0496 74.8489 85.676 74.9762L85.6704 74.9781C85.0142 75.1971 84.7143 75.5986 84.958 76.2191C85.8229 78.4764 85.7576 80.7827 85.6921 83.0942V83.0943C85.6596 84.2402 85.6272 85.3875 85.7079 86.5307C85.7413 86.9687 85.8042 87.4067 85.8672 87.8447C85.9459 88.3922 86.0246 88.9398 86.0454 89.4873C86.0642 89.907 85.8767 90.5093 85.5767 90.7283C83.0831 92.5534 80.2896 92.8636 77.421 91.8599C75.9961 91.3488 75.04 90.3451 74.815 88.6295C74.3838 85.0706 73.8026 81.53 73.0526 78.0259C72.7825 76.7115 72.1326 75.4562 71.4994 74.2334C71.4293 74.098 71.3594 73.963 71.2902 73.8283C69.4904 70.3424 68.9842 66.7288 69.6216 62.8597C70.1466 59.6476 70.859 56.5815 73.0526 54.0447C73.505 53.5265 74.0425 53.0819 74.5778 52.6391L74.5779 52.639L74.5779 52.639L74.5779 52.639C74.7968 52.4579 75.0153 52.2772 75.2274 52.0918C75.2595 52.0651 75.2938 52.0394 75.3285 52.0135L75.3285 52.0135C75.4356 51.9334 75.5458 51.8509 75.6024 51.7268C72.7151 51.7633 70.1091 52.5481 67.5405 53.7161C65.1343 54.7903 63.7554 56.706 62.3593 58.6456C62.0475 59.0788 61.7348 59.5131 61.4097 59.9396C61.2785 60.1221 61.2785 60.4324 61.2972 60.6879C61.5725 63.2428 62.5845 65.5703 63.5944 67.893L63.6595 68.0428C63.8604 68.4861 63.9656 68.9759 64.0709 69.4656L64.0709 69.4657C64.113 69.6616 64.155 69.8575 64.2033 70.0504C64.3157 70.5432 64.4282 71.0542 64.4657 71.5652C64.4734 71.6691 64.4817 71.7736 64.49 71.8786L64.49 71.8787V71.8787C64.5433 72.5484 64.5979 73.2362 64.4845 73.883C64.2595 75.0328 64.3532 75.3796 65.5719 75.5621C65.9651 75.6004 66.3615 75.6386 66.7597 75.6771C68.2604 75.8219 69.7858 75.9692 71.2527 76.1279ZM80.2896 58.9909C79.2022 58.5529 78.7522 57.5126 78.6023 56.2898C78.4335 54.9575 79.6709 53.2967 81.1146 52.804C82.2582 52.4207 83.8706 53.0412 84.5081 54.1363C84.883 54.7933 85.033 55.3226 84.2081 55.8883C83.2747 56.5243 82.4077 57.2434 81.4723 58.0193L81.4722 58.0193L81.4722 58.0193L81.4722 58.0194L81.4721 58.0194C81.0923 58.3345 80.7011 58.6589 80.2896 58.9909ZM83.8518 64.5933C83.5144 66.0351 84.4705 67.1848 85.633 67.0936C85.7382 66.767 85.8388 66.4472 85.9381 66.1318L85.9381 66.1317C86.1218 65.5481 86.3007 64.9794 86.4954 64.4108C86.547 64.2685 86.6182 64.1302 86.6893 63.9921C86.7733 63.829 86.8571 63.6663 86.9079 63.4982C87.0579 62.969 87.2266 62.2754 86.5329 62.1112C86.0267 62.0017 85.2205 62.1659 84.9018 62.5127C84.3956 63.0602 84.0206 63.845 83.8518 64.5933ZM90.545 62.5492C90.6287 62.4405 90.7058 62.3221 90.7817 62.2056C90.9607 61.9307 91.133 61.6662 91.37 61.5636C91.6137 61.4541 92.1387 61.6731 92.4011 61.8921C92.4589 61.9406 92.517 61.989 92.5752 62.0375L92.5753 62.0377C93.1966 62.5559 93.8303 63.0847 94.276 63.7354C94.5197 64.1187 94.426 64.8305 94.2573 65.305C94.126 65.6517 93.6385 66.0168 93.2636 66.0898C93.0198 66.1263 92.6261 65.6882 92.3824 65.3962C91.9699 64.9035 91.6137 64.3925 91.2575 63.8449C91.076 63.6051 90.9393 63.3304 90.7792 63.0087C90.7078 62.8652 90.6318 62.7124 90.545 62.5492ZM91.5268 69.1083L91.5387 69.1012C91.5334 69.07 91.5266 69.0374 91.5195 69.0037C91.5017 68.919 91.4825 68.8276 91.4825 68.7362C91.3825 68.7119 91.2825 68.6794 91.1825 68.647C90.9825 68.5821 90.7826 68.5172 90.5826 68.5172C89.8139 68.5172 89.0452 68.5354 88.2952 68.6267C87.9953 68.6632 87.639 68.864 87.5078 69.083C87.4328 69.2107 87.6765 69.6122 87.8828 69.7947C87.9923 69.9013 88.153 69.9394 88.3163 69.9782C88.4325 70.0057 88.5501 70.0336 88.6515 70.0867C88.8577 70.1962 89.2327 70.4152 89.2139 70.5065C89.1389 70.762 88.9514 71.0175 88.7265 71.2C88.6175 71.2943 88.4617 71.3277 88.2691 71.369C88.1634 71.3917 88.0465 71.4167 87.9203 71.4555C88.6481 71.4091 89.3228 71.3626 89.9975 71.3162C90.3829 71.2896 90.7684 71.2631 91.1638 71.2365C90.9424 71.1408 90.6888 71.1117 90.4446 71.0838C89.9441 71.0265 89.4832 70.9738 89.4202 70.3605C90.1843 69.9069 90.8558 69.5075 91.5268 69.1083Z" fill="#20113D"/>
<g filter="url(#filter1_d)">
<path d="M80.0001 28.3027C53.6474 28.3027 32.3257 47.9416 32.3257 72.1422C32.3257 96.3428 80.0001 165.697 80.0001 165.697C80.0001 165.697 127.675 96.3428 127.675 72.1422C127.675 47.9416 106.353 28.3027 80.0001 28.3027Z" stroke="white" stroke-width="3" stroke-miterlimit="10" stroke-linejoin="round"/>
</g>
</g>
<defs>
<filter id="filter0_d" x="0" y="0" width="160" height="202" filterUnits="userSpaceOnUse" color-interpolation-filters="sRGB">
<feFlood flood-opacity="0" result="BackgroundImageFix"/>
<!-- <feColorMatrix in="SourceAlpha" type="matrix" values="0 0 0 0 0 0 0 0 0 0 0 0 0 0 0 0 0 0 127 0"/> -->
<feOffset dy="4"/>
<feGaussianBlur stdDeviation="15"/>
<feColorMatrix type="matrix" values="0 0 0 0 1 0 0 0 0 1 0 0 0 0 1 0 0 0 0.5 0"/>
<feBlend mode="normal" in2="BackgroundImageFix" result="effect1_dropShadow"/>
<feBlend mode="normal" in="SourceGraphic" in2="effect1_dropShadow" result="shape"/>
</filter>
<filter id="filter1_d" x="0.825684" y="0.802734" width="158.349" height="200.395" filterUnits="userSpaceOnUse" color-interpolation-filters="sRGB">
<feFlood flood-opacity="0" result="BackgroundImageFix"/>
<feColorMatrix in="SourceAlpha" type="matrix" values="0 0 0 0 0 0 0 0 0 0 0 0 0 0 0 0 0 0 127 0"/>
<feOffset dy="4"/>
<feGaussianBlur stdDeviation="15"/>
<feColorMatrix type="matrix" values="0 0 0 0 0 0 0 0 0 0 0 0 0 0 0 0 0 0 0.5 0"/>
<feBlend mode="normal" in2="BackgroundImageFix" result="effect1_dropShadow"/>
<feBlend mode="normal" in="SourceGraphic" in2="effect1_dropShadow" result="shape"/>
</filter>
</defs>
</svg>
