<svg width="160" height="202" viewBox="0 0 160 202" fill="none" xmlns="http://www.w3.org/2000/svg">
<g filter="url(#filter0_d)">
<path d="M79.6123 34.4434C57.3304 34.4434 39.3022 51.4491 39.3022 72.4049C39.3022 93.3608 79.6123 153.416 79.6123 153.416C79.6123 153.416 119.922 93.3608 119.922 72.4049C119.922 51.4491 101.894 34.4434 79.6123 34.4434Z" fill="white"/>
<path fill-rule="evenodd" clip-rule="evenodd" d="M90.8261 68.5617L90.8279 68.5654C91.3307 69.5883 91.8335 70.6112 92.3546 71.6793C92.2226 71.7822 92.0889 71.8885 91.9532 71.9964C91.6466 72.2401 91.3299 72.4918 91 72.7305C90.6333 72.9944 90.2697 73.2619 89.9063 73.5294C89.0087 74.1898 88.1123 74.8494 87.1742 75.4493C83.7969 77.6153 80.0717 78.4944 76.0629 78.15C75.0835 78.0684 74.0493 77.7331 73.6374 77.4522C73.875 75.8233 74.1035 74.2397 74.332 72.6561L74.332 72.6559L74.333 72.649C74.3056 72.6399 74.2758 72.6331 74.2461 72.6263C74.2163 72.6195 74.1866 72.6127 74.1591 72.6037C74.07 72.7828 73.9816 72.9619 73.8933 73.1408L73.8931 73.1412C73.6733 73.5867 73.4541 74.0309 73.2256 74.4706C72.632 75.6318 72.234 76.865 71.8351 78.1009L71.8351 78.1009L71.8351 78.1011C71.7235 78.447 71.6118 78.793 71.4957 79.1378C70.7635 81.2856 69.4547 82.935 67.2306 83.7416C67.1207 83.7869 67.0292 83.9682 66.9834 84.1041C66.8938 84.3859 66.8141 84.6711 66.7344 84.956C66.6271 85.3399 66.5199 85.7234 66.3885 86.0979C65.8851 87.5479 64.9424 88.6717 63.6702 89.5326C63.1027 89.9133 62.5352 90.3029 61.9952 90.7198C61.5285 91.0733 61.5468 91.2273 62.0044 91.5808C62.0939 91.65 62.184 91.7181 62.2738 91.7861C62.5605 92.0031 62.8449 92.2183 63.1027 92.4599C63.5237 92.8586 63.7159 93.3661 63.5603 93.9461C63.5237 94.0821 63.3132 94.2633 63.1851 94.2633C60.183 94.2814 57.1718 94.2814 54.1697 94.2724C54.0599 94.2724 53.9043 94.2361 53.8402 94.1636C53.7482 94.0528 53.6541 93.9423 53.5597 93.8316C53.2218 93.4353 52.8804 93.0349 52.6229 92.5958C52.4582 92.3149 52.4399 91.8436 52.5497 91.5264C53.6114 88.3273 54.9752 85.2913 57.547 82.9622C57.6569 82.8625 57.7209 82.645 57.7301 82.491C57.7942 80.1891 58.0688 77.9053 58.6637 75.685C59.1762 73.7637 59.7254 71.8424 60.6956 70.0752C62.4803 66.8489 64.7868 64.1573 68.3289 62.7073C71.3767 61.4657 74.3513 61.656 77.2527 63.1242C77.651 63.3275 78.0113 63.6063 78.3622 63.8779C78.5273 64.0057 78.6904 64.1319 78.8544 64.2479C78.5249 63.541 77.9483 62.961 77.3259 62.4263C77.9121 62.2056 78.5004 61.9919 79.0876 61.7786C81.6825 60.8362 84.2571 59.9011 86.5335 58.3935C86.6337 58.7387 86.7321 59.0874 86.8311 59.438L86.8313 59.4386L86.8313 59.4386C86.9583 59.8886 87.0863 60.3418 87.22 60.7951C87.2566 60.9038 87.3298 61.0035 87.4213 61.0941C87.2383 59.9704 87.2383 58.8466 87.6685 57.8135C88.0712 56.8347 88.5563 55.8469 89.1786 54.995C90.7071 52.9287 92.5468 51.1343 94.597 49.5665L94.5971 49.5664C94.6795 49.503 94.7618 49.4396 94.8533 49.3762C95.0003 49.2833 95.1459 49.1843 95.2918 49.0851L95.2919 49.0851C96.0003 48.6037 96.7159 48.1174 97.6265 48.2977C99.1276 48.5877 100.382 49.3671 101.242 50.6449C101.489 51.0074 101.773 51.2612 102.166 51.3971C103.191 51.7506 103.96 52.3578 104.454 53.3456C104.634 53.7065 104.892 54.0262 105.151 54.3463C105.275 54.5004 105.4 54.6547 105.516 54.8137C105.754 55.14 105.8 55.4119 105.534 55.7925C105.315 56.1097 105.205 56.5356 105.141 56.9253C105.059 57.3875 105.242 57.6866 105.736 57.9403C107.026 58.5929 107.777 60.0519 107.063 61.5291C106.944 61.7738 106.834 62.0185 106.733 62.2723C106.258 63.4867 105.351 63.9126 104.107 63.4867C104.086 63.4799 104.065 63.4731 104.044 63.4663C103.98 63.4459 103.917 63.4255 103.869 63.4051C103.64 63.7223 103.411 64.0304 103.164 64.3567C103.129 64.3142 103.099 64.2832 103.076 64.2596C103.045 64.2277 103.027 64.2092 103.027 64.1936C103.1 63.4142 102.624 62.952 102.093 62.4807C99.6127 60.2694 96.574 60.6682 94.4963 61.946C94.7299 61.8991 94.9613 61.848 95.192 61.7969L95.1921 61.7969C95.6304 61.6999 96.0662 61.6035 96.5099 61.5382C99.1459 61.1757 101.434 62.3448 102.651 64.6829C103.493 66.2961 104.088 67.9817 103.942 69.8486L103.94 69.8705V69.8705C103.913 70.2361 103.884 70.6344 103.731 70.9543C103.201 72.078 103.365 73.2109 103.658 74.3256L103.712 74.5333C103.987 75.5924 104.269 76.6797 104.793 77.6153C106.816 81.2131 106.981 85.101 106.834 89.0432C106.77 90.738 106.221 92.2424 104.811 93.3389C104.024 93.9552 103.182 94.3811 102.13 94.2996C101.645 94.2633 101.15 94.2543 100.665 94.2996C99.75 94.3993 99.1184 93.9461 98.5784 93.3117C97.9927 92.632 97.7272 91.8436 97.892 90.9555C97.9377 90.7198 98.1116 90.4298 98.313 90.3211C98.5659 90.188 98.7506 90.3726 98.9378 90.5597C98.9673 90.5893 98.9969 90.6189 99.0269 90.6473C99.309 90.9176 99.6816 91.1163 100.037 91.3056L100.043 91.3089C100.354 91.472 100.519 91.3361 100.555 90.9917C100.592 90.5839 100.464 90.2395 100.153 89.9767C98.4045 88.4995 97.3062 86.5692 96.3177 84.5663C95.558 83.0166 95.073 81.3944 94.8991 79.6725C94.7709 78.3766 94.9997 77.1168 95.2469 75.8571C95.3658 75.2862 95.4848 74.7062 95.5214 74.1171C95.6038 72.948 95.1919 71.9602 94.176 71.3349C92.9221 70.5646 91.8055 69.6402 90.9085 68.4802C90.9177 68.5074 90.8719 68.5345 90.8261 68.5617ZM93.5078 72.676C94.0387 73.102 94.2309 73.5914 94.121 74.1986C94.0533 74.5912 93.9788 74.9828 93.9043 75.3744L93.9042 75.3745C93.7672 76.0946 93.6301 76.8148 93.5353 77.5427C93.2241 79.9986 93.8007 82.3187 94.7617 84.5571C94.9356 84.9649 94.9539 85.2912 94.7709 85.699C93.938 87.5659 93.0319 89.3875 91.8603 91.0822C90.341 93.2754 88.2176 94.2904 85.5633 94.2904C85.4065 94.2904 85.2504 94.2928 85.0948 94.2953H85.0947C84.7326 94.301 84.3722 94.3067 84.0073 94.2813C83.8243 94.2723 83.5955 94.1544 83.4948 94.0094C82.6436 92.8676 82.79 90.5022 83.7694 89.46C83.8792 89.3422 84.1263 89.2334 84.2636 89.2788C84.368 89.3157 84.442 89.4728 84.5104 89.618C84.5259 89.651 84.5412 89.6835 84.5565 89.7138C84.5943 89.7885 84.6217 89.871 84.649 89.9529C84.6945 90.0895 84.7396 90.2247 84.8311 90.321C84.9958 90.5113 85.2796 90.7832 85.4626 90.7469C85.6548 90.7106 85.847 90.3753 85.9294 90.1397C86.0118 89.9131 85.9843 89.6322 85.9386 89.3966C85.8722 89.0648 85.789 88.7353 85.706 88.4066C85.56 87.8284 85.4145 87.2522 85.3619 86.6687C85.1148 84.0496 85.3528 81.4758 86.4969 79.0561C86.7623 78.5033 87.0643 77.9414 87.4579 77.4702C87.8698 76.9627 88.3823 76.5186 88.904 76.1198C89.4394 75.7033 89.991 75.3094 90.5434 74.915C90.9165 74.6486 91.29 74.3819 91.659 74.1079C92.0705 73.7978 92.4778 73.4795 92.8922 73.1557C93.0953 72.997 93.3 72.837 93.5078 72.676ZM73.8366 79.1194C73.6016 79.0505 73.3654 78.9814 73.1249 78.9113C73.0433 79.0862 72.9643 79.2636 72.885 79.4417C72.7507 79.7434 72.6155 80.0469 72.4659 80.3432C71.5598 82.1557 70.3699 83.7326 68.5302 84.7476C68.3838 84.8292 68.2831 85.0376 68.2282 85.2098C67.7889 86.6689 67.2397 88.0645 66.2238 89.2427C66.1505 89.3333 66.0865 89.4964 66.1139 89.5961C66.4343 90.6021 66.7638 91.608 67.1207 92.5959C67.1848 92.768 67.377 92.9312 67.5509 93.0309C68.2007 93.3934 68.8506 93.7468 69.5187 94.0821C69.7384 94.1909 69.9947 94.2906 70.2326 94.2906C72.168 94.3042 74.0982 94.3025 76.031 94.3008C76.6758 94.3002 77.3209 94.2996 77.9666 94.2996H78.5341C78.4725 94.1747 78.4224 94.0528 78.3749 93.9375C78.2812 93.7098 78.1979 93.5075 78.0582 93.3571C77.7104 92.9856 77.3168 92.6321 76.8958 92.3512C76.5004 92.0878 76.0712 91.8692 75.6435 91.6514C75.5267 91.5919 75.4099 91.5324 75.294 91.4721C74.8364 91.2274 74.6351 90.8649 74.6717 90.3574C74.6778 90.2366 74.692 90.1157 74.7062 89.9949C74.7134 89.9345 74.7205 89.8741 74.7266 89.8136C74.7546 89.5392 74.7894 89.264 74.8243 88.9885C74.9035 88.363 74.9829 87.7358 74.9829 87.113C74.9829 85.817 74.3971 84.7023 73.5642 83.7236C75.0103 82.6542 75.294 81.1407 75.4313 79.5819C74.8813 79.4254 74.3618 79.2732 73.8366 79.1194Z" fill="#20113D"/>
<g filter="url(#filter1_d)">
<path d="M80.0001 28.3027C53.6474 28.3027 32.3257 47.9416 32.3257 72.1422C32.3257 96.3428 80.0001 165.697 80.0001 165.697C80.0001 165.697 127.675 96.3428 127.675 72.1422C127.675 47.9416 106.353 28.3027 80.0001 28.3027Z" stroke="white" stroke-width="3" stroke-miterlimit="10" stroke-linejoin="round"/>
</g>
</g>
<defs>
<filter id="filter0_d" x="0" y="0" width="160" height="202" filterUnits="userSpaceOnUse" color-interpolation-filters="sRGB">
<feFlood flood-opacity="0" result="BackgroundImageFix"/>
<!-- <feColorMatrix in="SourceAlpha" type="matrix" values="0 0 0 0 0 0 0 0 0 0 0 0 0 0 0 0 0 0 127 0"/> -->
<feOffset dy="4"/>
<feGaussianBlur stdDeviation="15"/>
<feColorMatrix type="matrix" values="0 0 0 0 1 0 0 0 0 1 0 0 0 0 1 0 0 0 0.5 0"/>
<feBlend mode="normal" in2="BackgroundImageFix" result="effect1_dropShadow"/>
<feBlend mode="normal" in="SourceGraphic" in2="effect1_dropShadow" result="shape"/>
</filter>
<filter id="filter1_d" x="0.825684" y="0.802734" width="158.349" height="200.395" filterUnits="userSpaceOnUse" color-interpolation-filters="sRGB">
<feFlood flood-opacity="0" result="BackgroundImageFix"/>
<feColorMatrix in="SourceAlpha" type="matrix" values="0 0 0 0 0 0 0 0 0 0 0 0 0 0 0 0 0 0 127 0"/>
<feOffset dy="4"/>
<feGaussianBlur stdDeviation="15"/>
<feColorMatrix type="matrix" values="0 0 0 0 0 0 0 0 0 0 0 0 0 0 0 0 0 0 0.5 0"/>
<feBlend mode="normal" in2="BackgroundImageFix" result="effect1_dropShadow"/>
<feBlend mode="normal" in="SourceGraphic" in2="effect1_dropShadow" result="shape"/>
</filter>
</defs>
</svg>
