<svg width="141" height="182" viewBox="0 0 141 182" fill="none" xmlns="http://www.w3.org/2000/svg">
<g filter="url(#filter0_d)">
<g filter="url(#filter1_d)">
<path d="M70.6123 26.562C48.3304 26.562 30.3022 43.8072 30.3022 65.0582C30.3022 86.3092 70.6123 147.211 70.6123 147.211C70.6123 147.211 110.922 86.3092 110.922 65.0582C110.922 43.8072 92.8943 26.562 70.6123 26.562Z" fill="#F58021"/>
</g>
<path d="M56.6769 85.4852C56.408 84.1008 56.3213 82.7251 56.5641 81.3494C56.9457 79.164 58.0297 77.379 59.7728 76.0469C60.64 75.3851 61.6373 74.8975 62.5739 74.3229C63.1896 73.9485 63.8487 73.6176 64.3777 73.1474C65.7739 71.8849 67.1094 70.5615 68.4709 69.2641C69.2774 68.4979 70.0753 67.723 70.9338 66.8958C70.3528 66.8523 69.8324 66.8436 69.3208 66.7652C68.8091 66.6869 68.2975 66.5563 67.9246 66.0338C68.1067 66.0251 68.2368 66.0164 68.3669 66.0164C69.737 65.9729 70.4308 65.2763 70.4568 63.9442C70.4742 63.2999 70.3181 62.6468 70.2314 62.0025C69.8411 59.2772 70.5175 56.8219 72.1132 54.6103C72.2173 54.4623 72.33 54.3055 72.4601 54.1227C72.0178 54.0705 71.6189 54.053 71.2373 53.966C70.8644 53.8789 70.5175 53.7222 70.1533 53.6003C70.162 53.5567 70.1707 53.5132 70.1793 53.4784C70.4655 53.4174 70.7517 53.3652 71.0292 53.2955C73.0758 52.7557 74.5761 51.5628 75.4866 49.6125C75.8682 48.8027 76.3018 48.0104 76.7875 47.2616C77.646 45.9468 78.8688 45.111 80.3864 44.7105C80.5251 44.6756 80.6552 44.6321 80.8373 44.5798C80.5598 44.4144 80.291 44.3012 80.0915 44.1097C79.9181 43.9442 79.8314 43.6917 79.7533 43.4044C80.4731 43.6482 80.9847 43.3086 81.5051 43.0039C82.3896 42.4815 83.3089 42.0897 84.3669 42.1332C85.6677 42.1941 86.6563 42.8472 87.4801 43.8136C87.5929 43.9442 87.6969 44.0836 87.8097 44.2316C88.5121 43.7179 89.2146 43.8572 89.865 44.2925C90.2292 44.5363 90.5154 44.902 90.8623 45.1893C91.4173 45.6595 91.955 46.1732 92.5707 46.565C92.8742 46.7566 93.3165 46.7218 93.7674 46.8088C94.0623 47.6534 93.6113 48.2629 92.111 48.8463C92.484 49.4993 92.8568 50.1523 93.2297 50.8053C93.5073 51.2842 93.7241 51.7544 93.5593 52.3639C93.4899 52.6425 93.672 53.0517 93.8541 53.3217C94.3224 54.0008 94.8514 54.6364 95.3544 55.2894C95.6146 55.6377 95.8661 55.9947 96.1176 56.343C96.3604 56.6825 96.3604 57.0134 96.1089 57.3443C95.788 57.7535 95.5105 58.215 95.1203 58.5458C94.5392 59.0334 94.0623 59.5907 93.5766 60.174C92.9002 60.9925 91.9289 61.0273 91.1311 60.3134C90.9316 60.1305 90.7148 59.9303 90.5934 59.6952C90.3159 59.1379 89.839 58.9289 89.2926 58.7809C88.7723 58.6416 88.252 58.5197 87.749 58.3456C87.3327 58.1976 86.9425 57.9973 86.5436 57.8145C86.4742 58.0844 86.5002 58.3108 86.8471 58.5458C87.3501 58.8767 87.8877 59.1466 88.4427 59.3991C88.6856 59.5123 88.8243 59.6168 88.911 59.8867C89.2926 61.1492 89.7002 62.403 90.1165 63.6481C90.5241 64.8758 90.5587 66.1383 90.5154 67.4183C90.4634 68.8549 90.2292 70.2393 89.7956 71.5976C89.4834 72.5641 89.1365 73.191 88.6942 73.6263C88.3994 72.8514 88.1132 72.0852 87.8184 71.3277C87.775 71.3364 87.7316 71.3451 87.6883 71.3538C87.7577 72.12 87.801 72.8862 87.9051 73.6525C88.382 77.0133 89.1105 80.3307 90.0818 83.5871C90.2119 84.0051 90.446 84.4143 90.6975 84.7713C91.1658 85.433 91.8422 85.6594 92.6314 85.5897C93.5419 85.5114 94.0189 85.79 94.227 86.6781C94.3831 87.3572 94.3918 88.0712 94.4699 88.8026C91.8075 88.8026 89.2753 88.8026 86.6476 88.8026C86.5696 87.7926 86.5175 86.7826 86.3961 85.7813C86.3354 85.2414 86.2574 84.6755 86.0146 84.2053C85.4769 83.1779 84.8438 82.2114 84.2281 81.2275C83.3522 79.8344 82.459 78.45 81.5831 77.0743C79.8053 77.8144 77.9582 78.5893 76.059 79.3729C75.9983 79.8692 75.9289 80.4787 75.8595 81.0795C75.7642 81.9328 75.3479 82.5945 74.6628 83.0647C73.9083 83.5784 73.1105 84.0138 72.33 84.4839C72.1219 84.6145 71.9137 84.7539 71.7056 84.8845C71.723 84.9367 71.7316 84.9889 71.749 85.0412C72.0091 85.076 72.278 85.1457 72.5295 85.1283C73.5354 85.0586 74.5414 84.9628 75.556 84.8757C75.7988 84.8583 76.0417 84.8322 76.2932 84.8322C78.5739 84.8235 80.0222 86.4691 79.7533 88.8113C79.6146 88.82 79.4758 88.8287 79.3371 88.8287C71.9831 88.8287 64.6205 88.8374 57.2666 88.8287C56.5208 88.8287 55.749 88.7939 55.0292 88.611C54.4395 88.463 53.7891 88.1757 53.3641 87.749C51.6731 86.0599 50.7885 84.0399 51.5603 81.628C52.0373 80.1479 52.6964 78.7199 53.3295 77.292C53.7457 76.3516 54.214 75.4374 54.3788 74.4013C54.6736 72.5815 53.8845 70.9359 52.3408 70.1697C51.3435 69.6734 49.6872 70.4396 49.4617 71.5105C49.4357 71.6411 49.5051 71.8675 49.6005 71.9285C50.3549 72.4074 50.7105 73.1213 50.8752 73.9659C51.1007 75.1413 50.8752 76.9959 50.3983 77.9189C50.1555 77.5445 49.9126 77.1701 49.6698 76.7957C49.7999 78.3629 49.1755 79.5819 48.2216 80.6703C48.1696 80.6529 48.1262 80.6529 48.1175 80.6442C47.7533 79.6603 47.0769 78.9289 46.2964 78.2584C45.9148 77.9276 45.62 77.5009 45.2817 77.1091C45.1777 77.3094 45.0303 77.5967 44.8828 77.884C44.4406 77.5009 44.163 76.6999 44.2845 75.9163C44.4666 74.7669 44.9522 73.7918 46.1056 73.2955C46.2183 73.2432 46.3051 73.0691 46.3571 72.9298C46.9121 71.467 47.7446 70.2132 49.1148 69.4034C50.2248 68.7417 51.4563 68.4892 52.7397 68.6895C53.9365 68.8723 54.6823 69.656 55.1072 70.7617C55.7143 72.3377 55.6796 73.9659 55.3067 75.5593C55.0379 76.726 54.6129 77.8579 54.162 78.9724C53.7717 79.9563 53.3468 80.9228 53.2254 81.9937C53.0173 84.0486 54.5435 85.642 56.6769 85.4852Z" fill="#20113D"/>
</g>
<defs>
<filter id="filter0_d" x="-9" y="-8" width="160" height="204" filterUnits="userSpaceOnUse" color-interpolation-filters="sRGB">
<feFlood flood-opacity="0" result="BackgroundImageFix"/>
<!-- <feColorMatrix in="SourceAlpha" type="matrix" values="0 0 0 0 0 0 0 0 0 0 0 0 0 0 0 0 0 0 127 0"/> -->
<feOffset dy="4"/>
<feGaussianBlur stdDeviation="15"/>
<feColorMatrix type="matrix" values="0 0 0 0 0.960784 0 0 0 0 0.501961 0 0 0 0 0.129412 0 0 0 0.7 0"/>
<feBlend mode="normal" in2="BackgroundImageFix" result="effect1_dropShadow"/>
<feBlend mode="normal" in="SourceGraphic" in2="effect1_dropShadow" result="shape"/>
</filter>
<filter id="filter1_d" x="10.3022" y="10.562" width="120.62" height="160.649" filterUnits="userSpaceOnUse" color-interpolation-filters="sRGB">
<feFlood flood-opacity="0" result="BackgroundImageFix"/>
<feColorMatrix in="SourceAlpha" type="matrix" values="0 0 0 0 0 0 0 0 0 0 0 0 0 0 0 0 0 0 127 0"/>
<feOffset dy="4"/>
<feGaussianBlur stdDeviation="10"/>
<feColorMatrix type="matrix" values="0 0 0 0 0.12549 0 0 0 0 0.0666667 0 0 0 0 0.239216 0 0 0 1 0"/>
<feBlend mode="normal" in2="BackgroundImageFix" result="effect1_dropShadow"/>
<feBlend mode="normal" in="SourceGraphic" in2="effect1_dropShadow" result="shape"/>
</filter>
</defs>
</svg>
