<svg width="160" height="202" viewBox="0 0 160 202" fill="none" xmlns="http://www.w3.org/2000/svg">
<g filter="url(#filter0_d)">
<path d="M79.6123 34.4434C57.3304 34.4434 39.3022 51.4491 39.3022 72.4049C39.3022 93.3608 79.6123 153.416 79.6123 153.416C79.6123 153.416 119.922 93.3608 119.922 72.4049C119.922 51.4491 101.894 34.4434 79.6123 34.4434Z" fill="white"/>
<path fill-rule="evenodd" clip-rule="evenodd" d="M78.9437 49.6744C79.8064 49.6259 80.6291 49.8037 81.4758 50.1027C81.4478 50.1829 81.4219 50.2617 81.3964 50.3391L81.3964 50.3391C81.3346 50.527 81.2754 50.7068 81.1962 50.8785C80.9526 51.4078 80.705 51.9371 80.4574 52.4664C80.2098 52.9957 79.9621 53.525 79.7185 54.0543L79.7178 54.0558L79.7178 54.0558C79.5865 54.3416 79.5226 54.4806 79.415 54.5391C79.3131 54.5945 79.172 54.5777 78.8972 54.545L78.8479 54.5391C78.5683 54.5068 78.4006 54.3856 78.3606 54.1108C78.3437 53.995 78.3222 53.8786 78.3007 53.7621C78.2413 53.4397 78.1816 53.1164 78.2168 52.8017C78.305 52.0243 78.4478 51.252 78.5904 50.4807C78.6287 50.2738 78.6669 50.0671 78.7041 49.8603C78.7201 49.7876 78.8559 49.6825 78.9437 49.6744ZM73.0327 51.4994C73.2107 51.7656 73.3864 52.0298 73.5608 52.2922C74.0904 53.0891 74.6086 53.8688 75.1494 54.6347C75.3491 54.9257 75.6207 55.1842 76.06 55.0065C76.731 54.7479 76.8987 54.5701 76.699 53.859C76.4601 52.9946 76.6084 52.1635 76.7572 51.3294L76.7572 51.3293C76.7726 51.2432 76.7879 51.1572 76.8028 51.0711C76.8588 50.764 76.8508 50.4246 76.7789 50.1175C76.7469 49.9721 76.4594 49.7539 76.3475 49.7781C75.1254 50.0852 74.0551 50.6913 73.0327 51.4994ZM70.4218 58.4561C70.9814 58.8695 71.5426 59.284 72.1138 59.7036C71.9221 60.6329 71.4269 61.1582 70.4604 61.2632C69.1265 61.4006 68.0002 60.8511 66.9858 60.0269C66.9298 59.9784 66.9059 59.8006 66.9458 59.7198C67.0049 59.5869 67.0636 59.4538 67.1224 59.3206L67.1224 59.3205L67.1224 59.3205L67.1226 59.3201L67.1228 59.3196L67.123 59.3192L67.1234 59.3183C67.3825 58.7312 67.6421 58.1427 67.9283 57.5703C68.0051 57.4093 68.1309 57.275 68.2514 57.1465C68.3063 57.0879 68.3601 57.0305 68.4076 56.9723C69.0855 57.4691 69.7516 57.9611 70.42 58.4548L70.4215 58.4559L70.4218 58.4561ZM70.7803 63.3964C69.2706 63.0166 67.8089 62.6449 66.2353 62.2409C66.2016 62.4284 66.1639 62.622 66.1255 62.8198L66.1255 62.8198L66.1254 62.8199L66.1254 62.82C66.0545 63.1846 65.9807 63.5636 65.9238 63.9459C65.8691 64.3081 65.833 64.6734 65.7962 65.0457L65.7962 65.0458L65.7961 65.0458L65.7961 65.0458L65.7961 65.0459L65.7961 65.0459L65.7961 65.046V65.046C65.7738 65.2717 65.7512 65.5 65.7241 65.7318C66.9861 66.3702 68.2801 66.548 69.5582 65.8045C70.4688 65.2874 70.8282 64.4308 70.7803 63.3964ZM65.78 67.6785C65.5404 68.9553 65.7321 70.1594 66.1794 71.3311C66.2194 71.4281 66.3232 71.5331 66.4191 71.5654C68.3041 72.2038 70.4289 70.927 70.7244 69.2058C70.7643 68.9715 70.7803 68.721 70.7643 68.4866C70.6685 67.4604 70.4768 67.3149 69.4863 67.4604L69.201 67.5022C68.5212 67.6024 67.8406 67.7026 67.1539 67.7593C66.8523 67.7815 66.5431 67.7504 66.2238 67.7182C66.0781 67.7036 65.9302 67.6887 65.78 67.6785ZM71.1476 75.2585C71.7866 73.8848 71.587 72.8989 70.5086 72.0423C69.3903 72.8989 68.0963 73.2141 66.7065 73.2625C66.6106 73.2625 66.4509 73.3999 66.4269 73.505C66.2113 74.5312 66.5148 75.4444 67.0819 76.2848C67.1273 76.3511 67.2142 76.3853 67.3122 76.4238C67.3694 76.4463 67.4304 76.4702 67.4893 76.503C67.4616 76.5216 67.4346 76.5403 67.4079 76.5588C67.342 76.6043 67.2779 76.6486 67.2097 76.6888C65.756 77.5696 64.5818 78.7252 63.8869 80.301C62.9763 82.3778 62.6488 84.5192 63.4715 86.7253C63.6196 87.1218 63.7558 87.5256 63.8918 87.9287L63.8919 87.929L63.8921 87.9298C64.0054 88.2656 64.1186 88.601 64.2383 88.9314C64.6377 90.0465 64.6696 91.194 64.3501 92.3092C63.4076 95.5658 64.2942 98.5557 65.5483 101.505C65.6583 101.752 65.838 101.975 66.0112 102.19L66.0196 102.2C66.2592 102.499 66.5707 102.596 66.9461 102.467C67.3215 102.329 67.5931 102.079 67.5772 101.683C67.5612 101.174 67.4973 100.665 67.3775 100.172C67.2856 99.78 67.1738 99.3921 67.0619 99.0042C66.9501 98.6163 66.8383 98.2284 66.7464 97.8365C66.4908 96.7294 66.8183 95.8163 67.7129 95.1294C67.7512 95.101 67.7887 95.0718 67.8259 95.0428C67.905 94.981 67.9829 94.9203 68.0644 94.8708C69.4143 94.087 70.245 92.8587 70.932 91.493C71.1238 91.1049 71.372 90.7434 71.6199 90.3824C71.7333 90.2173 71.8466 90.0523 71.9544 89.8849L72.0502 89.9334C72.0982 90.1597 72.1471 90.3859 72.196 90.6122L72.196 90.6123C72.3428 91.2911 72.4896 91.9698 72.6094 92.6486C73.1445 95.5981 74.8699 97.8204 76.8668 99.8891C77.0637 100.096 77.3228 100.248 77.5675 100.392L77.5675 100.392L77.5777 100.398C77.9132 100.6 78.2566 100.6 78.5761 100.334C78.9036 100.059 79.0234 99.7113 78.8797 99.3234C78.7359 98.9517 78.5522 98.588 78.3285 98.2567C78.0967 97.9179 77.8464 97.5931 77.5962 97.2686L77.5962 97.2685L77.5962 97.2685L77.5962 97.2685L77.5961 97.2685L77.5961 97.2684L77.5961 97.2684L77.5961 97.2684L77.5961 97.2684L77.5961 97.2684L77.596 97.2683L77.596 97.2683L77.596 97.2683L77.596 97.2683L77.596 97.2682L77.596 97.2682L77.5959 97.2682L77.5959 97.2681C77.3807 96.989 77.1657 96.71 76.9626 96.4224C76.0121 95.0809 75.9722 94.1355 76.9067 92.794C77.6496 91.7193 78.1608 90.5476 78.6161 89.2789C78.7431 89.3386 78.868 89.394 78.9903 89.4482L78.9905 89.4483C79.1987 89.5406 79.3994 89.6296 79.5906 89.7314C81.5555 90.8142 82.7617 92.5193 83.4806 94.6122C83.7725 95.447 84.0242 96.2971 84.2755 97.1463L84.2755 97.1463L84.2755 97.1464C84.3405 97.3658 84.4054 97.5852 84.471 97.8042C84.7027 98.5799 85.0781 99.2668 85.5893 99.881C85.7843 100.114 85.979 100.346 86.1737 100.579L86.1741 100.58C87.0878 101.672 87.9998 102.762 88.9281 103.841C89.1917 104.148 89.5112 104.439 89.8547 104.657C90.4777 105.053 91.0848 104.932 91.6599 104.374C92.0753 103.97 92.1472 103.469 91.7717 102.83C91.5564 102.463 91.2786 102.13 91.0054 101.802L91.005 101.801L91.0046 101.801C90.9538 101.74 90.9032 101.679 90.8532 101.618C90.6934 101.424 90.5097 101.239 90.318 101.077C88.6965 99.6789 88.2971 97.8284 88.369 95.8001C88.3806 95.4596 88.4217 95.119 88.4617 94.7877L88.4618 94.7877C88.4768 94.6631 88.4917 94.5398 88.5048 94.4183C88.7551 94.3699 89.0025 94.3215 89.2444 94.2742L89.2448 94.2742L89.2488 94.2734C89.6924 94.1866 90.1177 94.1035 90.5097 94.0304C90.6586 94.3624 90.798 94.7017 90.9376 95.0416C91.2398 95.7772 91.5432 96.5157 91.9475 97.19C92.5421 98.184 93.2467 99.1092 93.951 100.034L93.951 100.034C94.117 100.252 94.283 100.47 94.4476 100.689C94.7272 101.061 95.1026 101.36 95.6138 101.239C95.8854 101.174 96.0931 100.43 95.9573 99.9052C95.8295 99.4123 95.6777 98.9113 95.4301 98.4749C94.3278 96.5112 93.9044 94.3536 93.6089 92.1637C93.4571 91.0486 92.8021 90.5476 91.6998 90.7657C89.639 91.1779 87.5702 91.3799 85.4695 91.194C85.3257 91.1779 85.182 91.1455 85.0382 91.1132L85.0381 91.1132C83.5524 90.7577 82.9614 89.3677 83.7282 88.0182C83.7521 87.9697 83.7761 87.9213 83.816 87.8809C84.5302 87.1524 84.9172 86.2476 85.3059 85.339L85.3059 85.3389L85.3059 85.3389L85.306 85.3388L85.306 85.3388L85.306 85.3387L85.306 85.3387L85.306 85.3387L85.306 85.3386L85.3061 85.3386L85.3061 85.3386L85.3061 85.3385L85.3061 85.3385L85.3061 85.3385L85.3061 85.3384L85.3062 85.3384L85.3062 85.3384L85.3062 85.3383C85.4435 85.0174 85.5809 84.696 85.7331 84.3818C86.0366 83.7677 86.6117 83.2505 87.1629 82.798C87.8418 82.2485 88.6725 81.9737 89.5272 81.7879C89.647 81.7636 89.8228 81.6505 89.8467 81.5535C89.8707 81.4404 89.7748 81.2303 89.679 81.1818C89.618 81.1527 89.5566 81.1227 89.495 81.0926C89.1287 80.9138 88.7507 80.7292 88.361 80.6808C87.722 80.6 87.059 80.6161 86.412 80.6808C85.6931 80.7535 85.0541 80.5273 84.4551 80.2363C83.816 79.9293 83.209 79.5091 82.6339 79.0889C81.0603 77.9333 79.4708 76.81 77.6655 76.0424C75.7325 75.21 73.7276 74.9353 71.6509 75.2424C71.4991 75.2262 71.3313 75.2343 71.1476 75.2585ZM79.9102 73.6986C79.2712 74.1026 78.5763 74.2804 77.8255 74.2804C77.1066 74.2561 76.4196 74.1107 75.8365 73.6582C75.1895 73.1652 74.9419 72.438 75.3173 71.7349C75.557 71.2925 75.8909 70.9046 76.2249 70.5167C76.3363 70.3874 76.4476 70.2581 76.5554 70.1268C76.6113 70.0622 76.7471 70.0379 76.843 70.046C78.5763 70.2157 79.9182 71.4198 80.2297 72.939C80.3096 73.3107 80.2058 73.5127 79.9102 73.6986ZM71.2356 52.9152C72.1462 53.6101 73.4243 55.194 74.2949 56.6889L74.2051 56.804L74.205 56.8041L74.2049 56.8042C73.9989 57.0677 73.8044 57.3166 73.616 57.5778C73.4482 57.8122 73.2485 57.8688 72.961 57.7799C71.4833 57.3031 70.4688 56.2364 69.3985 55.0889C70.0215 54.3536 70.6286 53.6344 71.2356 52.9152ZM83.696 57.877C84.3542 57.3034 85.1559 57.2032 85.9624 57.1023C86.1445 57.0796 86.3268 57.0568 86.5077 57.0285C86.923 56.9639 87.3384 56.8427 87.7378 56.7134C87.8257 56.681 87.9535 56.5194 87.9375 56.4386C87.8177 55.6386 87.57 54.8871 86.9071 54.3699C86.7952 54.281 86.6115 54.2244 86.4837 54.2406C85.5092 54.3941 84.6066 54.7335 83.7999 55.3073C83.704 55.38 83.6082 55.4527 83.5203 55.5336C82.6896 56.3093 82.7455 57.1901 83.696 57.877ZM84.0079 71.1369C83.2011 69.6823 79.6865 68.2924 78.7759 69.0763C78.7759 69.1005 78.7759 69.1409 78.7919 69.149C79.8782 70.1025 80.661 71.3066 81.4199 72.5268C81.6036 72.8258 81.7873 72.8419 82.0748 72.745C82.7458 72.5187 83.5126 71.8884 84.0079 71.1369ZM89.3754 86.8225C89.2556 87.4447 89.008 87.6305 88.3689 87.6467C88.2567 87.6256 88.1444 87.6088 88.0327 87.592C87.8026 87.5576 87.575 87.5235 87.3545 87.4528C86.6356 87.2346 86.3241 86.7255 86.4599 85.974C86.5078 85.6992 86.6117 85.4325 86.7315 85.182C87.1628 84.3012 87.8737 83.679 88.6884 83.178C88.968 83.0083 89.3035 82.9032 89.623 82.8467C89.7707 82.8179 89.9345 82.8587 90.0973 82.8991L90.0973 82.8991C90.1634 82.9156 90.2294 82.932 90.294 82.9436C90.2804 83.0029 90.2701 83.0655 90.2597 83.1283C90.2333 83.2881 90.2065 83.4499 90.1262 83.5659C89.6629 84.2366 89.5272 84.9881 89.4872 85.78C89.4712 86.1275 89.4393 86.4831 89.3754 86.8225ZM87.6777 85.6842C87.4262 85.7811 87.2364 86.0348 87.2427 86.3134C87.2507 86.677 87.5542 86.9679 87.9136 86.9598C87.9903 86.9581 88.0631 86.9433 88.1302 86.9175C88.0629 86.943 87.99 86.9577 87.9138 86.9594C87.5544 86.9675 87.2509 86.6766 87.2429 86.3129C87.2429 86.0348 87.4286 85.7814 87.6777 85.6842ZM84.8631 60.1999L84.8636 60.1999L84.8637 60.1999L84.8638 60.1999C86.0803 60.3013 87.2725 60.4007 88.4647 60.5103C88.8161 60.5426 88.928 60.4053 88.9599 60.0739C89.0238 59.3628 88.7842 58.8052 88.1931 58.4174C87.1946 57.7709 85.4134 57.884 84.5028 58.6598C84.0395 59.0477 83.8398 59.5406 83.9357 60.1224C84.2466 60.1485 84.5557 60.1743 84.8631 60.1999ZM83.2168 50.8226C84.1753 51.3478 85.0859 51.8812 85.7249 52.7943C84.2552 53.6671 82.8334 54.5155 81.4116 55.3721C81.148 54.9519 81.116 54.6691 81.3077 54.0792C81.6722 52.943 82.3621 51.996 83.0615 51.0359L83.0618 51.0355L83.0622 51.035L83.0627 51.0343L83.0637 51.033L83.2168 50.8226ZM81.0446 67.6065C82.0409 67.9492 82.8415 68.5684 83.6575 69.1997C84.15 69.5806 84.648 69.9659 85.1981 70.2974C85.2734 70.1774 85.3484 70.0585 85.4229 69.9402C85.72 69.4689 86.0099 69.009 86.2845 68.5438C86.3244 68.4792 86.3004 68.2933 86.2365 68.2448C85.1981 67.4206 84.0799 66.758 82.714 66.6933C82.035 66.6772 81.428 66.8549 81.0446 67.6065ZM88.6407 62.2424C88.6247 62.9044 88.6084 63.5824 88.1854 64.1395C88.0194 64.0842 87.8552 64.0284 87.6921 63.9729L87.692 63.9729C87.2588 63.8255 86.8336 63.6809 86.4042 63.5577C85.6454 63.3556 84.8865 63.1698 84.1197 63.0001C83.8322 62.9354 83.7683 62.79 83.8082 62.5152C83.9121 61.7556 84.4312 61.2869 85.3099 61.2546C86.4362 61.2061 87.4745 61.5859 88.489 62.0384C88.5609 62.0708 88.6407 62.1758 88.6407 62.2405L88.6407 62.2424ZM85.3559 87.4067L85.3557 87.407L85.3555 87.4072C85.198 87.5986 85.0531 87.7746 84.9104 87.9529C84.8614 88.0143 84.8104 88.0743 84.7595 88.1341L84.7595 88.1342C84.6361 88.2792 84.5137 88.4231 84.4232 88.5833C84.1277 89.1004 84.2714 89.6661 84.8146 89.9004C85.2459 90.0863 85.7252 90.2075 86.1885 90.256C87.4266 90.3934 88.6487 90.2722 89.8468 89.9085C89.7669 89.3429 89.5113 89.0843 88.9522 89.0277C88.6731 89.0025 88.3909 88.993 88.1094 88.9836C87.9398 88.9779 87.7705 88.9722 87.6023 88.9631C86.516 88.8984 86.3402 88.7287 86.1246 87.662C86.0871 87.4832 86.0137 87.308 85.9356 87.1218C85.8973 87.0304 85.8579 86.9363 85.821 86.8378C85.6506 87.0486 85.4981 87.2339 85.3559 87.4067ZM86.8276 67.0805C85.5496 66.4098 84.2476 65.828 82.8018 65.5371C83.0095 64.5027 83.6884 64.0421 84.7588 64.1795C85.8371 64.3088 86.7956 64.7613 87.6743 65.3835C87.7621 65.4482 87.874 65.5936 87.85 65.6583C87.6743 66.1108 87.4906 66.5714 87.2589 66.9997C87.211 67.0805 86.9314 67.1371 86.8276 67.0805ZM90.3338 85.1247C90.3338 85.9651 90.4696 86.1025 91.1086 85.9813C91.3722 85.9328 91.6518 85.8196 91.8674 85.658C92.6982 85.0358 92.9298 83.5328 92.3547 82.7004C92.2189 82.5065 92.0991 82.4257 91.8754 82.5873C90.9489 83.2742 90.3737 84.1388 90.3338 85.1247Z" fill="#20113D"/>
<g filter="url(#filter1_d)">
<path d="M80.0001 28.3027C53.6474 28.3027 32.3257 47.9416 32.3257 72.1422C32.3257 96.3428 80.0001 165.697 80.0001 165.697C80.0001 165.697 127.675 96.3428 127.675 72.1422C127.675 47.9416 106.353 28.3027 80.0001 28.3027Z" stroke="white" stroke-width="3" stroke-miterlimit="10" stroke-linejoin="round"/>
</g>
</g>
<defs>
<filter id="filter0_d" x="0" y="0" width="160" height="202" filterUnits="userSpaceOnUse" color-interpolation-filters="sRGB">
<feFlood flood-opacity="0" result="BackgroundImageFix"/>
<!-- <feColorMatrix in="SourceAlpha" type="matrix" values="0 0 0 0 0 0 0 0 0 0 0 0 0 0 0 0 0 0 127 0"/> -->
<feOffset dy="4"/>
<feGaussianBlur stdDeviation="15"/>
<feColorMatrix type="matrix" values="0 0 0 0 1 0 0 0 0 1 0 0 0 0 1 0 0 0 0.5 0"/>
<feBlend mode="normal" in2="BackgroundImageFix" result="effect1_dropShadow"/>
<feBlend mode="normal" in="SourceGraphic" in2="effect1_dropShadow" result="shape"/>
</filter>
<filter id="filter1_d" x="0.825684" y="0.802734" width="158.349" height="200.395" filterUnits="userSpaceOnUse" color-interpolation-filters="sRGB">
<feFlood flood-opacity="0" result="BackgroundImageFix"/>
<feColorMatrix in="SourceAlpha" type="matrix" values="0 0 0 0 0 0 0 0 0 0 0 0 0 0 0 0 0 0 127 0"/>
<feOffset dy="4"/>
<feGaussianBlur stdDeviation="15"/>
<feColorMatrix type="matrix" values="0 0 0 0 0 0 0 0 0 0 0 0 0 0 0 0 0 0 0.5 0"/>
<feBlend mode="normal" in2="BackgroundImageFix" result="effect1_dropShadow"/>
<feBlend mode="normal" in="SourceGraphic" in2="effect1_dropShadow" result="shape"/>
</filter>
</defs>
</svg>
