<svg
class="arrow"
width="26"
height="22"
viewbox="0 0 26 22"
fill="none"
xmlns="http://www.w3.org/2000/svg"
>
<path
fill-rule="evenodd"
clip-rule="evenodd"
d="M14.0687 0.119971C13.8866 0.199174 13.7211 0.315255 13.5818 0.461565C13.4422 0.607505 13.3314 0.780876 13.2558 0.971748C13.1803 1.16262 13.1414 1.36724 13.1414 1.57389C13.1414 1.78055 13.1803 1.98517 13.2558 2.17604C13.3314 2.36691 13.4422 2.54028 13.5818 2.68622L19.6095 9H2.45889C2.03454 9 1.62757 9.21071 1.32752 9.58579C1.02746 9.96086 0.858887 10.4696 0.858887 11C0.858887 11.5304 1.02746 12.0391 1.32752 12.4142C1.62757 12.7893 2.03454 13 2.45889 13H19.6103L13.5818 19.3146C13.3003 19.6096 13.1421 20.0097 13.1421 20.4269C13.1421 20.8441 13.3003 21.2443 13.5818 21.5393C13.8634 21.8343 14.2452 22 14.6434 22C15.0415 22 15.4234 21.8343 15.7049 21.5393L24.7009 12.1127C24.8405 11.9668 24.9513 11.7934 25.0269 11.6026C25.1024 11.4117 25.1414 11.2071 25.1414 11.0004C25.1414 10.7938 25.1024 10.5891 25.0269 10.3983C24.9513 10.2074 24.8405 10.034 24.7009 9.88808L15.7049 0.461565C15.5656 0.315255 15.4002 0.199174 15.218 0.119971C15.0359 0.0407677 14.8406 0 14.6434 0C14.4461 0 14.2509 0.0407677 14.0687 0.119971Z"
fill="white"
/>
</svg>